<svg version="1.1" xmlns="http://www.w3.org/2000/svg" viewBox="0 0 411.14410400390625 396.9169158935547" width="822.2882080078125" height="793.8338317871094">
  <!-- svg-source:excalidraw -->
  
  <defs>
    <style class="style-fonts">
      @font-face {
        font-family: "Virgil";
        src: url("https://excalidraw.com/Virgil.woff2");
      }
      @font-face {
        font-family: "Cascadia";
        src: url("https://excalidraw.com/Cascadia.woff2");
      }
      @font-face {
        font-family: "Assistant";
        src: url("https://excalidraw.com/Assistant-Regular.woff2");
      }
    </style>
    
  </defs>
  <rect x="0" y="0" width="411.14410400390625" height="396.9169158935547" fill="#ffffff"></rect><g stroke-linecap="round" transform="translate(108.33883666992188 10) rotate(0 35.872467041015625 33.63685607910156)"><path d="M41.77 0.44 C48.27 1, 56.39 5.05, 61.16 9.66 C65.94 14.28, 69.25 21.61, 70.4 28.12 C71.56 34.64, 71.05 42.94, 68.1 48.75 C65.15 54.56, 58.98 59.97, 52.71 62.97 C46.44 65.98, 37.5 67.8, 30.48 66.76 C23.46 65.73, 15.6 61.6, 10.57 56.77 C5.55 51.94, 1.45 44.35, 0.36 37.78 C-0.74 31.21, 0.81 22.96, 4 17.36 C7.19 11.76, 12.55 6.8, 19.51 4.16 C26.46 1.53, 40.94 1.93, 45.73 1.56 C50.52 1.2, 48.47 1.58, 48.23 1.98 M35.56 0.33 C42.24 -0.47, 49.5 1.89, 55.38 5.37 C61.26 8.85, 68.55 15, 70.82 21.21 C73.08 27.42, 71.14 36.05, 68.99 42.65 C66.83 49.26, 63.04 56.54, 57.88 60.84 C52.73 65.15, 45.06 68.11, 38.08 68.47 C31.1 68.83, 21.94 67.09, 16 63.02 C10.06 58.95, 5.02 50.37, 2.43 44.04 C-0.17 37.72, -1.48 31.34, 0.44 25.07 C2.36 18.8, 8.1 10.61, 13.96 6.42 C19.81 2.23, 32.14 1.03, 35.59 -0.09 C39.04 -1.22, 34.77 -0.77, 34.65 -0.33" stroke="#1e1e1e" stroke-width="2" fill="none"></path></g><g transform="translate(128.7733733833444 27.752007047772906) rotate(0 15.572265625 16.099999999999994)"><text x="15.572265625" y="0" font-family="Helvetica, Segoe UI Emoji" font-size="28px" fill="#1e1e1e" text-anchor="middle" style="white-space: pre;" direction="ltr" dominant-baseline="text-before-edge">42</text></g><g stroke-linecap="round" transform="translate(10 172.87030029296875) rotate(0 35.872467041015625 33.63685607910156)"><path d="M43.38 0.6 C49.97 1.54, 58.02 6.7, 62.6 11.74 C67.18 16.77, 70.23 24.31, 70.86 30.81 C71.49 37.3, 70.05 44.9, 66.36 50.7 C62.67 56.51, 55.33 62.9, 48.7 65.63 C42.07 68.37, 33.22 68.73, 26.57 67.13 C19.92 65.53, 13.3 61.26, 8.79 56.04 C4.28 50.81, 0.15 42.32, -0.49 35.78 C-1.12 29.25, 1.11 22.31, 4.98 16.82 C8.84 11.34, 15.33 5.4, 22.71 2.87 C30.09 0.35, 43.87 1.23, 49.25 1.67 C54.63 2.1, 55.23 4.91, 54.98 5.48 M43.17 0.85 C49.71 1.68, 57.21 5.43, 62.14 10.38 C67.06 15.33, 72.09 23.7, 72.7 30.53 C73.3 37.36, 69.85 45.48, 65.77 51.36 C61.7 57.25, 54.42 63.4, 48.24 65.83 C42.07 68.27, 35.23 67.85, 28.71 65.97 C22.2 64.09, 13.74 59.63, 9.14 54.57 C4.54 49.5, 1.77 41.96, 1.11 35.58 C0.45 29.2, 1.51 21.61, 5.18 16.3 C8.85 10.98, 16.7 6.04, 23.14 3.7 C29.59 1.35, 40.51 2.71, 43.84 2.23 C47.16 1.76, 43.38 0.61, 43.09 0.85" stroke="#1e1e1e" stroke-width="2" fill="none"></path></g><g transform="translate(38.22066952592252 190.6223073407416) rotate(0 7.7861328125 16.099999999999994)"><text x="7.7861328125" y="0" font-family="Helvetica, Segoe UI Emoji" font-size="28px" fill="#1e1e1e" text-anchor="middle" style="white-space: pre;" direction="ltr" dominant-baseline="text-before-edge">3</text></g><g stroke-linecap="round" transform="translate(230.1295166015625 172.87030029296875) rotate(0 35.872467041015625 33.63685607910156)"><path d="M25.75 1.92 C32.26 -0.19, 42.39 0.66, 49 2.82 C55.61 4.99, 61.67 9.32, 65.4 14.89 C69.13 20.46, 71.57 29.52, 71.38 36.24 C71.19 42.95, 68.72 50.35, 64.26 55.18 C59.8 60, 51.4 63.59, 44.6 65.2 C37.8 66.81, 30.03 67.14, 23.45 64.83 C16.88 62.51, 8.97 56.87, 5.15 51.3 C1.33 45.73, 0.07 38.03, 0.52 31.43 C0.98 24.83, 2.89 17, 7.88 11.71 C12.86 6.43, 26.16 1.43, 30.42 -0.28 C34.68 -2, 33.39 0.82, 33.44 1.41 M39.08 -0.32 C46.09 -0.77, 53.66 2.53, 59.08 6.64 C64.49 10.75, 69.86 17.77, 71.55 24.34 C73.25 30.9, 71.76 39.57, 69.22 46.03 C66.68 52.48, 62.27 59.29, 56.32 63.04 C50.36 66.79, 40.82 69.21, 33.48 68.53 C26.13 67.85, 17.82 63.44, 12.23 58.97 C6.63 54.49, 1.75 48.02, -0.09 41.68 C-1.92 35.34, -1.54 27.03, 1.22 20.93 C3.99 14.83, 10.46 8.6, 16.49 5.06 C22.53 1.52, 33.93 0.16, 37.42 -0.32 C40.92 -0.8, 37.34 1.51, 37.46 2.18" stroke="#1e1e1e" stroke-width="2" fill="none"></path></g><g transform="translate(253.68807675248502 190.6223073407416) rotate(0 12.4482421875 16.099999999999994)"><text x="12.4482421875" y="0" font-family="Helvetica, Segoe UI Emoji" font-size="28px" fill="#1e1e1e" text-anchor="middle" style="white-space: pre;" direction="ltr" dominant-baseline="text-before-edge">-9</text></g><g stroke-linecap="round"><g transform="translate(117.24002075195312 75.69720458984375) rotate(0 -29.413543701171875 47.80162048339844)"><path d="M0.33 1.14 C-9.59 17.2, -49.31 80.05, -59.12 95.63 M-0.95 0.69 C-11.09 17.03, -50.53 81.39, -60.22 97.19" stroke="#1e1e1e" stroke-width="2" fill="none"></path></g><g transform="translate(117.24002075195312 75.69720458984375) rotate(0 -29.413543701171875 47.80162048339844)"><path d="M-54.23 67.79 C-54.52 77.14, -58.36 88.01, -60.22 97.19 M-54.23 67.79 C-55.21 73.53, -57.54 81.13, -60.22 97.19" stroke="#1e1e1e" stroke-width="2" fill="none"></path></g><g transform="translate(117.24002075195312 75.69720458984375) rotate(0 -29.413543701171875 47.80162048339844)"><path d="M-36.73 78.51 C-42.8 84.33, -52.48 91.62, -60.22 97.19 M-36.73 78.51 C-41.53 82.01, -47.7 87.25, -60.22 97.19" stroke="#1e1e1e" stroke-width="2" fill="none"></path></g></g><mask></mask><g stroke-linecap="round"><g transform="translate(170.18899536132812 70.9302978515625) rotate(0 36.74688720703125 53.28985595703125)"><path d="M-0.47 -0.87 C12.06 17.03, 62.07 89.56, 74.57 107.5 M1.49 1.28 C14.01 18.86, 62.04 88.05, 74.18 105.86" stroke="#1e1e1e" stroke-width="2" fill="none"></path></g><g transform="translate(170.18899536132812 70.9302978515625) rotate(0 36.74688720703125 53.28985595703125)"><path d="M49.74 88.47 C54.38 94.69, 63.46 98.97, 74.18 105.86 M49.74 88.47 C57.95 94.18, 64.69 99.4, 74.18 105.86" stroke="#1e1e1e" stroke-width="2" fill="none"></path></g><g transform="translate(170.18899536132812 70.9302978515625) rotate(0 36.74688720703125 53.28985595703125)"><path d="M66.63 76.82 C67.07 85.88, 71.94 93.07, 74.18 105.86 M66.63 76.82 C69.67 86.17, 71.13 95.03, 74.18 105.86" stroke="#1e1e1e" stroke-width="2" fill="none"></path></g></g><mask></mask><g stroke-linecap="round" transform="translate(329.399169921875 319.64320373535156) rotate(0 35.872467041015625 33.63685607910156)"><path d="M49.36 3.03 C55.77 4.72, 61.87 9.23, 65.72 14.81 C69.58 20.39, 72.8 29.82, 72.48 36.49 C72.15 43.16, 68.4 49.91, 63.78 54.84 C59.15 59.77, 51.66 64.36, 44.74 66.08 C37.83 67.8, 28.85 67.69, 22.3 65.15 C15.76 62.61, 9.16 56.36, 5.46 50.81 C1.76 45.27, -0.24 38.23, 0.11 31.89 C0.47 25.56, 2.96 17.94, 7.59 12.8 C12.23 7.67, 20.21 2.6, 27.92 1.08 C35.63 -0.43, 49.08 2.81, 53.86 3.73 C58.63 4.66, 56.9 6.04, 56.56 6.62 M42.24 -0.87 C49.21 -0.14, 56.95 6.07, 62 11.08 C67.05 16.1, 71.53 22.63, 72.55 29.19 C73.57 35.75, 71.53 44.66, 68.14 50.45 C64.75 56.24, 58.81 61.11, 52.22 63.94 C45.63 66.76, 35.57 68.49, 28.57 67.41 C21.58 66.33, 15.17 62.45, 10.24 57.44 C5.3 52.44, 0.24 43.79, -1.03 37.4 C-2.29 31.01, -0.77 24.73, 2.64 19.1 C6.05 13.47, 13.11 6.91, 19.44 3.64 C25.78 0.36, 36.74 -0.08, 40.66 -0.57 C44.57 -1.07, 42.82 -0.07, 42.93 0.68" stroke="#1e1e1e" stroke-width="2" fill="none"></path></g><g transform="translate(349.8337066352975 337.3952107831244) rotate(0 15.572265625 16.100000000000023)"><text x="15.572265625" y="0" font-family="Helvetica, Segoe UI Emoji" font-size="28px" fill="#1e1e1e" text-anchor="middle" style="white-space: pre;" direction="ltr" dominant-baseline="text-before-edge">18</text></g><g stroke-linecap="round"><g transform="translate(287.4204535656563 239.09313923692025) rotate(0 29.69314645634836 42.103040690393755)"><path d="M0.15 1.07 C10.15 15.12, 48.95 70.68, 58.91 84.7 M-1.23 0.59 C8.66 14.24, 47.6 69.04, 57.71 82.83" stroke="#1e1e1e" stroke-width="2" fill="none"></path></g><g transform="translate(287.4204535656563 239.09313923692025) rotate(0 29.69314645634836 42.103040690393755)"><path d="M32.9 65.95 C39.96 68.67, 44.2 73.88, 57.71 82.83 M32.9 65.95 C41.63 72.84, 50.74 78.63, 57.71 82.83" stroke="#1e1e1e" stroke-width="2" fill="none"></path></g><g transform="translate(287.4204535656563 239.09313923692025) rotate(0 29.69314645634836 42.103040690393755)"><path d="M49.55 53.96 C53.15 59.21, 53.89 66.95, 57.71 82.83 M49.55 53.96 C51.86 65.52, 54.64 75.87, 57.71 82.83" stroke="#1e1e1e" stroke-width="2" fill="none"></path></g></g><mask></mask><g stroke-linecap="round" transform="translate(145.3480224609375 319.64320373535156) rotate(0 35.872467041015625 33.63685607910156)"><path d="M34.2 -0.44 C40.83 -1.25, 50.94 1.39, 56.67 5 C62.4 8.61, 66.17 14.82, 68.58 21.23 C71 27.64, 73.04 36.96, 71.16 43.48 C69.29 49.99, 62.88 56.37, 57.34 60.33 C51.79 64.29, 44.67 66.87, 37.92 67.23 C31.17 67.6, 22.8 66.24, 16.82 62.5 C10.85 58.75, 4.59 51.23, 2.06 44.77 C-0.47 38.3, -0.28 29.82, 1.66 23.7 C3.6 17.58, 7.46 11.97, 13.71 8.03 C19.96 4.09, 34.37 1.27, 39.17 0.07 C43.96 -1.13, 42.72 0.34, 42.48 0.83 M41.78 0.14 C48.15 1.09, 56.91 5.49, 61.87 10.35 C66.84 15.21, 70.45 22.51, 71.55 29.3 C72.66 36.09, 72.01 45.36, 68.5 51.09 C64.99 56.83, 57.33 61.31, 50.5 63.7 C43.68 66.1, 34.36 66.89, 27.54 65.48 C20.72 64.07, 14 59.95, 9.59 55.24 C5.18 50.52, 2.13 43.64, 1.11 37.17 C0.08 30.7, 0.26 21.97, 3.43 16.41 C6.6 10.85, 13.73 6.37, 20.13 3.79 C26.54 1.21, 38.22 1.2, 41.86 0.94 C45.49 0.68, 42.11 1.66, 41.95 2.24" stroke="#1e1e1e" stroke-width="2" fill="none"></path></g><g transform="translate(165.78255917436002 337.3952107831244) rotate(0 15.572265625 16.100000000000023)"><text x="15.572265625" y="0" font-family="Helvetica, Segoe UI Emoji" font-size="28px" fill="#1e1e1e" text-anchor="middle" style="white-space: pre;" direction="ltr" dominant-baseline="text-before-edge">23</text></g><g stroke-linecap="round"><g transform="translate(242.3258841293591 239.39075654274382) rotate(0 -24.39172807828413 39.404702659034626)"><path d="M1.08 -0.04 C-7.24 13.14, -41.18 65.14, -49.43 78.44 M0.18 -1.11 C-7.78 12.3, -38.86 66.62, -47.06 79.79" stroke="#1e1e1e" stroke-width="2" fill="none"></path></g><g transform="translate(242.3258841293591 239.39075654274382) rotate(0 -24.39172807828413 39.404702659034626)"><path d="M-41.49 50.31 C-43.61 59.26, -46.04 70.93, -47.06 79.79 M-41.49 50.31 C-43.25 61.1, -45.41 72.56, -47.06 79.79" stroke="#1e1e1e" stroke-width="2" fill="none"></path></g><g transform="translate(242.3258841293591 239.39075654274382) rotate(0 -24.39172807828413 39.404702659034626)"><path d="M-23.85 60.78 C-31.88 66.35, -40.29 74.46, -47.06 79.79 M-23.85 60.78 C-32.19 67.76, -41.03 75.26, -47.06 79.79" stroke="#1e1e1e" stroke-width="2" fill="none"></path></g></g><mask></mask></svg>