<svg version="1.1" xmlns="http://www.w3.org/2000/svg" viewBox="0 0 965.8083190917969 495.6365203857422" width="1931.6166381835938" height="991.2730407714844" filter="invert(93%) hue-rotate(180deg)">
  <!-- svg-source:excalidraw -->
  
  <defs>
    <style>
      @font-face {
        font-family: "Virgil";
        src: url("https://excalidraw.com/Virgil.woff2");
      }
      @font-face {
        font-family: "Cascadia";
        src: url("https://excalidraw.com/Cascadia.woff2");
      }
    </style>
  </defs>
  <rect x="0" y="0" width="965.8083190917969" height="495.6365203857422" fill="#ffffff"></rect><g transform="translate(81.61981201171875 10) rotate(0 100.15206909179688 94.87806701660156)"><path d="M101.54296707734466 1.5637905038893223 C132.09817782919427 28.413903983815793, 159.1200752041217 53.72674036542256, 199.8610407076776 94.24174005165696 M100.10112503357232 0.40649556927382946 C121.37295878161613 19.77604893656021, 140.59158691707873 38.32140769591128, 199.99802026338875 94.38187378458679 M201.6647983752191 95.42810994759202 C167.7902306470305 128.83472392593532, 131.14659283330704 161.37044321625189, 99.47652053460479 189.8788599409163 M200.4667697865516 95.39010637812316 C171.63521996683622 125.35218630409335, 140.39378533850774 154.68921116737351, 100.53978386707604 190.66318166069686 M102.66324329003692 188.17298740521073 C70.31566095701781 159.87275609731532, 37.24379275995669 130.28961783176004, 0.8433088026940823 94.35921484604478 M100.56680670566857 189.08262336067855 C68.89352281039781 156.88418918039775, 35.25185866991258 126.49932811389002, 0.357565613463521 95.04972749762237 M0.015535708516836166 96.92418581619859 C33.49313810067252 63.942063948456195, 68.94005379667507 31.36115719689056, 99.87443041428924 -0.36947184428572655 M0.4775297362357378 95.83789783529937 C36.23121999567375 60.91853825790808, 73.14602124663071 25.61353835785762, 101.6411848384887 0.633338687941432" stroke="#000000" stroke-width="1" fill="none"></path></g><g transform="translate(374.4891052246094 11.971054077148438) rotate(0 100.15206909179688 94.87806701660156)"><path d="M102.715039011091 -1.3518956266343594 C137.64300024321136 35.45081384549845, 175.46965637677948 71.36741106561382, 201.6006327830255 94.09080917015672 M100.064188035205 -0.5793526191264391 C132.86845509693168 30.782555432851613, 164.88443724567355 61.089263751032945, 200.22554096765816 95.0337895732373 M201.7699910365045 93.18306285515428 C178.33519591895006 114.66823105126817, 160.33207258384226 133.81164068971964, 100.64776849374175 191.189095441252 M200.67652926035225 94.68966620974243 C177.110315133229 115.78331101436459, 155.02858070025943 136.51957942893154, 100.16707721538842 189.7403980474919 M102.88368558511138 189.14301294460893 C66.75036910438071 159.57886514398257, 34.2029905246673 125.16306084584423, 1.6439665518701077 94.90942532196641 M100.7407919485122 189.52428066544235 C71.99422921442081 161.7835926955542, 42.03806653019627 134.35946028181812, -0.030651597306132317 95.41674643568695 M-0.07601845636963844 93.51309258118272 C40.14056507544593 58.16353166991844, 76.85723172416911 24.268723851572716, 101.39287685975432 0.5588972009718418 M0.5129575449973345 95.9736545663327 C22.810103226359935 74.2496156929247, 46.92549387188628 52.19505746329203, 100.75186136551201 0.09997463040053844" stroke="#000000" stroke-width="1" fill="none"></path></g><g transform="translate(147.0711669921875 67.9454345703125) rotate(0 34 37.5)"><text x="34" y="18" font-family="Virgil, Segoe UI Emoji" font-size="20px" fill="#000000" text-anchor="middle" style="white-space: pre;" direction="ltr">Is the</text><text x="34" y="43" font-family="Virgil, Segoe UI Emoji" font-size="20px" fill="#000000" text-anchor="middle" style="white-space: pre;" direction="ltr">channel</text><text x="34" y="68" font-family="Virgil, Segoe UI Emoji" font-size="20px" fill="#000000" text-anchor="middle" style="white-space: pre;" direction="ltr">nil?</text></g><g transform="translate(442.9483642578125 66.40237426757812) rotate(0 34 37.5)"><text x="34" y="18" font-family="Virgil, Segoe UI Emoji" font-size="20px" fill="#000000" text-anchor="middle" style="white-space: pre;" direction="ltr">Is the</text><text x="34" y="43" font-family="Virgil, Segoe UI Emoji" font-size="20px" fill="#000000" text-anchor="middle" style="white-space: pre;" direction="ltr">channel</text><text x="34" y="68" font-family="Virgil, Segoe UI Emoji" font-size="20px" fill="#000000" text-anchor="middle" style="white-space: pre;" direction="ltr">empty?</text></g><g transform="translate(10 97.57708740234375) rotate(0 11.31219482421875 9.465011596679688)"><path d="M13.375649330870313 -0.05024721111244723 C15.589025594887353 0.38641671672116784, 18.147528412447432 1.967122954403509, 19.770387980481278 3.5951085253692954 C21.393247548515124 5.223094096335082, 23.201964988555016 7.555289032188263, 23.112806739073385 9.717666214682271 C23.023648489591753 11.88004339717628, 20.872382052297738 14.951894884604112, 19.235438483591494 16.56937162033335 C17.59849491488525 18.186848356062587, 15.489299609959602 19.193527590778984, 13.291145326835926 19.4225266290577 C11.09299104371225 19.651525667336415, 8.041916478964124 19.028373169451797, 6.046512784849432 17.943365850005648 C4.051109090734742 16.8583585305595, 2.1167972887140865 14.905667999313321, 1.31872316214778 12.912482712380799 C0.5206490355814736 10.919297425448276, 0.43610741537656417 8.031821907115313, 1.2580680254515944 5.984254128410514 C2.0800286355266246 3.936686349705715, 3.941938887515234 1.450493028888236, 6.250486822597961 0.6270760401520032 C8.559034757680688 -0.19634094858422968, 13.330356397069078 0.9520199846118323, 15.109355635947955 1.0437521959931164 C16.88835487482683 1.1354844073744006, 16.94381997614005 1.0090510322031545, 16.924482255871215 1.1774693084397079 M15.276236797625954 0.06681132628867559 C17.316493665356425 0.8541677095500884, 20.08465837378832 4.043738725671483, 21.06143106187016 5.869395685436155 C22.038203749952 7.6950526452008265, 21.55908658105357 8.895252580817804, 21.136872926117 11.020753084876707 C20.71465927118043 13.146253588935611, 20.507471908804778 17.074019183368403, 18.52814913225075 18.62239870978957 C16.548826355696722 20.17077823621074, 11.940045370264642 20.613388634279822, 9.260936266792827 20.311030243403714 C6.581827163321012 20.008671852527605, 3.869490797134014 18.416044346398493, 2.453494511419862 16.808248364532925 C1.0374982257057106 15.200452382667358, 0.8456485968499233 12.792690860815572, 0.7649585525079186 10.664254352210312 C0.6842685081659138 8.535817843605052, 0.8691071456307076 6.014283760381473, 1.9693542453678337 4.037629312901371 C3.0696013451049597 2.0609748654212696, 4.969846702385441 -0.45654838665837294, 7.366441150930675 -1.1956723326702967 C9.76303559947591 -1.9347962786822204, 14.834754622920382 -0.7542752201692775, 16.348920936639242 -0.39711436317017146 C17.863087250358102 -0.039953506171065356, 16.670980933071746 0.7098677589420403, 16.451439033243837 0.94729280932434" stroke="#000000" stroke-width="1" fill="none"></path></g><g><g transform="translate(38.91217041015625 107.42623901367188) rotate(0 23.451742122001008 -1.5988378740847224)"><path d="M-1.1930198214948178 -0.2598033763468266 C6.605319410314164 -0.8281088608006636, 38.08033062393467 -2.5672727284332115, 45.893158838897946 -2.9378723718225954 M0.38150604288093737 -1.441804094268009 C8.625532465878253 -1.84370372658285, 40.16678724905165 -0.8595217062563943, 48.096504065496845 -1.3804392161499708" stroke="#000000" stroke-width="1" fill="none"></path></g><g transform="translate(38.91217041015625 107.42623901367188) rotate(0 23.451742122001008 -1.5988378740847224)"><path d="M25.694823652336463 5.28754634834623 C31.107440856588283 3.2915279577924768, 36.81356274317598 4.386056842882535, 48.29706016863696 -0.3367845396231859 M26.621151411736474 6.054820346234199 C29.872621262802472 6.162847388849277, 35.27829513058069 2.7670518607837984, 48.97716882946901 -0.8116175158601253" stroke="#000000" stroke-width="1" fill="none"></path></g><g transform="translate(38.91217041015625 107.42623901367188) rotate(0 23.451742122001008 -1.5988378740847224)"><path d="M25.51055278070758 -10.77141018066445 C31.027838842061822 -9.148151419140971, 36.77546963814048 -4.436177371993493, 48.29706016863696 -0.3367845396231859 M26.43688054010759 -10.004136182776481 C29.874117650929865 -6.478366821311332, 35.318994138910575 -6.457707170702971, 48.97716882946901 -0.8116175158601253" stroke="#000000" stroke-width="1" fill="none"></path></g></g><g><g transform="translate(282.0575071210974 106.09061017977069) rotate(0 48.4919478549063 -1.364354223990773)"><path d="M1.1790842436254023 -0.42447595819830897 C16.73350701364687 -0.6115392246128295, 78.65270687802688 -2.229265628398048, 94.4994399813003 -2.3042324897832716 M0.3389647421892734 -1.6929297815915199 C16.14832658762111 -1.6558839142260378, 80.72620116984464 -1.0563052928509433, 96.64493096762328 -1.2688316930178098" stroke="#000000" stroke-width="1" fill="none"></path></g><g transform="translate(282.0575071210974 106.09061017977069) rotate(0 48.4919478549063 -1.364354223990773)"><path d="M67.75046261876764 7.2038282602951185 C78.17650605870888 5.775085510235244, 91.77092059934388 -0.017870595690117952, 97.87643242397337 0.5379677820858069 M69.11941695503833 9.998594382770385 C77.55467339673268 5.224463845293053, 84.51809208015794 2.789999206909365, 97.34725294590919 -1.4846178539189987" stroke="#000000" stroke-width="1" fill="none"></path></g><g transform="translate(282.0575071210974 106.09061017977069) rotate(0 48.4919478549063 -1.364354223990773)"><path d="M67.74292601102172 -13.317378955299752 C77.96985834199451 -6.584050849937549, 91.56727050766636 -4.214862047978805, 97.87643242397337 0.5379677820858069 M69.11188034729241 -10.522612832824485 C77.44097846926894 -9.1224277377794, 84.40666471550404 -5.382612399844659, 97.34725294590919 -1.4846178539189987" stroke="#000000" stroke-width="1" fill="none"></path></g></g><g transform="translate(97.81494140625 284.6648864746094) rotate(0 94.5 12.5)"><text x="94.5" y="18" font-family="Virgil, Segoe UI Emoji" font-size="20px" fill="#000000" text-anchor="middle" style="white-space: pre;" direction="ltr">The receive blocks.</text></g><g transform="translate(89.16543579101562 265.70278930664074) rotate(0 100.63185119628906 32.54321289062494)"><path d="M-1.1238787613221974 -1.5876191028896909 C55.89075248352324 1.1847584582243211, 115.62189030989379 2.828366440950843, 202.20478530866038 -1.4987262647517572 M-0.8482422581979544 0.8547600234585125 C77.47615495199356 -1.1159014179928999, 156.82849287915266 -0.8673252174484672, 202.07945336270186 0.23094451423038515 M201.0529994927347 1.160321656614542 C203.19738728347048 19.750929353930477, 202.9310032779239 40.63835483078743, 200.3086570464075 64.09252077713602 M200.6349367219955 0.852315304800868 C201.55708216636125 17.079245669343692, 201.31028740613405 33.00942119685038, 202.22945234365764 64.80231433920555 M201.5847461253586 64.9926245201571 C148.76017521496172 63.35043564522807, 93.82497617915072 64.17626149889439, 1.2030535327062513 63.603199134070955 M200.62703724608906 64.83743524977665 C150.4275211226094 64.2804869840234, 100.52872990435986 63.9428139382207, 0.6804380564135786 64.7170776313883 M-1.5172607935965061 65.39065808430307 C1.0817256189185815 51.91093243452182, -2.363819458405332 37.87377651740658, -1.0100239552557468 1.1336558498442173 M-0.0979823749512434 65.37920450977974 C0.2501633485130066 49.68286151679789, -0.004768160981774905 34.58368458521741, 0.015091748908162117 0.4938115458935499" stroke="#000000" stroke-width="1" fill="none"></path></g><g transform="translate(311.36956787109375 67.1448974609375) rotate(0 10 12.5)"><text x="10" y="18" font-family="Virgil, Segoe UI Emoji" font-size="20px" fill="#000000" text-anchor="middle" style="white-space: pre;" direction="ltr">no</text></g><g transform="translate(192.20965576171875 204.06561279296875) rotate(0 15.5 12.5)"><text x="15.5" y="18" font-family="Virgil, Segoe UI Emoji" font-size="20px" fill="#000000" text-anchor="middle" style="white-space: pre;" direction="ltr">yes</text></g><g transform="translate(660.1880493164062 49.38673400878906) rotate(0 138.3883056640625 49.9456787109375)"><path d="M1.0256242176532058 0.9146278253971972 C97.57574420838372 -0.9269847004984585, 192.32020813760403 -0.8840117994631086, 277.6485158893388 1.2034694602625686 M0.4495320945416495 -0.0893994296476676 C101.26618392527354 0.17237013108164023, 202.57560800784614 1.1279872019391983, 276.894448663679 0.009804981879844625 M276.1614180244505 0.004038330167531967 C276.67226133587513 19.219124939996846, 277.1568136000887 41.77795773512889, 278.65206212177867 101.77661788091063 M277.5675178151577 -0.15296444110572338 C277.59633191994703 27.939803252205596, 277.87169208697355 54.859141456381174, 276.9659249763935 100.25047299452126 M277.6468752723352 99.10087792403432 C171.04055605090488 99.30466242266654, 62.40335047515072 96.95419239800532, -0.10879162334572298 101.11757869774704 M277.45024533689264 100.12300733073091 C195.23322531462006 100.13456511211263, 112.82395704273944 99.64365181821013, 0.2247505855288643 100.64430944935425 M0.4579241909086704 100.3499767743051 C-2.638656469683133 70.29542040339743, -2.493131610254727 42.79432701466748, 0.5174235738813877 0.553334828466177 M-0.11683947034180164 99.93328455276787 C-0.708134441430434 80.77060786679272, -0.08644172435508612 60.39409641824432, 0.09009659104049206 -0.9474538844078779" stroke="#000000" stroke-width="1" fill="none"></path></g><g transform="translate(671.5823364257812 61.31910705566406) rotate(0 127.5 37.5)"><text x="127.5" y="18" font-family="Virgil, Segoe UI Emoji" font-size="20px" fill="#000000" text-anchor="middle" style="white-space: pre;" direction="ltr">The receive proceeds by</text><text x="127.5" y="43" font-family="Virgil, Segoe UI Emoji" font-size="20px" fill="#000000" text-anchor="middle" style="white-space: pre;" direction="ltr">removing the next element</text><text x="127.5" y="68" font-family="Virgil, Segoe UI Emoji" font-size="20px" fill="#000000" text-anchor="middle" style="white-space: pre;" direction="ltr">from the channel.</text></g><g transform="translate(487.7840576171875 206.55624389648438) rotate(0 15.5 12.5)"><text x="15.5" y="18" font-family="Virgil, Segoe UI Emoji" font-size="20px" fill="#000000" text-anchor="middle" style="white-space: pre;" direction="ltr">yes</text></g><g transform="translate(600.7687377929688 66.22621154785156) rotate(0 10 12.5)"><text x="10" y="18" font-family="Virgil, Segoe UI Emoji" font-size="20px" fill="#000000" text-anchor="middle" style="white-space: pre;" direction="ltr">no</text></g><g><g transform="translate(475.59131456654154 203.2771389723123) rotate(0 1.6975558423262669 46.94692664426381)"><path d="M0.9149842895567417 -0.7933588065207005 C0.9226566560263367 34.03207468692879, 0.6750519465898335 70.49477982525785, 3.025585955905285 93.62176490799715 M0.36952572874724865 -0.6235476415604353 C1.601157974479395 32.56796019786097, 2.4600434855936486 64.7906932112519, 1.782169938983884 94.68721209504832" stroke="#000000" stroke-width="1" fill="none"></path></g><g transform="translate(475.59131456654154 203.2771389723123) rotate(0 1.6975558423262669 46.94692664426381)"><path d="M-7.3308138842031045 65.61948582381154 C-4.565827361766533 75.11420470912573, -1.8599396845037575 86.29972692362124, 2.5344017194234993 93.66748569571604 M-7.876272445012598 65.78929698877181 C-4.081775168045631 76.49978029866192, -0.5913700128115433 86.2009033997903, 1.2909857025020983 94.73293288276722" stroke="#000000" stroke-width="1" fill="none"></path></g><g transform="translate(475.59131456654154 203.2771389723123) rotate(0 1.6975558423262669 46.94692664426381)"><path d="M13.189698058042685 65.78857755627448 C8.1385570140366 75.36055192166349, 3.0288169524066477 86.48167232988955, 2.5344017194234993 93.66748569571604 M12.644239497233192 65.95838872123474 C9.474948872427793 76.50409257762955, 6.001741045740826 86.14783458677405, 1.2909857025020983 94.73293288276722" stroke="#000000" stroke-width="1" fill="none"></path></g></g><g transform="translate(375.84429931640625 295.88038635253906) rotate(0 100.15206909179688 94.87806701660156)"><path d="M101.97532379254699 -0.14520996436476707 C133.28920655678493 31.42745912885482, 168.13667928193698 65.83133120434547, 200.1371283493936 93.26829332485795 M100.29429897852242 -0.8940077442675829 C134.6890429024873 32.251510520194195, 169.70019754652114 64.11405053893895, 199.76154676266015 95.56952011398971 M201.27270364388824 96.62333387508988 C177.40203005322678 118.47387324212971, 153.0086780604111 139.3692114121556, 100.25908934697509 189.25800186768174 M199.94597926922143 94.31104433350265 C177.00076732211602 116.55405575889498, 154.08840171648762 138.10722289439366, 101.94438740797341 190.28070431761444 M100.00907504186034 188.81747967377305 C72.91137875172178 166.37572471624546, 47.653225553621155 142.93710854488103, -1.9185445345938206 96.93677062168717 M101.50105807371438 190.3304102998227 C62.58726116518339 152.5388015848186, 22.17567599012365 115.51992464078069, 0.660143168643117 94.77089357189834 M-1.4203593768179417 96.83252162113786 C41.003281753230844 58.83578495973721, 77.47051126649603 23.78483231378719, 102.31022035703063 1.6468542255461216 M-0.8919050376862288 95.8519258480519 C25.21889012819156 69.45600643320009, 52.482053842861205 44.808336420301345, 101.23339900560677 0.4033996444195509" stroke="#000000" stroke-width="1" fill="none"></path></g><g><g transform="translate(377.0912170410156 393.10498046875) rotate(0 -94.70652615930885 -1.1479575196281075)"><path d="M1.1561297811567783 -0.45933378115296364 C-72.64886610219655 -1.0758975658983208, -142.64055674691969 -0.13554034685258687, -190.3874859176576 -2.9360027350485325 M0.11287605576217175 0.6400876957923174 C-63.63274580444304 -1.020728095072083, -126.25163514577258 -0.07175254316779434, -190.56918209977448 -1.592409698292613" stroke="#000000" stroke-width="1" fill="none"></path></g></g><g><g transform="translate(186.68283081054688 390.38336181640625) rotate(0 -0.7837898125872016 -28.101277039386332)"><path d="M-1.7312138639390469 0.5755737982690334 C-1.1426077479474668 -14.459531837155101, 1.140323482366681 -33.66780955013225, -0.8904377780854702 -55.888453248888254 M-0.15153432078659534 -0.7131986897438765 C-1.1633719528102222 -11.81597530579702, -1.2875297980178277 -23.765898418004454, 0.16363423876464367 -56.7781278770417" stroke="#000000" stroke-width="1" fill="none"></path></g><g transform="translate(186.68283081054688 390.38336181640625) rotate(0 -0.7837898125872016 -28.101277039386332)"><path d="M7.1799096051226385 -29.126066410276348 C5.663347577364734 -35.52901095388966, 5.553518060132684 -46.17913919717834, -0.31969904713332653 -55.7591714579612 M8.75958914827509 -30.414838898289258 C6.2007829597284525 -35.44986991144255, 4.389654929128362 -41.366033479448745, 0.7343729697167873 -56.648846086114645" stroke="#000000" stroke-width="1" fill="none"></path></g><g transform="translate(186.68283081054688 390.38336181640625) rotate(0 -0.7837898125872016 -28.101277039386332)"><path d="M-12.271044896202053 -29.837983468040147 C-8.200487691315265 -36.2092927208198, -2.730061393678757 -46.655180123330204, -0.31969904713332653 -55.7591714579612 M-10.691365353049601 -31.126755956053056 C-9.31257779521535 -36.09705115827587, -7.189453228183111 -41.86921862914373, 0.7343729697167873 -56.648846086114645" stroke="#000000" stroke-width="1" fill="none"></path></g></g><g transform="translate(440.6540222167969 352.315673828125) rotate(0 34 37.5)"><text x="34" y="18" font-family="Virgil, Segoe UI Emoji" font-size="20px" fill="#000000" text-anchor="middle" style="white-space: pre;" direction="ltr">Is the</text><text x="34" y="43" font-family="Virgil, Segoe UI Emoji" font-size="20px" fill="#000000" text-anchor="middle" style="white-space: pre;" direction="ltr">channel</text><text x="34" y="68" font-family="Virgil, Segoe UI Emoji" font-size="20px" fill="#000000" text-anchor="middle" style="white-space: pre;" direction="ltr">open?</text></g><g transform="translate(325.0232238769531 356.8062744140625) rotate(0 15.5 12.5)"><text x="15.5" y="18" font-family="Virgil, Segoe UI Emoji" font-size="20px" fill="#000000" text-anchor="middle" style="white-space: pre;" direction="ltr">yes</text></g><g transform="translate(663.1077575683594 340.7825012207031) rotate(0 146.35028076171875 49.9456787109375)"><path d="M1.1834886568056464 -0.945563119995467 C66.18566146412422 -0.8813802550083176, 132.69845972472336 0.08229807501541625, 293.57767888420307 0.14597413781953053 M-0.49735096553018177 0.6789776149574674 C92.19191246353377 -2.128976837935694, 184.52414138085769 -1.3152551267363748, 292.1924557916747 0.3763068258320276 M294.3464099802076 -1.2491432465612888 C291.9817667845918 19.751258222806655, 292.76227470676434 40.50934630716483, 292.15851480141276 98.75403856858611 M292.79567289166147 -0.8791444581001997 C293.96860084296475 31.440013155251798, 293.0958916282774 65.2664663771243, 292.4393250327557 99.74471572227776 M292.97777020800254 98.5212109094091 C219.67094022111243 97.22903474656846, 149.27047253793754 97.48404425253304, 1.0085913509654274 101.05679959804915 M292.4912093745325 99.71908177081269 C232.2110267837912 100.59901318119839, 170.8045983371499 101.49621190872259, 0.36114393343308887 99.32614319326278 M0.2808937467634678 98.91340744122863 C0.46106530440977167 64.75680286678994, -0.5557061313278382 28.778539204216486, -1.9629020057618618 0.7572798691689968 M-0.8270579595118761 98.97659382410347 C-0.07042402238423617 76.45522677274334, 1.1655284145397444 53.85778130646622, -0.46288961358368397 -0.14453729800879955" stroke="#000000" stroke-width="1" fill="none"></path></g><g transform="translate(677.6476745605469 349.49090576171875) rotate(0 132.5 37.5)"><text x="132.5" y="18" font-family="Virgil, Segoe UI Emoji" font-size="20px" fill="#000000" text-anchor="middle" style="white-space: pre;" direction="ltr">The receive proceeds by</text><text x="132.5" y="43" font-family="Virgil, Segoe UI Emoji" font-size="20px" fill="#000000" text-anchor="middle" style="white-space: pre;" direction="ltr">yielding the zero value of</text><text x="132.5" y="68" font-family="Virgil, Segoe UI Emoji" font-size="20px" fill="#000000" text-anchor="middle" style="white-space: pre;" direction="ltr">the channel's element type.</text></g><g><g transform="translate(573.7699034628924 105.87980826371347) rotate(0 41.92115250009573 -0.6688778397859494)"><path d="M1.1205000780522825 -1.1407323382794856 C14.742293372093664 -1.658625046613925, 67.96487578421348 -1.9909671306764758, 81.45334464588181 -2.2125349183566185 M0.24962388969026517 0.8747792387846856 C14.252233372484298 0.4451338096770259, 70.12979669293837 -0.5037820715518719, 83.59268111050108 -0.9020512818637552" stroke="#000000" stroke-width="1" fill="none"></path></g><g transform="translate(573.7699034628924 105.87980826371347) rotate(0 41.92115250009573 -0.6688778397859494)"><path d="M53.73818178191637 8.171128503968388 C62.577501955758656 5.891202285104189, 69.88792349708277 2.1927892450540023, 82.84106188699582 -2.3135891041997136 M54.765313613189804 10.851755904023916 C63.35902496835516 6.192844982683999, 72.11523561793524 2.9060662685360725, 82.59520104773321 -0.2621611493918361" stroke="#000000" stroke-width="1" fill="none"></path></g><g transform="translate(573.7699034628924 105.87980826371347) rotate(0 41.92115250009573 -0.6688778397859494)"><path d="M53.27739722533137 -12.344906200093027 C62.397285261740834 -8.948612766822123, 69.8352897865149 -6.966503578640387, 82.84106188699582 -2.3135891041997136 M54.30452905660481 -9.664278800037499 C63.090431623036 -8.519738119081207, 71.97699310944803 -6.002758321946702, 82.59520104773321 -0.2621611493918361" stroke="#000000" stroke-width="1" fill="none"></path></g></g><g><g transform="translate(575.7303508594632 394.8374285623431) rotate(0 43.463899698108435 -0.5413579503074288)"><path d="M-1.052503403276205 -1.3917795456945896 C26.04240087582948 0.9038951414339795, 47.9684266125994 0.03961347792552783, 87.90268957056105 0.221435546875 M0.20422839932143688 0.30906364507973194 C32.66966114966377 -0.29625474722675216, 63.2158919936393 0.41979638054519286, 87.98030279949307 -1.3103906754404306" stroke="#000000" stroke-width="1" fill="none"></path></g><g transform="translate(575.7303508594632 394.8374285623431) rotate(0 43.463899698108435 -0.5413579503074288)"><path d="M59.19296077867163 8.73368247373305 C69.44200965187767 7.533081634207038, 74.49919076218299 3.67457288249987, 87.87640934437513 -0.35136267356574535 M60.449692581269275 10.43452566450737 C71.05236906056147 5.974206525292396, 79.77818373115902 2.8171245115333043, 87.95402257330716 -1.883188895881176" stroke="#000000" stroke-width="1" fill="none"></path></g><g transform="translate(575.7303508594632 394.8374285623431) rotate(0 43.463899698108435 -0.5413579503074288)"><path d="M58.33085597398308 -11.769409431917973 C68.77713200465901 -7.224427602647078, 74.07559884752159 -5.344534801272996, 87.87640934437513 -0.35136267356574535 M59.58758777658072 -10.068566241143651 C70.58351974882683 -7.106329909450022, 79.62144560532252 -2.840597093214786, 87.95402257330716 -1.883188895881176" stroke="#000000" stroke-width="1" fill="none"></path></g></g><g transform="translate(599.3003234863281 355.7880859375) rotate(0 10 12.5)"><text x="10" y="18" font-family="Virgil, Segoe UI Emoji" font-size="20px" fill="#000000" text-anchor="middle" style="white-space: pre;" direction="ltr">no</text></g><g><g transform="translate(182.65927124023438 201.3175048828125) rotate(0 -0.09162965330307316 30.96624136157334)"><path d="M0.8133191503584385 -0.2712930478155613 C0.22979104826710006 21.604888781663604, -1.4510679721983024 38.972758688055904, -0.8929857574403286 61.395867343991995 M-0.6449559945613146 -0.6708134692162275 C-0.696795159831447 15.206685038693642, 0.6249252185299838 28.475938921241134, 0.6458099465817213 62.603296192362905" stroke="#000000" stroke-width="1" fill="none"></path></g><g transform="translate(182.65927124023438 201.3175048828125) rotate(0 -0.09162965330307316 30.96624136157334)"><path d="M-9.127231946920048 34.26193082812751 C-6.385554158531425 45.232333253570886, -5.014527716764741 51.78293588759104, -1.2388139944523573 61.9210385363549 M-10.585507091839801 33.862410406726845 C-8.311092422508539 41.61446880515135, -4.715093225450638 46.82264630125363, 0.2999817095696926 63.12846738472581" stroke="#000000" stroke-width="1" fill="none"></path></g><g transform="translate(182.65927124023438 201.3175048828125) rotate(0 -0.09162965330307316 30.96624136157334)"><path d="M11.392600734439625 34.024298517944466 C7.605428831572278 45.25958412571899, 2.4495154169503124 51.88577274626175, -1.2388139944523573 61.9210385363549 M9.934325589519872 33.6247780965438 C7.344472046737744 41.5708155170126, 6.0765662086984795 46.83532003136835, 0.2999817095696926 63.12846738472581" stroke="#000000" stroke-width="1" fill="none"></path></g></g></svg>