<svg version="1.1" xmlns="http://www.w3.org/2000/svg" viewBox="0 0 873.064208984375 519.0304260253906" width="1746.12841796875" height="1038.0608520507812" filter="invert(93%) hue-rotate(180deg)">
  <!-- svg-source:excalidraw -->
  
  <defs>
    <style>
      @font-face {
        font-family: "Virgil";
        src: url("https://excalidraw.com/Virgil.woff2");
      }
      @font-face {
        font-family: "Cascadia";
        src: url("https://excalidraw.com/Cascadia.woff2");
      }
    </style>
  </defs>
  <rect x="0" y="0" width="873.064208984375" height="519.0304260253906" fill="#ffffff"></rect><g transform="translate(81.61981201171875 179.546875) rotate(0 100.15206909179688 94.87806701660156)"><path d="M101.54296707734466 1.5637905038893223 C132.09817782919427 28.413903983815793, 159.1200752041217 53.72674036542256, 199.8610407076776 94.24174005165696 M100.10112503357232 0.40649556927382946 C121.37295878161613 19.77604893656021, 140.59158691707873 38.32140769591128, 199.99802026338875 94.38187378458679 M201.6647983752191 95.42810994759202 C167.7902306470305 128.83472392593532, 131.14659283330704 161.37044321625189, 99.47652053460479 189.8788599409163 M200.4667697865516 95.39010637812316 C171.63521996683622 125.35218630409335, 140.39378533850774 154.68921116737351, 100.53978386707604 190.66318166069686 M102.66324329003692 188.17298740521073 C70.31566095701781 159.87275609731532, 37.24379275995669 130.28961783176004, 0.8433088026940823 94.35921484604478 M100.56680670566857 189.08262336067855 C68.89352281039781 156.88418918039775, 35.25185866991258 126.49932811389002, 0.357565613463521 95.04972749762237 M0.015535708516836166 96.92418581619859 C33.49313810067252 63.942063948456195, 68.94005379667507 31.36115719689056, 99.87443041428924 -0.36947184428572655 M0.4775297362357378 95.83789783529937 C36.23121999567375 60.91853825790808, 73.14602124663071 25.61353835785762, 101.6411848384887 0.633338687941432" stroke="#000000" stroke-width="1" fill="none"></path></g><g transform="translate(374.4891052246094 181.51792907714844) rotate(0 100.15206909179688 94.87806701660156)"><path d="M102.715039011091 -1.3518956266343594 C137.64300024321136 35.45081384549845, 175.46965637677948 71.36741106561382, 201.6006327830255 94.09080917015672 M100.064188035205 -0.5793526191264391 C132.86845509693168 30.782555432851613, 164.88443724567355 61.089263751032945, 200.22554096765816 95.0337895732373 M201.7699910365045 93.18306285515428 C178.33519591895006 114.66823105126817, 160.33207258384226 133.81164068971964, 100.64776849374175 191.189095441252 M200.67652926035225 94.68966620974243 C177.110315133229 115.78331101436459, 155.02858070025943 136.51957942893154, 100.16707721538842 189.7403980474919 M102.88368558511138 189.14301294460893 C66.75036910438071 159.57886514398257, 34.2029905246673 125.16306084584423, 1.6439665518701077 94.90942532196641 M100.7407919485122 189.52428066544235 C71.99422921442081 161.7835926955542, 42.03806653019627 134.35946028181812, -0.030651597306132317 95.41674643568695 M-0.07601845636963844 93.51309258118272 C40.14056507544593 58.16353166991844, 76.85723172416911 24.268723851572716, 101.39287685975432 0.5588972009718418 M0.5129575449973345 95.9736545663327 C22.810103226359935 74.2496156929247, 46.92549387188628 52.19505746329203, 100.75186136551201 0.09997463040053844" stroke="#000000" stroke-width="1" fill="none"></path></g><g transform="translate(147.0711669921875 237.4923095703125) rotate(0 34 37.5)"><text x="34" y="18" font-family="Virgil, Segoe UI Emoji" font-size="20px" fill="#000000" text-anchor="middle" style="white-space: pre;" direction="ltr">Is the</text><text x="34" y="43" font-family="Virgil, Segoe UI Emoji" font-size="20px" fill="#000000" text-anchor="middle" style="white-space: pre;" direction="ltr">channel</text><text x="34" y="68" font-family="Virgil, Segoe UI Emoji" font-size="20px" fill="#000000" text-anchor="middle" style="white-space: pre;" direction="ltr">nil?</text></g><g transform="translate(442.9483642578125 235.94924926757812) rotate(0 34 37.5)"><text x="34" y="18" font-family="Virgil, Segoe UI Emoji" font-size="20px" fill="#000000" text-anchor="middle" style="white-space: pre;" direction="ltr">Is the</text><text x="34" y="43" font-family="Virgil, Segoe UI Emoji" font-size="20px" fill="#000000" text-anchor="middle" style="white-space: pre;" direction="ltr">channel</text><text x="34" y="68" font-family="Virgil, Segoe UI Emoji" font-size="20px" fill="#000000" text-anchor="middle" style="white-space: pre;" direction="ltr">open?</text></g><g transform="translate(10 267.12396240234375) rotate(0 11.31219482421875 9.465011596679688)"><path d="M13.375649330870313 -0.05024721111244723 C15.589025594887353 0.38641671672116784, 18.147528412447432 1.967122954403509, 19.770387980481278 3.5951085253692954 C21.393247548515124 5.223094096335082, 23.201964988555016 7.555289032188263, 23.112806739073385 9.717666214682271 C23.023648489591753 11.88004339717628, 20.872382052297738 14.951894884604112, 19.235438483591494 16.56937162033335 C17.59849491488525 18.186848356062587, 15.489299609959602 19.193527590778984, 13.291145326835926 19.4225266290577 C11.09299104371225 19.651525667336415, 8.041916478964124 19.028373169451797, 6.046512784849432 17.943365850005648 C4.051109090734742 16.8583585305595, 2.1167972887140865 14.905667999313321, 1.31872316214778 12.912482712380799 C0.5206490355814736 10.919297425448276, 0.43610741537656417 8.031821907115313, 1.2580680254515944 5.984254128410514 C2.0800286355266246 3.936686349705715, 3.941938887515234 1.450493028888236, 6.250486822597961 0.6270760401520032 C8.559034757680688 -0.19634094858422968, 13.330356397069078 0.9520199846118323, 15.109355635947955 1.0437521959931164 C16.88835487482683 1.1354844073744006, 16.94381997614005 1.0090510322031545, 16.924482255871215 1.1774693084397079 M15.276236797625954 0.06681132628867559 C17.316493665356425 0.8541677095500884, 20.08465837378832 4.043738725671483, 21.06143106187016 5.869395685436155 C22.038203749952 7.6950526452008265, 21.55908658105357 8.895252580817804, 21.136872926117 11.020753084876707 C20.71465927118043 13.146253588935611, 20.507471908804778 17.074019183368403, 18.52814913225075 18.62239870978957 C16.548826355696722 20.17077823621074, 11.940045370264642 20.613388634279822, 9.260936266792827 20.311030243403714 C6.581827163321012 20.008671852527605, 3.869490797134014 18.416044346398493, 2.453494511419862 16.808248364532925 C1.0374982257057106 15.200452382667358, 0.8456485968499233 12.792690860815572, 0.7649585525079186 10.664254352210312 C0.6842685081659138 8.535817843605052, 0.8691071456307076 6.014283760381473, 1.9693542453678337 4.037629312901371 C3.0696013451049597 2.0609748654212696, 4.969846702385441 -0.45654838665837294, 7.366441150930675 -1.1956723326702967 C9.76303559947591 -1.9347962786822204, 14.834754622920382 -0.7542752201692775, 16.348920936639242 -0.39711436317017146 C17.863087250358102 -0.039953506171065356, 16.670980933071746 0.7098677589420403, 16.451439033243837 0.94729280932434" stroke="#000000" stroke-width="1" fill="none"></path></g><g><g transform="translate(38.91217041015625 276.9731140136719) rotate(0 23.451742122001008 -1.5988378740847224)"><path d="M-1.1930198214948178 -0.2598033763468266 C6.605319410314164 -0.8281088608006636, 38.08033062393467 -2.5672727284332115, 45.893158838897946 -2.9378723718225954 M0.38150604288093737 -1.441804094268009 C8.625532465878253 -1.84370372658285, 40.16678724905165 -0.8595217062563943, 48.096504065496845 -1.3804392161499708" stroke="#000000" stroke-width="1" fill="none"></path></g><g transform="translate(38.91217041015625 276.9731140136719) rotate(0 23.451742122001008 -1.5988378740847224)"><path d="M25.694823652336463 5.28754634834623 C31.107440856588283 3.2915279577924768, 36.81356274317598 4.386056842882535, 48.29706016863696 -0.3367845396231859 M26.621151411736474 6.054820346234199 C29.872621262802472 6.162847388849277, 35.27829513058069 2.7670518607837984, 48.97716882946901 -0.8116175158601253" stroke="#000000" stroke-width="1" fill="none"></path></g><g transform="translate(38.91217041015625 276.9731140136719) rotate(0 23.451742122001008 -1.5988378740847224)"><path d="M25.51055278070758 -10.77141018066445 C31.027838842061822 -9.148151419140971, 36.77546963814048 -4.436177371993493, 48.29706016863696 -0.3367845396231859 M26.43688054010759 -10.004136182776481 C29.874117650929865 -6.478366821311332, 35.318994138910575 -6.457707170702971, 48.97716882946901 -0.8116175158601253" stroke="#000000" stroke-width="1" fill="none"></path></g></g><g><g transform="translate(282.0575071210974 275.6374851797707) rotate(0 48.4919478549063 -1.364354223990773)"><path d="M1.1790842436254023 -0.42447595819830897 C16.73350701364687 -0.6115392246128295, 78.65270687802688 -2.229265628398048, 94.4994399813003 -2.3042324897832716 M0.3389647421892734 -1.6929297815915199 C16.14832658762111 -1.6558839142260378, 80.72620116984464 -1.0563052928509433, 96.64493096762328 -1.2688316930178098" stroke="#000000" stroke-width="1" fill="none"></path></g><g transform="translate(282.0575071210974 275.6374851797707) rotate(0 48.4919478549063 -1.364354223990773)"><path d="M67.75046261876764 7.2038282602951185 C78.17650605870888 5.775085510235244, 91.77092059934388 -0.017870595690117952, 97.87643242397337 0.5379677820858069 M69.11941695503833 9.998594382770385 C77.55467339673268 5.224463845293053, 84.51809208015794 2.789999206909365, 97.34725294590919 -1.4846178539189987" stroke="#000000" stroke-width="1" fill="none"></path></g><g transform="translate(282.0575071210974 275.6374851797707) rotate(0 48.4919478549063 -1.364354223990773)"><path d="M67.74292601102172 -13.317378955299752 C77.96985834199451 -6.584050849937549, 91.56727050766636 -4.214862047978805, 97.87643242397337 0.5379677820858069 M69.11188034729241 -10.522612832824485 C77.44097846926894 -9.1224277377794, 84.40666471550404 -5.382612399844659, 97.34725294590919 -1.4846178539189987" stroke="#000000" stroke-width="1" fill="none"></path></g></g><g transform="translate(112.47125244140625 462.9060974121094) rotate(0 83 12.5)"><text x="83" y="18" font-family="Virgil, Segoe UI Emoji" font-size="20px" fill="#000000" text-anchor="middle" style="white-space: pre;" direction="ltr">The send blocks.</text></g><g transform="translate(92.32174682617188 443.94400024414074) rotate(0 100.63185119628906 32.54321289062494)"><path d="M-1.1238787613221974 -1.5876191028896909 C55.89075248352324 1.1847584582243211, 115.62189030989379 2.828366440950843, 202.20478530866038 -1.4987262647517572 M-0.8482422581979544 0.8547600234585125 C77.47615495199356 -1.1159014179928999, 156.82849287915266 -0.8673252174484672, 202.07945336270186 0.23094451423038515 M201.0529994927347 1.160321656614542 C203.19738728347048 19.750929353930477, 202.9310032779239 40.63835483078743, 200.3086570464075 64.09252077713602 M200.6349367219955 0.852315304800868 C201.55708216636125 17.079245669343692, 201.31028740613405 33.00942119685038, 202.22945234365764 64.80231433920555 M201.5847461253586 64.9926245201571 C148.76017521496172 63.35043564522807, 93.82497617915072 64.17626149889439, 1.2030535327062513 63.603199134070955 M200.62703724608906 64.83743524977665 C150.4275211226094 64.2804869840234, 100.52872990435986 63.9428139382207, 0.6804380564135786 64.7170776313883 M-1.5172607935965061 65.39065808430307 C1.0817256189185815 51.91093243452182, -2.363819458405332 37.87377651740658, -1.0100239552557468 1.1336558498442173 M-0.0979823749512434 65.37920450977974 C0.2501633485130066 49.68286151679789, -0.004768160981774905 34.58368458521741, 0.015091748908162117 0.4938115458935499" stroke="#000000" stroke-width="1" fill="none"></path></g><g transform="translate(311.36956787109375 236.6917724609375) rotate(0 10 12.5)"><text x="10" y="18" font-family="Virgil, Segoe UI Emoji" font-size="20px" fill="#000000" text-anchor="middle" style="white-space: pre;" direction="ltr">no</text></g><g transform="translate(192.20965576171875 373.61248779296875) rotate(0 15.5 12.5)"><text x="15.5" y="18" font-family="Virgil, Segoe UI Emoji" font-size="20px" fill="#000000" text-anchor="middle" style="white-space: pre;" direction="ltr">yes</text></g><g transform="translate(779.3213500976562 143.4775390625) rotate(0 10 12.5)"><text x="10" y="18" font-family="Virgil, Segoe UI Emoji" font-size="20px" fill="#000000" text-anchor="middle" style="white-space: pre;" direction="ltr">no</text></g><g transform="translate(595.2687377929688 235.77308654785156) rotate(0 15.5 12.5)"><text x="15.5" y="18" font-family="Virgil, Segoe UI Emoji" font-size="20px" fill="#000000" text-anchor="middle" style="white-space: pre;" direction="ltr">yes</text></g><g transform="translate(702.8027038574219 10) rotate(0 64.18829345703125 49.9456787109375)"><path d="M1.5875936187803745 -1.2684278525412083 C28.83956779058614 -1.5720830881731378, 58.11797399974542 -0.2793545448915825, 129.55319804325697 0.19581734761595726 M-0.6671726126223803 0.9108161050826311 C40.437613336211435 -1.7321502710513523, 81.06345450660287 -0.6405813838176182, 127.69498729519543 0.5047976691275835 M130.02243537083265 -1.2491432465612888 C127.6577921752168 19.751258222806655, 128.43830009738934 40.50934630716483, 127.83454019203779 98.75403856858611 M128.4716982822865 -0.8791444581001997 C129.64462623358978 31.440013155251798, 128.77191701890243 65.2664663771243, 128.1153504233807 99.74471572227776 M128.74844915047285 98.05337118729949 C95.38143322785936 97.26518136161792, 65.91316379572439 97.60726445812213, 1.3529772199690342 101.45474254712462 M128.09575098566708 99.66025784797966 C102.24502375609522 99.77262080607323, 74.88349139651848 100.97617013153939, 0.48445737175643444 99.13314947672188 M0.2808937467634678 98.91340744122863 C0.46106530440977167 64.75680286678994, -0.5557061313278382 28.778539204216486, -1.9629020057618618 0.7572798691689968 M-0.8270579595118761 98.97659382410347 C-0.07042402238423617 76.45522677274334, 1.1655284145397444 53.85778130646622, -0.46288961358368397 -0.14453729800879955" stroke="#000000" stroke-width="1" fill="none"></path></g><g transform="translate(718.9026794433594 18.381134033203125) rotate(0 47 37.5)"><text x="47" y="18" font-family="Virgil, Segoe UI Emoji" font-size="20px" fill="#000000" text-anchor="middle" style="white-space: pre;" direction="ltr">The send</text><text x="47" y="43" font-family="Virgil, Segoe UI Emoji" font-size="20px" fill="#000000" text-anchor="middle" style="white-space: pre;" direction="ltr">proceeds</text><text x="47" y="68" font-family="Virgil, Segoe UI Emoji" font-size="20px" fill="#000000" text-anchor="middle" style="white-space: pre;" direction="ltr">normally.</text></g><g><g transform="translate(573.7699034628924 275.42668326371347) rotate(0 44.68731486371934 -0.6984074861680654)"><path d="M1.1205000780522825 -1.1407323382794856 C15.664347493301534 -1.6684682620746303, 72.57514639025283 -2.0401832079800024, 86.98566937312903 -2.2715942111208505 M0.24962388969026517 0.8747792387846856 C15.174287493692166 0.4352905942163206, 74.7400672989777 -0.5529981488553986, 89.12500583774829 -0.9611105746279871" stroke="#000000" stroke-width="1" fill="none"></path></g><g transform="translate(573.7699034628924 275.42668326371347) rotate(0 44.68731486371934 -0.6984074861680654)"><path d="M59.26245514601568 8.091381662851456 C68.10415886181033 5.817108275661523, 75.41680968125709 2.1244232468942315, 88.37338661424303 -2.3726483969639456 M60.28958697728912 10.772009062906983 C68.88563833108607 6.118945056715528, 77.644126621939 2.838018620386463, 88.12752577498043 -0.32122044215606804" stroke="#000000" stroke-width="1" fill="none"></path></g><g transform="translate(573.7699034628924 275.42668326371347) rotate(0 44.68731486371934 -0.6984074861680654)"><path d="M58.81685195033551 -12.424988390787155 C67.93492258266156 -9.022807517588394, 75.37095293887285 -7.034877465837489, 88.37338661424303 -2.3726483969639456 M59.84398378160895 -9.744360990731627 C68.62793271899507 -8.593868416294999, 77.51247720817717 -6.070941474668274, 88.12752577498043 -0.32122044215606804" stroke="#000000" stroke-width="1" fill="none"></path></g></g><g><g transform="translate(182.82890191419847 367.098276233026) rotate(0 0.7298409654972033 37.196461155216554)"><path d="M0.8133191503584385 -0.2712930478155613 C0.5936707324101795 25.554842418392056, -0.6231648904263596 46.8861237732735, 0.5658422215336714 73.85630693127843 M-0.6449559945613146 -0.6708134692162275 C-0.3700463062334135 18.150450964646215, 1.297466402039067 34.37325694429154, 2.1046379255557213 75.06373577964933" stroke="#000000" stroke-width="1" fill="none"></path></g><g transform="translate(182.82890191419847 367.098276233026) rotate(0 0.7298409654972033 37.196461155216554)"><path d="M-8.16121842302591 46.91320547068034 C-5.261252688973276 57.81836090588723, -3.73347203002493 64.30826280479145, 0.22001398452164267 74.38147812364133 M-9.619493567945662 46.51368504927967 C-7.227973292514858 54.217203067337095, -3.515160145428551 59.38014610170682, 1.7588096885436926 75.58890697201224" stroke="#000000" stroke-width="1" fill="none"></path></g><g transform="translate(182.82890191419847 367.098276233026) rotate(0 0.7298409654972033 37.196461155216554)"><path d="M12.351244529591904 46.31415121327027 C8.721800008805408 57.5990827872936, 3.7249849716223027 64.27953161557805, 0.22001398452164267 74.38147812364133 M10.892969384672151 45.914630791869605 C8.421415960220473 53.897747807448965, 7.272070951011771 59.20268727347382, 1.7588096885436926 75.58890697201224" stroke="#000000" stroke-width="1" fill="none"></path></g></g><g transform="translate(662.7600708007812 179.11546325683594) rotate(0 100.15206909179688 94.87806701660156)"><path d="M101.24981176480651 -1.3363010250031948 C139.78778042290332 37.071245183159185, 178.7807268931525 74.68893282852746, 202.23606395348907 94.98883861675858 M100.55439767427742 0.33013504557311535 C136.2536745503091 34.45940081882428, 172.9172089524591 69.32133823461037, 199.98405543155968 94.28547656349838 M200.4210777245462 95.78858131542802 C178.97597867743934 116.01071935020599, 155.12365303291398 138.77332450644613, 100.13571965321898 190.07951456680894 M199.8146671373397 95.74312627129257 C159.94053504004182 131.64894562580665, 120.41954193452167 168.17991234789838, 101.57748720236123 189.64087921194732 M99.15780007466674 188.92353827133775 C67.10208056221913 154.63231438044983, 27.858223109014432 124.06927495434064, -0.7783796824514866 93.83434838429093 M100.51275894232094 190.14303880743682 C67.56544931740837 156.31489807395948, 33.46609160607085 124.23168788626296, 0.18357041664421558 94.12758183293045 M-1.1604435481131077 95.22948903217912 C26.205987243819983 70.44129700893536, 48.87889553001151 48.29789338661357, 102.6841345988214 -1.1387802921235561 M-0.06995484046638012 94.20989584736526 C40.15246560340748 58.920689477156834, 78.93456564219669 20.26796487117184, 101.50970253534615 -0.14891630597412586" stroke="#000000" stroke-width="1" fill="none"></path></g><g transform="translate(731.2193298339844 233.54678344726562) rotate(0 34 37.5)"><text x="34" y="18" font-family="Virgil, Segoe UI Emoji" font-size="20px" fill="#000000" text-anchor="middle" style="white-space: pre;" direction="ltr">Is the</text><text x="34" y="43" font-family="Virgil, Segoe UI Emoji" font-size="20px" fill="#000000" text-anchor="middle" style="white-space: pre;" direction="ltr">channel</text><text x="34" y="68" font-family="Virgil, Segoe UI Emoji" font-size="20px" fill="#000000" text-anchor="middle" style="white-space: pre;" direction="ltr">full?</text></g><g><g transform="translate(766.3745411346886 181.0180539137155) rotate(0 -0.49456711508071294 -36.49285209003986)"><path d="M-0.33182447776198387 -1.4993660487234592 C-0.455577896390049 -12.833397719779398, 1.0737360842750228 -28.907929295168312, -0.8356184741837751 -73.42983034089508 M-0.7206719536334276 0.44412616081535816 C0.14596572724539297 -17.561561602162893, -0.6824027363286631 -35.272647910132214, -1.1200514274073612 -71.29291539661887" stroke="#000000" stroke-width="1" fill="none"></path></g><g transform="translate(766.3745411346886 181.0180539137155) rotate(0 -0.49456711508071294 -36.49285209003986)"><path d="M9.25383407169347 -44.76751072565044 C7.342956846484672 -47.17079757105819, 6.808244313163299 -54.40340961920066, -1.4490629235638153 -73.00684636481407 M8.864986595822026 -42.82401851611162 C7.352916334058278 -50.267952238391466, 4.057265398325786 -57.40964279394079, -1.7334958767874014 -70.86993142053785" stroke="#000000" stroke-width="1" fill="none"></path></g><g transform="translate(766.3745411346886 181.0180539137155) rotate(0 -0.49456711508071294 -36.49285209003986)"><path d="M-11.264801650674249 -44.44256383981393 C-9.02531350918007 -47.09031070578667, -5.407601249200316 -54.388683339745405, -1.4490629235638153 -73.00684636481407 M-11.653649126545693 -42.49907163027511 C-8.202679844193955 -50.00624015435762, -6.534632474675281 -57.226539167523114, -1.7334958767874014 -70.86993142053785" stroke="#000000" stroke-width="1" fill="none"></path></g></g><g><g transform="translate(762.5106629747897 367.53892873972654) rotate(0 1.0986752230674028 53.16494593396783)"><path d="M1.1115624345839024 0.2302797995507717 C-0.17401010251313226 32.82590574649363, -1.0462356618486854 61.786140020013185, 2.6050431188195944 105.6388185378164 M-0.4076926726847887 0.26699683256447315 C-0.1383480554917813 25.289935816283087, 0.15203971391546056 49.1370858803374, 0.4968717694282532 106.09961206838489" stroke="#000000" stroke-width="1" fill="none"></path></g></g><g><g transform="translate(762.8289706239561 472.86646684311984) rotate(0 -232.31341234799697 1.6575653598944484)"><path d="M0.7468918256668662 0.6155966976709308 C-125.56870761802035 -0.7509507364402984, -252.0941858737435 0.5542303212496511, -465.3737165216607 3.3127390291284113 M-0.05234116288901475 0.0023916906604573903 C-123.42654445225388 0.6897469174337433, -246.40759996894965 1.6849100452190204, -464.71067028590227 2.420826362448527" stroke="#000000" stroke-width="1" fill="none"></path></g><g transform="translate(762.8289706239561 472.86646684311984) rotate(0 -232.31341234799697 1.6575653598944484)"><path d="M-434.93432799838575 -6.614288473566918 C-443.2719019551839 -5.793855163601005, -452.1405848181461 -1.7874934088135461, -466.1137253614583 3.54927419685085 M-436.6766854554424 -7.9510980547125625 C-444.36333537851766 -5.337272679492257, -451.18002557940326 -2.0314420242983475, -464.6682600593635 1.6048716157700555" stroke="#000000" stroke-width="1" fill="none"></path></g><g transform="translate(762.8289706239561 472.86646684311984) rotate(0 -232.31341234799697 1.6575653598944484)"><path d="M-434.84943420463816 13.906744527469417 C-443.40912438538123 9.164803327974234, -452.30081620301854 7.609303639618792, -466.1137253614583 3.54927419685085 M-436.5917916616948 12.569934946323773 C-444.2660929894671 9.740135164950992, -451.1053030282902 7.602336585394474, -464.6682600593635 1.6048716157700555" stroke="#000000" stroke-width="1" fill="none"></path></g></g><g transform="translate(775.8150329589844 390.6668701171875) rotate(0 15.5 12.5)"><text x="15.5" y="18" font-family="Virgil, Segoe UI Emoji" font-size="20px" fill="#000000" text-anchor="middle" style="white-space: pre;" direction="ltr">yes</text></g><g><g transform="translate(478.384437522217 181.0567717078343) rotate(0 -0.18915795420292625 -35.86732370790244)"><path d="M-0.08094263449311256 0.818090382963419 C-2.226484084788661 -23.692012814752164, 0.9324012275082596 -44.03456565663518, 0.44305606126954444 -70.5313294737071 M0.029792459681630135 0.11182129196822643 C-1.070369311736981 -23.160714846589443, -1.0038856229227846 -45.65166990019018, -0.5909399489296447 -72.5527377987683" stroke="#000000" stroke-width="1" fill="none"></path></g><g transform="translate(478.384437522217 181.0567717078343) rotate(0 -0.18915795420292625 -35.86732370790244)"><path d="M9.276558700568222 -43.43220024212423 C4.191477703874481 -54.18773746008409, 4.3465419837352295 -60.71875362590946, 0.3587230903672207 -71.36816789977553 M9.387293794742964 -44.138469333119424 C5.662312770656726 -53.58450012213434, 2.7198754030541465 -62.24046864447758, -0.6752729198319685 -73.38957622483673" stroke="#000000" stroke-width="1" fill="none"></path></g><g transform="translate(478.384437522217 181.0567717078343) rotate(0 -0.18915795420292625 -35.86732370790244)"><path d="M-11.243396787175774 -43.658980238694944 C-9.799932339800154 -54.21855525103895, -3.1166584047659978 -60.67742372804027, 0.3587230903672207 -71.36816789977553 M-11.132661693001031 -44.36524932969014 C-8.316342727884981 -53.720577766770674, -4.7194865490196065 -62.30427610466208, -0.6752729198319685 -73.38957622483673" stroke="#000000" stroke-width="1" fill="none"></path></g></g><g transform="translate(493.9887390136719 142.88873291015625) rotate(0 10 12.5)"><text x="10" y="18" font-family="Virgil, Segoe UI Emoji" font-size="20px" fill="#000000" text-anchor="middle" style="white-space: pre;" direction="ltr">no</text></g><g transform="translate(425.7870788574219 48.20025634765625) rotate(0 52.40350341796875 28.686660766601562)"><path d="M-0.5680716075003147 -1.3845656476914883 C24.235558461646058 0.7219511100846214, 45.073608544220164 -0.4622779062193947, 104.75389301404354 0.1427033580839634 M-0.8658890407532454 0.6701138000935316 C32.77860023526547 -0.529993059648725, 66.69924498308595 -1.0330047035352912, 105.20047792978582 -0.7568288464099169 M105.37222587689755 -0.311673816293478 C104.1930189478495 11.75144468013146, 104.45443264127753 22.584891698284913, 103.05112027749416 58.973258916288614 M104.60861954279241 -0.3530274052172899 C103.41626630209326 13.850650809473649, 104.49703387401938 26.713201628534705, 104.42215028591451 57.962795374915004 M105.44694947823879 56.04460806027055 C69.88230513866066 56.94818477945985, 31.077422609385252 59.34460609274568, 1.116928931325674 56.64976555481553 M104.16004958935079 58.10007154755294 C67.87253236371802 57.01879092801336, 29.437952836449526 56.13078859198812, -0.36098196916282177 56.41268807463348 M1.017793532460928 59.28492695465684 C-0.6167600641353005 44.281287037519945, 1.2591937293903954 29.467165095236567, -0.9206292666494846 0.3046695627272129 M0.678842993453145 57.80345850996673 C-0.6011818905179604 43.61833068243346, -0.09532352879692157 30.4117776077078, 0.9356148559600115 -0.9352879542857409" stroke="#000000" stroke-width="1" fill="none"></path></g><g transform="translate(452.0536804199219 61.115570068359375) rotate(0 26 12.5)"><text x="26" y="18" font-family="Virgil, Segoe UI Emoji" font-size="20px" fill="#000000" text-anchor="middle" style="white-space: pre;" direction="ltr">panic!</text></g></svg>