<svg version="1.1" xmlns="http://www.w3.org/2000/svg" viewBox="0 0 844.8145141601562 343.54541015625" width="1689.6290283203125" height="687.0908203125" filter="invert(93%) hue-rotate(180deg)">
  <!-- svg-source:excalidraw -->
  
  <defs>
    <style>
      @font-face {
        font-family: "Virgil";
        src: url("https://excalidraw.com/Virgil.woff2");
      }
      @font-face {
        font-family: "Cascadia";
        src: url("https://excalidraw.com/Cascadia.woff2");
      }
    </style>
  </defs>
  <rect x="0" y="0" width="844.8145141601562" height="343.54541015625" fill="#ffffff"></rect><g transform="translate(81.61981201171875 10) rotate(0 100.15206909179688 94.87806701660156)"><path d="M101.54296707734466 1.5637905038893223 C132.09817782919427 28.413903983815793, 159.1200752041217 53.72674036542256, 199.8610407076776 94.24174005165696 M100.10112503357232 0.40649556927382946 C121.37295878161613 19.77604893656021, 140.59158691707873 38.32140769591128, 199.99802026338875 94.38187378458679 M201.6647983752191 95.42810994759202 C167.7902306470305 128.83472392593532, 131.14659283330704 161.37044321625189, 99.47652053460479 189.8788599409163 M200.4667697865516 95.39010637812316 C171.63521996683622 125.35218630409335, 140.39378533850774 154.68921116737351, 100.53978386707604 190.66318166069686 M102.66324329003692 188.17298740521073 C70.31566095701781 159.87275609731532, 37.24379275995669 130.28961783176004, 0.8433088026940823 94.35921484604478 M100.56680670566857 189.08262336067855 C68.89352281039781 156.88418918039775, 35.25185866991258 126.49932811389002, 0.357565613463521 95.04972749762237 M0.015535708516836166 96.92418581619859 C33.49313810067252 63.942063948456195, 68.94005379667507 31.36115719689056, 99.87443041428924 -0.36947184428572655 M0.4775297362357378 95.83789783529937 C36.23121999567375 60.91853825790808, 73.14602124663071 25.61353835785762, 101.6411848384887 0.633338687941432" stroke="#000000" stroke-width="1" fill="none"></path></g><g transform="translate(374.4891052246094 11.971054077148438) rotate(0 100.15206909179688 94.87806701660156)"><path d="M102.715039011091 -1.3518956266343594 C137.64300024321136 35.45081384549845, 175.46965637677948 71.36741106561382, 201.6006327830255 94.09080917015672 M100.064188035205 -0.5793526191264391 C132.86845509693168 30.782555432851613, 164.88443724567355 61.089263751032945, 200.22554096765816 95.0337895732373 M201.7699910365045 93.18306285515428 C178.33519591895006 114.66823105126817, 160.33207258384226 133.81164068971964, 100.64776849374175 191.189095441252 M200.67652926035225 94.68966620974243 C177.110315133229 115.78331101436459, 155.02858070025943 136.51957942893154, 100.16707721538842 189.7403980474919 M102.88368558511138 189.14301294460893 C66.75036910438071 159.57886514398257, 34.2029905246673 125.16306084584423, 1.6439665518701077 94.90942532196641 M100.7407919485122 189.52428066544235 C71.99422921442081 161.7835926955542, 42.03806653019627 134.35946028181812, -0.030651597306132317 95.41674643568695 M-0.07601845636963844 93.51309258118272 C40.14056507544593 58.16353166991844, 76.85723172416911 24.268723851572716, 101.39287685975432 0.5588972009718418 M0.5129575449973345 95.9736545663327 C22.810103226359935 74.2496156929247, 46.92549387188628 52.19505746329203, 100.75186136551201 0.09997463040053844" stroke="#000000" stroke-width="1" fill="none"></path></g><g transform="translate(147.0711669921875 67.9454345703125) rotate(0 34 37.5)"><text x="34" y="18" font-family="Virgil, Segoe UI Emoji" font-size="20px" fill="#000000" text-anchor="middle" style="white-space: pre;" direction="ltr">Is the</text><text x="34" y="43" font-family="Virgil, Segoe UI Emoji" font-size="20px" fill="#000000" text-anchor="middle" style="white-space: pre;" direction="ltr">channel</text><text x="34" y="68" font-family="Virgil, Segoe UI Emoji" font-size="20px" fill="#000000" text-anchor="middle" style="white-space: pre;" direction="ltr">nil?</text></g><g transform="translate(442.9483642578125 66.40237426757812) rotate(0 34 37.5)"><text x="34" y="18" font-family="Virgil, Segoe UI Emoji" font-size="20px" fill="#000000" text-anchor="middle" style="white-space: pre;" direction="ltr">Is the</text><text x="34" y="43" font-family="Virgil, Segoe UI Emoji" font-size="20px" fill="#000000" text-anchor="middle" style="white-space: pre;" direction="ltr">channel</text><text x="34" y="68" font-family="Virgil, Segoe UI Emoji" font-size="20px" fill="#000000" text-anchor="middle" style="white-space: pre;" direction="ltr">open?</text></g><g transform="translate(10 97.57708740234375) rotate(0 11.31219482421875 9.465011596679688)"><path d="M13.375649330870313 -0.05024721111244723 C15.589025594887353 0.38641671672116784, 18.147528412447432 1.967122954403509, 19.770387980481278 3.5951085253692954 C21.393247548515124 5.223094096335082, 23.201964988555016 7.555289032188263, 23.112806739073385 9.717666214682271 C23.023648489591753 11.88004339717628, 20.872382052297738 14.951894884604112, 19.235438483591494 16.56937162033335 C17.59849491488525 18.186848356062587, 15.489299609959602 19.193527590778984, 13.291145326835926 19.4225266290577 C11.09299104371225 19.651525667336415, 8.041916478964124 19.028373169451797, 6.046512784849432 17.943365850005648 C4.051109090734742 16.8583585305595, 2.1167972887140865 14.905667999313321, 1.31872316214778 12.912482712380799 C0.5206490355814736 10.919297425448276, 0.43610741537656417 8.031821907115313, 1.2580680254515944 5.984254128410514 C2.0800286355266246 3.936686349705715, 3.941938887515234 1.450493028888236, 6.250486822597961 0.6270760401520032 C8.559034757680688 -0.19634094858422968, 13.330356397069078 0.9520199846118323, 15.109355635947955 1.0437521959931164 C16.88835487482683 1.1354844073744006, 16.94381997614005 1.0090510322031545, 16.924482255871215 1.1774693084397079 M15.276236797625954 0.06681132628867559 C17.316493665356425 0.8541677095500884, 20.08465837378832 4.043738725671483, 21.06143106187016 5.869395685436155 C22.038203749952 7.6950526452008265, 21.55908658105357 8.895252580817804, 21.136872926117 11.020753084876707 C20.71465927118043 13.146253588935611, 20.507471908804778 17.074019183368403, 18.52814913225075 18.62239870978957 C16.548826355696722 20.17077823621074, 11.940045370264642 20.613388634279822, 9.260936266792827 20.311030243403714 C6.581827163321012 20.008671852527605, 3.869490797134014 18.416044346398493, 2.453494511419862 16.808248364532925 C1.0374982257057106 15.200452382667358, 0.8456485968499233 12.792690860815572, 0.7649585525079186 10.664254352210312 C0.6842685081659138 8.535817843605052, 0.8691071456307076 6.014283760381473, 1.9693542453678337 4.037629312901371 C3.0696013451049597 2.0609748654212696, 4.969846702385441 -0.45654838665837294, 7.366441150930675 -1.1956723326702967 C9.76303559947591 -1.9347962786822204, 14.834754622920382 -0.7542752201692775, 16.348920936639242 -0.39711436317017146 C17.863087250358102 -0.039953506171065356, 16.670980933071746 0.7098677589420403, 16.451439033243837 0.94729280932434" stroke="#000000" stroke-width="1" fill="none"></path></g><g><g transform="translate(38.91217041015625 107.42623901367188) rotate(0 23.451742122001008 -1.5988378740847224)"><path d="M-1.1930198214948178 -0.2598033763468266 C6.605319410314164 -0.8281088608006636, 38.08033062393467 -2.5672727284332115, 45.893158838897946 -2.9378723718225954 M0.38150604288093737 -1.441804094268009 C8.625532465878253 -1.84370372658285, 40.16678724905165 -0.8595217062563943, 48.096504065496845 -1.3804392161499708" stroke="#000000" stroke-width="1" fill="none"></path></g><g transform="translate(38.91217041015625 107.42623901367188) rotate(0 23.451742122001008 -1.5988378740847224)"><path d="M25.694823652336463 5.28754634834623 C31.107440856588283 3.2915279577924768, 36.81356274317598 4.386056842882535, 48.29706016863696 -0.3367845396231859 M26.621151411736474 6.054820346234199 C29.872621262802472 6.162847388849277, 35.27829513058069 2.7670518607837984, 48.97716882946901 -0.8116175158601253" stroke="#000000" stroke-width="1" fill="none"></path></g><g transform="translate(38.91217041015625 107.42623901367188) rotate(0 23.451742122001008 -1.5988378740847224)"><path d="M25.51055278070758 -10.77141018066445 C31.027838842061822 -9.148151419140971, 36.77546963814048 -4.436177371993493, 48.29706016863696 -0.3367845396231859 M26.43688054010759 -10.004136182776481 C29.874117650929865 -6.478366821311332, 35.318994138910575 -6.457707170702971, 48.97716882946901 -0.8116175158601253" stroke="#000000" stroke-width="1" fill="none"></path></g></g><g><g transform="translate(282.0575071210974 106.09061017977069) rotate(0 48.4919478549063 -1.364354223990773)"><path d="M1.1790842436254023 -0.42447595819830897 C16.73350701364687 -0.6115392246128295, 78.65270687802688 -2.229265628398048, 94.4994399813003 -2.3042324897832716 M0.3389647421892734 -1.6929297815915199 C16.14832658762111 -1.6558839142260378, 80.72620116984464 -1.0563052928509433, 96.64493096762328 -1.2688316930178098" stroke="#000000" stroke-width="1" fill="none"></path></g><g transform="translate(282.0575071210974 106.09061017977069) rotate(0 48.4919478549063 -1.364354223990773)"><path d="M67.75046261876764 7.2038282602951185 C78.17650605870888 5.775085510235244, 91.77092059934388 -0.017870595690117952, 97.87643242397337 0.5379677820858069 M69.11941695503833 9.998594382770385 C77.55467339673268 5.224463845293053, 84.51809208015794 2.789999206909365, 97.34725294590919 -1.4846178539189987" stroke="#000000" stroke-width="1" fill="none"></path></g><g transform="translate(282.0575071210974 106.09061017977069) rotate(0 48.4919478549063 -1.364354223990773)"><path d="M67.74292601102172 -13.317378955299752 C77.96985834199451 -6.584050849937549, 91.56727050766636 -4.214862047978805, 97.87643242397337 0.5379677820858069 M69.11188034729241 -10.522612832824485 C77.44097846926894 -9.1224277377794, 84.40666471550404 -5.382612399844659, 97.34725294590919 -1.4846178539189987" stroke="#000000" stroke-width="1" fill="none"></path></g></g><g><g transform="translate(184.59521484375 201.01861572265625) rotate(0 0.6928936237777634 37.667501743882895)"><path d="M1.5983633436262608 -1.4030398167669773 C1.8764455488645546 25.177416871101403, 0.0871852547713581 45.76885032942039, 0.21525484696030617 76.73804330453277 M-0.14569723792374134 -0.9513718169182539 C0.11605973083904586 24.033316621560495, -1.0779157263191712 46.89134608832345, 1.1275439839810133 75.84697643108666" stroke="#000000" stroke-width="1" fill="none"></path></g><g transform="translate(184.59521484375 201.01861572265625) rotate(0 0.6928936237777634 37.667501743882895)"><path d="M-8.892017794624707 46.78487271377867 C-5.06526193715432 58.39684373877577, -3.357525202447559 64.00574379049364, 1.0431162137538195 76.43407979421318 M-10.636078376174709 47.23654071362739 C-6.746477232646633 57.560316457435384, -4.507379899099989 65.70968951116161, 1.9554053507745266 75.54301292076707" stroke="#000000" stroke-width="1" fill="none"></path></g><g transform="translate(184.59521484375 201.01861572265625) rotate(0 0.6928936237777634 37.667501743882895)"><path d="M11.604963917945096 45.788006092600824 C9.097705647250535 57.68253894330631, 4.472490590521726 63.599440843439695, 1.0431162137538195 76.43407979421318 M9.860903336395094 46.23967409244955 C7.529313483893516 56.779359112790615, 3.5512238135713146 65.2311038175574, 1.9554053507745266 75.54301292076707" stroke="#000000" stroke-width="1" fill="none"></path></g></g><g><g transform="translate(475.62738037109375 203.97454833984375) rotate(0 1.081535815482141 50.501372545957565)"><path d="M0.3570287860929966 -1.8634665049612522 C1.9287054786053925 34.936874955571135, 2.0563308704559042 67.30003812919362, 1.5307166714849245 102.7493614833802 M0.7995330672711134 0.2606902439147234 C1.0241754828807625 42.11174273426804, 1.9260573881018328 82.86763702455451, 0.3982378923030865 102.86621159687638" stroke="#000000" stroke-width="1" fill="none"></path></g></g><g><g transform="translate(478.244140625 306.96630859375) rotate(0 -109.24050984898327 0.8363173677277587)"><path d="M-0.25191761800638607 -0.941582104410775 C-73.55463663132755 0.6842796714465079, -148.84921894746333 -1.480034059759409, -217.0944359323557 1.2526149740513037 M-0.5775749444963051 0.18306748022018568 C-51.37649271356292 0.5882521994500088, -104.09252505052464 1.1590798559349504, -218.22910207996014 2.6142168398663017" stroke="#000000" stroke-width="1" fill="none"></path></g><g transform="translate(478.244140625 306.96630859375) rotate(0 -109.24050984898327 0.8363173677277587)"><path d="M-190.4577000452222 -9.078720552554103 C-199.16286867880908 -3.110202799252532, -210.15045234278207 -2.90553364277038, -216.89051837587598 1.3881966862544033 M-190.8322252588363 -7.7853069190734345 C-195.88922776539147 -5.703959886889255, -203.21800835296185 -3.1485244732108635, -218.19545165004078 2.9541194773926946" stroke="#000000" stroke-width="1" fill="none"></path></g><g transform="translate(478.244140625 306.96630859375) rotate(0 -109.24050984898327 0.8363173677277587)"><path d="M-190.2027389972775 11.440904133337956 C-198.97371499697 10.448996392344394, -210.0477601452298 3.69512336501995, -216.89051837587598 1.3881966862544033 M-190.5772642108916 12.734317766818624 C-195.86098684024992 9.910659384654727, -203.25071796976076 7.560709230214371, -218.19545165004078 2.9541194773926946" stroke="#000000" stroke-width="1" fill="none"></path></g></g><g transform="translate(166.99139404296875 290.57177734375) rotate(0 26 12.5)"><text x="26" y="18" font-family="Virgil, Segoe UI Emoji" font-size="20px" fill="#000000" text-anchor="middle" style="white-space: pre;" direction="ltr">panic!</text></g><g transform="translate(112.98583984375 278.63232421875) rotate(0 73.329833984375 27.45654296875)"><path d="M-1.2517198361456394 -1.7682105861604214 C40.28016181347694 0.8864272375175735, 84.83755234371475 2.7169954319069167, 147.70779895409942 -1.6692061983048916 M-0.9447297137230635 0.9519888740032911 C56.26797110360576 -1.1051790222233921, 114.62554077164259 -0.828327308566013, 147.56821051426232 0.2572144251316786 M146.44896506890655 1.160321656614542 C148.58600676248537 16.70145493529108, 148.3196227569388 34.53940599350863, 145.70462262257934 53.91918093338609 M146.03090229816735 0.852315304800868 C146.92470935857023 14.428304028597086, 146.67791459834302 27.70753791535717, 147.6254179198295 54.62897449545562 M147.0172303877771 54.808614794164896 C108.77177818814607 53.5111521888864, 68.17561416600529 54.430915634740586, 1.339900728315115 53.26114243641496 M145.9505822379142 54.635772762820125 C109.55194143415784 54.21239857998379, 73.48823295767197 53.836315265565, 0.7578378040343523 54.50172447972 M-1.5172607935965061 55.21731824055314 C1.162343887590232 43.946297411703746, -2.2832011897336812 32.11784631552037, -1.0100239552557468 1.1336558498442173 M-0.0979823749512434 55.20586466602981 C0.32391458030340803 41.901033693128376, 0.06898307080862653 29.193368781628305, 0.015091748908162117 0.4938115458935499" stroke="#000000" stroke-width="1" fill="none"></path></g><g transform="translate(311.36956787109375 67.1448974609375) rotate(0 10 12.5)"><text x="10" y="18" font-family="Virgil, Segoe UI Emoji" font-size="20px" fill="#000000" text-anchor="middle" style="white-space: pre;" direction="ltr">no</text></g><g transform="translate(192.20965576171875 204.06561279296875) rotate(0 15.5 12.5)"><text x="15.5" y="18" font-family="Virgil, Segoe UI Emoji" font-size="20px" fill="#000000" text-anchor="middle" style="white-space: pre;" direction="ltr">yes</text></g><g><g transform="translate(574.7271444016853 104.40068707697776) rotate(0 47.393965814594594 -0.1015490136373387)"><path d="M-1.5625229440629482 -0.5450328625738621 C35.216109458861006 2.144703766364511, 71.66117779585494 -0.1631067273767054, 96.35045457325214 -0.9003161768733889 M0.8868905287235975 -0.9072879832237959 C19.939790527750283 0.47205214930274525, 38.81794895061242 0.11822656920567767, 96.2901792514258 -0.4503760560720593" stroke="#000000" stroke-width="1" fill="none"></path></g><g transform="translate(574.7271444016853 104.40068707697776) rotate(0 47.393965814594594 -0.1015490136373387)"><path d="M66.63821144700768 9.539442168914205 C77.4680211616096 8.059967104796788, 87.96451316319494 1.6153061150591475, 95.45528084292346 -1.8314528725414903 M69.08762491979422 9.17718704826427 C74.13925864186507 8.308881890422125, 79.05661576203835 5.7293562546835854, 95.39500552109712 -1.3815127517401606" stroke="#000000" stroke-width="1" fill="none"></path></g><g transform="translate(574.7271444016853 104.40068707697776) rotate(0 47.393965814594594 -0.1015490136373387)"><path d="M66.43822141281441 -10.980791903144107 C77.34359516436785 -4.7539158006972375, 87.91519228881324 -3.4923192895750086, 95.45528084292346 -1.8314528725414903 M68.88763488560096 -11.34304702379404 C74.0550559652423 -8.065183368143305, 79.01282099386921 -6.498603708307212, 95.39500552109712 -1.3815127517401606" stroke="#000000" stroke-width="1" fill="none"></path></g></g><g transform="translate(672.6345825195312 52.232696533203125) rotate(0 81.0899658203125 49.01234436035156)"><path d="M1.3285240568220615 1.1847468577325344 C57.676851082663006 -0.926964498886514, 111.68625370054497 -0.8713003171772244, 163.30933767929673 1.558892723172903 M0.582293389365077 -0.11580195836722851 C59.405624692035104 -0.050767328390725286, 118.867259751419 1.1870742181447667, 162.33257013373077 0.012700708582997322 M161.56473833695054 0.004038330167531967 C162.057615706324 18.83162243581186, 162.54216797053755 41.00295272675892, 164.05538243427873 99.90994917973873 M162.97083812765777 -0.15296444110572338 C162.98907059024202 27.43509167859479, 163.26443075726854 53.84971830915956, 162.36924528889358 98.38380429334936 M163.3072125352919 97.00075518712399 C101.15626139011297 98.04372379747784, 36.37463779010004 94.99908432928478, -0.14092129096388817 99.61305260285732 M163.0525114517659 98.32475230284032 C114.60096931788061 98.36106900091507, 65.9004018391467 97.72517321224548, 0.2911266665905714 99.00001171417532 M0.4579241909086704 98.4833080731332 C-2.626446061719194 68.95444628271237, -2.480921202290788 41.97904747446927, 0.5174235738813877 0.553334828466177 M-0.11683947034180164 98.06661585159597 C-0.6974329676916516 79.27965336492709, -0.07574025061630374 59.27885611568496, 0.09009659104049206 -0.9474538844078779" stroke="#000000" stroke-width="1" fill="none"></path></g><g transform="translate(697.2346801757812 71.94070434570312) rotate(0 59.5 25)"><text x="59.5" y="18" font-family="Virgil, Segoe UI Emoji" font-size="20px" fill="#000000" text-anchor="middle" style="white-space: pre;" direction="ltr">The channel</text><text x="59.5" y="43" font-family="Virgil, Segoe UI Emoji" font-size="20px" fill="#000000" text-anchor="middle" style="white-space: pre;" direction="ltr">gets closed.</text></g><g transform="translate(596.6403198242188 67.66778564453125) rotate(0 15.5 12.5)"><text x="15.5" y="18" font-family="Virgil, Segoe UI Emoji" font-size="20px" fill="#000000" text-anchor="middle" style="white-space: pre;" direction="ltr">yes</text></g><g transform="translate(494.8656005859375 216.33880615234375) rotate(0 10 12.5)"><text x="10" y="18" font-family="Virgil, Segoe UI Emoji" font-size="20px" fill="#000000" text-anchor="middle" style="white-space: pre;" direction="ltr">no</text></g></svg>