<svg version="1.1" xmlns="http://www.w3.org/2000/svg" viewBox="0 0 844.8145141601562 343.54541015625" width="1689.6290283203125" height="687.0908203125">
  <!-- svg-source:excalidraw -->
  
  <defs>
    <style>
      @font-face {
        font-family: "Virgil";
        src: url("https://excalidraw.com/Virgil.woff2");
      }
      @font-face {
        font-family: "Cascadia";
        src: url("https://excalidraw.com/Cascadia.woff2");
      }
    </style>
  </defs>
  <g stroke-linecap="round" transform="translate(81.61981201171875 10) rotate(0 100.15206909179688 94.87806701660156)"><path d="M101.54 1.56 C132.1 28.41, 159.12 53.73, 199.86 94.24 M100.1 0.41 C121.37 19.78, 140.59 38.32, 200 94.38 M201.66 95.43 C167.79 128.83, 131.15 161.37, 99.48 189.88 M200.47 95.39 C171.64 125.35, 140.39 154.69, 100.54 190.66 M102.66 188.17 C70.32 159.87, 37.24 130.29, 0.84 94.36 M100.57 189.08 C68.89 156.88, 35.25 126.5, 0.36 95.05 M0.02 96.92 C33.49 63.94, 68.94 31.36, 99.87 -0.37 M0.48 95.84 C36.23 60.92, 73.15 25.61, 101.64 0.63" stroke="#000000" stroke-width="1" fill="none"></path></g><g stroke-linecap="round" transform="translate(374.4891052246094 11.971054077148438) rotate(0 100.15206909179688 94.87806701660156)"><path d="M102.72 -1.35 C137.64 35.45, 175.47 71.37, 201.6 94.09 M100.06 -0.58 C132.87 30.78, 164.88 61.09, 200.23 95.03 M201.77 93.18 C178.34 114.67, 160.33 133.81, 100.65 191.19 M200.68 94.69 C177.11 115.78, 155.03 136.52, 100.17 189.74 M102.88 189.14 C66.75 159.58, 34.2 125.16, 1.64 94.91 M100.74 189.52 C71.99 161.78, 42.04 134.36, -0.03 95.42 M-0.08 93.51 C40.14 58.16, 76.86 24.27, 101.39 0.56 M0.51 95.97 C22.81 74.25, 46.93 52.2, 100.75 0.1" stroke="#000000" stroke-width="1" fill="none"></path></g><g transform="translate(147.0711669921875 67.9454345703125) rotate(0 34 37.5)"><text x="34" y="18" font-family="Virgil, Segoe UI Emoji" font-size="20px" fill="#000000" text-anchor="middle" style="white-space: pre;" direction="ltr">Is the</text><text x="34" y="43" font-family="Virgil, Segoe UI Emoji" font-size="20px" fill="#000000" text-anchor="middle" style="white-space: pre;" direction="ltr">channel</text><text x="34" y="68" font-family="Virgil, Segoe UI Emoji" font-size="20px" fill="#000000" text-anchor="middle" style="white-space: pre;" direction="ltr">nil?</text></g><g transform="translate(419.7584228515625 54.231414794921875) rotate(0 55 50)"><text x="55" y="18" font-family="Virgil, Segoe UI Emoji" font-size="20px" fill="#000000" text-anchor="middle" style="white-space: pre;" direction="ltr">Has</text><text x="55" y="43" font-family="Virgil, Segoe UI Emoji" font-size="20px" fill="#000000" text-anchor="middle" style="white-space: pre;" direction="ltr">the channel</text><text x="55" y="68" font-family="Virgil, Segoe UI Emoji" font-size="20px" fill="#000000" text-anchor="middle" style="white-space: pre;" direction="ltr">been closed</text><text x="55" y="93" font-family="Virgil, Segoe UI Emoji" font-size="20px" fill="#000000" text-anchor="middle" style="white-space: pre;" direction="ltr">yet?</text></g><g stroke-linecap="round" transform="translate(10 97.57708740234375) rotate(0 11.31219482421875 9.465011596679688)"><path d="M13.38 -0.05 C15.59 0.39, 18.15 1.97, 19.77 3.6 C21.39 5.22, 23.2 7.56, 23.11 9.72 C23.02 11.88, 20.87 14.95, 19.24 16.57 C17.6 18.19, 15.49 19.19, 13.29 19.42 C11.09 19.65, 8.04 19.03, 6.05 17.94 C4.05 16.86, 2.12 14.91, 1.32 12.91 C0.52 10.92, 0.44 8.03, 1.26 5.98 C2.08 3.94, 3.94 1.45, 6.25 0.63 C8.56 -0.2, 13.33 0.95, 15.11 1.04 C16.89 1.14, 16.94 1.01, 16.92 1.18 M15.28 0.07 C17.32 0.85, 20.08 4.04, 21.06 5.87 C22.04 7.7, 21.56 8.9, 21.14 11.02 C20.71 13.15, 20.51 17.07, 18.53 18.62 C16.55 20.17, 11.94 20.61, 9.26 20.31 C6.58 20.01, 3.87 18.42, 2.45 16.81 C1.04 15.2, 0.85 12.79, 0.76 10.66 C0.68 8.54, 0.87 6.01, 1.97 4.04 C3.07 2.06, 4.97 -0.46, 7.37 -1.2 C9.76 -1.93, 14.83 -0.75, 16.35 -0.4 C17.86 -0.04, 16.67 0.71, 16.45 0.95" stroke="#000000" stroke-width="1" fill="none"></path></g><g stroke-linecap="round"><g transform="translate(38.91217041015625 107.42623901367188) rotate(0 23.451742122001008 -1.5988378740847224)"><path d="M-1.19 -0.26 C6.61 -0.83, 38.08 -2.57, 45.89 -2.94 M0.38 -1.44 C8.63 -1.84, 40.17 -0.86, 48.1 -1.38" stroke="#000000" stroke-width="1" fill="none"></path></g><g transform="translate(38.91217041015625 107.42623901367188) rotate(0 23.451742122001008 -1.5988378740847224)"><path d="M25.69 5.29 C31.11 3.29, 36.81 4.39, 48.3 -0.34 M26.62 6.05 C29.87 6.16, 35.28 2.77, 48.98 -0.81" stroke="#000000" stroke-width="1" fill="none"></path></g><g transform="translate(38.91217041015625 107.42623901367188) rotate(0 23.451742122001008 -1.5988378740847224)"><path d="M25.51 -10.77 C31.03 -9.15, 36.78 -4.44, 48.3 -0.34 M26.44 -10 C29.87 -6.48, 35.32 -6.46, 48.98 -0.81" stroke="#000000" stroke-width="1" fill="none"></path></g></g><g stroke-linecap="round"><g transform="translate(282.0575071210974 106.09061017977069) rotate(0 48.4919478549063 -1.364354223990773)"><path d="M1.18 -0.42 C16.73 -0.61, 78.65 -2.23, 94.5 -2.3 M0.34 -1.69 C16.15 -1.66, 80.73 -1.06, 96.64 -1.27" stroke="#000000" stroke-width="1" fill="none"></path></g><g transform="translate(282.0575071210974 106.09061017977069) rotate(0 48.4919478549063 -1.364354223990773)"><path d="M67.75 7.2 C78.18 5.78, 91.77 -0.02, 97.88 0.54 M69.12 10 C77.55 5.22, 84.52 2.79, 97.35 -1.48" stroke="#000000" stroke-width="1" fill="none"></path></g><g transform="translate(282.0575071210974 106.09061017977069) rotate(0 48.4919478549063 -1.364354223990773)"><path d="M67.74 -13.32 C77.97 -6.58, 91.57 -4.21, 97.88 0.54 M69.11 -10.52 C77.44 -9.12, 84.41 -5.38, 97.35 -1.48" stroke="#000000" stroke-width="1" fill="none"></path></g></g><g stroke-linecap="round"><g transform="translate(184.59521484375 201.01861572265625) rotate(0 0.6928936237777634 37.667501743882895)"><path d="M1.6 -1.4 C1.88 25.18, 0.09 45.77, 0.22 76.74 M-0.15 -0.95 C0.12 24.03, -1.08 46.89, 1.13 75.85" stroke="#000000" stroke-width="1" fill="none"></path></g><g transform="translate(184.59521484375 201.01861572265625) rotate(0 0.6928936237777634 37.667501743882895)"><path d="M-8.89 46.78 C-5.07 58.4, -3.36 64.01, 1.04 76.43 M-10.64 47.24 C-6.75 57.56, -4.51 65.71, 1.96 75.54" stroke="#000000" stroke-width="1" fill="none"></path></g><g transform="translate(184.59521484375 201.01861572265625) rotate(0 0.6928936237777634 37.667501743882895)"><path d="M11.6 45.79 C9.1 57.68, 4.47 63.6, 1.04 76.43 M9.86 46.24 C7.53 56.78, 3.55 65.23, 1.96 75.54" stroke="#000000" stroke-width="1" fill="none"></path></g></g><g stroke-linecap="round"><g transform="translate(475.62738037109375 203.97454833984375) rotate(0 1.081535815482141 50.501372545957565)"><path d="M0.36 -1.86 C1.93 34.94, 2.06 67.3, 1.53 102.75 M0.8 0.26 C1.02 42.11, 1.93 82.87, 0.4 102.87" stroke="#000000" stroke-width="1" fill="none"></path></g></g><g stroke-linecap="round"><g transform="translate(478.244140625 306.96630859375) rotate(0 -109.24050984898327 0.8363173677277587)"><path d="M-0.25 -0.94 C-73.55 0.68, -148.85 -1.48, -217.09 1.25 M-0.58 0.18 C-51.38 0.59, -104.09 1.16, -218.23 2.61" stroke="#000000" stroke-width="1" fill="none"></path></g><g transform="translate(478.244140625 306.96630859375) rotate(0 -109.24050984898327 0.8363173677277587)"><path d="M-190.46 -9.08 C-199.16 -3.11, -210.15 -2.91, -216.89 1.39 M-190.83 -7.79 C-195.89 -5.7, -203.22 -3.15, -218.2 2.95" stroke="#000000" stroke-width="1" fill="none"></path></g><g transform="translate(478.244140625 306.96630859375) rotate(0 -109.24050984898327 0.8363173677277587)"><path d="M-190.2 11.44 C-198.97 10.45, -210.05 3.7, -216.89 1.39 M-190.58 12.73 C-195.86 9.91, -203.25 7.56, -218.2 2.95" stroke="#000000" stroke-width="1" fill="none"></path></g></g><g transform="translate(166.99139404296875 290.57177734375) rotate(0 26 12.5)"><text x="26" y="18" font-family="Virgil, Segoe UI Emoji" font-size="20px" fill="#000000" text-anchor="middle" style="white-space: pre;" direction="ltr">panic!</text></g><g stroke-linecap="round" transform="translate(112.98583984375 278.63232421875) rotate(0 73.329833984375 27.45654296875)"><path d="M-1.25 -1.77 C40.28 0.89, 84.84 2.72, 147.71 -1.67 M-0.94 0.95 C56.27 -1.11, 114.63 -0.83, 147.57 0.26 M146.45 1.16 C148.59 16.7, 148.32 34.54, 145.7 53.92 M146.03 0.85 C146.92 14.43, 146.68 27.71, 147.63 54.63 M147.02 54.81 C108.77 53.51, 68.18 54.43, 1.34 53.26 M145.95 54.64 C109.55 54.21, 73.49 53.84, 0.76 54.5 M-1.52 55.22 C1.16 43.95, -2.28 32.12, -1.01 1.13 M-0.1 55.21 C0.32 41.9, 0.07 29.19, 0.02 0.49" stroke="#000000" stroke-width="1" fill="none"></path></g><g transform="translate(311.36956787109375 67.1448974609375) rotate(0 10 12.5)"><text x="10" y="18" font-family="Virgil, Segoe UI Emoji" font-size="20px" fill="#000000" text-anchor="middle" style="white-space: pre;" direction="ltr">no</text></g><g transform="translate(192.20965576171875 204.06561279296875) rotate(0 15.5 12.5)"><text x="15.5" y="18" font-family="Virgil, Segoe UI Emoji" font-size="20px" fill="#000000" text-anchor="middle" style="white-space: pre;" direction="ltr">yes</text></g><g stroke-linecap="round"><g transform="translate(574.7271444016853 104.40068707697776) rotate(0 47.393965814594594 -0.1015490136373387)"><path d="M-1.56 -0.55 C35.22 2.14, 71.66 -0.16, 96.35 -0.9 M0.89 -0.91 C19.94 0.47, 38.82 0.12, 96.29 -0.45" stroke="#000000" stroke-width="1" fill="none"></path></g><g transform="translate(574.7271444016853 104.40068707697776) rotate(0 47.393965814594594 -0.1015490136373387)"><path d="M66.64 9.54 C77.47 8.06, 87.96 1.62, 95.46 -1.83 M69.09 9.18 C74.14 8.31, 79.06 5.73, 95.4 -1.38" stroke="#000000" stroke-width="1" fill="none"></path></g><g transform="translate(574.7271444016853 104.40068707697776) rotate(0 47.393965814594594 -0.1015490136373387)"><path d="M66.44 -10.98 C77.34 -4.75, 87.92 -3.49, 95.46 -1.83 M68.89 -11.34 C74.06 -8.07, 79.01 -6.5, 95.4 -1.38" stroke="#000000" stroke-width="1" fill="none"></path></g></g><g stroke-linecap="round" transform="translate(672.6345825195312 52.232696533203125) rotate(0 81.0899658203125 49.01234436035156)"><path d="M1.33 1.18 C57.68 -0.93, 111.69 -0.87, 163.31 1.56 M0.58 -0.12 C59.41 -0.05, 118.87 1.19, 162.33 0.01 M161.56 0 C162.06 18.83, 162.54 41, 164.06 99.91 M162.97 -0.15 C162.99 27.44, 163.26 53.85, 162.37 98.38 M163.31 97 C101.16 98.04, 36.37 95, -0.14 99.61 M163.05 98.32 C114.6 98.36, 65.9 97.73, 0.29 99 M0.46 98.48 C-2.63 68.95, -2.48 41.98, 0.52 0.55 M-0.12 98.07 C-0.7 79.28, -0.08 59.28, 0.09 -0.95" stroke="#000000" stroke-width="1" fill="none"></path></g><g transform="translate(697.2346801757812 71.94070434570312) rotate(0 59.5 25)"><text x="59.5" y="18" font-family="Virgil, Segoe UI Emoji" font-size="20px" fill="#000000" text-anchor="middle" style="white-space: pre;" direction="ltr">The channel</text><text x="59.5" y="43" font-family="Virgil, Segoe UI Emoji" font-size="20px" fill="#000000" text-anchor="middle" style="white-space: pre;" direction="ltr">gets closed.</text></g><g transform="translate(602.1403198242188 67.66778564453125) rotate(0 10 12.5)"><text x="10" y="18" font-family="Virgil, Segoe UI Emoji" font-size="20px" fill="#000000" text-anchor="middle" style="white-space: pre;" direction="ltr">no</text></g><g transform="translate(490.3758544921875 206.4461669921875) rotate(0 15.5 12.5)"><text x="15.5" y="18" font-family="Virgil, Segoe UI Emoji" font-size="20px" fill="#000000" text-anchor="middle" style="white-space: pre;" direction="ltr">yes</text></g></svg>