<svg version="1.1" xmlns="http://www.w3.org/2000/svg" viewBox="0 0 1378.7134094238281 732.0002332414898" width="2757.4268188476562" height="1464.0004664829796" filter="invert(93%) hue-rotate(180deg)">
  <!-- svg-source:excalidraw -->
  
  <defs>
    <style class="style-fonts">
      
    </style>
    
  </defs>
  <g stroke-linecap="round" transform="translate(10 10) rotate(0 279.35670471191406 356.0001166207449)"><path d="M32 0 C161.95 -0.42, 292.24 -1.35, 526.71 0 M32 0 C167.23 0.18, 301.85 -0.14, 526.71 0 M526.71 0 C546.94 1.18, 558.93 12.32, 558.71 32 M526.71 0 C549.81 2.29, 557.74 8.39, 558.71 32 M558.71 32 C560.28 290.61, 559.29 547.73, 558.71 680 M558.71 32 C558.59 287.47, 559.06 542.78, 558.71 680 M558.71 680 C557.28 702.93, 546.33 710.46, 526.71 712 M558.71 680 C558.96 699.16, 546.54 710.03, 526.71 712 M526.71 712 C384.19 710.66, 242.5 710.12, 32 712 M526.71 712 C333.83 710.15, 141.05 710.18, 32 712 M32 712 C10.65 710.7, 1.55 700.81, 0 680 M32 712 C12.63 713.26, -0.93 699.98, 0 680 M0 680 C-0.69 500.19, -1.24 319.46, 0 32 M0 680 C-2 493.23, -1.52 306.08, 0 32 M0 32 C0.53 12.51, 12.6 -0.06, 32 0 M0 32 C-1.59 10.59, 10.78 -2, 32 0" stroke="#a9a9b2" stroke-width="1" fill="none"></path></g><g stroke-opacity="0.5" fill-opacity="0.5" stroke-linecap="round" transform="translate(51.061370849609375 55.727600097656136) rotate(0 228.82601928710938 317.35124969482416)"><path d="M7.86 8.16 C7.86 8.16, 7.86 8.16, 7.86 8.16 M7.86 8.16 C7.86 8.16, 7.86 8.16, 7.86 8.16 M3.66 19.09 C10.21 14.09, 16.14 8.16, 18.1 2.48 M3.66 19.09 C8.6 14.47, 13.46 6.87, 18.1 2.48 M2.75 26.24 C7.55 22.24, 14.74 15.38, 24.4 1.33 M2.75 26.24 C10.85 17.3, 17.44 9.85, 24.4 1.33 M1.83 33.39 C9.62 25.34, 16.18 20.8, 30.7 0.18 M1.83 33.39 C13.39 21.53, 23.13 7.27, 30.7 0.18 M1.57 39.79 C9.41 31.4, 20.04 17.54, 34.37 2.05 M1.57 39.79 C9.33 32.37, 15.92 24.16, 34.37 2.05 M1.96 45.43 C13.02 33.71, 20.89 24.71, 39.36 2.41 M1.96 45.43 C10.92 34.53, 22.36 22.15, 39.36 2.41 M1.7 51.83 C16.92 35.23, 27.51 19.62, 45 2.02 M1.7 51.83 C14.83 38.83, 27.09 24.1, 45 2.02 M1.44 58.23 C13.78 45.07, 23.49 31.98, 49.99 2.38 M1.44 58.23 C14.86 41.42, 28.89 26.77, 49.99 2.38 M1.83 63.87 C14.62 50.32, 29.59 32.8, 55.63 1.98 M1.83 63.87 C18.52 46.63, 33.77 28.48, 55.63 1.98 M1.57 70.27 C19.26 50.41, 34.44 35.17, 60.62 2.34 M1.57 70.27 C15.45 55.38, 27.36 40.63, 60.62 2.34 M1.97 75.91 C29.12 45.45, 52.33 17.11, 66.26 1.95 M1.97 75.91 C21.65 52.25, 41.15 28.64, 66.26 1.95 M1.71 82.31 C25.62 56.11, 46.68 29.78, 71.25 2.31 M1.71 82.31 C23.84 57.84, 44.36 34.89, 71.25 2.31 M1.44 88.71 C17.99 71.19, 33.29 49.8, 76.89 1.91 M1.44 88.71 C30.75 54.82, 61.76 20.34, 76.89 1.91 M1.84 94.35 C23.79 70.04, 45.27 44.18, 81.88 2.27 M1.84 94.35 C19.86 72.67, 39.23 50, 81.88 2.27 M1.58 100.75 C20.62 79.31, 38.39 56.52, 87.52 1.88 M1.58 100.75 C30.91 67.1, 60.83 33.7, 87.52 1.88 M1.97 106.39 C21.24 80.54, 42.58 58.56, 92.51 2.24 M1.97 106.39 C38.21 64.56, 73 23.23, 92.51 2.24 M1.71 112.79 C23.76 87.5, 44.76 59.93, 98.15 1.85 M1.71 112.79 C34.81 76.3, 68.18 38.05, 98.15 1.85 M1.45 119.19 C30.05 87.67, 55.94 60.01, 103.14 2.21 M1.45 119.19 C23.38 93.51, 44.74 66.76, 103.14 2.21 M1.84 124.83 C35.46 82.47, 70.89 44.31, 108.78 1.81 M1.84 124.83 C34.87 87.13, 68.48 47.79, 108.78 1.81 M1.58 131.23 C27.44 101.5, 52.44 72.34, 113.77 2.17 M1.58 131.23 C23.77 103.98, 47.09 79.3, 113.77 2.17 M1.98 136.87 C34.97 97.46, 71.31 56.62, 119.41 1.78 M1.98 136.87 C48.49 84.29, 95.51 30.65, 119.41 1.78 M1.72 143.27 C46.85 92.93, 91.05 42.2, 124.4 2.14 M1.72 143.27 C40.66 99.58, 76.95 55.93, 124.4 2.14 M1.45 149.67 C27.71 120.21, 55.85 89.12, 130.04 1.74 M1.45 149.67 C33.97 114.5, 66.03 75.91, 130.04 1.74 M1.85 155.31 C42.49 109.19, 81.7 61.51, 135.03 2.1 M1.85 155.31 C50.98 96.98, 100.34 40.25, 135.03 2.1 M1.59 161.71 C55.45 101.58, 106.55 39.5, 140.67 1.71 M1.59 161.71 C46.25 111.33, 90.28 61.02, 140.67 1.71 M1.98 167.35 C40.79 124.91, 76.74 80.39, 145.66 2.07 M1.98 167.35 C44.85 119.06, 87.59 70.52, 145.66 2.07 M1.72 173.75 C40.44 127.36, 80.73 85.5, 150.65 2.43 M1.72 173.75 C61.14 107.87, 118.84 39.4, 150.65 2.43 M1.46 180.14 C36.3 137.31, 70.53 97.28, 156.29 2.03 M1.46 180.14 C37.33 136.88, 74.17 95.57, 156.29 2.03 M1.85 185.79 C57.71 121.31, 114.84 55.39, 161.28 2.39 M1.85 185.79 C44.63 137.03, 85.61 89.55, 161.28 2.39 M1.59 192.19 C67.05 117.23, 135.79 41.5, 166.92 2 M1.59 192.19 C38.02 150.96, 75.13 109.1, 166.92 2 M1.99 197.83 C51.09 144.36, 98.51 88.67, 171.91 2.36 M1.99 197.83 C44.63 147.3, 86.2 98.93, 171.91 2.36 M1.72 204.23 C58.55 138.85, 114.64 72.79, 177.55 1.96 M1.72 204.23 C64.1 133.81, 125.53 64.04, 177.55 1.96 M1.46 210.62 C54.36 150.02, 106.64 88.64, 182.54 2.32 M1.46 210.62 C50.56 156.14, 99.64 100.15, 182.54 2.32 M1.86 216.27 C71.85 136.34, 140.08 58.72, 188.18 1.93 M1.86 216.27 C72.61 135.45, 142.56 54.18, 188.18 1.93 M1.6 222.66 C74.71 136.67, 149.65 54.95, 193.17 2.29 M1.6 222.66 C73.3 139.25, 146.27 55.23, 193.17 2.29 M1.99 228.31 C51.03 171.22, 103.68 112.32, 198.81 1.9 M1.99 228.31 C68.73 150.76, 135.91 73.61, 198.81 1.9 M1.73 234.71 C78.57 145.51, 159.09 53.96, 203.8 2.26 M1.73 234.71 C45.26 184.85, 89.16 133.45, 203.8 2.26 M1.47 241.1 C66.49 168.12, 129.74 96.31, 209.44 1.86 M1.47 241.1 C67.57 165.13, 133.37 88.94, 209.44 1.86 M1.86 246.75 C55.8 187.61, 109.39 124.87, 214.43 2.22 M1.86 246.75 C83.22 153.83, 164.54 60.69, 214.43 2.22 M1.6 253.14 C49.41 196.5, 100.79 138.91, 220.07 1.83 M1.6 253.14 C59.78 185.53, 118.9 117.57, 220.07 1.83 M2 258.79 C87.88 157.43, 175.94 58.34, 225.06 2.19 M2 258.79 C55.12 198.02, 107.49 137.98, 225.06 2.19 M1.73 265.19 C70.35 183.94, 139.25 104.84, 230.7 1.79 M1.73 265.19 C51.61 206.22, 102.25 148.93, 230.7 1.79 M1.47 271.58 C75.85 185.81, 147.98 103.19, 235.69 2.15 M1.47 271.58 C74.4 185.98, 147.81 101.3, 235.69 2.15 M1.87 277.23 C52.22 222.61, 99.69 166.77, 241.33 1.76 M1.87 277.23 C61.91 205.39, 124.29 134.28, 241.33 1.76 M1.61 283.62 C52.6 228.94, 101.56 170.57, 246.32 2.12 M1.61 283.62 C77.7 195.12, 153.1 108.08, 246.32 2.12 M2 289.27 C97.77 177.05, 196.8 64.29, 251.96 1.72 M2 289.27 C84.53 192.65, 169.02 96.5, 251.96 1.72 M1.74 295.66 C88.09 195.73, 173.54 97.74, 256.95 2.08 M1.74 295.66 C74.33 213.85, 146.54 130.37, 256.95 2.08 M1.48 302.06 C80.27 209.85, 159.73 118.21, 262.59 1.69 M1.48 302.06 C71.79 219.93, 142.88 137.43, 262.59 1.69 M1.87 307.71 C75.37 223.26, 148.73 140.06, 267.58 2.05 M1.87 307.71 C74.11 227.4, 143.34 146.64, 267.58 2.05 M1.61 314.1 C102.24 198.42, 200.47 86.14, 272.56 2.41 M1.61 314.1 C98.76 204.05, 194.66 94.64, 272.56 2.41 M2.01 319.75 C71.05 237.44, 142.42 156.63, 278.21 2.01 M2.01 319.75 C68.98 241.52, 135.35 164.76, 278.21 2.01 M1.74 326.14 C110.62 200.57, 219.59 75.86, 283.19 2.37 M1.74 326.14 C93.08 218.18, 185.45 111.59, 283.19 2.37 M1.48 332.54 C61.48 264.42, 120.92 195.41, 288.84 1.98 M1.48 332.54 C110.94 206.06, 220.07 80.67, 288.84 1.98 M1.88 338.19 C108.21 215.9, 215.15 95.03, 293.82 2.34 M1.88 338.19 C66.81 263.96, 129.91 191.14, 293.82 2.34 M1.62 344.58 C101.7 227.13, 205.19 110.83, 299.47 1.94 M1.62 344.58 C119.05 207.98, 237.48 70.76, 299.47 1.94 M2.01 350.23 C83.25 257.23, 167.15 162.68, 304.45 2.3 M2.01 350.23 C92.98 247.42, 183.17 143.31, 304.45 2.3 M1.75 356.62 C111.67 230.67, 220.72 104.83, 310.1 1.91 M1.75 356.62 C120.53 219.5, 239.91 82.06, 310.1 1.91 M1.49 363.02 C86.85 265.31, 172.76 165.31, 315.08 2.27 M1.49 363.02 C102.48 246.29, 202.67 131.72, 315.08 2.27 M1.88 368.66 C72.74 285.35, 142.8 203.7, 320.73 1.88 M1.88 368.66 C66.43 293.9, 131.75 218.38, 320.73 1.88 M1.62 375.06 C104.52 257.07, 206.63 138.92, 325.71 2.24 M1.62 375.06 C97.3 265.81, 192.2 156.49, 325.71 2.24 M2.02 380.71 C72.65 299.36, 144.24 218.39, 331.36 1.84 M2.02 380.71 C89.34 278.88, 177.07 177.42, 331.36 1.84 M1.75 387.1 C113.89 258.22, 226.97 128.75, 336.34 2.2 M1.75 387.1 C104.42 271.08, 205.66 155.19, 336.34 2.2 M1.49 393.5 C94.92 283.87, 188.72 176.01, 341.99 1.81 M1.49 393.5 C124.93 251.71, 249.08 108.23, 341.99 1.81 M1.89 399.14 C84.68 303.14, 168.55 207.72, 346.97 2.17 M1.89 399.14 C100.3 285.21, 199.47 171.7, 346.97 2.17 M1.63 405.54 C86.59 307.43, 170.91 209.86, 352.62 1.77 M1.63 405.54 C91.15 303.61, 178.63 203.46, 352.62 1.77 M2.02 411.18 C120.48 275.16, 238.84 138.74, 357.6 2.13 M2.02 411.18 C93.76 305.94, 186.3 199.23, 357.6 2.13 M1.76 417.58 C82.93 323.86, 164.23 230.29, 363.25 1.74 M1.76 417.58 C87.46 320.07, 173.87 220.9, 363.25 1.74 M1.5 423.98 C111.2 295.4, 221.45 167.88, 368.23 2.1 M1.5 423.98 C109.74 301.03, 217.53 177.04, 368.23 2.1 M1.89 429.62 C90.08 328.83, 177.13 229.45, 373.88 1.7 M1.89 429.62 C80.95 338.3, 160.19 246.76, 373.88 1.7 M1.63 436.02 C80.82 343.99, 160.89 252.1, 378.86 2.06 M1.63 436.02 C125.82 293.01, 251.2 148.38, 378.86 2.06 M2.02 441.66 C136.49 288.67, 270.1 133.99, 383.85 2.42 M2.02 441.66 C89.37 341.06, 175.58 242.17, 383.85 2.42 M1.76 448.06 C125.8 306.93, 248.47 165.45, 389.49 2.03 M1.76 448.06 C148.56 276.27, 296.63 105.75, 389.49 2.03 M1.5 454.46 C135.95 298.41, 271.87 142.4, 394.48 2.39 M1.5 454.46 C115.44 323.57, 229.28 192.78, 394.48 2.39 M1.9 460.1 C102.69 340.81, 204.83 224.98, 400.12 1.99 M1.9 460.1 C126.38 315.31, 251.2 171.17, 400.12 1.99 M1.64 466.5 C113.19 340.16, 223.41 212.05, 405.11 2.35 M1.64 466.5 C157.89 286.86, 312.86 107.52, 405.11 2.35 M2.03 472.14 C105.26 354.63, 207.47 237.32, 410.75 1.96 M2.03 472.14 C112.69 345.07, 223.26 218.8, 410.75 1.96 M1.77 478.54 C117.58 347.43, 230.9 216.66, 415.74 2.32 M1.77 478.54 C108.27 354.29, 214.62 231.54, 415.74 2.32 M1.51 484.94 C129.09 338.64, 257.23 192.16, 421.38 1.93 M1.51 484.94 C105.37 364.63, 210.1 244.44, 421.38 1.93 M1.9 490.58 C161.19 310.11, 319.2 127.27, 427.03 1.53 M1.9 490.58 C97.79 381.88, 191.55 274.33, 427.03 1.53 M1.64 496.98 C94.24 392.64, 185.58 286.99, 432.01 1.89 M1.64 496.98 C141.75 337.99, 279.97 178.72, 432.01 1.89 M2.03 502.62 C122.59 365.53, 241.41 227.63, 436.35 3.01 M2.03 502.62 C153.98 330.14, 305.28 155.02, 436.35 3.01 M1.77 509.02 C152.49 334.34, 305.37 158.09, 441.33 3.37 M1.77 509.02 C101.22 394.81, 200.87 281.13, 441.33 3.37 M1.51 515.42 C165.3 324.26, 332.3 133.83, 445.66 4.48 M1.51 515.42 C130.35 368.5, 257.37 221.71, 445.66 4.48 M1.91 521.06 C120.4 382.35, 241.32 243.8, 448.03 7.86 M1.91 521.06 C162.33 337.29, 323.19 153.08, 448.03 7.86 M1.64 527.46 C155.5 349.87, 309.85 171.66, 451.05 10.48 M1.64 527.46 C112.02 402.07, 220.66 276.69, 451.05 10.48 M2.04 533.1 C149.86 365.54, 296.15 196.66, 454.06 13.11 M2.04 533.1 C179.14 332.05, 355.22 129.42, 454.06 13.11 M1.78 539.5 C162.96 356.1, 322.79 172.08, 455.77 17.24 M1.78 539.5 C178.93 336.43, 355.46 132.75, 455.77 17.24 M1.52 545.9 C107.6 420.37, 215.88 297.67, 458.13 20.62 M1.52 545.9 C116 413.94, 229.5 283.9, 458.13 20.62 M1.91 551.54 C111.8 427.07, 220.98 301.44, 459.18 25.51 M1.91 551.54 C123.07 411.51, 245.92 270.32, 459.18 25.51 M1.65 557.94 C148.39 390.1, 293.83 222.88, 458.27 32.66 M1.65 557.94 C151.22 382.99, 303.62 208.32, 458.27 32.66 M2.04 563.58 C157 387, 309.29 212.17, 458.01 39.06 M2.04 563.58 C177.71 360.84, 353.52 159.23, 458.01 39.06 M1.78 569.98 C123.54 426.29, 247.5 283.66, 458.4 44.7 M1.78 569.98 C140.88 407.31, 281.41 246.37, 458.4 44.7 M1.52 576.38 C118.61 441.53, 234.7 306.56, 458.14 51.1 M1.52 576.38 C97.26 469.48, 191.8 360.29, 458.14 51.1 M1.92 582.02 C172.23 383.77, 343.59 187, 458.53 56.74 M1.92 582.02 C136.37 425.92, 272.46 269.79, 458.53 56.74 M1.65 588.42 C137.17 432.42, 273.51 275.64, 458.27 63.14 M1.65 588.42 C172.11 391.26, 342.86 194.95, 458.27 63.14 M2.05 594.06 C134.56 438.88, 269.23 284.16, 458.01 69.54 M2.05 594.06 C140.03 436.23, 276.9 278.26, 458.01 69.54 M1.79 600.46 C116.21 471.8, 229.81 341.64, 458.4 75.18 M1.79 600.46 C132.18 448.61, 263.89 297.49, 458.4 75.18 M2.84 605.35 C129.78 458.52, 257.15 312, 458.14 81.58 M2.84 605.35 C176.55 408.24, 347.91 211.27, 458.14 81.58 M3.89 610.24 C169.46 418.43, 337.29 225.72, 458.54 87.22 M3.89 610.24 C148.21 444.52, 291.74 279.32, 458.54 87.22 M2.97 617.39 C167.81 428.5, 334.5 237.28, 458.28 93.62 M2.97 617.39 C117.92 488.17, 231.76 357.63, 458.28 93.62 M4.68 621.52 C102.74 511.92, 201.21 399.21, 458.01 100.02 M4.68 621.52 C181.76 417.87, 358.94 213.34, 458.01 100.02 M7.04 624.9 C174.16 431.04, 341.73 238.95, 458.41 105.66 M7.04 624.9 C147.53 463.54, 288.72 301.09, 458.41 105.66 M10.06 627.53 C109.49 512.37, 207.61 398.96, 458.15 112.06 M10.06 627.53 C106.82 518.46, 203.43 407.34, 458.15 112.06 M13.08 630.15 C145.17 477.1, 277.91 323.78, 458.54 117.7 M13.08 630.15 C112.23 516.04, 210.71 402.84, 458.54 117.7 M16.75 632.02 C152.95 473.32, 288.85 317.11, 458.28 124.1 M16.75 632.02 C127.59 506.71, 237.65 380.67, 458.28 124.1 M19.77 634.64 C167.87 465.32, 316.48 293.59, 458.02 130.5 M19.77 634.64 C152.07 485.86, 282.58 335.44, 458.02 130.5 M24.76 635 C148.63 493.59, 272.49 352.43, 458.41 136.14 M24.76 635 C164.62 473.5, 305.48 310.77, 458.41 136.14 M29.09 636.12 C139.91 509.51, 251.01 380.37, 458.15 142.54 M29.09 636.12 C169.78 471.99, 311.6 308.93, 458.15 142.54 M34.08 636.48 C131.35 523.74, 228.69 411.45, 458.55 148.18 M34.08 636.48 C133.94 518.4, 235.03 402, 458.55 148.18 M39.06 636.84 C131.14 530.24, 222.93 423.28, 458.29 154.58 M39.06 636.84 C198.23 455.79, 354.79 275.02, 458.29 154.58 M44.71 636.44 C181.32 478.23, 316.79 322.39, 458.02 160.98 M44.71 636.44 C188.66 469.43, 334.03 302.67, 458.02 160.98 M49.69 636.8 C195.39 469.4, 342.4 298.43, 458.42 166.62 M49.69 636.8 C191.16 472.72, 333.95 308.26, 458.42 166.62 M55.34 636.41 C148.9 529.21, 243.17 421.7, 458.16 173.02 M55.34 636.41 C213.78 455.83, 372 274.58, 458.16 173.02 M60.32 636.77 C142.03 543.48, 224.83 449.31, 458.55 178.66 M60.32 636.77 C154.03 526.61, 247.95 418.46, 458.55 178.66 M65.97 636.38 C181.07 507.23, 293.7 377.36, 458.29 185.06 M65.97 636.38 C164.32 521.71, 262.83 408.63, 458.29 185.06 M70.95 636.74 C172.28 519.97, 274.75 401.61, 458.03 191.46 M70.95 636.74 C184.85 508.88, 296.67 379.1, 458.03 191.46 M76.6 636.34 C198.49 498.02, 319.2 359.38, 458.42 197.1 M76.6 636.34 C224.23 465.54, 371.99 295.93, 458.42 197.1 M81.58 636.7 C169.37 536.35, 257.37 434.56, 458.16 203.5 M81.58 636.7 C165.41 539.26, 250.26 441.27, 458.16 203.5 M87.23 636.31 C174.57 535.95, 261.08 436.4, 458.56 209.14 M87.23 636.31 C172.64 540.64, 256.4 443.58, 458.56 209.14 M92.21 636.67 C234.97 474.31, 375.64 311.84, 458.3 215.54 M92.21 636.67 C173.49 542.31, 255.64 447.93, 458.3 215.54 M97.86 636.27 C180.42 541.63, 263.81 446.73, 458.03 221.94 M97.86 636.27 C227.94 487.3, 356.36 339.49, 458.03 221.94 M102.84 636.63 C241.94 476.25, 380.4 317.39, 458.43 227.58 M102.84 636.63 C221.52 501.43, 341.1 364.08, 458.43 227.58 M108.49 636.24 C244.29 478.77, 381.47 320.23, 458.17 233.98 M108.49 636.24 C226.05 501.26, 342.88 367.13, 458.17 233.98 M113.47 636.6 C214.2 521.81, 314.79 407.47, 458.56 239.62 M113.47 636.6 C206.2 529.87, 299.05 423.18, 458.56 239.62 M119.12 636.2 C214.2 529.07, 308.44 419.05, 458.3 246.02 M119.12 636.2 C214.74 528.99, 309.41 420.12, 458.3 246.02 M124.11 636.56 C228.14 514.77, 334.75 393.22, 458.04 252.42 M124.11 636.56 C191.86 558.37, 260.81 478.87, 458.04 252.42 M129.75 636.17 C241.31 506.72, 353.76 378.2, 458.43 258.06 M129.75 636.17 C222.49 530.9, 313.46 425.89, 458.43 258.06 M134.74 636.53 C228.45 529.05, 321.48 422.16, 458.17 264.46 M134.74 636.53 C261.28 492.67, 387.39 347.24, 458.17 264.46 M140.38 636.13 C240.06 522.84, 339.28 409.27, 458.57 270.1 M140.38 636.13 C262.67 495.67, 384.91 354.91, 458.57 270.1 M145.37 636.49 C208.71 563.7, 272.54 491.41, 458.31 276.5 M145.37 636.49 C247.92 516.77, 351.95 397.37, 458.31 276.5 M150.35 636.85 C213.67 562.64, 276.57 489.92, 458.04 282.9 M150.35 636.85 C216.13 561.95, 282.45 485.9, 458.04 282.9 M156 636.46 C230.48 551.16, 303.37 466.26, 458.44 288.54 M156 636.46 C218.02 563.4, 280.42 492.07, 458.44 288.54 M160.98 636.82 C259.29 523.4, 355.91 411.13, 458.18 294.94 M160.98 636.82 C266.79 515.2, 372.02 393.63, 458.18 294.94 M166.63 636.43 C279.16 508.57, 390.58 380.73, 458.57 300.58 M166.63 636.43 C243.2 552.02, 317.1 465.75, 458.57 300.58 M171.61 636.79 C246.62 552.09, 321.56 464.98, 458.31 306.98 M171.61 636.79 C273.09 520.82, 373.52 406.4, 458.31 306.98 M177.26 636.39 C281.41 517.45, 386.2 397.09, 458.05 313.37 M177.26 636.39 C284.44 512.51, 392.76 388.85, 458.05 313.37 M182.24 636.75 C258.71 545.6, 336.55 457.23, 458.44 319.02 M182.24 636.75 C269.61 537.24, 356.65 437.84, 458.44 319.02 M187.89 636.36 C282.46 530.15, 376.64 420.62, 458.18 325.42 M187.89 636.36 C287.24 520.64, 387.49 405.76, 458.18 325.42 M192.87 636.72 C281.61 535.04, 372.65 432.13, 458.58 331.06 M192.87 636.72 C283.58 535.87, 372.4 433.74, 458.58 331.06 M198.52 636.32 C260.9 566.52, 322.25 495.44, 458.32 337.46 M198.52 636.32 C263.66 562.21, 327.34 489.86, 458.32 337.46 M203.5 636.68 C272.58 555.71, 343.94 475.13, 458.05 343.85 M203.5 636.68 C268.16 564.47, 332.91 490.94, 458.05 343.85 M209.15 636.29 C293.64 538.11, 377.84 439.7, 458.45 349.5 M209.15 636.29 C289.01 546.74, 366.92 456.78, 458.45 349.5 M214.13 636.65 C265.14 577.6, 316.29 519.5, 458.19 355.9 M214.13 636.65 C280.58 557.95, 348.91 479.81, 458.19 355.9 M219.78 636.25 C301.41 540.48, 385.64 445.31, 458.58 361.54 M219.78 636.25 C302.3 539.67, 386.09 443.4, 458.58 361.54 M224.76 636.61 C305.29 542.06, 387.91 445.49, 458.32 367.94 M224.76 636.61 C315.67 533.1, 407.36 427, 458.32 367.94 M230.41 636.22 C308.93 545.36, 386.24 456.18, 458.06 374.33 M230.41 636.22 C320.32 533.85, 408.39 432.88, 458.06 374.33 M235.39 636.58 C325.14 534.63, 413.65 433.34, 458.45 379.98 M235.39 636.58 C311.07 551.09, 385.12 464.24, 458.45 379.98 M241.04 636.18 C321.64 544.51, 403.91 449.01, 458.19 386.37 M241.04 636.18 C312.24 556.16, 382.82 476.31, 458.19 386.37 M246.02 636.54 C313.83 556.84, 382.52 478.27, 458.59 392.02 M246.02 636.54 C290.19 583.21, 335.3 529.77, 458.59 392.02 M251.67 636.15 C313.25 566.04, 374.3 493.38, 458.32 398.42 M251.67 636.15 C316.79 556.82, 384.28 480.2, 458.32 398.42 M256.65 636.51 C333.66 548.29, 410.86 458.13, 458.06 404.81 M256.65 636.51 C318.56 566.44, 379.9 495.08, 458.06 404.81 M261.64 636.87 C327.01 562.74, 391.69 487.74, 458.46 410.46 M261.64 636.87 C307.37 584.33, 352.23 533.07, 458.46 410.46 M267.28 636.47 C330.59 563.6, 393.83 493.23, 458.2 416.85 M267.28 636.47 C316.12 581.55, 363.57 525.59, 458.2 416.85 M272.27 636.83 C326.09 575.45, 381.71 511.73, 458.59 422.5 M272.27 636.83 C331.85 568.42, 393.12 498.2, 458.59 422.5 M277.91 636.44 C348.58 552.68, 420.81 470.64, 458.33 428.9 M277.91 636.44 C323.02 584.02, 368.76 530.56, 458.33 428.9 M282.9 636.8 C348.51 561.75, 412.86 484.79, 458.07 435.29 M282.9 636.8 C349.42 559.66, 416.34 482.66, 458.07 435.29 M288.54 636.41 C337.02 580.93, 384.81 527.03, 458.46 440.94 M288.54 636.41 C336.18 580.6, 384.09 525.58, 458.46 440.94 M293.53 636.77 C352.23 570.28, 414.15 501.06, 458.2 447.33 M293.53 636.77 C330.62 594.58, 367.85 550.9, 458.2 447.33 M299.17 636.37 C332.57 598.73, 366.37 561.46, 458.6 452.98 M299.17 636.37 C343.5 584.99, 387.18 534.04, 458.6 452.98 M304.16 636.73 C340.11 597.91, 372.81 558.65, 458.33 459.37 M304.16 636.73 C357.6 573.44, 413.78 509.44, 458.33 459.37 M309.8 636.34 C344.78 596.27, 378.7 556.61, 458.07 465.77 M309.8 636.34 C361.73 578.05, 410.81 520.95, 458.07 465.77 M314.79 636.7 C357.14 585.1, 402.75 535.29, 458.47 471.42 M314.79 636.7 C362.04 582.31, 409.04 528.04, 458.47 471.42 M320.43 636.3 C365.64 582.99, 413.23 528.26, 458.21 477.81 M320.43 636.3 C365.56 584.23, 412.35 530.55, 458.21 477.81 M325.42 636.66 C369.6 586.06, 413.99 535.55, 458.6 483.46 M325.42 636.66 C372.64 581.48, 421.96 524.82, 458.6 483.46 M331.06 636.27 C378.06 583.93, 426.97 528.65, 458.34 489.85 M331.06 636.27 C369.3 593.5, 406.92 550.4, 458.34 489.85 M336.05 636.63 C363.14 602.21, 395.58 567.12, 458.08 496.25 M336.05 636.63 C380 585.51, 424.34 534.95, 458.08 496.25 M341.69 636.23 C376.15 596.96, 404.88 563, 458.47 501.89 M341.69 636.23 C369.55 604.08, 396.46 574.42, 458.47 501.89 M346.68 636.59 C384.58 595.25, 420.68 553.25, 458.21 508.29 M346.68 636.59 C377.64 600.98, 407.84 564.52, 458.21 508.29 M352.32 636.2 C379.28 603.73, 408.75 571.9, 458.61 513.94 M352.32 636.2 C381.97 600.29, 413.25 564.79, 458.61 513.94 M357.31 636.56 C385.86 604.95, 417.41 572.72, 458.34 520.33 M357.31 636.56 C390.19 597.93, 424.54 559.63, 458.34 520.33 M362.95 636.16 C386.38 612.05, 406.11 585.84, 458.08 526.73 M362.95 636.16 C384.33 611.98, 403.88 588.3, 458.08 526.73 M367.94 636.52 C403.78 595.82, 435.06 558.74, 458.48 532.37 M367.94 636.52 C386.68 614.95, 406.32 592.2, 458.48 532.37 M373.58 636.13 C408.83 597.17, 439.58 559.84, 458.22 538.77 M373.58 636.13 C398.38 607.6, 423.86 578.41, 458.22 538.77 M378.57 636.49 C398.67 612.76, 419.69 588.7, 458.61 544.42 M378.57 636.49 C401.92 611.53, 422.19 585.66, 458.61 544.42 M383.56 636.85 C400.23 620.92, 414.62 604.07, 458.35 550.81 M383.56 636.85 C413.81 601.85, 444.68 567.55, 458.35 550.81 M389.2 636.46 C416.73 606.61, 442.02 576.92, 458.09 557.21 M389.2 636.46 C413.37 609.85, 434.61 585.23, 458.09 557.21 M394.19 636.82 C410.53 621.4, 421.96 602.44, 458.48 562.85 M394.19 636.82 C416.37 611.07, 439.86 585.4, 458.48 562.85 M399.83 636.42 C421.85 614.6, 442.54 589.88, 458.22 569.25 M399.83 636.42 C415.89 618.2, 432.58 599.28, 458.22 569.25 M404.82 636.78 C420.29 619.85, 435.86 598.21, 458.62 574.89 M404.82 636.78 C422.36 614.93, 442.04 594.18, 458.62 574.89 M410.46 636.39 C429.88 615.1, 446.96 591.43, 458.35 581.29 M410.46 636.39 C423.77 621.21, 434.48 607.97, 458.35 581.29 M415.45 636.75 C432.07 617.53, 444.36 601.42, 458.09 587.69 M415.45 636.75 C430.1 621.11, 444.24 604.65, 458.09 587.69 M421.09 636.35 C433.52 624.92, 443.72 609.65, 458.49 593.33 M421.09 636.35 C431.66 623.69, 442.89 611.5, 458.49 593.33 M426.73 635.96 C434.38 627.96, 439.44 620.41, 458.23 599.73 M426.73 635.96 C434.87 627.08, 442.58 618.97, 458.23 599.73 M433.03 634.81 C438.54 628.53, 447.09 620.64, 459.28 604.62 M433.03 634.81 C440.29 626.79, 447.05 618.54, 459.28 604.62 M439.99 632.9 C447.33 626.37, 452.17 618.48, 458.36 611.77 M439.99 632.9 C446.57 625.55, 452.73 618.18, 458.36 611.77" stroke="#a9a9b2" stroke-width="0.5" fill="none"></path><path d="M32 0 C189.39 0.15, 344.62 -0.93, 425.65 0 M32 0 C186.82 -0.86, 342.69 -1.09, 425.65 0 M425.65 0 C445.55 1.6, 455.94 9.13, 457.65 32 M425.65 0 C447.24 -2.17, 456.14 8.69, 457.65 32 M457.65 32 C455.63 195.81, 455.77 358.9, 457.65 602.7 M457.65 32 C458.9 254.36, 458.92 476.81, 457.65 602.7 M457.65 602.7 C457.63 622.74, 448.53 634.18, 425.65 634.7 M457.65 602.7 C459.61 625.3, 446.06 633.35, 425.65 634.7 M425.65 634.7 C316.73 636.36, 206.3 636, 32 634.7 M425.65 634.7 C311.78 634.31, 198.87 634.11, 32 634.7 M32 634.7 C11.19 636.55, 1.93 623.97, 0 602.7 M32 634.7 C9.08 634.62, 0.11 622.04, 0 602.7 M0 602.7 C0.72 379.95, 1.37 156.21, 0 32 M0 602.7 C2.47 439.71, 2.25 277.38, 0 32 M0 32 C-1.4 8.85, 10.45 -0.51, 32 0 M0 32 C-0.75 9.11, 10.64 1.01, 32 0" stroke="#a9a9b2" stroke-width="1" fill="none"></path></g><g stroke-opacity="0.5" fill-opacity="0.5" stroke-linecap="round" transform="translate(1088.7134094238281 52.266830444335824) rotate(0 140 330.5614558628627)"><path d="M7.86 8.16 C7.86 8.16, 7.86 8.16, 7.86 8.16 M7.86 8.16 C7.86 8.16, 7.86 8.16, 7.86 8.16 M3.66 19.09 C8.26 15.73, 11.07 11.24, 18.1 2.48 M3.66 19.09 C8.16 14.47, 11.03 11.2, 18.1 2.48 M2.75 26.24 C6.63 20.83, 15.48 12.24, 24.4 1.33 M2.75 26.24 C10.35 17.94, 15.65 10.13, 24.4 1.33 M1.83 33.39 C11.41 25.9, 19.64 15.17, 30.7 0.18 M1.83 33.39 C9.07 25.6, 14.94 17.88, 30.7 0.18 M1.57 39.79 C9.77 27.14, 19.62 18.78, 34.37 2.05 M1.57 39.79 C9.35 31.41, 18.28 20.99, 34.37 2.05 M1.96 45.43 C14.17 34.46, 24.12 21.79, 39.36 2.41 M1.96 45.43 C12.93 33.12, 22.65 23.04, 39.36 2.41 M1.7 51.83 C12.69 40.9, 20.43 29.9, 45 2.02 M1.7 51.83 C19.72 31.6, 35.72 12.38, 45 2.02 M1.44 58.23 C16.45 39.77, 30.26 21.51, 49.99 2.38 M1.44 58.23 C17.98 40.04, 32.94 21.77, 49.99 2.38 M1.83 63.87 C20.13 44.95, 35.77 28.26, 55.63 1.98 M1.83 63.87 C13.47 51.16, 24.52 36.55, 55.63 1.98 M1.57 70.27 C23.56 44.57, 49.41 17.22, 60.62 2.34 M1.57 70.27 C17.78 52.09, 33.83 33.05, 60.62 2.34 M1.97 75.91 C15.4 58.73, 31.57 39.34, 66.26 1.95 M1.97 75.91 C16.25 59.79, 29.86 42.96, 66.26 1.95 M1.71 82.31 C24.59 54.43, 49.45 27.87, 71.25 2.31 M1.71 82.31 C16.92 62.67, 33.27 45.13, 71.25 2.31 M1.44 88.71 C32.61 54.26, 60.19 19.91, 76.89 1.91 M1.44 88.71 C18.67 68.56, 35.46 47.54, 76.89 1.91 M1.84 94.35 C28.9 64.88, 57.72 32.01, 81.88 2.27 M1.84 94.35 C24.11 70.01, 44.71 47.38, 81.88 2.27 M1.58 100.75 C20.77 80.11, 37.76 56.2, 87.52 1.88 M1.58 100.75 C29.14 67.15, 57.65 35.64, 87.52 1.88 M1.97 106.39 C29.37 75.57, 57.25 42.16, 92.51 2.24 M1.97 106.39 C22.56 82.85, 42.72 59.46, 92.51 2.24 M1.71 112.79 C20.45 88.23, 41.47 68.34, 98.15 1.85 M1.71 112.79 C29.39 80.31, 58.99 46.74, 98.15 1.85 M1.45 119.19 C41.61 74.09, 82.45 28.01, 103.14 2.21 M1.45 119.19 C38.27 77.66, 74.84 35.65, 103.14 2.21 M1.84 124.83 C36.11 87.38, 65.9 49.3, 108.12 2.57 M1.84 124.83 C23.78 100.2, 46.38 74.84, 108.12 2.57 M1.58 131.23 C29.59 101.5, 57.28 66.22, 113.77 2.17 M1.58 131.23 C35.92 92.25, 69.13 52.59, 113.77 2.17 M1.98 136.87 C44.86 84.9, 87.68 35.75, 118.76 2.53 M1.98 136.87 C47.3 86.51, 90.62 34.8, 118.76 2.53 M1.72 143.27 C40.77 98.6, 80.07 54.17, 124.4 2.14 M1.72 143.27 C34.7 106.91, 65.68 69.44, 124.4 2.14 M1.45 149.67 C39.52 105.77, 78.22 62.69, 129.39 2.5 M1.45 149.67 C35.23 110.07, 69.37 73.42, 129.39 2.5 M1.85 155.31 C55.21 96.88, 105.71 34.38, 135.03 2.1 M1.85 155.31 C31.64 118.9, 61.51 84.19, 135.03 2.1 M1.59 161.71 C32.74 122.37, 66.41 85.87, 140.02 2.46 M1.59 161.71 C50.01 105.77, 99.63 48.57, 140.02 2.46 M1.98 167.35 C40.47 122.88, 76.79 80.39, 145.66 2.07 M1.98 167.35 C59.42 102.06, 118.14 36.3, 145.66 2.07 M1.72 173.75 C33.75 137.13, 67.83 99.66, 150.65 2.43 M1.72 173.75 C44.6 126.49, 86.01 78.24, 150.65 2.43 M1.46 180.14 C41.14 133.56, 77.76 90.3, 156.29 2.03 M1.46 180.14 C51.38 122.21, 101.23 64.05, 156.29 2.03 M1.85 185.79 C58.96 121.51, 114.46 59.54, 161.28 2.39 M1.85 185.79 C48.08 132.25, 94.51 78.18, 161.28 2.39 M1.59 192.19 C45.91 142.94, 91.4 91.58, 166.92 2 M1.59 192.19 C63.33 121.74, 123.92 52.51, 166.92 2 M1.99 197.83 C66.95 124.25, 129.43 50.66, 171.91 2.36 M1.99 197.83 C66.96 121.91, 132.81 48.57, 171.91 2.36 M1.72 204.23 C66.6 128.24, 133.84 50.72, 176.89 2.72 M1.72 204.23 C45.85 153.14, 91.74 101.25, 176.89 2.72 M1.46 210.62 C62.13 139.75, 124.31 68.5, 182.54 2.32 M1.46 210.62 C70.49 130.67, 141.91 49.07, 182.54 2.32 M1.86 216.27 C42.05 170.8, 82.48 122.4, 187.52 2.68 M1.86 216.27 C59.97 151.51, 116.5 86.99, 187.52 2.68 M1.6 222.66 C61.98 152.73, 122.48 82.1, 193.17 2.29 M1.6 222.66 C49.83 168.96, 98.06 112.89, 193.17 2.29 M1.99 228.31 C77.13 142.39, 152.42 56.65, 198.15 2.65 M1.99 228.31 C45.33 177.37, 90.64 126.07, 198.15 2.65 M1.73 234.71 C54.74 172.28, 109.65 109.21, 203.8 2.26 M1.73 234.71 C79.59 142.69, 159 52.54, 203.8 2.26 M1.47 241.1 C50.94 184.03, 98.89 129.31, 208.78 2.62 M1.47 241.1 C63.39 167.9, 125.7 96.31, 208.78 2.62 M1.86 246.75 C48.66 191.31, 95.82 139.13, 214.43 2.22 M1.86 246.75 C68.96 169.12, 134.66 93.74, 214.43 2.22 M1.6 253.14 C69.2 172.83, 137.03 94.31, 219.41 2.58 M1.6 253.14 C47.22 203.37, 90.85 152.52, 219.41 2.58 M2 258.79 C57.81 191.84, 116.65 125.53, 225.06 2.19 M2 258.79 C48.55 208.74, 93.31 156.12, 225.06 2.19 M1.73 265.19 C72.84 182.17, 142.66 101.21, 230.04 2.55 M1.73 265.19 C89.48 162.72, 179.44 59.86, 230.04 2.55 M1.47 271.58 C78.13 181.34, 158.11 91.54, 235.69 2.15 M1.47 271.58 C80.31 180.11, 158.9 89.87, 235.69 2.15 M1.87 277.23 C69.96 200.83, 137.26 122.54, 240.67 2.51 M1.87 277.23 C73.7 192.96, 146.29 109.33, 240.67 2.51 M1.61 283.62 C66.82 207.28, 133.34 129.18, 245.66 2.87 M1.61 283.62 C69.07 206.28, 136.2 129.71, 245.66 2.87 M2 289.27 C70.5 214.13, 134.35 138.27, 251.3 2.48 M2 289.27 C94.31 183.11, 185.05 79.13, 251.3 2.48 M1.74 295.66 C93.69 191.82, 184.25 89.57, 256.95 2.08 M1.74 295.66 C65.81 219.68, 131.41 144.94, 256.95 2.08 M1.48 302.06 C65.14 227.68, 126.74 155.93, 261.93 2.44 M1.48 302.06 C102.22 185.93, 203.19 70.12, 261.93 2.44 M1.87 307.71 C87.18 205.86, 173.32 106.06, 265.61 4.31 M1.87 307.71 C56.92 245.4, 111.53 182.22, 265.61 4.31 M1.61 314.1 C103.95 195.72, 205.56 79.15, 269.28 6.18 M1.61 314.1 C99.16 202.34, 197.01 90.98, 269.28 6.18 M2.01 319.75 C62.6 250.32, 120.7 182.95, 272.3 8.81 M2.01 319.75 C92.92 213.1, 186.3 107.26, 272.3 8.81 M1.74 326.14 C109.51 201.47, 217.8 74.68, 274.66 12.19 M1.74 326.14 C75.22 242.28, 150.42 156.91, 274.66 12.19 M1.48 332.54 C84.21 239.3, 166.56 143.76, 277.03 15.56 M1.48 332.54 C99.66 219.88, 197.17 107.47, 277.03 15.56 M1.88 338.19 C109.14 214.96, 216.32 91.4, 279.39 18.94 M1.88 338.19 C77.48 251.78, 153.55 163.56, 279.39 18.94 M1.62 344.58 C91.41 240.27, 180.38 139.56, 279.78 24.59 M1.62 344.58 C62.97 271.58, 124.43 200.22, 279.78 24.59 M2.01 350.23 C58.12 285.3, 115.75 218.07, 280.84 29.47 M2.01 350.23 C90.21 248.81, 178.29 147.05, 280.84 29.47 M1.75 356.62 C84.96 261.58, 166.19 167.77, 282.54 33.61 M1.75 356.62 C61.91 287.63, 122.81 218.47, 282.54 33.61 M1.49 363.02 C76.17 276.02, 150.29 189.36, 282.28 40.01 M1.49 363.02 C95.8 254.75, 190.5 146.21, 282.28 40.01 M1.88 368.66 C88.02 271.19, 172.74 175.22, 282.02 46.4 M1.88 368.66 C78.4 278.5, 155.66 189.65, 282.02 46.4 M1.62 375.06 C103.17 258.79, 205.13 139.8, 282.41 52.05 M1.62 375.06 C69.22 296.97, 137.3 219.33, 282.41 52.05 M2.02 380.71 C81.55 287.75, 161.9 196.84, 282.15 58.44 M2.02 380.71 C69.69 302.12, 137.07 224.24, 282.15 58.44 M1.75 387.1 C74.46 304.85, 144.3 225.75, 282.55 64.09 M1.75 387.1 C95.22 279.87, 188.76 172.09, 282.55 64.09 M1.49 393.5 C73.43 311.23, 146.88 226.09, 282.29 70.49 M1.49 393.5 C64.18 321.12, 127.43 248.32, 282.29 70.49 M1.89 399.14 C67.67 324.21, 135.53 246.73, 282.02 76.88 M1.89 399.14 C85.38 300.59, 169.65 203.19, 282.02 76.88 M1.63 405.54 C84.74 311.42, 166.96 216.85, 282.42 82.53 M1.63 405.54 C68.37 329.55, 134.11 254.42, 282.42 82.53 M2.02 411.18 C61.25 342.43, 120.62 273.14, 282.16 88.92 M2.02 411.18 C60.8 342.76, 120.25 274.52, 282.16 88.92 M1.76 417.58 C94.37 311.79, 187.3 203.86, 282.55 94.57 M1.76 417.58 C100.62 305.18, 198.91 191.49, 282.55 94.57 M1.5 423.98 C65.83 349.35, 129.1 277.27, 282.29 100.96 M1.5 423.98 C91.64 321.87, 180.51 219.41, 282.29 100.96 M1.89 429.62 C107.74 305.14, 214.42 181.95, 282.03 107.36 M1.89 429.62 C97.65 318.28, 194.53 207.06, 282.03 107.36 M1.63 436.02 C83.35 342.56, 164.66 249.47, 282.42 113.01 M1.63 436.02 C72.63 351.65, 144.63 269.91, 282.42 113.01 M2.02 441.66 C89.83 340.05, 176.45 238.97, 282.16 119.4 M2.02 441.66 C79.63 353.98, 156.16 265.07, 282.16 119.4 M1.76 448.06 C110.97 323.35, 217.99 197.5, 282.56 125.05 M1.76 448.06 C72.98 367.41, 143.19 286.83, 282.56 125.05 M1.5 454.46 C77.13 366.99, 154.21 280.73, 282.3 131.44 M1.5 454.46 C80.31 365.43, 157.19 276.73, 282.3 131.44 M1.9 460.1 C74.18 375.75, 145.07 293.18, 282.03 137.84 M1.9 460.1 C87.1 362.64, 172.59 264.9, 282.03 137.84 M1.64 466.5 C70.79 386.12, 141.66 305.35, 282.43 143.49 M1.64 466.5 C106.97 347.57, 211.34 226.81, 282.43 143.49 M2.03 472.14 C66.31 400.39, 128.09 330.14, 282.17 149.88 M2.03 472.14 C62.58 404.24, 122.04 335.47, 282.17 149.88 M1.77 478.54 C93.97 375.03, 183.19 271.72, 282.56 155.53 M1.77 478.54 C79.87 389.86, 156.69 300.7, 282.56 155.53 M1.51 484.94 C100.02 374.39, 197.12 259.92, 282.3 161.92 M1.51 484.94 C97.53 373.45, 195.19 260.85, 282.3 161.92 M1.9 490.58 C65.22 417.22, 129.5 345.77, 282.04 168.32 M1.9 490.58 C104.96 369.85, 210.31 249.74, 282.04 168.32 M1.64 496.98 C83.86 403.92, 163.2 310.9, 282.43 173.96 M1.64 496.98 C76.03 409.54, 152.15 322.33, 282.43 173.96 M2.03 502.62 C102.39 387, 204.32 271.94, 282.17 180.36 M2.03 502.62 C97.61 392.09, 193.8 281.01, 282.17 180.36 M1.77 509.02 C71.12 430.8, 138.26 352.55, 282.57 186.01 M1.77 509.02 C93.97 404.82, 184.87 299.88, 282.57 186.01 M1.51 515.42 C112.19 390.63, 221.39 264.84, 282.3 192.4 M1.51 515.42 C101.47 401.94, 200.32 288.12, 282.3 192.4 M1.91 521.06 C111.69 396.4, 219.72 270.57, 282.04 198.8 M1.91 521.06 C66.86 443.71, 133.34 368.45, 282.04 198.8 M1.64 527.46 C71.99 445.57, 141.98 366.42, 282.44 204.44 M1.64 527.46 C69.35 451.2, 136.39 374.05, 282.44 204.44 M2.04 533.1 C75.75 447.57, 151.13 361.2, 282.18 210.84 M2.04 533.1 C92.18 430.09, 181.41 327.51, 282.18 210.84 M1.78 539.5 C92.72 432.21, 187.29 325.08, 282.57 216.49 M1.78 539.5 C97.52 430.68, 191.29 323.04, 282.57 216.49 M1.52 545.9 C109.11 420.93, 218.86 296.32, 282.31 222.88 M1.52 545.9 C76.06 457.29, 152.29 369.58, 282.31 222.88 M1.91 551.54 C86.41 451.19, 173.98 352.37, 282.05 229.28 M1.91 551.54 C73.85 468.58, 145.06 385.74, 282.05 229.28 M1.65 557.94 C60.74 493.27, 118.86 425.27, 282.44 234.92 M1.65 557.94 C106.29 435.76, 211.67 314.76, 282.44 234.92 M2.04 563.58 C84.15 468.23, 168.06 372.78, 282.18 241.32 M2.04 563.58 C85.07 467.98, 168.72 371.79, 282.18 241.32 M1.78 569.98 C106.16 448.88, 210.46 329.2, 281.92 247.72 M1.78 569.98 C82.96 474.4, 165.72 379.32, 281.92 247.72 M1.52 576.38 C87.31 479.85, 170.86 382.38, 282.31 253.36 M1.52 576.38 C72.23 497.46, 142.11 417.4, 282.31 253.36 M1.92 582.02 C81.46 488.85, 162.41 396.76, 282.05 259.76 M1.92 582.02 C79.98 491.66, 158.35 401.49, 282.05 259.76 M1.65 588.42 C109.67 466.61, 215.17 345.67, 282.45 265.4 M1.65 588.42 C103.56 470.03, 207.23 351.01, 282.45 265.4 M2.05 594.06 C91.4 492.09, 179.18 390.89, 282.19 271.8 M2.05 594.06 C103.2 478.2, 205.78 360.55, 282.19 271.8 M1.79 600.46 C72.79 521.25, 142.87 441.72, 281.92 278.2 M1.79 600.46 C62.67 533.07, 123.57 463.39, 281.92 278.2 M1.53 606.86 C111.75 481.51, 220.2 354.9, 282.32 283.84 M1.53 606.86 C105.56 485.99, 209.8 366.51, 282.32 283.84 M1.92 612.5 C88.42 512.48, 176.36 411.25, 282.06 290.24 M1.92 612.5 C64.09 540.23, 125.4 469.34, 282.06 290.24 M1.66 618.9 C62.21 550.88, 123.31 480.59, 282.45 295.88 M1.66 618.9 C84.68 522.6, 168.34 425.96, 282.45 295.88 M2.05 624.54 C65.08 552.78, 127.2 481.56, 282.19 302.28 M2.05 624.54 C88.41 523.55, 174.62 424.44, 282.19 302.28 M1.79 630.94 C71.84 551.22, 141.8 472.26, 281.93 308.68 M1.79 630.94 C96.45 522.83, 191.45 413.04, 281.93 308.68 M2.84 635.83 C87.86 541.33, 171.11 444.79, 282.32 314.32 M2.84 635.83 C83.04 544.47, 162.89 453.49, 282.32 314.32 M3.24 641.47 C93.03 538.07, 183.34 432.37, 282.06 320.72 M3.24 641.47 C75.07 559.47, 147.26 475.54, 282.06 320.72 M4.94 645.6 C96.12 539.1, 187.25 434.48, 282.46 326.36 M4.94 645.6 C68.25 572.06, 131.88 498.66, 282.46 326.36 M6 650.49 C70.75 573.48, 135.89 498.25, 282.2 332.76 M6 650.49 C66.6 580.05, 127.08 509.58, 282.2 332.76 M9.01 653.12 C113.69 534.82, 214.24 417.36, 281.93 339.16 M9.01 653.12 C99.27 548.39, 188.71 445.5, 281.93 339.16 M12.03 655.74 C105.4 546.13, 200.21 438.34, 282.33 344.8 M12.03 655.74 C108.02 545.38, 205.23 432.29, 282.33 344.8 M15.05 658.37 C106.56 551.68, 200.45 443.1, 282.07 351.2 M15.05 658.37 C77.05 587.67, 139.55 516.44, 282.07 351.2 M18.73 660.23 C122.54 542.5, 227.09 424.35, 282.46 356.84 M18.73 660.23 C72.86 598.81, 127.74 536.45, 282.46 356.84 M23.06 661.35 C84.26 588.81, 144.38 519.32, 282.2 363.24 M23.06 661.35 C99.63 576.18, 174.02 490.38, 282.2 363.24 M26.73 663.22 C90 587.45, 154.44 514.05, 281.94 369.64 M26.73 663.22 C93.19 586.5, 160.75 508.44, 281.94 369.64 M33.03 662.07 C107.56 580.47, 177.95 496.05, 282.33 375.28 M33.03 662.07 C112.84 572.09, 191.64 481.62, 282.33 375.28 M38.67 661.68 C133.24 552.05, 226.94 445.43, 282.07 381.68 M38.67 661.68 C95.57 596.79, 152.5 530.87, 282.07 381.68 M43.66 662.04 C97.16 600.79, 150.31 538.43, 282.47 387.32 M43.66 662.04 C100.21 597.29, 155.86 533.25, 282.47 387.32 M48.65 662.4 C102.89 602.97, 154.94 540.87, 282.21 393.72 M48.65 662.4 C140.11 558.89, 229.71 455.3, 282.21 393.72 M54.29 662 C104.61 603.29, 155.2 545.47, 281.94 400.12 M54.29 662 C106.36 602.67, 159.09 542.86, 281.94 400.12 M59.28 662.36 C140.74 568.97, 220.28 477.2, 282.34 405.76 M59.28 662.36 C146.55 561.45, 233.37 461.93, 282.34 405.76 M64.92 661.97 C136.38 581.07, 210.88 496.08, 282.08 412.16 M64.92 661.97 C148.89 564.18, 234.13 465.5, 282.08 412.16 M69.91 662.33 C142.23 580.6, 213.6 499.4, 282.47 417.8 M69.91 662.33 C132.31 591.68, 194.45 521.39, 282.47 417.8 M75.55 661.93 C131.89 597.21, 187.65 533.49, 282.21 424.2 M75.55 661.93 C133.78 597.28, 191.11 529.89, 282.21 424.2 M80.54 662.29 C137.48 600.18, 193.99 535.26, 281.95 430.6 M80.54 662.29 C142.55 588.84, 207.11 515.56, 281.95 430.6 M86.18 661.9 C125 616.71, 166.04 568.83, 282.34 436.24 M86.18 661.9 C152.71 584.26, 219.98 507.64, 282.34 436.24 M91.17 662.26 C146.19 600.69, 197.5 540.36, 282.08 442.64 M91.17 662.26 C146.96 598.6, 201.94 535.49, 282.08 442.64 M96.81 661.86 C169.68 580.85, 241.67 496.69, 282.48 448.28 M96.81 661.86 C155.38 595.85, 213.42 529.58, 282.48 448.28 M101.8 662.22 C170.66 583.57, 239.79 503.55, 282.22 454.68 M101.8 662.22 C138.6 620.19, 175.67 578.54, 282.22 454.68 M107.44 661.83 C164.3 595.01, 222.76 528.76, 281.95 461.08 M107.44 661.83 C143.36 619.11, 178.95 577.86, 281.95 461.08 M112.43 662.19 C147.87 620.84, 185.09 578.87, 282.35 466.72 M112.43 662.19 C154.64 613.97, 195.4 566.17, 282.35 466.72 M118.07 661.79 C152.26 621.37, 185.86 584.29, 282.09 473.12 M118.07 661.79 C172.7 598.63, 225.83 536.56, 282.09 473.12 M123.06 662.15 C180.3 597.68, 237.4 530.19, 282.48 478.76 M123.06 662.15 C184.81 592.55, 245.61 522.89, 282.48 478.76 M128.7 661.76 C170.61 618.42, 207.5 571.65, 282.22 485.16 M128.7 661.76 C168.76 617.02, 208.82 570.19, 282.22 485.16 M133.69 662.12 C186.74 600.96, 239.97 543.5, 281.96 491.56 M133.69 662.12 C188.64 599.65, 244.13 535.97, 281.96 491.56 M139.33 661.73 C194.6 597.88, 250.02 537.26, 282.35 497.2 M139.33 661.73 C178.61 613.89, 219.02 568.38, 282.35 497.2 M144.32 662.09 C189.26 611.58, 232.19 564.61, 282.09 503.6 M144.32 662.09 C192.67 608.6, 240.68 552.4, 282.09 503.6 M149.96 661.69 C198.55 604.77, 249.12 548.02, 282.49 509.24 M149.96 661.69 C193.95 611.42, 239.78 560.15, 282.49 509.24 M154.95 662.05 C200.34 614.61, 242.5 566.31, 282.22 515.64 M154.95 662.05 C185.98 628.03, 216.13 592.9, 282.22 515.64 M159.94 662.41 C191.62 626.26, 222.13 594.28, 281.96 522.03 M159.94 662.41 C192.98 623.11, 228.01 584.1, 281.96 522.03 M165.58 662.02 C194.27 629.49, 225.93 596.33, 282.36 527.68 M165.58 662.02 C205.17 615.68, 244.55 569.09, 282.36 527.68 M170.57 662.38 C207.6 622.93, 240.53 583.95, 282.1 534.08 M170.57 662.38 C193.93 635.13, 217.52 608.59, 282.1 534.08 M176.21 661.98 C204.29 627.51, 235.27 593.38, 282.49 539.72 M176.21 661.98 C212.13 619.36, 249.96 577.21, 282.49 539.72 M181.2 662.34 C216.55 622.18, 251.98 581.83, 282.23 546.12 M181.2 662.34 C215.65 621.55, 251.57 579.03, 282.23 546.12 M186.84 661.95 C223.06 621.37, 261.18 575.55, 281.97 552.51 M186.84 661.95 C219.86 623.54, 252.07 586.32, 281.97 552.51 M191.83 662.31 C228.8 622.21, 264.02 582.79, 282.36 558.16 M191.83 662.31 C228.54 620.97, 264.43 580.09, 282.36 558.16 M197.47 661.91 C226.42 631.07, 253.31 595.14, 282.1 564.56 M197.47 661.91 C228.8 626.65, 261.14 588.8, 282.1 564.56 M202.46 662.27 C228.95 632.07, 256.2 604.63, 282.5 570.2 M202.46 662.27 C227.9 632.03, 253.9 602.43, 282.5 570.2 M208.1 661.88 C223.39 644.37, 237.82 623.33, 282.23 576.6 M208.1 661.88 C230.39 636.96, 252.34 610, 282.23 576.6 M213.09 662.24 C233.27 634.12, 256.17 610.64, 281.97 582.99 M213.09 662.24 C239.55 632.45, 265.87 601.24, 281.97 582.99 M218.73 661.84 C239.35 639.75, 257.36 616.87, 282.37 588.64 M218.73 661.84 C240.11 638.03, 261.05 613.55, 282.37 588.64 M223.72 662.2 C236.09 646.3, 249.64 631.64, 282.11 595.03 M223.72 662.2 C242.86 639.61, 262.13 619.03, 282.11 595.03 M229.36 661.81 C243.72 646.66, 255.45 629.5, 282.5 600.68 M229.36 661.81 C244.49 644.59, 261.05 625.72, 282.5 600.68 M234.35 662.17 C249.33 646.03, 266.65 626.81, 282.24 607.08 M234.35 662.17 C252.87 639.56, 272.45 617.72, 282.24 607.08 M239.99 661.77 C250.37 650.01, 261.13 635.47, 281.98 613.47 M239.99 661.77 C256.24 644.21, 271.34 624.98, 281.98 613.47 M244.98 662.13 C258.89 644.83, 272.99 628.57, 282.37 619.12 M244.98 662.13 C255.4 649.6, 265.63 638.5, 282.37 619.12 M249.96 662.49 C258.41 650.62, 267.17 640.77, 282.11 625.51 M249.96 662.49 C260.84 649.79, 273.99 635.9, 282.11 625.51 M255.61 662.1 C263.14 656.28, 268.58 647.92, 282.51 631.16 M255.61 662.1 C261.06 655.19, 267.34 648.95, 282.51 631.16 M262.56 660.2 C267.63 653.4, 271.8 646.9, 281.59 638.31 M262.56 660.2 C267.61 655.51, 271.07 650.54, 281.59 638.31" stroke="#a9a9b2" stroke-width="0.5" fill="none"></path><path d="M32 0 C96.66 -0.34, 158.05 1.23, 248 0 M32 0 C113.58 0.35, 193.51 -1.1, 248 0 M248 0 C269.26 0.1, 278.26 12.5, 280 32 M248 0 C268.43 -1.58, 279.51 12.95, 280 32 M280 32 C281.05 247.24, 282.55 460.91, 280 629.12 M280 32 C279.19 236.91, 279.45 441.79, 280 629.12 M280 629.12 C278.65 650.44, 270.21 662.53, 248 661.12 M280 629.12 C277.86 652.57, 271.31 660.32, 248 661.12 M248 661.12 C195.62 661.75, 142.21 664.32, 32 661.12 M248 661.12 C191.86 660.35, 133.97 660.46, 32 661.12 M32 661.12 C11.86 662.81, 1.51 651.28, 0 629.12 M32 661.12 C9.81 659.5, -0.12 652.64, 0 629.12 M0 629.12 C2.33 457.21, 2.25 285.67, 0 32 M0 629.12 C-0.68 393, -0.56 156.01, 0 32 M0 32 C0.31 12.12, 9.06 -0.62, 32 0 M0 32 C-2.07 12.22, 9.5 1.81, 32 0" stroke="#a9a9b2" stroke-width="1" fill="none"></path></g><g transform="translate(248.231689453125 12.266830444335824) rotate(0 37.294921875 11.5)"><text x="0" y="16.900390625" font-family="Helvetica, Segoe UI Emoji" font-size="20px" fill="#a9a9b2" text-anchor="start" style="white-space: pre;" direction="ltr" dominant-baseline="alphabetic">Browser</text></g><g transform="translate(124.84939575195312 67.26683044433582) rotate(0 157.607421875 23)"><text x="157.607421875" y="16.900390625" font-family="Helvetica, Segoe UI Emoji" font-size="20px" fill="#a9a9b2" text-anchor="middle" style="white-space: pre;" direction="ltr" dominant-baseline="alphabetic">Client</text><text x="157.607421875" y="39.900390625" font-family="Helvetica, Segoe UI Emoji" font-size="20px" fill="#a9a9b2" text-anchor="middle" style="white-space: pre;" direction="ltr" dominant-baseline="alphabetic">(https://jub0bs.github.io?port=8080)</text></g><g transform="translate(1132.5464172363281 68.52781677246082) rotate(0 96.1669921875 23)"><text x="96.1669921875" y="16.900390625" font-family="Helvetica, Segoe UI Emoji" font-size="20px" fill="#a9a9b2" text-anchor="middle" style="white-space: pre;" direction="ltr" dominant-baseline="alphabetic">Server</text><text x="96.1669921875" y="39.900390625" font-family="Helvetica, Segoe UI Emoji" font-size="20px" fill="#a9a9b2" text-anchor="middle" style="white-space: pre;" direction="ltr" dominant-baseline="alphabetic">(http://localhost:8080)</text></g><g transform="translate(67.19387817382812 338.5173187255858) rotate(0 216.2421875 37)"><text x="0" y="13.5703125" font-family="Helvetica, Segoe UI Emoji" font-size="16px" fill="#a9a9b2" text-anchor="start" style="white-space: pre;" direction="ltr" dominant-baseline="alphabetic">&lt;script&gt;</text><text x="0" y="32.0703125" font-family="Helvetica, Segoe UI Emoji" font-size="16px" fill="#a9a9b2" text-anchor="start" style="white-space: pre;" direction="ltr" dominant-baseline="alphabetic">  const url = 'http://localhost:8080/check?username=jub0bs';</text><text x="0" y="50.5703125" font-family="Helvetica, Segoe UI Emoji" font-size="16px" fill="#a9a9b2" text-anchor="start" style="white-space: pre;" direction="ltr" dominant-baseline="alphabetic">  fetch(url).then(data =&gt; data.json()).then(displayResults);</text><text x="0" y="69.0703125" font-family="Helvetica, Segoe UI Emoji" font-size="16px" fill="#a9a9b2" text-anchor="start" style="white-space: pre;" direction="ltr" dominant-baseline="alphabetic">&lt;/script&gt;</text></g><g stroke-linecap="round"><g transform="translate(508.7134094238281 392.2668304443358) rotate(0 30 0)"><path d="M0 0 C10 0, 50 0, 60 0 M0 0 C10 0, 50 0, 60 0" stroke="#a9a9b2" stroke-width="2" fill="none"></path></g><g transform="translate(508.7134094238281 392.2668304443358) rotate(0 30 0)"><path d="M36.51 8.55 C41.59 6.7, 46.67 4.85, 60 0 M36.51 8.55 C43.3 6.08, 50.1 3.61, 60 0" stroke="#a9a9b2" stroke-width="2" fill="none"></path></g><g transform="translate(508.7134094238281 392.2668304443358) rotate(0 30 0)"><path d="M36.51 -8.55 C41.59 -6.7, 46.67 -4.85, 60 0 M36.51 -8.55 C43.3 -6.08, 50.1 -3.61, 60 0" stroke="#a9a9b2" stroke-width="2" fill="none"></path></g></g><mask></mask><g stroke-linecap="round"><g transform="translate(568.7134094238281 72.26683044433582) rotate(0 260 0)"><path d="M0 0 C86.67 0, 433.33 0, 520 0 M0 0 C86.67 0, 433.33 0, 520 0" stroke="#a9a9b2" stroke-width="2" fill="none"></path></g><g transform="translate(568.7134094238281 72.26683044433582) rotate(0 260 0)"><path d="M496.51 8.55 C504.74 5.55, 512.98 2.56, 520 0 M496.51 8.55 C502.89 6.23, 509.26 3.91, 520 0" stroke="#a9a9b2" stroke-width="2" fill="none"></path></g><g transform="translate(568.7134094238281 72.26683044433582) rotate(0 260 0)"><path d="M496.51 -8.55 C504.74 -5.55, 512.98 -2.56, 520 0 M496.51 -8.55 C502.89 -6.23, 509.26 -3.91, 520 0" stroke="#a9a9b2" stroke-width="2" fill="none"></path></g></g><mask></mask><g transform="translate(588.7134094238281 85.26683044433582) rotate(0 164.49609375 55.5)"><text x="0" y="13.5703125" font-family="Helvetica, Segoe UI Emoji" font-size="16px" fill="#a9a9b2" text-anchor="start" style="white-space: pre;" direction="ltr" dominant-baseline="alphabetic">OPTIONS / HTTP/2</text><text x="0" y="32.0703125" font-family="Helvetica, Segoe UI Emoji" font-size="16px" fill="#a9a9b2" text-anchor="start" style="white-space: pre;" direction="ltr" dominant-baseline="alphabetic">Host: localhost:8080</text><text x="0" y="50.5703125" font-family="Helvetica, Segoe UI Emoji" font-size="16px" fill="#a9a9b2" text-anchor="start" style="white-space: pre;" direction="ltr" dominant-baseline="alphabetic">Origin: https://jub0bs.github.io</text><text x="0" y="69.0703125" font-family="Helvetica, Segoe UI Emoji" font-size="16px" fill="#a9a9b2" text-anchor="start" style="white-space: pre;" direction="ltr" dominant-baseline="alphabetic">Access-Control-Request-Method: GET</text><text x="0" y="87.5703125" font-family="Helvetica, Segoe UI Emoji" font-size="16px" fill="#a9a9b2" text-anchor="start" style="white-space: pre;" direction="ltr" dominant-baseline="alphabetic">Access-Control-Request-Private-Network: true</text><text x="0" y="106.0703125" font-family="Helvetica, Segoe UI Emoji" font-size="16px" fill="#a9a9b2" text-anchor="start" style="white-space: pre;" direction="ltr" dominant-baseline="alphabetic">-snip-</text></g><g stroke-linecap="round"><g transform="translate(1087.5467427571614 233.58306567417037) rotate(0 -258.8333333333333 0.44569364049326055)"><path d="M0 0 C-86.28 0.15, -431.39 0.74, -517.67 0.89 M0 0 C-86.28 0.15, -431.39 0.74, -517.67 0.89" stroke="#a9a9b2" stroke-width="2" fill="none"></path></g><g transform="translate(1087.5467427571614 233.58306567417037) rotate(0 -258.8333333333333 0.44569364049326055)"><path d="M-494.19 -7.7 C-502.39 -4.7, -510.6 -1.7, -517.67 0.89 M-494.19 -7.7 C-498.98 -5.95, -503.76 -4.2, -517.67 0.89" stroke="#a9a9b2" stroke-width="2" fill="none"></path></g><g transform="translate(1087.5467427571614 233.58306567417037) rotate(0 -258.8333333333333 0.44569364049326055)"><path d="M-494.16 9.4 C-502.37 6.43, -510.59 3.45, -517.67 0.89 M-494.16 9.4 C-498.95 7.67, -503.74 5.93, -517.67 0.89" stroke="#a9a9b2" stroke-width="2" fill="none"></path></g></g><mask></mask><g transform="translate(706.7134094238281 248.26683044433582) rotate(0 186.74609375 46.5)"><text x="0" y="13.6203125" font-family="Helvetica, Segoe UI Emoji" font-size="16px" fill="#a9a9b2" text-anchor="start" style="white-space: pre;" direction="ltr" dominant-baseline="alphabetic">HTTP/2 204 No Content</text><text x="0" y="32.220312500000006" font-family="Helvetica, Segoe UI Emoji" font-size="16px" fill="#a9a9b2" text-anchor="start" style="white-space: pre;" direction="ltr" dominant-baseline="alphabetic">Access-Control-Allow-Origin:  https://jub0bs.github.io</text><text x="0" y="50.8203125" font-family="Helvetica, Segoe UI Emoji" font-size="16px" fill="#a9a9b2" text-anchor="start" style="white-space: pre;" direction="ltr" dominant-baseline="alphabetic">Access-Control-Allow-Methods: GET</text><text x="0" y="69.42031250000001" font-family="Helvetica, Segoe UI Emoji" font-size="16px" fill="#a9a9b2" text-anchor="start" style="white-space: pre;" direction="ltr" dominant-baseline="alphabetic">Access-Control-Allow-Private-Network: true</text><text x="0" y="88.0203125" font-family="Helvetica, Segoe UI Emoji" font-size="16px" fill="#a9a9b2" text-anchor="start" style="white-space: pre;" direction="ltr" dominant-baseline="alphabetic">-snip-</text></g><g stroke-linecap="round"><g transform="translate(569.8800760904948 394.1996975846961) rotate(0 258.8333333333333 0.3124438753196159)"><path d="M0 0 C86.28 0.1, 431.39 0.52, 517.67 0.62 M0 0 C86.28 0.1, 431.39 0.52, 517.67 0.62" stroke="#a9a9b2" stroke-width="2" fill="none"></path></g><g transform="translate(569.8800760904948 394.1996975846961) rotate(0 258.8333333333333 0.3124438753196159)"><path d="M494.16 9.15 C499.08 7.36, 504 5.58, 517.67 0.62 M494.16 9.15 C499.86 7.08, 505.56 5.01, 517.67 0.62" stroke="#a9a9b2" stroke-width="2" fill="none"></path></g><g transform="translate(569.8800760904948 394.1996975846961) rotate(0 258.8333333333333 0.3124438753196159)"><path d="M494.18 -7.95 C499.1 -6.16, 504.01 -4.36, 517.67 0.62 M494.18 -7.95 C499.88 -5.87, 505.57 -3.79, 517.67 0.62" stroke="#a9a9b2" stroke-width="2" fill="none"></path></g></g><mask></mask><g transform="translate(588.7134094238281 399.8489837646483) rotate(0 105.83984375 37.19999999999999)"><text x="0" y="13.6203125" font-family="Helvetica, Segoe UI Emoji" font-size="16px" fill="#a9a9b2" text-anchor="start" style="white-space: pre;" direction="ltr" dominant-baseline="alphabetic">GET / HTTP/2</text><text x="0" y="32.220312500000006" font-family="Helvetica, Segoe UI Emoji" font-size="16px" fill="#a9a9b2" text-anchor="start" style="white-space: pre;" direction="ltr" dominant-baseline="alphabetic">Host: localhost:8080</text><text x="0" y="50.8203125" font-family="Helvetica, Segoe UI Emoji" font-size="16px" fill="#a9a9b2" text-anchor="start" style="white-space: pre;" direction="ltr" dominant-baseline="alphabetic">Origin: https://jub0bs.github.io</text><text x="0" y="69.42031250000001" font-family="Helvetica, Segoe UI Emoji" font-size="16px" fill="#a9a9b2" text-anchor="start" style="white-space: pre;" direction="ltr" dominant-baseline="alphabetic">-snip-</text></g><g stroke-linecap="round"><g transform="translate(1087.5467427571614 552.2668304443358) rotate(0 -257.91666666666663 0)"><path d="M0 0 C-85.97 0, -429.86 0, -515.83 0 M0 0 C-85.97 0, -429.86 0, -515.83 0" stroke="#a9a9b2" stroke-width="2" fill="none"></path></g><g transform="translate(1087.5467427571614 552.2668304443358) rotate(0 -257.91666666666663 0)"><path d="M-492.34 -8.55 C-499.65 -5.89, -506.95 -3.23, -515.83 0 M-492.34 -8.55 C-499.48 -5.95, -506.62 -3.35, -515.83 0" stroke="#a9a9b2" stroke-width="2" fill="none"></path></g><g transform="translate(1087.5467427571614 552.2668304443358) rotate(0 -257.91666666666663 0)"><path d="M-492.34 8.55 C-499.65 5.89, -506.95 3.23, -515.83 0 M-492.34 8.55 C-499.48 5.95, -506.62 3.35, -515.83 0" stroke="#a9a9b2" stroke-width="2" fill="none"></path></g></g><mask></mask><g transform="translate(706.7134094238281 567.2668304443358) rotate(0 184.5234375 55.80000000000001)"><text x="0" y="13.6203125" font-family="Helvetica, Segoe UI Emoji" font-size="16px" fill="#a9a9b2" text-anchor="start" style="white-space: pre;" direction="ltr" dominant-baseline="alphabetic">HTTP/2 200 OK</text><text x="0" y="32.220312500000006" font-family="Helvetica, Segoe UI Emoji" font-size="16px" fill="#a9a9b2" text-anchor="start" style="white-space: pre;" direction="ltr" dominant-baseline="alphabetic">Access-Control-Allow-Origin: https://jub0bs.github.io</text><text x="0" y="50.8203125" font-family="Helvetica, Segoe UI Emoji" font-size="16px" fill="#a9a9b2" text-anchor="start" style="white-space: pre;" direction="ltr" dominant-baseline="alphabetic">Content-Type: application/json</text><text x="0" y="69.42031250000001" font-family="Helvetica, Segoe UI Emoji" font-size="16px" fill="#a9a9b2" text-anchor="start" style="white-space: pre;" direction="ltr" dominant-baseline="alphabetic">-snip-</text><text x="0" y="88.0203125" font-family="Helvetica, Segoe UI Emoji" font-size="16px" fill="#a9a9b2" text-anchor="start" style="white-space: pre;" direction="ltr" dominant-baseline="alphabetic"></text><text x="0" y="106.6203125" font-family="Helvetica, Segoe UI Emoji" font-size="16px" fill="#a9a9b2" text-anchor="start" style="white-space: pre;" direction="ltr" dominant-baseline="alphabetic">{... some JSON here ...}</text></g><g transform="translate(512.7134094238281 351.2668304443358) rotate(0 11 21)"><text x="0" y="30.720703125" font-family="Helvetica, Segoe UI Emoji" font-size="36px" fill="#a9a9b2" text-anchor="start" style="white-space: pre;" direction="ltr" dominant-baseline="alphabetic">1</text></g><g transform="translate(1048.7134094238281 192.26683044433582) rotate(0 11 21)"><text x="0" y="30.720703125" font-family="Helvetica, Segoe UI Emoji" font-size="36px" fill="#a9a9b2" text-anchor="start" style="white-space: pre;" direction="ltr" dominant-baseline="alphabetic">3</text></g><g transform="translate(588.7134094238281 32.266830444335824) rotate(0 11 21)"><text x="0" y="30.720703125" font-family="Helvetica, Segoe UI Emoji" font-size="36px" fill="#a9a9b2" text-anchor="start" style="white-space: pre;" direction="ltr" dominant-baseline="alphabetic">2</text></g><g transform="translate(588.7134094238281 351.2668304443358) rotate(0 11 21)"><text x="0" y="30.720703125" font-family="Helvetica, Segoe UI Emoji" font-size="36px" fill="#a9a9b2" text-anchor="start" style="white-space: pre;" direction="ltr" dominant-baseline="alphabetic">4</text></g><g transform="translate(1048.7134094238281 511.2668304443358) rotate(0 11 21)"><text x="0" y="30.720703125" font-family="Helvetica, Segoe UI Emoji" font-size="36px" fill="#a9a9b2" text-anchor="start" style="white-space: pre;" direction="ltr" dominant-baseline="alphabetic">5</text></g><g transform="translate(540.7134094238281 511.2668304443358) rotate(0 11 21)"><text x="0" y="30.720703125" font-family="Helvetica, Segoe UI Emoji" font-size="36px" fill="#a9a9b2" text-anchor="start" style="white-space: pre;" direction="ltr" dominant-baseline="alphabetic">6</text></g><g stroke-linecap="round"><g transform="translate(568.7134094238281 552.2668304443358) rotate(0 -30 0)"><path d="M0 0 C-10 0, -50 0, -60 0 M0 0 C-10 0, -50 0, -60 0" stroke="#a9a9b2" stroke-width="2" fill="none"></path></g><g transform="translate(568.7134094238281 552.2668304443358) rotate(0 -30 0)"><path d="M-36.51 -8.55 C-44.09 -5.79, -51.68 -3.03, -60 0 M-36.51 -8.55 C-43.18 -6.12, -49.85 -3.69, -60 0" stroke="#a9a9b2" stroke-width="2" fill="none"></path></g><g transform="translate(568.7134094238281 552.2668304443358) rotate(0 -30 0)"><path d="M-36.51 8.55 C-44.09 5.79, -51.68 3.03, -60 0 M-36.51 8.55 C-43.18 6.12, -49.85 3.69, -60 0" stroke="#a9a9b2" stroke-width="2" fill="none"></path></g></g><mask></mask></svg>