<?xml version="1.0" standalone="no"?>
<!DOCTYPE svg PUBLIC "-//W3C//DTD SVG 1.1//EN" "http://www.w3.org/Graphics/SVG/1.1/DTD/svg11.dtd">
<svg version="1.1" xmlns="http://www.w3.org/2000/svg" viewBox="0 0 1318.7134094238281 460" width="2637.4268188476562" height="920"><!-- svg-source:excalidraw --><metadata></metadata><defs><style class="style-fonts">
      </style></defs><rect x="0" y="0" width="1318.7134094238281" height="460" fill="#ffffff"></rect><g stroke-linecap="round"><g transform="translate(568.7134094238281 330) rotate(0 -30 0)"><path d="M0 0 C-10 0, -50 0, -60 0 M0 0 C-10 0, -50 0, -60 0" stroke="#a9a9b2" stroke-width="2" fill="none"></path></g><g transform="translate(568.7134094238281 330) rotate(0 -30 0)"><path d="M-36.51 -8.55 C-44.09 -5.79, -51.67 -3.03, -60 0 M-36.51 -8.55 C-42.88 -6.23, -49.25 -3.91, -60 0" stroke="#a9a9b2" stroke-width="2" fill="none"></path></g><g transform="translate(568.7134094238281 330) rotate(0 -30 0)"><path d="M-36.51 8.55 C-44.09 5.79, -51.67 3.03, -60 0 M-36.51 8.55 C-42.88 6.23, -49.25 3.91, -60 0" stroke="#a9a9b2" stroke-width="2" fill="none"></path></g></g><mask></mask><g stroke-linecap="round" transform="translate(10 10) rotate(0 279.35670471191406 220)"><path d="M32 0 C161.95 -0.42, 292.24 -1.35, 526.71 0 M32 0 C167.23 0.18, 301.85 -0.14, 526.71 0 M526.71 0 C546.94 1.18, 558.93 12.32, 558.71 32 M526.71 0 C549.81 2.29, 557.74 8.39, 558.71 32 M558.71 32 C560.41 182.74, 558.91 331.23, 558.71 408 M558.71 32 C558.44 180.25, 559.15 328.24, 558.71 408 M558.71 408 C557.28 430.93, 546.33 438.46, 526.71 440 M558.71 408 C558.96 427.16, 546.54 438.03, 526.71 440 M526.71 440 C384.19 438.66, 242.5 438.12, 32 440 M526.71 440 C333.83 438.15, 141.05 438.18, 32 440 M32 440 C10.65 438.7, 1.55 428.81, 0 408 M32 440 C12.63 441.26, -0.93 427.98, 0 408 M0 408 C-0.3 304.29, -1.12 199.19, 0 32 M0 408 C-1.88 299.85, -1.15 191.12, 0 32 M0 32 C0.53 12.51, 12.6 -0.06, 32 0 M0 32 C-1.59 10.59, 10.78 -2, 32 0" stroke="#a9a9b2" stroke-width="1" fill="none"></path></g><g stroke-opacity="0.5" fill-opacity="0.5" stroke-linecap="round" transform="translate(51.061370849609375 53.46076965332031) rotate(0 228.82601928710938 178.26961517333984)"><path d="M7.86 8.16 C7.86 8.16, 7.86 8.16, 7.86 8.16 M7.86 8.16 C7.86 8.16, 7.86 8.16, 7.86 8.16 M3.66 19.09 C10.21 14.09, 16.14 8.16, 18.1 2.48 M3.66 19.09 C8.6 14.47, 13.46 6.87, 18.1 2.48 M2.75 26.24 C7.55 22.24, 14.74 15.38, 24.4 1.33 M2.75 26.24 C10.85 17.3, 17.44 9.85, 24.4 1.33 M2.48 32.64 C10.13 24.75, 16.55 20.37, 30.7 0.18 M2.48 32.64 C13.8 21.06, 23.29 7.1, 30.7 0.18 M2.88 38.28 C10.37 30.3, 20.64 16.86, 34.37 2.05 M2.88 38.28 C10.36 31.16, 16.69 23.25, 34.37 2.05 M2.62 44.68 C13.52 33.14, 21.22 24.34, 39.36 2.41 M2.62 44.68 C11.4 33.98, 22.67 21.8, 39.36 2.41 M2.36 51.07 C17.37 34.72, 27.75 19.35, 45 2.02 M2.36 51.07 C15.3 38.28, 27.37 23.77, 45 2.02 M2.75 56.72 C14.78 43.91, 24.2 31.15, 49.99 2.38 M2.75 56.72 C15.79 40.34, 29.45 26.11, 49.99 2.38 M2.49 63.11 C15.12 49.74, 29.94 32.41, 55.63 1.98 M2.49 63.11 C18.98 46.1, 34.03 28.17, 55.63 1.98 M2.88 68.76 C20.22 49.3, 35.04 34.47, 60.62 2.34 M2.88 68.76 C16.47 54.2, 28.09 39.78, 60.62 2.34 M2.62 75.16 C29.52 44.99, 52.47 16.94, 66.26 1.95 M2.62 75.16 C22.11 51.73, 41.4 28.36, 66.26 1.95 M2.36 81.55 C26.06 55.6, 46.9 29.51, 71.25 2.31 M2.36 81.55 C24.3 57.32, 44.62 34.59, 71.25 2.31 M2.76 87.2 C19.03 70, 34.05 48.93, 76.89 1.91 M2.76 87.2 C31.54 53.91, 62.03 20.03, 76.89 1.91 M2.49 93.59 C24.26 69.49, 45.57 43.85, 81.88 2.27 M2.49 93.59 C20.36 72.1, 39.57 49.6, 81.88 2.27 M2.23 99.99 C21.13 78.72, 38.75 56.1, 87.52 1.88 M2.23 99.99 C31.34 66.6, 61.03 33.46, 87.52 1.88 M2.63 105.64 C21.75 79.96, 42.93 58.16, 92.51 2.24 M2.63 105.64 C38.61 64.11, 73.14 23.08, 92.51 2.24 M2.37 112.03 C24.27 86.92, 45.11 59.54, 98.15 1.85 M2.37 112.03 C35.24 75.8, 68.39 37.81, 98.15 1.85 M2.76 117.68 C31.01 86.55, 56.55 59.29, 103.14 2.21 M2.76 117.68 C24.42 92.34, 45.49 65.93, 103.14 2.21 M2.5 124.07 C35.9 81.96, 71.11 44.05, 108.78 1.81 M2.5 124.07 C35.32 86.61, 68.72 47.51, 108.78 1.81 M2.24 130.47 C27.95 100.91, 52.8 71.92, 113.77 2.17 M2.24 130.47 C24.29 103.38, 47.48 78.85, 113.77 2.17 M2.63 136.11 C35.43 96.93, 71.58 56.31, 119.41 1.78 M2.63 136.11 C48.89 83.83, 95.64 30.49, 119.41 1.78 M2.37 142.51 C47.27 92.44, 91.24 41.98, 124.4 2.14 M2.37 142.51 C41.11 99.06, 77.2 55.64, 124.4 2.14 M2.11 148.91 C28.22 119.61, 56.24 88.68, 130.04 1.74 M2.11 148.91 C34.45 113.93, 66.35 75.53, 130.04 1.74 M2.5 154.55 C42.94 108.67, 81.96 61.2, 135.03 2.1 M2.5 154.55 C51.39 96.51, 100.51 40.06, 135.03 2.1 M2.24 160.95 C55.85 101.11, 106.7 39.31, 140.67 1.71 M2.24 160.95 C46.7 110.81, 90.52 60.74, 140.67 1.71 M2.64 166.59 C41.28 124.35, 77.05 80.02, 145.66 2.07 M2.64 166.59 C45.31 118.52, 87.86 70.21, 145.66 2.07 M2.38 172.99 C40.92 126.8, 81.04 85.14, 150.65 2.43 M2.38 172.99 C61.54 107.42, 118.98 39.23, 150.65 2.43 M2.11 179.39 C36.81 136.73, 70.89 96.88, 156.29 2.03 M2.11 179.39 C37.83 136.31, 74.52 95.17, 156.29 2.03 M2.51 185.03 C58.13 120.83, 115.03 55.18, 161.28 2.39 M2.51 185.03 C45.11 136.48, 85.92 89.19, 161.28 2.39 M2.25 191.43 C67.44 116.77, 135.93 41.34, 166.92 2 M2.25 191.43 C38.53 150.38, 75.5 108.68, 166.92 2 M2.64 197.07 C51.56 143.82, 98.8 88.33, 171.91 2.36 M2.64 197.07 C45.12 146.73, 86.53 98.56, 171.91 2.36 M2.38 203.47 C58.99 138.35, 114.87 72.53, 177.55 1.96 M2.38 203.47 C64.53 133.32, 125.72 63.81, 177.55 1.96 M2.12 209.87 C54.83 149.49, 106.91 88.33, 182.54 2.32 M2.12 209.87 C51.04 155.58, 99.94 99.79, 182.54 2.32 M2.51 215.51 C72.26 135.86, 140.26 58.52, 188.18 1.93 M2.51 215.51 C73.02 134.99, 142.71 54, 188.18 1.93 M2.25 221.91 C75.11 136.21, 149.81 54.77, 193.17 2.29 M2.25 221.91 C73.71 138.78, 146.43 55.05, 193.17 2.29 M1.99 228.31 C51.03 171.22, 103.68 112.32, 198.81 1.9 M1.99 228.31 C68.73 150.76, 135.91 73.61, 198.81 1.9 M2.39 233.95 C78.98 145.05, 159.24 53.79, 203.8 2.26 M2.39 233.95 C45.78 184.25, 89.54 133.02, 203.8 2.26 M2.12 240.35 C66.95 167.59, 130 96.02, 209.44 1.86 M2.12 240.35 C68.02 164.61, 133.61 88.67, 209.44 1.86 M2.52 245.99 C56.29 187.05, 109.72 124.49, 214.43 2.22 M2.52 245.99 C83.63 153.36, 164.7 60.51, 214.43 2.22 M2.26 252.39 C49.91 195.91, 101.15 138.49, 220.07 1.83 M2.26 252.39 C60.26 184.98, 119.2 117.23, 220.07 1.83 M2 258.79 C87.88 157.43, 175.94 58.34, 225.06 2.19 M2 258.79 C55.12 198.02, 107.49 137.98, 225.06 2.19 M2.39 264.43 C70.81 183.41, 139.51 104.54, 230.7 1.79 M2.39 264.43 C52.12 205.63, 102.62 148.51, 230.7 1.79 M2.13 270.83 C76.31 185.28, 148.23 102.91, 235.69 2.15 M2.13 270.83 C74.85 185.46, 148.05 101.02, 235.69 2.15 M2.52 276.47 C52.75 222.01, 100.08 166.33, 241.33 1.76 M2.52 276.47 C62.4 204.83, 124.61 133.91, 241.33 1.76 M2.26 282.87 C53.13 228.34, 101.95 170.12, 246.32 2.12 M2.26 282.87 C78.15 194.6, 153.35 107.8, 246.32 2.12 M2 289.27 C97.77 177.05, 196.8 64.29, 251.96 1.72 M2 289.27 C84.53 192.65, 169.02 96.5, 251.96 1.72 M2.4 294.91 C88.53 195.23, 173.76 97.49, 256.95 2.08 M2.4 294.91 C74.8 213.31, 146.83 130.05, 256.95 2.08 M2.13 301.31 C80.73 209.32, 159.99 117.91, 262.59 1.69 M2.13 301.31 C72.26 219.39, 143.17 137.08, 262.59 1.69 M1.87 307.71 C75.37 223.26, 148.73 140.06, 267.58 2.05 M1.87 307.71 C74.11 227.4, 143.34 146.64, 267.58 2.05 M2.27 313.35 C102.65 197.94, 200.65 85.94, 272.56 2.41 M2.27 313.35 C99.19 203.57, 194.85 94.42, 272.56 2.41 M2.01 319.75 C71.05 237.44, 142.42 156.63, 278.21 2.01 M2.01 319.75 C68.98 241.52, 135.35 164.76, 278.21 2.01 M1.74 326.14 C110.62 200.57, 219.59 75.86, 283.19 2.37 M1.74 326.14 C93.08 218.18, 185.45 111.59, 283.19 2.37 M2.79 331.03 C62.52 263.23, 121.68 194.52, 288.84 1.98 M2.79 331.03 C111.75 205.12, 220.39 80.3, 288.84 1.98 M3.19 336.68 C109.04 214.94, 215.51 94.62, 293.82 2.34 M3.19 336.68 C67.84 262.78, 130.65 190.28, 293.82 2.34 M4.9 340.81 C103.84 224.64, 206.24 109.65, 299.47 1.94 M4.9 340.81 C121.02 205.71, 238.14 69.98, 299.47 1.94 M7.26 344.19 C87.05 252.86, 169.57 159.96, 304.45 2.3 M7.26 344.19 C96.67 243.19, 185.3 140.87, 304.45 2.3 M8.31 349.08 C115.92 225.8, 222.64 102.62, 310.1 1.91 M8.31 349.08 C124.54 214.89, 241.37 80.38, 310.1 1.91 M11.98 350.95 C94.43 256.6, 177.46 159.85, 315.08 2.27 M11.98 350.95 C109.65 238.02, 206.49 127.34, 315.08 2.27 M15.66 352.82 C83.45 273.02, 150.31 194.96, 320.73 1.88 M15.66 352.82 C77.37 281.3, 139.91 208.95, 320.73 1.88 M18.68 355.44 C116.17 243.73, 212.74 131.87, 325.71 2.24 M18.68 355.44 C109.35 251.97, 199.16 148.5, 325.71 2.24 M23.67 355.8 C89.62 279.78, 156.63 204.25, 331.36 1.84 M23.67 355.8 C105.17 260.61, 187.06 165.8, 331.36 1.84 M28 356.91 C131.31 238.16, 235.72 118.74, 336.34 2.2 M28 356.91 C122.76 250.02, 216.06 143.34, 336.34 2.2 M32.98 357.27 C117.71 257.58, 202.73 159.83, 341.99 1.81 M32.98 357.27 C144.9 228.77, 257.52 98.48, 341.99 1.81 M37.97 357.64 C112.02 271.56, 187.33 186.11, 346.97 2.17 M37.97 357.64 C125.99 255.6, 214.77 154.12, 346.97 2.17 M43.61 357.24 C118.48 270.86, 192.59 184.98, 352.62 1.77 M43.61 357.24 C122.69 267.34, 199.69 179.31, 352.62 1.77 M48.6 357.6 C151.48 239.49, 254.18 121.04, 357.6 2.13 M48.6 357.6 C128.23 266.3, 208.7 173.45, 357.6 2.13 M54.24 357.21 C123.6 277.05, 192.88 197.3, 363.25 1.74 M54.24 357.21 C127.42 274.02, 201.41 189.15, 363.25 1.74 M59.23 357.57 C151.58 249.15, 244.33 141.68, 368.23 2.1 M59.23 357.57 C150.48 254.06, 241.25 149.65, 368.23 2.1 M64.87 357.17 C138.23 273.32, 210.47 191.06, 373.88 1.7 M64.87 357.17 C130.49 281.31, 196.26 205.22, 373.88 1.7 M69.86 357.53 C134.56 282.17, 200.2 206.92, 378.86 2.06 M69.86 357.53 C171.51 240.57, 274.15 122.06, 378.86 2.06 M75.5 357.14 C184.25 233.77, 292.07 108.65, 383.85 2.42 M75.5 357.14 C146.13 275.71, 215.73 195.96, 383.85 2.42 M80.49 357.5 C179.37 245.03, 277.04 132.28, 389.49 2.03 M80.49 357.5 C197.36 220.45, 315.31 84.56, 389.49 2.03 M86.13 357.1 C191.34 234.78, 298.05 112.4, 394.48 2.39 M86.13 357.1 C175.58 254.42, 264.9 151.86, 394.48 2.39 M91.12 357.46 C169.1 264.5, 248.47 175.07, 400.12 1.99 M91.12 357.46 C187.69 245.11, 284.33 133.33, 400.12 1.99 M96.76 357.07 C182.22 260.7, 266.37 162.41, 405.11 2.35 M96.76 357.07 C216.3 219.77, 334.58 82.52, 405.11 2.35 M101.75 357.43 C179.88 268.4, 257.28 179.68, 410.75 1.96 M101.75 357.43 C185.39 261.3, 269.19 165.93, 410.75 1.96 M107.39 357.03 C194.03 259.43, 278.25 162.08, 415.74 2.32 M107.39 357.03 C186.73 264.36, 265.74 173.03, 415.74 2.32 M112.38 357.39 C206.05 249.82, 300.47 142.25, 421.38 1.93 M112.38 357.39 C188.74 268.85, 265.98 180.32, 421.38 1.93 M118.02 357 C233.96 226.08, 348.67 92.91, 427.03 1.53 M118.02 357 C188.02 277.92, 256.17 199.87, 427.03 1.53 M123.01 357.36 C189.58 282.7, 255.18 206.59, 432.01 1.89 M123.01 357.36 C223.82 243.27, 322.86 129.05, 432.01 1.89 M128 357.72 C213.87 260.5, 298.07 162.28, 436.35 3.01 M128 357.72 C235.94 235.54, 343.21 110.95, 436.35 3.01 M133.64 357.32 C238.76 235.27, 345.88 111.61, 441.33 3.37 M133.64 357.32 C203.25 277.26, 273.17 197.91, 441.33 3.37 M138.63 357.68 C251.16 225.93, 366.91 94.69, 445.01 5.24 M138.63 357.68 C227.73 256.29, 315.13 154.98, 445.01 5.24 M144.27 357.29 C224.52 262.88, 307.2 168.39, 448.03 7.86 M144.27 357.29 C253.43 232.16, 363.17 106.89, 448.03 7.86 M149.26 357.65 C252.84 238.26, 356.32 118.48, 451.7 9.73 M149.26 357.65 C223.71 273.29, 296.65 188.94, 451.7 9.73 M154.9 357.26 C253.02 246.68, 350.14 134.25, 454.06 13.11 M154.9 357.26 C272.33 224.35, 388.82 90.26, 454.06 13.11 M159.89 357.62 C265.11 238.47, 369.3 118.42, 455.77 17.24 M159.89 357.62 C275.47 225.46, 390.27 92.68, 455.77 17.24 M165.53 357.22 C233.16 276.18, 303.23 197.85, 458.13 20.62 M165.53 357.22 C238.99 272.33, 311.78 189.24, 458.13 20.62 M170.52 357.58 C239.78 279.21, 308.77 199.81, 459.18 25.51 M170.52 357.58 C246.69 269.38, 324.28 180.29, 459.18 25.51 M176.16 357.19 C267.44 253.25, 357.26 150.03, 458.27 32.66 M176.16 357.19 C267.98 249.17, 362.42 141.34, 458.27 32.66 M181.15 357.55 C276.02 249.82, 368.18 144.27, 458.01 39.06 M181.15 357.55 C287.72 234.22, 395.02 111.63, 458.01 39.06 M186.79 357.15 C258.44 271.65, 332.16 186.81, 458.4 44.7 M186.79 357.15 C269.16 259.94, 353.26 164.18, 458.4 44.7 M191.78 357.51 C260.15 279.05, 327.47 199.63, 458.14 51.1 M191.78 357.51 C247.9 295.82, 303.04 231.77, 458.14 51.1 M197.42 357.12 C294.42 243.41, 392.65 130.92, 458.53 56.74 M197.42 357.12 C273.92 268.03, 351.92 178.89, 458.53 56.74 M202.41 357.48 C278.12 270.38, 354.64 182.44, 458.27 63.14 M202.41 357.48 C297.75 246.86, 393.23 137.2, 458.27 63.14 M208.05 357.08 C280.11 271.91, 354.58 186.55, 458.01 69.54 M208.05 357.08 C284.15 270.82, 358.83 184.13, 458.01 69.54 M213.04 357.44 C274.88 288.5, 336.79 218.07, 458.4 75.18 M213.04 357.44 C282.67 275.75, 353.51 194.86, 458.4 75.18 M218.68 357.05 C285.42 279.27, 352.66 201.92, 458.14 81.58 M218.68 357.05 C310.9 253.31, 400.93 149.99, 458.14 81.58 M223.67 357.41 C308.67 258.95, 395.81 159.29, 458.54 87.22 M223.67 357.41 C298.51 271.81, 372.3 186.79, 458.54 87.22 M229.31 357.01 C311.68 263.31, 395.94 167.25, 458.28 93.62 M229.31 357.01 C287.5 292.56, 344.77 227.36, 458.28 93.62 M234.3 357.37 C282.34 304.35, 332.49 247.61, 458.01 100.02 M234.3 357.37 C321.76 257.47, 408.43 156.58, 458.01 100.02 M239.94 356.98 C320.08 262.9, 401.36 170.54, 458.41 105.66 M239.94 356.98 C307.47 279.15, 376 200.28, 458.41 105.66 M244.93 357.34 C292.81 302.35, 338.37 249.01, 458.15 112.06 M244.93 357.34 C291.04 306.04, 337.37 252.75, 458.15 112.06 M249.92 357.7 C311.31 285.55, 372.68 213.88, 458.54 117.7 M249.92 357.7 C296.9 304.02, 343.14 250.99, 458.54 117.7 M255.56 357.31 C318.24 283.48, 380.03 212.6, 458.28 124.1 M255.56 357.31 C306.51 299.97, 357.14 242.78, 458.28 124.1 M260.55 357.67 C327.04 282.56, 394.43 203.61, 458.02 130.5 M260.55 357.67 C321 291.19, 379.82 222.98, 458.02 130.5 M266.19 357.27 C320.98 295.16, 377.75 232.32, 458.41 136.14 M266.19 357.27 C327.81 286.12, 390.06 213.22, 458.41 136.14 M271.18 357.63 C319.46 303.49, 367.24 245.98, 458.15 142.54 M271.18 357.63 C332.22 285.73, 393.58 215.29, 458.15 142.54 M276.82 357.24 C318.47 308.57, 358.69 261.7, 458.55 148.18 M276.82 357.24 C319.03 306.19, 361.83 256.74, 458.55 148.18 M281.81 357.6 C320.38 313.35, 358.11 267.29, 458.29 154.58 M281.81 357.6 C349.98 281.07, 414.85 205.14, 458.29 154.58 M287.45 357.2 C344.4 290.57, 399.27 227.45, 458.02 160.98 M287.45 357.2 C345.96 288.12, 405.76 220.26, 458.02 160.98 M292.44 357.56 C350.71 291.33, 409.86 219.54, 458.42 166.62 M292.44 357.56 C349.04 291.22, 407.49 223.55, 458.42 166.62 M298.08 357.17 C334.22 314.64, 371.84 273.3, 458.16 173.02 M298.08 357.17 C361.26 285.96, 424.88 214.33, 458.16 173.02 M303.07 357.53 C334.54 320.73, 368.5 283.92, 458.55 178.66 M303.07 357.53 C339.64 313.57, 375.55 272.03, 458.55 178.66 M308.71 357.13 C354.45 308.21, 397.23 258.35, 458.29 185.06 M308.71 357.13 C345.74 312.28, 383.57 269.28, 458.29 185.06 M313.7 357.49 C350.83 314.98, 388.94 270.09, 458.03 191.46 M313.7 357.49 C357.25 310.66, 397.71 261.63, 458.03 191.46 M319.34 357.1 C364.81 306.44, 408.46 256.73, 458.42 197.1 M319.34 357.1 C373.35 294.26, 426.81 233.6, 458.42 197.1 M324.33 357.46 C355.16 322.91, 387.29 284.7, 458.16 203.5 M324.33 357.46 C354.1 323.29, 383.76 288.3, 458.16 203.5 M329.97 357.06 C360.33 320.85, 390.48 286.1, 458.56 209.14 M329.97 357.06 C360.27 324.72, 388.74 290.23, 458.56 209.14 M334.96 357.42 C384.34 303.68, 429.84 249.71, 458.3 215.54 M334.96 357.42 C361.95 325.68, 389.22 294.6, 458.3 215.54 M340.6 357.03 C365.91 326.47, 393.38 297.46, 458.03 221.94 M340.6 357.03 C383.98 307.39, 425.86 259.02, 458.03 221.94 M345.59 357.39 C391.28 305.59, 434.77 256.6, 458.43 227.58 M345.59 357.39 C382.45 315.98, 421.55 271.53, 458.43 227.58 M351.23 356.99 C390.88 309.35, 433.24 258.79, 458.17 233.98 M351.23 356.99 C387.91 315.85, 423.92 275.09, 458.17 233.98 M356.22 357.35 C386.55 323.37, 417.94 290.71, 458.56 239.62 M356.22 357.35 C384.28 325.13, 411.94 293.62, 458.56 239.62 M361.2 357.72 C388.32 328.97, 414.63 294.64, 458.3 246.02 M361.2 357.72 C388.79 328.26, 416.11 296.89, 458.3 246.02 M366.85 357.32 C393.79 323.02, 424.87 290, 458.04 252.42 M366.85 357.32 C384.59 336.55, 403.81 313.98, 458.04 252.42 M371.83 357.68 C399.61 323.75, 430.38 290.46, 458.43 258.06 M371.83 357.68 C397.13 329.65, 420.01 302.45, 458.43 258.06 M377.48 357.29 C400.43 329.07, 424.04 302.24, 458.17 264.46 M377.48 357.29 C409.21 322.51, 440.39 285.75, 458.17 264.46 M382.46 357.65 C406.92 331.23, 431.65 304.11, 458.57 270.1 M382.46 357.65 C411.38 324.73, 440.5 290.92, 458.57 270.1 M388.11 357.25 C401.24 339.35, 417.4 323.34, 458.31 276.5 M388.11 357.25 C410.91 330.36, 434.55 303.8, 458.31 276.5 M393.09 357.61 C407.19 341.07, 419.9 325.65, 458.04 282.9 M393.09 357.61 C406.39 341.77, 420.79 325.73, 458.04 282.9 M398.74 357.22 C414.08 340.38, 427.21 323, 458.44 288.54 M398.74 357.22 C411.38 342.31, 423.54 329.29, 458.44 288.54 M403.72 357.58 C422.69 335.92, 439.16 314.62, 458.18 294.94 M403.72 357.58 C423.39 335.86, 443.09 312.1, 458.18 294.94 M409.37 357.18 C430.07 334.79, 448.62 314.16, 458.57 300.58 M409.37 357.18 C423.21 343.54, 434.41 328.1, 458.57 300.58 M414.35 357.54 C426.91 345.71, 437.97 331.21, 458.31 306.98 M414.35 357.54 C430.16 339.06, 446.38 322.6, 458.31 306.98 M420 357.15 C434.52 341.2, 449.67 324.11, 458.05 313.37 M420 357.15 C435.08 339.8, 449.92 324.53, 458.05 313.37 M425.64 356.75 C432.94 344.69, 442.76 335.61, 458.44 319.02 M425.64 356.75 C436.9 344.26, 446.94 334.09, 458.44 319.02 M431.94 355.6 C440.77 346.6, 449.97 333.82, 458.18 325.42 M431.94 355.6 C441.55 344.37, 452.17 332.95, 458.18 325.42 M437.58 355.21 C442.99 348.29, 452.12 341.04, 457.26 332.57 M437.58 355.21 C445.18 348.01, 451.55 340.79, 457.26 332.57 M441.91 356.32 C445.19 352.24, 449.02 346.95, 456.35 339.72 M441.91 356.32 C445.91 351.57, 449.79 348.67, 456.35 339.72" stroke="#a9a9b2" stroke-width="0.5" fill="none"></path><path d="M32 0 C189.39 0.15, 344.62 -0.93, 425.65 0 M32 0 C186.82 -0.86, 342.69 -1.09, 425.65 0 M425.65 0 C445.55 1.6, 455.94 9.13, 457.65 32 M425.65 0 C447.24 -2.17, 456.14 8.69, 457.65 32 M457.65 32 C455.1 116.23, 455.37 199.12, 457.65 324.54 M457.65 32 C458.77 145.9, 458.82 259.96, 457.65 324.54 M457.65 324.54 C457.63 344.57, 448.53 356.02, 425.65 356.54 M457.65 324.54 C459.61 347.13, 446.06 355.19, 425.65 356.54 M425.65 356.54 C316.73 358.2, 206.3 357.84, 32 356.54 M425.65 356.54 C311.78 356.15, 198.87 355.94, 32 356.54 M32 356.54 C11.19 358.39, 1.93 345.81, 0 324.54 M32 356.54 C9.08 356.46, 0.11 343.87, 0 324.54 M0 324.54 C0.53 211.43, 1.75 96.47, 0 32 M0 324.54 C2.71 240.5, 2.31 157.68, 0 32 M0 32 C-1.4 8.85, 10.45 -0.51, 32 0 M0 32 C-0.75 9.11, 10.64 1.01, 32 0" stroke="#a9a9b2" stroke-width="1" fill="none"></path></g><g stroke-opacity="0.5" fill-opacity="0.5" stroke-linecap="round" transform="translate(1028.7134094238281 50) rotate(0 140 200)"><path d="M7.86 8.16 C7.86 8.16, 7.86 8.16, 7.86 8.16 M7.86 8.16 C7.86 8.16, 7.86 8.16, 7.86 8.16 M3.66 19.09 C8.26 15.73, 11.07 11.24, 18.1 2.48 M3.66 19.09 C8.16 14.47, 11.03 11.2, 18.1 2.48 M2.75 26.24 C6.63 20.83, 15.48 12.24, 24.4 1.33 M2.75 26.24 C10.35 17.94, 15.65 10.13, 24.4 1.33 M2.48 32.64 C11.88 25.35, 19.92 14.84, 30.7 0.18 M2.48 32.64 C9.57 25.02, 15.3 17.47, 30.7 0.18 M2.88 38.28 C10.7 26.06, 20.19 18.12, 34.37 2.05 M2.88 38.28 C10.36 30.26, 18.96 20.21, 34.37 2.05 M2.62 44.68 C14.63 33.92, 24.39 21.48, 39.36 2.41 M2.62 44.68 C13.41 32.56, 22.95 22.69, 39.36 2.41 M2.36 51.07 C13.2 40.31, 20.8 29.47, 45 2.02 M2.36 51.07 C20.12 31.14, 35.85 12.21, 45 2.02 M2.75 56.72 C17.36 38.73, 30.76 20.95, 49.99 2.38 M2.75 56.72 C18.85 39.01, 33.39 21.23, 49.99 2.38 M2.49 63.11 C20.59 44.42, 36.03 27.96, 55.63 1.98 M2.49 63.11 C13.99 50.57, 24.9 36.12, 55.63 1.98 M2.88 68.76 C24.35 43.66, 49.68 16.91, 60.62 2.34 M2.88 68.76 C18.73 51, 34.42 32.38, 60.62 2.34 M2.62 75.16 C15.9 58.16, 31.92 38.95, 66.26 1.95 M2.62 75.16 C16.76 59.2, 30.22 42.54, 66.26 1.95 M2.36 81.55 C25.01 53.92, 49.65 27.62, 71.25 2.31 M2.36 81.55 C17.42 62.09, 33.63 44.74, 71.25 2.31 M2.76 87.2 C33.41 53.36, 60.47 19.61, 76.89 1.91 M2.76 87.2 C19.68 67.41, 36.17 46.74, 76.89 1.91 M2.49 93.59 C29.33 64.38, 57.92 31.76, 81.88 2.27 M2.49 93.59 C24.59 69.45, 45.02 47.02, 81.88 2.27 M2.23 99.99 C21.29 79.53, 38.13 55.78, 87.52 1.88 M2.23 99.99 C29.57 66.65, 57.87 35.39, 87.52 1.88 M2.63 105.64 C29.82 75.05, 57.49 41.88, 92.51 2.24 M2.63 105.64 C23.07 82.26, 43.08 59.04, 92.51 2.24 M2.37 112.03 C20.98 87.63, 41.86 67.89, 98.15 1.85 M2.37 112.03 C29.85 79.77, 59.25 46.43, 98.15 1.85 M2.76 117.68 C42.4 73.18, 82.72 27.7, 103.14 2.21 M2.76 117.68 C39.12 76.68, 75.22 35.22, 103.14 2.21 M2.5 124.07 C36.76 86.62, 66.56 48.55, 108.78 1.81 M2.5 124.07 C24.43 99.44, 47.03 74.09, 108.78 1.81 M2.24 130.47 C30.08 100.93, 57.61 65.84, 113.77 2.17 M2.24 130.47 C36.37 91.72, 69.39 52.29, 113.77 2.17 M2.63 136.11 C45.51 84.15, 88.34 35, 119.41 1.78 M2.63 136.11 C47.95 85.75, 91.28 34.04, 119.41 1.78 M2.37 142.51 C41.22 98.08, 80.31 53.89, 124.4 2.14 M2.37 142.51 C35.18 106.35, 65.99 69.08, 124.4 2.14 M2.77 148.16 C40.63 104.48, 79.15 61.62, 130.04 1.74 M2.77 148.16 C36.37 108.76, 70.33 72.3, 130.04 1.74 M2.5 154.55 C55.6 96.42, 105.85 34.21, 135.03 2.1 M2.5 154.55 C32.15 118.32, 61.87 83.78, 135.03 2.1 M2.24 160.95 C33.39 121.62, 67.07 85.12, 140.67 1.71 M2.24 160.95 C50.66 105.02, 100.29 47.82, 140.67 1.71 M2.64 166.59 C40.95 122.32, 77.1 80.02, 145.66 2.07 M2.64 166.59 C59.81 101.61, 118.27 36.15, 145.66 2.07 M2.38 172.99 C34.26 136.54, 68.2 99.24, 150.65 2.43 M2.38 172.99 C45.07 125.95, 86.3 77.91, 150.65 2.43 M2.11 179.39 C41.64 133, 78.09 89.93, 156.29 2.03 M2.11 179.39 C51.83 121.7, 101.46 63.79, 156.29 2.03 M2.51 185.03 C59.39 121.02, 114.66 59.32, 161.28 2.39 M2.51 185.03 C48.55 131.71, 94.78 77.87, 161.28 2.39 M2.25 191.43 C46.38 142.39, 91.71 91.22, 166.92 2 M2.25 191.43 C63.75 121.26, 124.1 52.3, 166.92 2 M2.64 197.07 C67.36 123.78, 129.59 50.48, 171.91 2.36 M2.64 197.07 C67.37 121.44, 132.96 48.4, 171.91 2.36 M2.38 203.47 C67.26 127.48, 134.49 49.97, 177.55 1.96 M2.38 203.47 C46.51 152.39, 92.4 100.5, 177.55 1.96 M2.12 209.87 C62.56 139.25, 124.52 68.26, 182.54 2.32 M2.12 209.87 C70.89 130.2, 142.06 48.9, 182.54 2.32 M2.51 215.51 C42.71 170.05, 83.14 121.64, 188.18 1.93 M2.51 215.51 C60.62 150.75, 117.15 86.24, 188.18 1.93 M2.25 221.91 C62.43 152.21, 122.72 81.82, 193.17 2.29 M2.25 221.91 C50.32 168.39, 98.39 112.51, 193.17 2.29 M2.65 227.55 C77.79 141.64, 153.08 55.89, 198.81 1.9 M2.65 227.55 C45.99 176.61, 91.3 125.31, 198.81 1.9 M2.39 233.95 C55.21 171.73, 109.95 108.87, 203.8 2.26 M2.39 233.95 C79.99 142.23, 159.15 52.38, 203.8 2.26 M2.12 240.35 C51.6 183.27, 99.55 128.56, 209.44 1.86 M2.12 240.35 C64.04 167.15, 126.35 95.55, 209.44 1.86 M2.52 245.99 C49.18 190.71, 96.19 138.71, 214.43 2.22 M2.52 245.99 C69.42 168.6, 134.91 93.45, 214.43 2.22 M2.26 252.39 C69.85 172.07, 137.68 93.55, 220.07 1.83 M2.26 252.39 C47.88 202.61, 91.5 151.76, 220.07 1.83 M2 258.79 C57.81 191.84, 116.65 125.53, 225.06 2.19 M2 258.79 C48.55 208.74, 93.31 156.12, 225.06 2.19 M2.39 264.43 C73.49 181.42, 143.32 100.45, 230.7 1.79 M2.39 264.43 C90.13 161.96, 180.09 59.11, 230.7 1.79 M2.13 270.83 C78.56 180.84, 158.32 91.29, 235.69 2.15 M2.13 270.83 C80.75 179.61, 159.12 89.62, 235.69 2.15 M2.52 276.47 C70.62 200.07, 137.92 121.79, 241.33 1.76 M2.52 276.47 C74.36 192.2, 146.94 108.58, 241.33 1.76 M2.26 282.87 C68.02 205.9, 135.08 127.2, 248.28 -0.15 M2.26 282.87 C70.26 204.91, 137.93 127.71, 248.28 -0.15 M2 289.27 C70.84 213.73, 135.05 137.47, 252.62 0.97 M2 289.27 C94.79 182.56, 186.01 78.02, 252.62 0.97 M2.4 294.91 C94.35 191.06, 184.91 88.81, 257.6 1.33 M2.4 294.91 C66.47 218.93, 132.06 144.18, 257.6 1.33 M2.13 301.31 C65.64 227.1, 127.08 155.54, 261.93 2.44 M2.13 301.31 C102.62 185.47, 203.33 69.95, 261.93 2.44 M2.53 306.95 C87.84 205.1, 173.98 105.31, 266.26 3.56 M2.53 306.95 C57.57 244.64, 112.19 181.46, 266.26 3.56 M2.27 313.35 C104.35 195.25, 205.72 78.97, 269.28 6.18 M2.27 313.35 C99.57 201.86, 197.19 90.78, 269.28 6.18 M2.01 319.75 C62.6 250.32, 120.7 182.95, 272.3 8.81 M2.01 319.75 C92.92 213.1, 186.3 107.26, 272.3 8.81 M2.4 325.39 C110.16 200.72, 218.46 73.92, 275.32 11.43 M2.4 325.39 C75.88 241.53, 151.08 156.16, 275.32 11.43 M2.14 331.79 C84.87 238.55, 167.21 143, 277.68 14.81 M2.14 331.79 C100.32 219.12, 197.83 106.72, 277.68 14.81 M1.88 338.19 C109.14 214.96, 216.32 91.4, 279.39 18.94 M1.88 338.19 C77.48 251.78, 153.55 163.56, 279.39 18.94 M2.27 343.83 C91.86 239.75, 180.62 139.29, 279.78 24.59 M2.27 343.83 C63.48 270.99, 124.79 199.8, 279.78 24.59 M2.01 350.23 C58.12 285.3, 115.75 218.07, 280.84 29.47 M2.01 350.23 C90.21 248.81, 178.29 147.05, 280.84 29.47 M2.4 355.87 C85.42 261.05, 166.45 167.46, 282.54 33.61 M2.4 355.87 C62.42 287.03, 123.18 218.04, 282.54 33.61 M2.14 362.27 C76.66 275.47, 150.59 189.01, 282.28 40.01 M2.14 362.27 C96.23 254.25, 190.72 145.96, 282.28 40.01 M1.23 369.42 C87.56 271.72, 172.48 175.51, 282.02 46.4 M1.23 369.42 C77.93 279.05, 155.37 189.99, 282.02 46.4 M2.28 374.31 C103.59 258.32, 205.3 139.6, 282.41 52.05 M2.28 374.31 C69.72 296.4, 137.65 218.94, 282.41 52.05 M2.67 379.95 C82.02 287.21, 162.18 196.52, 282.15 58.44 M2.67 379.95 C70.18 301.55, 137.4 223.85, 282.15 58.44 M4.38 384.08 C76.44 302.57, 145.63 224.24, 282.55 64.09 M4.38 384.08 C96.96 277.87, 189.62 171.09, 282.55 64.09 M6.08 388.22 C76.82 307.35, 149.08 223.55, 282.29 70.49 M6.08 388.22 C67.72 317.03, 129.92 245.45, 282.29 70.49 M8.45 391.6 C72.65 318.49, 138.98 242.76, 282.02 76.88 M8.45 391.6 C89.95 295.32, 172.23 200.2, 282.02 76.88 M11.47 394.22 C91.69 303.43, 171 212.22, 282.42 82.53 M11.47 394.22 C75.91 320.87, 139.33 248.43, 282.42 82.53 M14.49 396.85 C71.03 331.16, 127.71 264.9, 282.16 88.92 M14.49 396.85 C70.6 331.46, 127.42 266.26, 282.16 88.92 M18.16 398.72 C105.34 299.27, 192.77 197.59, 282.55 94.57 M18.16 398.72 C111.3 292.95, 203.82 185.85, 282.55 94.57 M23.15 399.08 C82.58 329.99, 140.95 263.64, 282.29 100.96 M23.15 399.08 C106.43 304.87, 188.41 210.31, 282.29 100.96 M28.13 399.44 C123.94 286.45, 220.54 174.8, 282.03 107.36 M28.13 399.44 C114.76 298.55, 202.59 197.76, 282.03 107.36 M32.47 400.55 C105.31 317.38, 177.69 234.64, 282.42 113.01 M32.47 400.55 C95.52 325.14, 159.67 252.59, 282.42 113.01 M38.11 400.16 C114.64 311.7, 189.61 223.77, 282.16 119.4 M38.11 400.16 C105.89 323.89, 172.52 246.22, 282.16 119.4 M43.1 400.52 C136.49 294.24, 227.35 186.42, 282.56 125.05 M43.1 400.52 C104.02 331.65, 163.97 262.9, 282.56 125.05 M48.74 400.12 C111.49 327.24, 176.2 255.76, 282.3 131.44 M48.74 400.12 C114.69 326.06, 178.51 252.31, 282.3 131.44 M53.73 400.48 C112.73 331.5, 169.86 264.5, 282.03 137.84 M53.73 400.48 C123.04 321.2, 192.8 241.72, 282.03 137.84 M58.71 400.84 C113.59 336.82, 170.6 272.22, 282.43 143.49 M58.71 400.84 C142.84 306.45, 225.89 210.03, 282.43 143.49 M64.36 400.45 C115.21 344.51, 163.25 290.33, 282.17 149.88 M64.36 400.45 C111.69 347.88, 157.93 294.19, 282.17 149.88 M69.34 400.81 C140.02 322.4, 207.04 244.41, 282.56 155.53 M69.34 400.81 C129.01 333.53, 187.2 265.55, 282.56 155.53 M74.99 400.41 C147.96 319.7, 219.05 234.14, 282.3 161.92 M74.99 400.41 C145.35 318.37, 217.56 234.97, 282.3 161.92 M79.97 400.77 C125.61 347.38, 172.64 296.71, 282.04 168.32 M79.97 400.77 C153.71 313.67, 230.24 227.14, 282.04 168.32 M85.62 400.38 C144.02 334.97, 198.73 269.57, 282.43 173.96 M85.62 400.38 C137.21 339.03, 190.91 277.75, 282.43 173.96 M90.6 400.74 C158.86 321.49, 229.47 243.42, 282.17 180.36 M90.6 400.74 C155.76 325.39, 221.14 249.58, 282.17 180.36 M96.25 400.34 C142.74 348.57, 186.51 296.73, 282.57 186.01 M96.25 400.34 C157.97 331.43, 218.58 261.14, 282.57 186.01 M101.23 400.7 C173.38 320.44, 243.59 239.4, 282.3 192.4 M101.23 400.7 C166.04 327.86, 229.81 254.35, 282.3 192.4 M106.88 400.31 C176.07 323.11, 242.56 244.26, 282.04 198.8 M106.88 400.31 C147.08 351.15, 189.33 304.39, 282.04 198.8 M111.86 400.67 C154.57 349.97, 197.33 302.88, 282.44 204.44 M111.86 400.67 C153.03 354.64, 193.82 307.68, 282.44 204.44 M117.51 400.27 C160.13 350.35, 204.6 299.75, 282.18 210.84 M117.51 400.27 C171.12 339.48, 223.54 279.27, 282.18 210.84 M122.49 400.63 C172.91 339.85, 227.97 279.16, 282.57 216.49 M122.49 400.63 C177.94 338.11, 231.11 277.3, 282.57 216.49 M128.14 400.24 C186.4 331.45, 248.74 262.39, 282.31 222.88 M128.14 400.24 C168.23 351.45, 210.07 303.29, 282.31 222.88 M133.12 400.6 C176.84 346.45, 225.34 293.79, 282.05 229.28 M133.12 400.6 C171.47 356.58, 208.97 311.93, 282.05 229.28 M138.77 400.21 C169.32 368.72, 199.04 332.63, 282.44 234.92 M138.77 400.21 C191.94 337.3, 246.07 275.41, 282.44 234.92 M143.75 400.57 C183.74 354.09, 225.87 307.45, 282.18 241.32 M143.75 400.57 C184.55 353.62, 225.99 306.01, 282.18 241.32 M149.4 400.17 C198.45 342.66, 247.06 287.27, 281.92 247.72 M149.4 400.17 C187.25 354.82, 226.96 309.37, 281.92 247.72 M154.38 400.53 C195.03 357.86, 231.69 313.07, 282.31 253.36 M154.38 400.53 C187.06 364.83, 219.74 327.89, 282.31 253.36 M160.03 400.14 C193.85 359.54, 229.38 320.64, 282.05 259.76 M160.03 400.14 C194 360.25, 228.37 320.71, 282.05 259.76 M165.01 400.5 C211.83 349.06, 255.59 299.53, 282.45 265.4 M165.01 400.5 C207.09 351.57, 250.84 301.69, 282.45 265.4 M170.66 400.1 C207.05 359.81, 240.69 320.69, 282.19 271.8 M170.66 400.1 C210.45 355.13, 251.66 308.38, 282.19 271.8 M175.64 400.46 C203.02 370.84, 229.69 342.25, 281.92 278.2 M175.64 400.46 C198.45 375.81, 222.88 348.41, 281.92 278.2 M180.63 400.82 C221.78 356.98, 258.4 311.31, 282.32 283.84 M180.63 400.82 C217.67 356.86, 255.57 314.1, 282.32 283.84 M186.27 400.43 C214.45 366.38, 245.15 330.92, 282.06 290.24 M186.27 400.43 C208 375.6, 228.03 351.87, 282.06 290.24 M191.26 400.79 C210.67 379.11, 231.69 354.92, 282.45 295.88 M191.26 400.79 C217.9 369.1, 244.42 337.82, 282.45 295.88 M196.9 400.39 C217.44 378.73, 236.75 356.99, 282.19 302.28 M196.9 400.39 C223.33 368.97, 249.1 339.47, 282.19 302.28 M201.89 400.75 C221.09 377.24, 241.36 356.83, 281.93 308.68 M201.89 400.75 C228.76 370.74, 256.22 338.16, 281.93 308.68 M207.53 400.36 C231.32 375.63, 253.66 348.45, 282.32 314.32 M207.53 400.36 C228.75 376.44, 251.53 351.89, 282.32 314.32 M212.52 400.72 C234.91 375.76, 256.88 347.06, 282.06 320.72 M212.52 400.72 C230.52 380.9, 248.06 359.05, 282.06 320.72 M218.16 400.32 C240.16 375.03, 259.95 352.65, 282.46 326.36 M218.16 400.32 C232.99 382.9, 246.67 366.77, 282.46 326.36 M223.15 400.68 C236.99 384.3, 249.51 369.35, 282.2 332.76 M223.15 400.68 C236 386.2, 248.28 370.39, 282.2 332.76 M228.79 400.29 C250.93 376.3, 267.51 353.91, 281.93 339.16 M228.79 400.29 C246.74 379.11, 263.43 359.92, 281.93 339.16 M233.78 400.65 C249.37 379.89, 265.85 363.27, 282.33 344.8 M233.78 400.65 C250.63 381.83, 267.71 359.88, 282.33 344.8 M239.42 400.25 C252.38 384.52, 268.68 364.72, 282.07 351.2 M239.42 400.25 C248.61 388.76, 258.7 378.33, 282.07 351.2 M244.41 400.61 C259.22 384.3, 276.34 368.36, 282.46 356.84 M244.41 400.61 C251.91 391.24, 260.92 382.22, 282.46 356.84 M249.4 400.97 C258.04 390.72, 263.59 383.78, 282.2 363.24 M249.4 400.97 C259.97 390.31, 269.28 379.22, 282.2 363.24 M255.04 400.58 C260.05 390.82, 267.57 383.4, 281.94 369.64 M255.04 400.58 C261.86 393, 268.91 384.28, 281.94 369.64 M262.65 397.92 C269.9 392.55, 271.79 384.64, 281.02 376.79 M262.65 397.92 C269.1 390.84, 274.7 384.69, 281.02 376.79" stroke="#a9a9b2" stroke-width="0.5" fill="none"></path><path d="M32 0 C96.66 -0.34, 158.05 1.23, 248 0 M32 0 C113.58 0.35, 193.51 -1.1, 248 0 M248 0 C269.26 0.1, 278.26 12.5, 280 32 M248 0 C268.43 -1.58, 279.51 12.95, 280 32 M280 32 C280.45 153.58, 282.99 272.53, 280 368 M280 32 C278.96 147.26, 279.4 262.44, 280 368 M280 368 C278.65 389.31, 270.21 401.41, 248 400 M280 368 C277.86 391.45, 271.31 399.2, 248 400 M248 400 C195.62 400.63, 142.21 403.19, 32 400 M248 400 C191.86 399.23, 133.97 399.34, 32 400 M32 400 C11.86 401.69, 1.51 390.16, 0 368 M32 400 C9.81 398.37, -0.12 391.52, 0 368 M0 368 C2.2 271.47, 2.06 175.56, 0 32 M0 368 C-0.46 235.57, -0.27 101.65, 0 32 M0 32 C0.31 12.12, 9.06 -0.62, 32 0 M0 32 C-2.07 12.22, 9.5 1.81, 32 0" stroke="#a9a9b2" stroke-width="1" fill="none"></path></g><g transform="translate(248.231689453125 10) rotate(0 37.294921875 11.5)"><text x="0" y="16.900390625" font-family="Helvetica, Segoe UI Emoji" font-size="20px" fill="#a9a9b2" text-anchor="start" style="white-space: pre;" direction="ltr" dominant-baseline="alphabetic">Browser</text></g><g transform="translate(92.61795043945312 65) rotate(0 189.8388671875 23)"><text x="189.8388671875" y="16.900390625" font-family="Helvetica, Segoe UI Emoji" font-size="20px" fill="#a9a9b2" text-anchor="middle" style="white-space: pre;" direction="ltr" dominant-baseline="alphabetic">Client</text><text x="189.8388671875" y="39.900390625" font-family="Helvetica, Segoe UI Emoji" font-size="20px" fill="#a9a9b2" text-anchor="middle" style="white-space: pre;" direction="ltr" dominant-baseline="alphabetic">(https://namecheck.jub0bs.dev?port=8080)</text></g><g transform="translate(1072.5464172363281 66.260986328125) rotate(0 96.1669921875 23)"><text x="96.1669921875" y="16.900390625" font-family="Helvetica, Segoe UI Emoji" font-size="20px" fill="#a9a9b2" text-anchor="middle" style="white-space: pre;" direction="ltr" dominant-baseline="alphabetic">Server</text><text x="96.1669921875" y="39.900390625" font-family="Helvetica, Segoe UI Emoji" font-size="20px" fill="#a9a9b2" text-anchor="middle" style="white-space: pre;" direction="ltr" dominant-baseline="alphabetic">(http://localhost:8080)</text></g><g transform="translate(67.19387817382812 141.25048828125) rotate(0 216.2421875 37)"><text x="0" y="13.5703125" font-family="Helvetica, Segoe UI Emoji" font-size="16px" fill="#a9a9b2" text-anchor="start" style="white-space: pre;" direction="ltr" dominant-baseline="alphabetic">&lt;script&gt;</text><text x="0" y="32.0703125" font-family="Helvetica, Segoe UI Emoji" font-size="16px" fill="#a9a9b2" text-anchor="start" style="white-space: pre;" direction="ltr" dominant-baseline="alphabetic">  const url = 'http://localhost:8080/check?username=jub0bs';</text><text x="0" y="50.5703125" font-family="Helvetica, Segoe UI Emoji" font-size="16px" fill="#a9a9b2" text-anchor="start" style="white-space: pre;" direction="ltr" dominant-baseline="alphabetic">  fetch(url).then(data =&gt; data.json()).then(displayResults);</text><text x="0" y="69.0703125" font-family="Helvetica, Segoe UI Emoji" font-size="16px" fill="#a9a9b2" text-anchor="start" style="white-space: pre;" direction="ltr" dominant-baseline="alphabetic">&lt;/script&gt;</text></g><g stroke-linecap="round"><g transform="translate(508.7134094238281 170) rotate(0 30 0)"><path d="M0 0 C10 0, 50 0, 60 0 M0 0 C10 0, 50 0, 60 0" stroke="#a9a9b2" stroke-width="2" fill="none"></path></g><g transform="translate(508.7134094238281 170) rotate(0 30 0)"><path d="M36.51 8.55 C41.59 6.7, 46.67 4.85, 60 0 M36.51 8.55 C43.3 6.08, 50.1 3.61, 60 0" stroke="#a9a9b2" stroke-width="2" fill="none"></path></g><g transform="translate(508.7134094238281 170) rotate(0 30 0)"><path d="M36.51 -8.55 C41.59 -6.7, 46.67 -4.85, 60 0 M36.51 -8.55 C43.3 -6.08, 50.1 -3.61, 60 0" stroke="#a9a9b2" stroke-width="2" fill="none"></path></g></g><mask></mask><g stroke-linecap="round"><g transform="translate(568.7134094238281 170) rotate(0 230 0)"><path d="M0 0 C76.67 0, 383.33 0, 460 0 M0 0 C76.67 0, 383.33 0, 460 0" stroke="#a9a9b2" stroke-width="2" fill="none"></path></g><g transform="translate(568.7134094238281 170) rotate(0 230 0)"><path d="M436.51 8.55 C444.74 5.55, 452.98 2.56, 460 0 M436.51 8.55 C442.89 6.23, 449.26 3.91, 460 0" stroke="#a9a9b2" stroke-width="2" fill="none"></path></g><g transform="translate(568.7134094238281 170) rotate(0 230 0)"><path d="M436.51 -8.55 C444.74 -5.55, 452.98 -2.56, 460 0 M436.51 -8.55 C442.89 -6.23, 449.26 -3.91, 460 0" stroke="#a9a9b2" stroke-width="2" fill="none"></path></g></g><mask></mask><g transform="translate(588.7134094238281 203) rotate(0 139.83984375 37)"><text x="0" y="13.5703125" font-family="Helvetica, Segoe UI Emoji" font-size="16px" fill="#a9a9b2" text-anchor="start" style="white-space: pre;" direction="ltr" dominant-baseline="alphabetic">GET /check?username=jub0bs HTTP/2</text><text x="0" y="32.0703125" font-family="Helvetica, Segoe UI Emoji" font-size="16px" fill="#a9a9b2" text-anchor="start" style="white-space: pre;" direction="ltr" dominant-baseline="alphabetic">Host: localhost:8080</text><text x="0" y="50.5703125" font-family="Helvetica, Segoe UI Emoji" font-size="16px" fill="#a9a9b2" text-anchor="start" style="white-space: pre;" direction="ltr" dominant-baseline="alphabetic">Origin: https://namecheck.jub0bs.dev</text><text x="0" y="69.0703125" font-family="Helvetica, Segoe UI Emoji" font-size="16px" fill="#a9a9b2" text-anchor="start" style="white-space: pre;" direction="ltr" dominant-baseline="alphabetic">-snip-</text></g><g transform="translate(604.7134094238281 346) rotate(0 210.30859375 27.899999999999977)"><text x="0" y="13.6203125" font-family="Helvetica, Segoe UI Emoji" font-size="16px" fill="#a9a9b2" text-anchor="start" style="white-space: pre;" direction="ltr" dominant-baseline="alphabetic">HTTP/2 200 OK</text><text x="0" y="32.220312500000006" font-family="Helvetica, Segoe UI Emoji" font-size="16px" fill="#a9a9b2" text-anchor="start" style="white-space: pre;" direction="ltr" dominant-baseline="alphabetic">Access-Control-Allow-Origin: https://namecheck.jub0bs.dev</text><text x="0" y="50.8203125" font-family="Helvetica, Segoe UI Emoji" font-size="16px" fill="#a9a9b2" text-anchor="start" style="white-space: pre;" direction="ltr" dominant-baseline="alphabetic">-snip-</text></g><g transform="translate(528.7134094238281 130) rotate(0 11 21)"><text x="0" y="30.720703125" font-family="Helvetica, Segoe UI Emoji" font-size="36px" fill="#a9a9b2" text-anchor="start" style="white-space: pre;" direction="ltr" dominant-baseline="alphabetic">1</text></g><g transform="translate(987.7134094238281 290) rotate(0 11 21)"><text x="0" y="30.720703125" font-family="Helvetica, Segoe UI Emoji" font-size="36px" fill="#a9a9b2" text-anchor="start" style="white-space: pre;" direction="ltr" dominant-baseline="alphabetic">3</text></g><g transform="translate(588.7134094238281 130) rotate(0 11 21)"><text x="0" y="30.720703125" font-family="Helvetica, Segoe UI Emoji" font-size="36px" fill="#a9a9b2" text-anchor="start" style="white-space: pre;" direction="ltr" dominant-baseline="alphabetic">2</text></g><g stroke-linecap="round"><g transform="translate(1028.7134094238281 330) rotate(0 -222.32571411132812 0)"><path d="M0 0 C-74.11 0, -370.54 0, -444.65 0 M0 0 C-74.11 0, -370.54 0, -444.65 0" stroke="#a9a9b2" stroke-width="2" fill="none"></path></g><g transform="translate(1028.7134094238281 330) rotate(0 -222.32571411132812 0)"><path d="M-421.16 -8.55 C-429.37 -5.56, -437.58 -2.57, -444.65 0 M-421.16 -8.55 C-425.95 -6.81, -430.74 -5.06, -444.65 0" stroke="#a9a9b2" stroke-width="2" fill="none"></path></g><g transform="translate(1028.7134094238281 330) rotate(0 -222.32571411132812 0)"><path d="M-421.16 8.55 C-429.37 5.56, -437.58 2.57, -444.65 0 M-421.16 8.55 C-425.95 6.81, -430.74 5.06, -444.65 0" stroke="#a9a9b2" stroke-width="2" fill="none"></path></g></g><mask></mask><g transform="translate(548.7134094238281 310) rotate(0 18 24.30000000000001)"><text x="0" y="36.144000000000005" font-family="Nunito, Segoe UI Emoji" font-size="36px" fill="#1e1e1e" text-anchor="start" style="white-space: pre;" direction="ltr" dominant-baseline="alphabetic">✅</text></g><g transform="translate(528.7134094238281 270) rotate(0 10.0107421875 21)"><text x="0" y="30.720703125" font-family="Helvetica, Segoe UI Emoji" font-size="36px" fill="#a9a9b2" text-anchor="start" style="white-space: pre;" direction="ltr" dominant-baseline="alphabetic">4</text></g><g transform="translate(588.5608673095703 221.4269245692662) rotate(0 131.625 27.75)"><text x="0" y="13.5703125" font-family="Helvetica, Segoe UI Emoji" font-size="16px" fill="#1e1e1e" text-anchor="start" style="white-space: pre;" direction="ltr" dominant-baseline="alphabetic"></text><text x="0" y="32.0703125" font-family="Helvetica, Segoe UI Emoji" font-size="16px" fill="#1e1e1e" text-anchor="start" style="white-space: pre;" direction="ltr" dominant-baseline="alphabetic">Origin: https://namecheck.jub0bs.dev</text><text x="0" y="50.5703125" font-family="Helvetica, Segoe UI Emoji" font-size="16px" fill="#1e1e1e" text-anchor="start" style="white-space: pre;" direction="ltr" dominant-baseline="alphabetic"></text></g><g transform="translate(604.6493072509766 364.83197828020366) rotate(0 210.30859375 18.600000000000023)"><text x="0" y="13.6203125" font-family="Helvetica, Segoe UI Emoji" font-size="16px" fill="#2f9e44" text-anchor="start" style="white-space: pre;" direction="ltr" dominant-baseline="alphabetic">Access-Control-Allow-Origin: https://namecheck.jub0bs.dev</text><text x="0" y="32.220312500000006" font-family="Helvetica, Segoe UI Emoji" font-size="16px" fill="#2f9e44" text-anchor="start" style="white-space: pre;" direction="ltr" dominant-baseline="alphabetic"></text></g></svg>