<svg version="1.1" xmlns="http://www.w3.org/2000/svg" viewBox="0 0 1318.7134094238281 515.6847512381415" width="2637.4268188476562" height="1031.369502476283" filter="invert(93%) hue-rotate(180deg)">
  <!-- svg-source:excalidraw -->
  
  <defs>
    <style class="style-fonts">
      
    </style>
    
  </defs>
  <g stroke-linecap="round" transform="translate(10 10) rotate(0 281.66361563546315 247.84237561907076)"><path d="M32 0 C163.17 -0.42, 294.68 -1.33, 531.33 0 M32 0 C168.48 0.18, 304.36 -0.14, 531.33 0 M531.33 0 C551.56 1.18, 563.54 12.32, 563.33 32 M531.33 0 C554.42 2.29, 562.35 8.39, 563.33 32 M563.33 32 C564.88 204.73, 563.61 375.55, 563.33 463.68 M563.33 32 C563.11 202.2, 563.71 372.18, 563.33 463.68 M563.33 463.68 C561.89 486.61, 550.95 494.15, 531.33 495.68 M563.33 463.68 C563.58 482.85, 551.15 493.71, 531.33 495.68 M531.33 495.68 C387.49 494.35, 244.48 493.83, 32 495.68 M531.33 495.68 C336.65 493.85, 142.07 493.88, 32 495.68 M32 495.68 C10.65 494.39, 1.55 484.5, 0 463.68 M32 495.68 C12.63 496.95, -0.93 483.67, 0 463.68 M0 463.68 C-0.38 344.31, -1.08 223.76, 0 32 M0 463.68 C-1.79 339.41, -1.17 214.65, 0 32 M0 32 C0.53 12.51, 12.6 -0.06, 32 0 M0 32 C-1.59 10.59, 10.78 -2, 32 0" stroke="#a9a9b2" stroke-width="1" fill="none"></path></g><g stroke-opacity="0.5" fill-opacity="0.5" stroke-linecap="round" transform="translate(51.061370849609375 55.727600097656136) rotate(0 228.82601928710938 198.26961517333984)"><path d="M7.86 8.16 C7.86 8.16, 7.86 8.16, 7.86 8.16 M7.86 8.16 C7.86 8.16, 7.86 8.16, 7.86 8.16 M3.66 19.09 C10.21 14.09, 16.14 8.16, 18.1 2.48 M3.66 19.09 C8.6 14.47, 13.46 6.87, 18.1 2.48 M2.75 26.24 C7.55 22.24, 14.74 15.38, 24.4 1.33 M2.75 26.24 C10.85 17.3, 17.44 9.85, 24.4 1.33 M1.83 33.39 C9.62 25.34, 16.18 20.8, 30.7 0.18 M1.83 33.39 C13.39 21.53, 23.13 7.27, 30.7 0.18 M1.57 39.79 C9.41 31.4, 20.04 17.54, 34.37 2.05 M1.57 39.79 C9.33 32.37, 15.92 24.16, 34.37 2.05 M1.96 45.43 C13.02 33.71, 20.89 24.71, 39.36 2.41 M1.96 45.43 C10.92 34.53, 22.36 22.15, 39.36 2.41 M1.7 51.83 C16.92 35.23, 27.51 19.62, 45 2.02 M1.7 51.83 C14.83 38.83, 27.09 24.1, 45 2.02 M1.44 58.23 C13.78 45.07, 23.49 31.98, 49.99 2.38 M1.44 58.23 C14.86 41.42, 28.89 26.77, 49.99 2.38 M1.83 63.87 C14.62 50.32, 29.59 32.8, 55.63 1.98 M1.83 63.87 C18.52 46.63, 33.77 28.48, 55.63 1.98 M1.57 70.27 C19.26 50.41, 34.44 35.17, 60.62 2.34 M1.57 70.27 C15.45 55.38, 27.36 40.63, 60.62 2.34 M1.97 75.91 C29.12 45.45, 52.33 17.11, 66.26 1.95 M1.97 75.91 C21.65 52.25, 41.15 28.64, 66.26 1.95 M1.71 82.31 C25.62 56.11, 46.68 29.78, 71.25 2.31 M1.71 82.31 C23.84 57.84, 44.36 34.89, 71.25 2.31 M1.44 88.71 C17.99 71.19, 33.29 49.8, 76.89 1.91 M1.44 88.71 C30.75 54.82, 61.76 20.34, 76.89 1.91 M1.84 94.35 C23.79 70.04, 45.27 44.18, 81.88 2.27 M1.84 94.35 C19.86 72.67, 39.23 50, 81.88 2.27 M1.58 100.75 C20.62 79.31, 38.39 56.52, 87.52 1.88 M1.58 100.75 C30.91 67.1, 60.83 33.7, 87.52 1.88 M1.97 106.39 C21.24 80.54, 42.58 58.56, 92.51 2.24 M1.97 106.39 C38.21 64.56, 73 23.23, 92.51 2.24 M1.71 112.79 C23.76 87.5, 44.76 59.93, 98.15 1.85 M1.71 112.79 C34.81 76.3, 68.18 38.05, 98.15 1.85 M1.45 119.19 C30.05 87.67, 55.94 60.01, 103.14 2.21 M1.45 119.19 C23.38 93.51, 44.74 66.76, 103.14 2.21 M1.84 124.83 C35.46 82.47, 70.89 44.31, 108.78 1.81 M1.84 124.83 C34.87 87.13, 68.48 47.79, 108.78 1.81 M1.58 131.23 C27.44 101.5, 52.44 72.34, 113.77 2.17 M1.58 131.23 C23.77 103.98, 47.09 79.3, 113.77 2.17 M1.98 136.87 C34.97 97.46, 71.31 56.62, 119.41 1.78 M1.98 136.87 C48.49 84.29, 95.51 30.65, 119.41 1.78 M1.72 143.27 C46.85 92.93, 91.05 42.2, 124.4 2.14 M1.72 143.27 C40.66 99.58, 76.95 55.93, 124.4 2.14 M1.45 149.67 C27.71 120.21, 55.85 89.12, 130.04 1.74 M1.45 149.67 C33.97 114.5, 66.03 75.91, 130.04 1.74 M1.85 155.31 C42.49 109.19, 81.7 61.51, 135.03 2.1 M1.85 155.31 C50.98 96.98, 100.34 40.25, 135.03 2.1 M1.59 161.71 C55.45 101.58, 106.55 39.5, 140.67 1.71 M1.59 161.71 C46.25 111.33, 90.28 61.02, 140.67 1.71 M1.98 167.35 C40.79 124.91, 76.74 80.39, 145.66 2.07 M1.98 167.35 C44.85 119.06, 87.59 70.52, 145.66 2.07 M1.72 173.75 C40.44 127.36, 80.73 85.5, 150.65 2.43 M1.72 173.75 C61.14 107.87, 118.84 39.4, 150.65 2.43 M1.46 180.14 C36.3 137.31, 70.53 97.28, 156.29 2.03 M1.46 180.14 C37.33 136.88, 74.17 95.57, 156.29 2.03 M1.85 185.79 C57.71 121.31, 114.84 55.39, 161.28 2.39 M1.85 185.79 C44.63 137.03, 85.61 89.55, 161.28 2.39 M1.59 192.19 C67.05 117.23, 135.79 41.5, 166.92 2 M1.59 192.19 C38.02 150.96, 75.13 109.1, 166.92 2 M1.99 197.83 C51.09 144.36, 98.51 88.67, 171.91 2.36 M1.99 197.83 C44.63 147.3, 86.2 98.93, 171.91 2.36 M1.72 204.23 C58.55 138.85, 114.64 72.79, 177.55 1.96 M1.72 204.23 C64.1 133.81, 125.53 64.04, 177.55 1.96 M1.46 210.62 C54.36 150.02, 106.64 88.64, 182.54 2.32 M1.46 210.62 C50.56 156.14, 99.64 100.15, 182.54 2.32 M1.86 216.27 C71.85 136.34, 140.08 58.72, 188.18 1.93 M1.86 216.27 C72.61 135.45, 142.56 54.18, 188.18 1.93 M1.6 222.66 C74.71 136.67, 149.65 54.95, 193.17 2.29 M1.6 222.66 C73.3 139.25, 146.27 55.23, 193.17 2.29 M1.99 228.31 C51.03 171.22, 103.68 112.32, 198.81 1.9 M1.99 228.31 C68.73 150.76, 135.91 73.61, 198.81 1.9 M1.73 234.71 C78.57 145.51, 159.09 53.96, 203.8 2.26 M1.73 234.71 C45.26 184.85, 89.16 133.45, 203.8 2.26 M1.47 241.1 C66.49 168.12, 129.74 96.31, 209.44 1.86 M1.47 241.1 C67.57 165.13, 133.37 88.94, 209.44 1.86 M1.86 246.75 C55.8 187.61, 109.39 124.87, 214.43 2.22 M1.86 246.75 C83.22 153.83, 164.54 60.69, 214.43 2.22 M1.6 253.14 C49.41 196.5, 100.79 138.91, 220.07 1.83 M1.6 253.14 C59.78 185.53, 118.9 117.57, 220.07 1.83 M2 258.79 C87.88 157.43, 175.94 58.34, 225.06 2.19 M2 258.79 C55.12 198.02, 107.49 137.98, 225.06 2.19 M1.73 265.19 C70.35 183.94, 139.25 104.84, 230.7 1.79 M1.73 265.19 C51.61 206.22, 102.25 148.93, 230.7 1.79 M1.47 271.58 C75.85 185.81, 147.98 103.19, 235.69 2.15 M1.47 271.58 C74.4 185.98, 147.81 101.3, 235.69 2.15 M1.87 277.23 C52.22 222.61, 99.69 166.77, 241.33 1.76 M1.87 277.23 C61.91 205.39, 124.29 134.28, 241.33 1.76 M1.61 283.62 C52.6 228.94, 101.56 170.57, 246.32 2.12 M1.61 283.62 C77.7 195.12, 153.1 108.08, 246.32 2.12 M2 289.27 C97.77 177.05, 196.8 64.29, 251.96 1.72 M2 289.27 C84.53 192.65, 169.02 96.5, 251.96 1.72 M1.74 295.66 C88.09 195.73, 173.54 97.74, 256.95 2.08 M1.74 295.66 C74.33 213.85, 146.54 130.37, 256.95 2.08 M1.48 302.06 C80.27 209.85, 159.73 118.21, 262.59 1.69 M1.48 302.06 C71.79 219.93, 142.88 137.43, 262.59 1.69 M1.87 307.71 C75.37 223.26, 148.73 140.06, 267.58 2.05 M1.87 307.71 C74.11 227.4, 143.34 146.64, 267.58 2.05 M1.61 314.1 C102.24 198.42, 200.47 86.14, 272.56 2.41 M1.61 314.1 C98.76 204.05, 194.66 94.64, 272.56 2.41 M2.01 319.75 C71.05 237.44, 142.42 156.63, 278.21 2.01 M2.01 319.75 C68.98 241.52, 135.35 164.76, 278.21 2.01 M1.74 326.14 C110.62 200.57, 219.59 75.86, 283.19 2.37 M1.74 326.14 C93.08 218.18, 185.45 111.59, 283.19 2.37 M1.48 332.54 C61.48 264.42, 120.92 195.41, 288.84 1.98 M1.48 332.54 C110.94 206.06, 220.07 80.67, 288.84 1.98 M1.88 338.19 C108.21 215.9, 215.15 95.03, 293.82 2.34 M1.88 338.19 C66.81 263.96, 129.91 191.14, 293.82 2.34 M1.62 344.58 C101.7 227.13, 205.19 110.83, 299.47 1.94 M1.62 344.58 C119.05 207.98, 237.48 70.76, 299.47 1.94 M2.01 350.23 C83.25 257.23, 167.15 162.68, 304.45 2.3 M2.01 350.23 C92.98 247.42, 183.17 143.31, 304.45 2.3 M1.75 356.62 C111.67 230.67, 220.72 104.83, 310.1 1.91 M1.75 356.62 C120.53 219.5, 239.91 82.06, 310.1 1.91 M0.18 364.53 C85.9 266.4, 172.18 165.99, 315.08 2.27 M0.18 364.53 C101.59 247.33, 202.19 132.27, 315.08 2.27 M0.57 370.17 C71.73 286.52, 142.09 204.53, 320.73 1.88 M0.57 370.17 C65.39 295.1, 130.97 219.28, 320.73 1.88 M1.62 375.06 C104.52 257.07, 206.63 138.92, 325.71 2.24 M1.62 375.06 C97.3 265.81, 192.2 156.49, 325.71 2.24 M3.33 379.2 C73.68 298.17, 144.99 217.53, 331.36 1.84 M3.33 379.2 C90.3 277.77, 177.68 176.72, 331.36 1.84 M5.03 383.33 C116.07 255.71, 228.05 127.51, 336.34 2.2 M5.03 383.33 C106.69 268.44, 206.94 153.69, 336.34 2.2 M7.4 386.71 C99.21 278.97, 191.38 172.99, 341.99 1.81 M7.4 386.71 C128.69 247.38, 250.69 106.38, 341.99 1.81 M9.76 390.09 C90.65 296.27, 172.62 203.02, 346.97 2.17 M9.76 390.09 C105.92 278.74, 202.83 167.84, 346.97 2.17 M13.43 391.96 C95.55 297.16, 177.02 202.88, 352.62 1.77 M13.43 391.96 C99.96 293.45, 184.49 196.69, 352.62 1.77 M16.45 394.58 C130.1 264.08, 243.63 133.21, 357.6 2.13 M16.45 394.58 C104.46 293.62, 193.26 191.22, 357.6 2.13 M20.13 396.45 C97.19 307.46, 174.32 218.69, 363.25 1.74 M20.13 396.45 C101.46 303.91, 183.5 209.75, 363.25 1.74 M25.12 396.81 C127.77 276.53, 230.88 157.21, 368.23 2.1 M25.12 396.81 C126.4 281.76, 227.23 165.78, 368.23 2.1 M29.45 397.93 C111.1 304.56, 191.69 212.62, 373.88 1.7 M29.45 397.93 C102.64 313.37, 176 228.59, 373.88 1.7 M34.43 398.29 C106.7 314.27, 179.82 230.38, 378.86 2.06 M34.43 398.29 C147.85 267.73, 262.31 135.67, 378.86 2.06 M39.42 398.65 C160.76 260.67, 281.26 121.08, 383.85 2.42 M39.42 398.65 C118.21 307.88, 195.96 218.71, 383.85 2.42 M45.06 398.25 C155.21 272.87, 264.15 147.19, 389.49 2.03 M45.06 398.25 C175.47 245.64, 306.99 94.17, 389.49 2.03 M50.05 398.61 C167.81 261.9, 286.96 125.17, 394.48 2.39 M50.05 398.61 C149.93 283.9, 249.71 169.29, 394.48 2.39 M55.69 398.22 C142.79 294.93, 231.19 194.93, 400.12 1.99 M55.69 398.22 C163.4 273.01, 271.27 148.37, 400.12 1.99 M60.68 398.58 C155.96 290.79, 250.02 181.27, 405.11 2.35 M60.68 398.58 C194.09 245.27, 326.32 92.09, 405.11 2.35 M66.32 398.18 C153.29 299.06, 239.48 200.19, 410.75 1.96 M66.32 398.18 C159.53 291.09, 252.79 184.72, 410.75 1.96 M71.31 398.54 C167.78 289.5, 261.98 180.72, 415.74 2.32 M71.31 398.54 C159.95 295.16, 248.34 193.08, 415.74 2.32 M76.95 398.15 C181.49 278.15, 286.66 158.1, 421.38 1.93 M76.95 398.15 C162.13 299.47, 248.12 200.84, 421.38 1.93 M81.94 398.51 C211.29 252.08, 339.48 103.53, 427.03 1.53 M81.94 398.51 C159.85 310.27, 235.96 223.03, 427.03 1.53 M86.93 398.87 C161.16 315.33, 234.41 230.49, 432.01 1.89 M86.93 398.87 C199.33 271.4, 310.06 143.75, 432.01 1.89 M92.57 398.47 C188.1 290.03, 282.07 180.72, 436.35 3.01 M92.57 398.47 C212.87 262.01, 332.55 123.26, 436.35 3.01 M97.56 398.83 C215.29 262.3, 334.92 124.32, 441.33 3.37 M97.56 398.83 C175.32 309.44, 253.34 220.64, 441.33 3.37 M103.2 398.44 C229.08 251.43, 357.88 104.94, 445.01 5.24 M103.2 398.44 C202.42 285.36, 300.06 172.37, 445.01 5.24 M108.19 398.8 C198.28 293.19, 290.57 187.57, 448.03 7.86 M108.19 398.8 C230.34 258.76, 352.99 118.51, 448.03 7.86 M113.83 398.4 C229.63 264.9, 345.47 131, 451.7 9.73 M113.83 398.4 C196.83 304.15, 278.42 209.9, 451.7 9.73 M118.82 398.76 C228.47 274.69, 337.12 149.11, 454.06 13.11 M118.82 398.76 C250.23 249.62, 380.8 99.35, 454.06 13.11 M124.46 398.37 C242.08 264.74, 358.73 130.39, 455.77 17.24 M124.46 398.37 C253.81 250.25, 382.51 101.6, 455.77 17.24 M129.45 398.73 C205.68 308.2, 283.95 220.02, 458.13 20.62 M129.45 398.73 C211.82 303.67, 293.54 210.18, 458.13 20.62 M135.09 398.34 C212.84 310.17, 290.25 221.07, 459.18 25.51 M135.09 398.34 C220.9 299.11, 307.99 199.06, 459.18 25.51 M140.08 398.7 C242.64 281.61, 343.98 165.14, 458.27 32.66 M140.08 398.7 C244.1 276.84, 350.45 155.17, 458.27 32.66 M145.72 398.3 C252.23 277.08, 356.36 157.69, 458.01 39.06 M145.72 398.3 C265.94 259.38, 386.66 121.2, 458.01 39.06 M150.71 398.66 C232.36 301.87, 315.88 205.76, 458.4 44.7 M150.71 398.66 C244.23 288.84, 339.24 180.38, 458.4 44.7 M156.35 398.27 C233.76 309.31, 310.24 219.68, 458.14 51.1 M156.35 398.27 C219.76 327.98, 282.24 255.6, 458.14 51.1 M161.34 398.63 C271.95 269.41, 383.63 141.36, 458.53 56.74 M161.34 398.63 C248.64 297.14, 337.33 195.61, 458.53 56.74 M166.98 398.23 C253.3 298.91, 340.35 198.84, 458.27 63.14 M166.98 398.23 C275.62 272.37, 384.41 147.37, 458.27 63.14 M171.97 398.59 C254.72 301.19, 339.64 203.77, 458.01 69.54 M171.97 398.59 C258.83 299.76, 344.46 200.6, 458.01 69.54 M177.61 398.2 C248.2 319.2, 318.66 238.82, 458.4 75.18 M177.61 398.2 C257.5 304.76, 338.55 212.05, 458.4 75.18 M182.6 398.56 C259.41 309.31, 336.66 220.44, 458.14 81.58 M182.6 398.56 C288.32 279.22, 391.96 160.21, 458.14 81.58 M188.24 398.16 C286.3 284.58, 386.39 169.93, 458.54 87.22 M188.24 398.16 C274.25 299.65, 359.32 201.66, 458.54 87.22 M193.23 398.52 C288.8 289.5, 386.15 178.26, 458.28 93.62 M193.23 398.52 C260.43 323.69, 326.71 248.02, 458.28 93.62 M198.87 398.13 C254.68 336.28, 312.12 271.02, 458.01 100.02 M198.87 398.13 C300.14 282.16, 400.86 165.27, 458.01 100.02 M203.86 398.49 C297.55 288.96, 392.18 181.08, 458.41 105.66 M203.86 398.49 C282.74 307.7, 362.5 215.91, 458.41 105.66 M208.85 398.85 C264.59 334.61, 318.33 271.98, 458.15 112.06 M208.85 398.85 C262.74 338.65, 316.76 276.51, 458.15 112.06 M214.49 398.45 C286.47 314.27, 358.59 230.37, 458.54 117.7 M214.49 398.45 C269.23 335.73, 323.28 273.7, 458.54 117.7 M219.48 398.81 C293.24 312.2, 366.28 228.36, 458.28 124.1 M219.48 398.81 C279.5 331.23, 339.1 263.59, 458.28 124.1 M225.12 398.42 C303.64 309.38, 382.94 216.9, 458.02 130.5 M225.12 398.42 C296.13 319.83, 365.5 239.56, 458.02 130.5 M230.11 398.78 C295.3 324.74, 361.96 250.21, 458.41 136.14 M230.11 398.78 C303.4 314.11, 377.42 227.84, 458.41 136.14 M235.75 398.39 C293.14 333.63, 350.24 265.71, 458.15 142.54 M235.75 398.39 C308.4 312.99, 381.56 228.95, 458.15 142.54 M240.74 398.75 C290.59 340.61, 339.39 283.95, 458.55 148.18 M240.74 398.75 C291.48 337.7, 342.97 278.27, 458.55 148.18 M246.38 398.35 C292.76 344.92, 338.43 290.03, 458.29 154.58 M246.38 398.35 C327.84 306.59, 406.16 215.35, 458.29 154.58 M251.37 398.71 C320.14 318.48, 387.05 241.52, 458.02 160.98 M251.37 398.71 C322.55 315.11, 395.08 232.5, 458.02 160.98 M257.01 398.32 C328 317.32, 400 231.16, 458.42 166.62 M257.01 398.32 C326 317.66, 396.74 235.91, 458.42 166.62 M262 398.68 C306.71 346.63, 352.75 295.4, 458.16 173.02 M262 398.68 C339.38 311.24, 417.02 223.3, 458.16 173.02 M267.64 398.28 C306.47 353.35, 347.5 308.17, 458.55 178.66 M267.64 398.28 C312.49 344.6, 356.9 293.31, 458.55 178.66 M272.63 398.64 C328.74 337.82, 381.91 276.07, 458.29 185.06 M272.63 398.64 C318.81 343.36, 365.65 289.95, 458.29 185.06 M278.27 398.25 C324.7 344.93, 372.21 289.34, 458.03 191.46 M278.27 398.25 C332.14 339.68, 383.05 278.89, 458.03 191.46 M283.26 398.61 C340.1 335.03, 395.22 272.07, 458.42 197.1 M283.26 398.61 C351.12 319.71, 418.61 242.83, 458.42 197.1 M288.9 398.21 C328.11 354.01, 368.37 306.57, 458.16 203.5 M288.9 398.21 C326.41 354.82, 364.14 310.65, 458.16 203.5 M293.89 398.57 C332.79 352.96, 371.29 308.61, 458.56 209.14 M293.89 398.57 C332.4 356.79, 369.16 313.09, 458.56 209.14 M299.53 398.18 C362.48 328.49, 422.05 258.61, 458.3 215.54 M299.53 398.18 C334.39 357.33, 369.71 316.94, 458.3 215.54 M304.52 398.54 C338.47 358.55, 374.23 319.6, 458.03 221.94 M304.52 398.54 C360.86 334.13, 415.6 270.99, 458.03 221.94 M310.16 398.14 C369.35 330.5, 426.73 265.38, 458.43 227.58 M310.16 398.14 C359.01 343.09, 409.78 285.13, 458.43 227.58 M315.15 398.5 C369.13 334.49, 425.56 267.98, 458.17 233.98 M315.15 398.5 C363.9 343.29, 411.9 288.64, 458.17 233.98 M320.13 398.86 C361.01 352.88, 402.63 308.04, 458.56 239.62 M320.13 398.86 C357.74 355.62, 395.08 312.93, 458.56 239.62 M325.78 398.47 C362.94 358.33, 399.2 312.98, 458.3 246.02 M325.78 398.47 C363.46 357.77, 400.64 315.07, 458.3 246.02 M330.76 398.83 C368.79 351.49, 411.29 305.32, 458.04 252.42 M330.76 398.83 C355.72 369.73, 382.37 338.61, 458.04 252.42 M336.41 398.43 C376.36 350.38, 419.19 303.2, 458.43 258.06 M336.41 398.43 C371.85 359.09, 404.59 320.55, 458.43 258.06 M341.39 398.8 C375.05 358.66, 409.02 319.91, 458.17 264.46 M341.39 398.8 C387.29 348.09, 432.56 295.13, 458.17 264.46 M347.04 398.4 C382.69 359.34, 418.41 319.56, 458.57 270.1 M347.04 398.4 C389.62 349.79, 432.35 300.31, 458.57 270.1 M352.02 398.76 C372.7 372.62, 396.12 348.26, 458.31 276.5 M352.02 398.76 C386.43 358.03, 422.04 317.69, 458.31 276.5 M357.67 398.37 C378.97 373.13, 398.96 349.35, 458.04 282.9 M357.67 398.37 C378.56 374.11, 400.57 349.32, 458.04 282.9 M362.65 398.73 C386.95 371.59, 408.86 344.12, 458.44 288.54 M362.65 398.73 C382.56 374.97, 402.17 353.37, 458.44 288.54 M368.3 398.33 C399.01 363.04, 427.07 328.4, 458.18 294.94 M368.3 398.33 C400.66 361.91, 432.88 323.75, 458.18 294.94 M373.28 398.69 C407.79 360.69, 440.12 324.2, 458.57 300.58 M373.28 398.69 C396.76 374.75, 417.17 348.7, 458.57 300.58 M378.93 398.3 C400.57 376.08, 420.92 350.9, 458.31 306.98 M378.93 398.3 C407.45 365.45, 436.02 334.78, 458.31 306.98 M383.91 398.66 C411.74 367.53, 440.3 335.04, 458.05 313.37 M383.91 398.66 C412.54 365.56, 441.29 334.29, 458.05 313.37 M389.56 398.26 C406.97 374.21, 426.92 353.49, 458.44 319.02 M389.56 398.26 C412.12 372.98, 433.55 349.7, 458.44 319.02 M394.54 398.62 C416.57 374.99, 438.8 347.23, 458.18 325.42 M394.54 398.62 C417.86 371.26, 442.27 343.96, 458.18 325.42 M400.19 398.23 C418.59 376.59, 440.79 354.31, 458.58 331.06 M400.19 398.23 C421.08 376.48, 440.4 354.35, 458.58 331.06 M405.17 398.59 C417.93 384.19, 430.86 368.43, 458.32 337.46 M405.17 398.59 C419.01 382.76, 432.35 368.99, 458.32 337.46 M410.82 398.19 C422.07 382.88, 438.67 366.38, 458.05 343.85 M410.82 398.19 C422.28 385.05, 435.3 371.7, 458.05 343.85 M415.8 398.55 C429.34 382.04, 443.51 363.16, 458.45 349.5 M415.8 398.55 C430.11 383.53, 442.43 368.79, 458.45 349.5 M421.45 398.16 C427.51 389.2, 436.12 380.5, 458.19 355.9 M421.45 398.16 C431.07 386.23, 441.99 374.42, 458.19 355.9 M427.09 397.76 C437.87 385.22, 450.43 373.52, 458.58 361.54 M427.09 397.76 C438.29 385.43, 449.33 372.93, 458.58 361.54 M433.39 396.62 C442.34 387.73, 452.39 373.78, 459.63 366.43 M433.39 396.62 C443.19 385.76, 453.9 372.45, 459.63 366.43 M440.34 394.71 C446.84 386.28, 452.64 379.24, 458.71 373.58 M440.34 394.71 C448.15 386.89, 455.36 379.14, 458.71 373.58" stroke="#a9a9b2" stroke-width="0.5" fill="none"></path><path d="M32 0 C189.39 0.15, 344.62 -0.93, 425.65 0 M32 0 C186.82 -0.86, 342.69 -1.09, 425.65 0 M425.65 0 C445.55 1.6, 455.94 9.13, 457.65 32 M425.65 0 C447.24 -2.17, 456.14 8.69, 457.65 32 M457.65 32 C455.17 127.67, 455.41 222.11, 457.65 364.54 M457.65 32 C458.83 161.5, 458.87 291.15, 457.65 364.54 M457.65 364.54 C457.63 384.57, 448.53 396.02, 425.65 396.54 M457.65 364.54 C459.61 387.13, 446.06 395.19, 425.65 396.54 M425.65 396.54 C316.73 398.2, 206.3 397.84, 32 396.54 M425.65 396.54 C311.78 396.15, 198.87 395.94, 32 396.54 M32 396.54 C11.19 398.39, 1.93 385.81, 0 364.54 M32 396.54 C9.08 396.46, 0.11 383.87, 0 364.54 M0 364.54 C0.59 235.63, 1.7 105.04, 0 32 M0 364.54 C2.71 269.16, 2.35 174.9, 0 32 M0 32 C-1.4 8.85, 10.45 -0.51, 32 0 M0 32 C-0.75 9.11, 10.64 1.01, 32 0" stroke="#a9a9b2" stroke-width="1" fill="none"></path></g><g stroke-opacity="0.5" fill-opacity="0.5" stroke-linecap="round" transform="translate(1028.7134094238281 52.266830444335824) rotate(0 140 200)"><path d="M7.86 8.16 C7.86 8.16, 7.86 8.16, 7.86 8.16 M7.86 8.16 C7.86 8.16, 7.86 8.16, 7.86 8.16 M3.66 19.09 C8.26 15.73, 11.07 11.24, 18.1 2.48 M3.66 19.09 C8.16 14.47, 11.03 11.2, 18.1 2.48 M2.75 26.24 C6.63 20.83, 15.48 12.24, 24.4 1.33 M2.75 26.24 C10.35 17.94, 15.65 10.13, 24.4 1.33 M2.48 32.64 C11.88 25.35, 19.92 14.84, 30.7 0.18 M2.48 32.64 C9.57 25.02, 15.3 17.47, 30.7 0.18 M2.88 38.28 C10.7 26.06, 20.19 18.12, 34.37 2.05 M2.88 38.28 C10.36 30.26, 18.96 20.21, 34.37 2.05 M2.62 44.68 C14.63 33.92, 24.39 21.48, 39.36 2.41 M2.62 44.68 C13.41 32.56, 22.95 22.69, 39.36 2.41 M2.36 51.07 C13.2 40.31, 20.8 29.47, 45 2.02 M2.36 51.07 C20.12 31.14, 35.85 12.21, 45 2.02 M2.75 56.72 C17.36 38.73, 30.76 20.95, 49.99 2.38 M2.75 56.72 C18.85 39.01, 33.39 21.23, 49.99 2.38 M2.49 63.11 C20.59 44.42, 36.03 27.96, 55.63 1.98 M2.49 63.11 C13.99 50.57, 24.9 36.12, 55.63 1.98 M2.88 68.76 C24.35 43.66, 49.68 16.91, 60.62 2.34 M2.88 68.76 C18.73 51, 34.42 32.38, 60.62 2.34 M2.62 75.16 C15.9 58.16, 31.92 38.95, 66.26 1.95 M2.62 75.16 C16.76 59.2, 30.22 42.54, 66.26 1.95 M2.36 81.55 C25.01 53.92, 49.65 27.62, 71.25 2.31 M2.36 81.55 C17.42 62.09, 33.63 44.74, 71.25 2.31 M2.76 87.2 C33.41 53.36, 60.47 19.61, 76.89 1.91 M2.76 87.2 C19.68 67.41, 36.17 46.74, 76.89 1.91 M2.49 93.59 C29.33 64.38, 57.92 31.76, 81.88 2.27 M2.49 93.59 C24.59 69.45, 45.02 47.02, 81.88 2.27 M2.23 99.99 C21.29 79.53, 38.13 55.78, 87.52 1.88 M2.23 99.99 C29.57 66.65, 57.87 35.39, 87.52 1.88 M2.63 105.64 C29.82 75.05, 57.49 41.88, 92.51 2.24 M2.63 105.64 C23.07 82.26, 43.08 59.04, 92.51 2.24 M2.37 112.03 C20.98 87.63, 41.86 67.89, 98.15 1.85 M2.37 112.03 C29.85 79.77, 59.25 46.43, 98.15 1.85 M2.76 117.68 C42.4 73.18, 82.72 27.7, 103.14 2.21 M2.76 117.68 C39.12 76.68, 75.22 35.22, 103.14 2.21 M2.5 124.07 C36.76 86.62, 66.56 48.55, 108.78 1.81 M2.5 124.07 C24.43 99.44, 47.03 74.09, 108.78 1.81 M2.24 130.47 C30.08 100.93, 57.61 65.84, 113.77 2.17 M2.24 130.47 C36.37 91.72, 69.39 52.29, 113.77 2.17 M2.63 136.11 C45.51 84.15, 88.34 35, 119.41 1.78 M2.63 136.11 C47.95 85.75, 91.28 34.04, 119.41 1.78 M2.37 142.51 C41.22 98.08, 80.31 53.89, 124.4 2.14 M2.37 142.51 C35.18 106.35, 65.99 69.08, 124.4 2.14 M2.77 148.16 C40.63 104.48, 79.15 61.62, 130.04 1.74 M2.77 148.16 C36.37 108.76, 70.33 72.3, 130.04 1.74 M2.5 154.55 C55.6 96.42, 105.85 34.21, 135.03 2.1 M2.5 154.55 C32.15 118.32, 61.87 83.78, 135.03 2.1 M2.24 160.95 C33.39 121.62, 67.07 85.12, 140.67 1.71 M2.24 160.95 C50.66 105.02, 100.29 47.82, 140.67 1.71 M2.64 166.59 C40.95 122.32, 77.1 80.02, 145.66 2.07 M2.64 166.59 C59.81 101.61, 118.27 36.15, 145.66 2.07 M2.38 172.99 C34.26 136.54, 68.2 99.24, 150.65 2.43 M2.38 172.99 C45.07 125.95, 86.3 77.91, 150.65 2.43 M2.11 179.39 C41.64 133, 78.09 89.93, 156.29 2.03 M2.11 179.39 C51.83 121.7, 101.46 63.79, 156.29 2.03 M2.51 185.03 C59.39 121.02, 114.66 59.32, 161.28 2.39 M2.51 185.03 C48.55 131.71, 94.78 77.87, 161.28 2.39 M2.25 191.43 C46.38 142.39, 91.71 91.22, 166.92 2 M2.25 191.43 C63.75 121.26, 124.1 52.3, 166.92 2 M2.64 197.07 C67.36 123.78, 129.59 50.48, 171.91 2.36 M2.64 197.07 C67.37 121.44, 132.96 48.4, 171.91 2.36 M2.38 203.47 C67.26 127.48, 134.49 49.97, 177.55 1.96 M2.38 203.47 C46.51 152.39, 92.4 100.5, 177.55 1.96 M2.12 209.87 C62.56 139.25, 124.52 68.26, 182.54 2.32 M2.12 209.87 C70.89 130.2, 142.06 48.9, 182.54 2.32 M2.51 215.51 C42.71 170.05, 83.14 121.64, 188.18 1.93 M2.51 215.51 C60.62 150.75, 117.15 86.24, 188.18 1.93 M2.25 221.91 C62.43 152.21, 122.72 81.82, 193.17 2.29 M2.25 221.91 C50.32 168.39, 98.39 112.51, 193.17 2.29 M2.65 227.55 C77.79 141.64, 153.08 55.89, 198.81 1.9 M2.65 227.55 C45.99 176.61, 91.3 125.31, 198.81 1.9 M2.39 233.95 C55.21 171.73, 109.95 108.87, 203.8 2.26 M2.39 233.95 C79.99 142.23, 159.15 52.38, 203.8 2.26 M2.12 240.35 C51.6 183.27, 99.55 128.56, 209.44 1.86 M2.12 240.35 C64.04 167.15, 126.35 95.55, 209.44 1.86 M2.52 245.99 C49.18 190.71, 96.19 138.71, 214.43 2.22 M2.52 245.99 C69.42 168.6, 134.91 93.45, 214.43 2.22 M2.26 252.39 C69.85 172.07, 137.68 93.55, 220.07 1.83 M2.26 252.39 C47.88 202.61, 91.5 151.76, 220.07 1.83 M2 258.79 C57.81 191.84, 116.65 125.53, 225.06 2.19 M2 258.79 C48.55 208.74, 93.31 156.12, 225.06 2.19 M2.39 264.43 C73.49 181.42, 143.32 100.45, 230.7 1.79 M2.39 264.43 C90.13 161.96, 180.09 59.11, 230.7 1.79 M2.13 270.83 C78.56 180.84, 158.32 91.29, 235.69 2.15 M2.13 270.83 C80.75 179.61, 159.12 89.62, 235.69 2.15 M2.52 276.47 C70.62 200.07, 137.92 121.79, 241.33 1.76 M2.52 276.47 C74.36 192.2, 146.94 108.58, 241.33 1.76 M2.26 282.87 C68.02 205.9, 135.08 127.2, 248.28 -0.15 M2.26 282.87 C70.26 204.91, 137.93 127.71, 248.28 -0.15 M2 289.27 C70.84 213.73, 135.05 137.47, 252.62 0.97 M2 289.27 C94.79 182.56, 186.01 78.02, 252.62 0.97 M2.4 294.91 C94.35 191.06, 184.91 88.81, 257.6 1.33 M2.4 294.91 C66.47 218.93, 132.06 144.18, 257.6 1.33 M2.13 301.31 C65.64 227.1, 127.08 155.54, 261.93 2.44 M2.13 301.31 C102.62 185.47, 203.33 69.95, 261.93 2.44 M2.53 306.95 C87.84 205.1, 173.98 105.31, 266.26 3.56 M2.53 306.95 C57.57 244.64, 112.19 181.46, 266.26 3.56 M2.27 313.35 C104.35 195.25, 205.72 78.97, 269.28 6.18 M2.27 313.35 C99.57 201.86, 197.19 90.78, 269.28 6.18 M2.01 319.75 C62.6 250.32, 120.7 182.95, 272.3 8.81 M2.01 319.75 C92.92 213.1, 186.3 107.26, 272.3 8.81 M2.4 325.39 C110.16 200.72, 218.46 73.92, 275.32 11.43 M2.4 325.39 C75.88 241.53, 151.08 156.16, 275.32 11.43 M2.14 331.79 C84.87 238.55, 167.21 143, 277.68 14.81 M2.14 331.79 C100.32 219.12, 197.83 106.72, 277.68 14.81 M1.88 338.19 C109.14 214.96, 216.32 91.4, 279.39 18.94 M1.88 338.19 C77.48 251.78, 153.55 163.56, 279.39 18.94 M2.27 343.83 C91.86 239.75, 180.62 139.29, 279.78 24.59 M2.27 343.83 C63.48 270.99, 124.79 199.8, 279.78 24.59 M2.01 350.23 C58.12 285.3, 115.75 218.07, 280.84 29.47 M2.01 350.23 C90.21 248.81, 178.29 147.05, 280.84 29.47 M2.4 355.87 C85.42 261.05, 166.45 167.46, 282.54 33.61 M2.4 355.87 C62.42 287.03, 123.18 218.04, 282.54 33.61 M2.14 362.27 C76.66 275.47, 150.59 189.01, 282.28 40.01 M2.14 362.27 C96.23 254.25, 190.72 145.96, 282.28 40.01 M1.23 369.42 C87.56 271.72, 172.48 175.51, 282.02 46.4 M1.23 369.42 C77.93 279.05, 155.37 189.99, 282.02 46.4 M2.28 374.31 C103.59 258.32, 205.3 139.6, 282.41 52.05 M2.28 374.31 C69.72 296.4, 137.65 218.94, 282.41 52.05 M2.67 379.95 C82.02 287.21, 162.18 196.52, 282.15 58.44 M2.67 379.95 C70.18 301.55, 137.4 223.85, 282.15 58.44 M4.38 384.08 C76.44 302.57, 145.63 224.24, 282.55 64.09 M4.38 384.08 C96.96 277.87, 189.62 171.09, 282.55 64.09 M6.08 388.22 C76.82 307.35, 149.08 223.55, 282.29 70.49 M6.08 388.22 C67.72 317.03, 129.92 245.45, 282.29 70.49 M8.45 391.6 C72.65 318.49, 138.98 242.76, 282.02 76.88 M8.45 391.6 C89.95 295.32, 172.23 200.2, 282.02 76.88 M11.47 394.22 C91.69 303.43, 171 212.22, 282.42 82.53 M11.47 394.22 C75.91 320.87, 139.33 248.43, 282.42 82.53 M14.49 396.85 C71.03 331.16, 127.71 264.9, 282.16 88.92 M14.49 396.85 C70.6 331.46, 127.42 266.26, 282.16 88.92 M18.16 398.72 C105.34 299.27, 192.77 197.59, 282.55 94.57 M18.16 398.72 C111.3 292.95, 203.82 185.85, 282.55 94.57 M23.15 399.08 C82.58 329.99, 140.95 263.64, 282.29 100.96 M23.15 399.08 C106.43 304.87, 188.41 210.31, 282.29 100.96 M28.13 399.44 C123.94 286.45, 220.54 174.8, 282.03 107.36 M28.13 399.44 C114.76 298.55, 202.59 197.76, 282.03 107.36 M32.47 400.55 C105.31 317.38, 177.69 234.64, 282.42 113.01 M32.47 400.55 C95.52 325.14, 159.67 252.59, 282.42 113.01 M38.11 400.16 C114.64 311.7, 189.61 223.77, 282.16 119.4 M38.11 400.16 C105.89 323.89, 172.52 246.22, 282.16 119.4 M43.1 400.52 C136.49 294.24, 227.35 186.42, 282.56 125.05 M43.1 400.52 C104.02 331.65, 163.97 262.9, 282.56 125.05 M48.74 400.12 C111.49 327.24, 176.2 255.76, 282.3 131.44 M48.74 400.12 C114.69 326.06, 178.51 252.31, 282.3 131.44 M53.73 400.48 C112.73 331.5, 169.86 264.5, 282.03 137.84 M53.73 400.48 C123.04 321.2, 192.8 241.72, 282.03 137.84 M58.71 400.84 C113.59 336.82, 170.6 272.22, 282.43 143.49 M58.71 400.84 C142.84 306.45, 225.89 210.03, 282.43 143.49 M64.36 400.45 C115.21 344.51, 163.25 290.33, 282.17 149.88 M64.36 400.45 C111.69 347.88, 157.93 294.19, 282.17 149.88 M69.34 400.81 C140.02 322.4, 207.04 244.41, 282.56 155.53 M69.34 400.81 C129.01 333.53, 187.2 265.55, 282.56 155.53 M74.99 400.41 C147.96 319.7, 219.05 234.14, 282.3 161.92 M74.99 400.41 C145.35 318.37, 217.56 234.97, 282.3 161.92 M79.97 400.77 C125.61 347.38, 172.64 296.71, 282.04 168.32 M79.97 400.77 C153.71 313.67, 230.24 227.14, 282.04 168.32 M85.62 400.38 C144.02 334.97, 198.73 269.57, 282.43 173.96 M85.62 400.38 C137.21 339.03, 190.91 277.75, 282.43 173.96 M90.6 400.74 C158.86 321.49, 229.47 243.42, 282.17 180.36 M90.6 400.74 C155.76 325.39, 221.14 249.58, 282.17 180.36 M96.25 400.34 C142.74 348.57, 186.51 296.73, 282.57 186.01 M96.25 400.34 C157.97 331.43, 218.58 261.14, 282.57 186.01 M101.23 400.7 C173.38 320.44, 243.59 239.4, 282.3 192.4 M101.23 400.7 C166.04 327.86, 229.81 254.35, 282.3 192.4 M106.88 400.31 C176.07 323.11, 242.56 244.26, 282.04 198.8 M106.88 400.31 C147.08 351.15, 189.33 304.39, 282.04 198.8 M111.86 400.67 C154.57 349.97, 197.33 302.88, 282.44 204.44 M111.86 400.67 C153.03 354.64, 193.82 307.68, 282.44 204.44 M117.51 400.27 C160.13 350.35, 204.6 299.75, 282.18 210.84 M117.51 400.27 C171.12 339.48, 223.54 279.27, 282.18 210.84 M122.49 400.63 C172.91 339.85, 227.97 279.16, 282.57 216.49 M122.49 400.63 C177.94 338.11, 231.11 277.3, 282.57 216.49 M128.14 400.24 C186.4 331.45, 248.74 262.39, 282.31 222.88 M128.14 400.24 C168.23 351.45, 210.07 303.29, 282.31 222.88 M133.12 400.6 C176.84 346.45, 225.34 293.79, 282.05 229.28 M133.12 400.6 C171.47 356.58, 208.97 311.93, 282.05 229.28 M138.77 400.21 C169.32 368.72, 199.04 332.63, 282.44 234.92 M138.77 400.21 C191.94 337.3, 246.07 275.41, 282.44 234.92 M143.75 400.57 C183.74 354.09, 225.87 307.45, 282.18 241.32 M143.75 400.57 C184.55 353.62, 225.99 306.01, 282.18 241.32 M149.4 400.17 C198.45 342.66, 247.06 287.27, 281.92 247.72 M149.4 400.17 C187.25 354.82, 226.96 309.37, 281.92 247.72 M154.38 400.53 C195.03 357.86, 231.69 313.07, 282.31 253.36 M154.38 400.53 C187.06 364.83, 219.74 327.89, 282.31 253.36 M160.03 400.14 C193.85 359.54, 229.38 320.64, 282.05 259.76 M160.03 400.14 C194 360.25, 228.37 320.71, 282.05 259.76 M165.01 400.5 C211.83 349.06, 255.59 299.53, 282.45 265.4 M165.01 400.5 C207.09 351.57, 250.84 301.69, 282.45 265.4 M170.66 400.1 C207.05 359.81, 240.69 320.69, 282.19 271.8 M170.66 400.1 C210.45 355.13, 251.66 308.38, 282.19 271.8 M175.64 400.46 C203.02 370.84, 229.69 342.25, 281.92 278.2 M175.64 400.46 C198.45 375.81, 222.88 348.41, 281.92 278.2 M180.63 400.82 C221.78 356.98, 258.4 311.31, 282.32 283.84 M180.63 400.82 C217.67 356.86, 255.57 314.1, 282.32 283.84 M186.27 400.43 C214.45 366.38, 245.15 330.92, 282.06 290.24 M186.27 400.43 C208 375.6, 228.03 351.87, 282.06 290.24 M191.26 400.79 C210.67 379.11, 231.69 354.92, 282.45 295.88 M191.26 400.79 C217.9 369.1, 244.42 337.82, 282.45 295.88 M196.9 400.39 C217.44 378.73, 236.75 356.99, 282.19 302.28 M196.9 400.39 C223.33 368.97, 249.1 339.47, 282.19 302.28 M201.89 400.75 C221.09 377.24, 241.36 356.83, 281.93 308.68 M201.89 400.75 C228.76 370.74, 256.22 338.16, 281.93 308.68 M207.53 400.36 C231.32 375.63, 253.66 348.45, 282.32 314.32 M207.53 400.36 C228.75 376.44, 251.53 351.89, 282.32 314.32 M212.52 400.72 C234.91 375.76, 256.88 347.06, 282.06 320.72 M212.52 400.72 C230.52 380.9, 248.06 359.05, 282.06 320.72 M218.16 400.32 C240.16 375.03, 259.95 352.65, 282.46 326.36 M218.16 400.32 C232.99 382.9, 246.67 366.77, 282.46 326.36 M223.15 400.68 C236.99 384.3, 249.51 369.35, 282.2 332.76 M223.15 400.68 C236 386.2, 248.28 370.39, 282.2 332.76 M228.79 400.29 C250.93 376.3, 267.51 353.91, 281.93 339.16 M228.79 400.29 C246.74 379.11, 263.43 359.92, 281.93 339.16 M233.78 400.65 C249.37 379.89, 265.85 363.27, 282.33 344.8 M233.78 400.65 C250.63 381.83, 267.71 359.88, 282.33 344.8 M239.42 400.25 C252.38 384.52, 268.68 364.72, 282.07 351.2 M239.42 400.25 C248.61 388.76, 258.7 378.33, 282.07 351.2 M244.41 400.61 C259.22 384.3, 276.34 368.36, 282.46 356.84 M244.41 400.61 C251.91 391.24, 260.92 382.22, 282.46 356.84 M249.4 400.97 C258.04 390.72, 263.59 383.78, 282.2 363.24 M249.4 400.97 C259.97 390.31, 269.28 379.22, 282.2 363.24 M255.04 400.58 C260.05 390.82, 267.57 383.4, 281.94 369.64 M255.04 400.58 C261.86 393, 268.91 384.28, 281.94 369.64 M262.65 397.92 C269.9 392.55, 271.79 384.64, 281.02 376.79 M262.65 397.92 C269.1 390.84, 274.7 384.69, 281.02 376.79" stroke="#a9a9b2" stroke-width="0.5" fill="none"></path><path d="M32 0 C96.66 -0.34, 158.05 1.23, 248 0 M32 0 C113.58 0.35, 193.51 -1.1, 248 0 M248 0 C269.26 0.1, 278.26 12.5, 280 32 M248 0 C268.43 -1.58, 279.51 12.95, 280 32 M280 32 C280.45 153.58, 282.99 272.53, 280 368 M280 32 C278.96 147.26, 279.4 262.44, 280 368 M280 368 C278.65 389.31, 270.21 401.41, 248 400 M280 368 C277.86 391.45, 271.31 399.2, 248 400 M248 400 C195.62 400.63, 142.21 403.19, 32 400 M248 400 C191.86 399.23, 133.97 399.34, 32 400 M32 400 C11.86 401.69, 1.51 390.16, 0 368 M32 400 C9.81 398.37, -0.12 391.52, 0 368 M0 368 C2.2 271.47, 2.06 175.56, 0 32 M0 368 C-0.46 235.57, -0.27 101.65, 0 32 M0 32 C0.31 12.12, 9.06 -0.62, 32 0 M0 32 C-2.07 12.22, 9.5 1.81, 32 0" stroke="#a9a9b2" stroke-width="1" fill="none"></path></g><g transform="translate(248.231689453125 12.266830444335824) rotate(0 37.294921875 11.5)"><text x="0" y="16.900390625" font-family="Helvetica, Segoe UI Emoji" font-size="20px" fill="#a9a9b2" text-anchor="start" style="white-space: pre;" direction="ltr" dominant-baseline="alphabetic">Browser</text></g><g transform="translate(124.84939575195312 67.26683044433582) rotate(0 157.607421875 23)"><text x="157.607421875" y="16.900390625" font-family="Helvetica, Segoe UI Emoji" font-size="20px" fill="#a9a9b2" text-anchor="middle" style="white-space: pre;" direction="ltr" dominant-baseline="alphabetic">Client</text><text x="157.607421875" y="39.900390625" font-family="Helvetica, Segoe UI Emoji" font-size="20px" fill="#a9a9b2" text-anchor="middle" style="white-space: pre;" direction="ltr" dominant-baseline="alphabetic">(https://jub0bs.github.io?port=8080)</text></g><g transform="translate(1072.5464172363281 68.52781677246082) rotate(0 96.1669921875 23)"><text x="96.1669921875" y="16.900390625" font-family="Helvetica, Segoe UI Emoji" font-size="20px" fill="#a9a9b2" text-anchor="middle" style="white-space: pre;" direction="ltr" dominant-baseline="alphabetic">Server</text><text x="96.1669921875" y="39.900390625" font-family="Helvetica, Segoe UI Emoji" font-size="20px" fill="#a9a9b2" text-anchor="middle" style="white-space: pre;" direction="ltr" dominant-baseline="alphabetic">(http://localhost:8080)</text></g><g transform="translate(67.19387817382812 303.5173187255858) rotate(0 216.2421875 37)"><text x="0" y="13.5703125" font-family="Helvetica, Segoe UI Emoji" font-size="16px" fill="#a9a9b2" text-anchor="start" style="white-space: pre;" direction="ltr" dominant-baseline="alphabetic">&lt;script&gt;</text><text x="0" y="32.0703125" font-family="Helvetica, Segoe UI Emoji" font-size="16px" fill="#a9a9b2" text-anchor="start" style="white-space: pre;" direction="ltr" dominant-baseline="alphabetic">  const url = 'http://localhost:8080/check?username=jub0bs';</text><text x="0" y="50.5703125" font-family="Helvetica, Segoe UI Emoji" font-size="16px" fill="#a9a9b2" text-anchor="start" style="white-space: pre;" direction="ltr" dominant-baseline="alphabetic">  fetch(url).then(data =&gt; data.json()).then(displayResults);</text><text x="0" y="69.0703125" font-family="Helvetica, Segoe UI Emoji" font-size="16px" fill="#a9a9b2" text-anchor="start" style="white-space: pre;" direction="ltr" dominant-baseline="alphabetic">&lt;/script&gt;</text></g><g stroke-linecap="round"><g transform="translate(508.7134094238281 357.2668304443358) rotate(0 30 0)"><path d="M0 0 C10 0, 50 0, 60 0 M0 0 C10 0, 50 0, 60 0" stroke="#a9a9b2" stroke-width="2" fill="none"></path></g><g transform="translate(508.7134094238281 357.2668304443358) rotate(0 30 0)"><path d="M36.51 8.55 C41.59 6.7, 46.67 4.85, 60 0 M36.51 8.55 C43.3 6.08, 50.1 3.61, 60 0" stroke="#a9a9b2" stroke-width="2" fill="none"></path></g><g transform="translate(508.7134094238281 357.2668304443358) rotate(0 30 0)"><path d="M36.51 -8.55 C41.59 -6.7, 46.67 -4.85, 60 0 M36.51 -8.55 C43.3 -6.08, 50.1 -3.61, 60 0" stroke="#a9a9b2" stroke-width="2" fill="none"></path></g></g><mask></mask><g stroke-linecap="round"><g transform="translate(572.4880850655692 71.89381844656799) rotate(0 228.11266217912947 0.1865059988839164)"><path d="M0 0 C76.04 0.06, 380.19 0.31, 456.23 0.37 M0 0 C76.04 0.06, 380.19 0.31, 456.23 0.37" stroke="#a9a9b2" stroke-width="2" fill="none"></path></g><g transform="translate(572.4880850655692 71.89381844656799) rotate(0 228.11266217912947 0.1865059988839164)"><path d="M432.73 8.9 C440.96 5.91, 449.2 2.92, 456.23 0.37 M432.73 8.9 C439.11 6.59, 445.49 4.27, 456.23 0.37" stroke="#a9a9b2" stroke-width="2" fill="none"></path></g><g transform="translate(572.4880850655692 71.89381844656799) rotate(0 228.11266217912947 0.1865059988839164)"><path d="M432.74 -8.2 C440.97 -5.19, 449.21 -2.19, 456.23 0.37 M432.74 -8.2 C439.12 -5.87, 445.49 -3.54, 456.23 0.37" stroke="#a9a9b2" stroke-width="2" fill="none"></path></g></g><mask></mask><g transform="translate(588.7134094238281 85.26683044433582) rotate(0 164.49609375 55.5)"><text x="0" y="13.5703125" font-family="Helvetica, Segoe UI Emoji" font-size="16px" fill="#a9a9b2" text-anchor="start" style="white-space: pre;" direction="ltr" dominant-baseline="alphabetic">OPTIONS / HTTP/2</text><text x="0" y="32.0703125" font-family="Helvetica, Segoe UI Emoji" font-size="16px" fill="#a9a9b2" text-anchor="start" style="white-space: pre;" direction="ltr" dominant-baseline="alphabetic">Host: localhost:8080</text><text x="0" y="50.5703125" font-family="Helvetica, Segoe UI Emoji" font-size="16px" fill="#a9a9b2" text-anchor="start" style="white-space: pre;" direction="ltr" dominant-baseline="alphabetic">Origin: https://jub0bs.github.io</text><text x="0" y="69.0703125" font-family="Helvetica, Segoe UI Emoji" font-size="16px" fill="#a9a9b2" text-anchor="start" style="white-space: pre;" direction="ltr" dominant-baseline="alphabetic">Access-Control-Request-Method: GET</text><text x="0" y="87.5703125" font-family="Helvetica, Segoe UI Emoji" font-size="16px" fill="#a9a9b2" text-anchor="start" style="white-space: pre;" direction="ltr" dominant-baseline="alphabetic">Access-Control-Request-Private-Network: true</text><text x="0" y="106.0703125" font-family="Helvetica, Segoe UI Emoji" font-size="16px" fill="#a9a9b2" text-anchor="start" style="white-space: pre;" direction="ltr" dominant-baseline="alphabetic">-snip-</text></g><g stroke-linecap="round"><g transform="translate(1027.7134094238281 232.3245725613075) rotate(0 -226.6097557431176 1.0237530605650136)"><path d="M0 0 C-75.54 0.34, -377.68 1.71, -453.22 2.05 M0 0 C-75.54 0.34, -377.68 1.71, -453.22 2.05" stroke="#a9a9b2" stroke-width="2" fill="none"></path></g><g transform="translate(1027.7134094238281 232.3245725613075) rotate(0 -226.6097557431176 1.0237530605650136)"><path d="M-429.77 -6.61 C-437.96 -3.58, -446.16 -0.56, -453.22 2.05 M-429.77 -6.61 C-434.55 -4.84, -439.33 -3.08, -453.22 2.05" stroke="#a9a9b2" stroke-width="2" fill="none"></path></g><g transform="translate(1027.7134094238281 232.3245725613075) rotate(0 -226.6097557431176 1.0237530605650136)"><path d="M-429.69 10.49 C-437.91 7.54, -446.13 4.59, -453.22 2.05 M-429.69 10.49 C-434.49 8.77, -439.28 7.05, -453.22 2.05" stroke="#a9a9b2" stroke-width="2" fill="none"></path></g></g><mask></mask><g transform="translate(767.7134094238281 248.26683044433582) rotate(0 117.05078125 18.599999999999994)"><text x="0" y="13.6203125" font-family="Helvetica, Segoe UI Emoji" font-size="16px" fill="#a9a9b2" text-anchor="start" style="white-space: pre;" direction="ltr" dominant-baseline="alphabetic">HTTP/2 405 Method Not Allowed</text><text x="0" y="32.220312500000006" font-family="Helvetica, Segoe UI Emoji" font-size="16px" fill="#a9a9b2" text-anchor="start" style="white-space: pre;" direction="ltr" dominant-baseline="alphabetic">-snip-</text></g><g transform="translate(512.7134094238281 316.2668304443358) rotate(0 11 21)"><text x="0" y="30.720703125" font-family="Helvetica, Segoe UI Emoji" font-size="36px" fill="#a9a9b2" text-anchor="start" style="white-space: pre;" direction="ltr" dominant-baseline="alphabetic">1</text></g><g transform="translate(987.7134094238281 192.26683044433582) rotate(0 11 21)"><text x="0" y="30.720703125" font-family="Helvetica, Segoe UI Emoji" font-size="36px" fill="#a9a9b2" text-anchor="start" style="white-space: pre;" direction="ltr" dominant-baseline="alphabetic">3</text></g><g transform="translate(588.7134094238281 32.266830444335824) rotate(0 11 21)"><text x="0" y="30.720703125" font-family="Helvetica, Segoe UI Emoji" font-size="36px" fill="#a9a9b2" text-anchor="start" style="white-space: pre;" direction="ltr" dominant-baseline="alphabetic">2</text></g><g stroke-linecap="round"><g transform="translate(558.8494698660714 221.56071472167946) rotate(0 11.787152971540195 12.623160226004472)"><path d="M0 0.73 C3.96 4.83, 19.09 20.73, 23.04 24.66 M-1.46 0.07 C2.36 4.32, 17.73 21.72, 21.82 25.88" stroke="#e03131" stroke-width="4" fill="none"></path></g></g><mask></mask><g stroke-linecap="round"><g transform="translate(584.0359087534695 219.2506644316402) rotate(0 -13.168204171316916 14.373779296875)"><path d="M-0.63 -0.16 C-5.04 4.71, -21.35 23.38, -25.74 28.18 M1.24 -1.29 C-3.35 3.82, -21.49 24.22, -26.38 29.42" stroke="#e03131" stroke-width="4" fill="none"></path></g></g><mask></mask></svg>