<svg version="1.1" xmlns="http://www.w3.org/2000/svg" viewBox="0 0 1204.8942260742188 380.3656141962856" width="2409.7884521484375" height="760.7312283925712">
  <!-- svg-source:excalidraw -->
  
  <defs>
    <style>
      @font-face {
        font-family: "Virgil";
        src: url("https://excalidraw.com/Virgil.woff2");
      }
      @font-face {
        font-family: "Cascadia";
        src: url("https://excalidraw.com/Cascadia.woff2");
      }
    </style>
  </defs>
  <g transform="translate(510.78321838378906 10) rotate(0 91.00054931640625 39.693817138671875)"><path d="M-1.4315885845571756 -0.21256515942513943 C65.87241073700196 -0.19822255229390606, 134.48726783138824 2.9288957371767665, 180.4048748072237 0.6797150019556284 M0.3372465195134282 -0.7732565673068166 C41.2905085220023 -1.930200234526232, 83.04331295155416 -1.1099660252271444, 182.25339068192991 0.389502945356071 M182.3523297365755 -1.723390256986022 C180.39876669647103 20.882860775973878, 180.2805967331112 42.108826545872255, 180.24373049102726 77.47006216086447 M182.68502439279112 -0.21964007336646318 C181.37231520506532 27.523258001524553, 181.76102388593347 54.17491137884477, 181.05973808187994 78.97248021047562 M183.11917919479313 78.25444164313376 C125.27481692390734 81.3223154477018, 67.52439348053619 81.3849767974752, -0.9814187232404947 81.32444473542273 M182.64883486647162 80.26336923521012 C130.02657285890754 80.0694074176424, 76.30938306356269 80.37343870030574, -0.6443162439391017 79.59822309296578 M-1.441159838810563 81.16105505265296 C1.0533726313961522 59.866743066871436, 1.306483338202335 43.2547678883409, -1.6195108238607645 0.5930214170366526 M0.8549291612580419 79.67317736428231 C0.19502084265664799 48.50331908794589, 1.630602616176164 18.76070976638242, -0.9441909966990352 0.9563983408734202" stroke="#000000" stroke-width="1" fill="none"></path></g><g transform="translate(563.2837677001953 35.484588623046875) rotate(0 38.5 12.5)"><text x="0" y="18" font-family="Virgil, Segoe UI Emoji" font-size="20px" fill="#000000" text-anchor="start" style="white-space: pre;" direction="ltr">encoding</text></g><g transform="translate(10 209.3129119873047) rotate(0 91.00054931640625 39.693817138671875)"><path d="M1.4990778919309378 1.9889213982969522 C64.57012999828338 1.6942721851463955, 131.3490430512911 -0.9882094017867404, 180.59083322249356 1.0783784929662943 M0.8162575634196401 -0.4311561705544591 C39.77566249875321 0.5559695270643228, 80.31340319611071 0.40175410181140836, 181.95136677939448 -0.6062963427975774 M181.98798755370083 -0.8848998006433249 C182.6300559861177 17.780670701528578, 183.08218231029448 37.97315198556083, 181.41742560826245 80.90706622041762 M182.6355067463592 -0.4859509887173772 C182.21418210265688 26.14442759544016, 181.56112795469812 52.36594978769096, 181.4479202302173 78.91296260338277 M182.8780717607588 79.75749337114394 C144.81918477886973 81.68618879446099, 103.60475542332341 81.25205544361184, -1.146860683336854 79.27558892406523 M181.004977372475 79.6182765243575 C131.65806215192413 79.94068991384546, 83.05262966605343 80.23838069281618, 0.23300689179450274 78.86330808978528 M1.1687811966985464 77.62478011287749 C0.6869238902192972 54.93617281220875, 0.15162727128085118 25.82733273871287, 1.1398566719144583 -1.9785900171846151 M-0.7991769937798381 80.31496753077954 C-1.0498458972444058 57.74925227164478, -0.3277493646611692 36.31368208544703, -0.019514593295753002 0.011067020706832409" stroke="#000000" stroke-width="1" fill="none"></path></g><g transform="translate(72.50054931640625 234.79750061035156) rotate(0 28.5 12.5)"><text x="0" y="18" font-family="Virgil, Segoe UI Emoji" font-size="20px" fill="#000000" text-anchor="start" style="white-space: pre;" direction="ltr">binary</text></g><g transform="translate(260.72328186035156 209.3129119873047) rotate(0 91.00054931640625 39.693817138671875)"><path d="M1.6325151268392801 -0.8623123411089182 C39.43615366445824 0.12502927433556255, 80.39646372612505 -0.1834015761702663, 181.90163492597642 -1.2125926855951548 M-0.006555539555847645 -0.4424499003216624 C45.44124294168075 -1.423631797854365, 90.60768747241686 -1.1287346289796245, 181.7092621205375 0.7597159715369344 M183.26991485990587 -0.9719019774347544 C182.87400572614274 26.49055688154311, 181.56789743022523 53.1353029567075, 180.89474182762208 78.43829092942178 M182.43958519678566 0.18492954690009356 C183.18119097273322 17.419788519234245, 181.8990916363475 34.0616880875767, 181.4276682911441 79.33161160070449 M180.00885611213747 79.84891877137125 C130.98996775253897 80.35593719306479, 83.45404486230083 80.95131875100623, 0.46601378358900547 78.3389819022268 M182.5854892311618 78.50620719511062 C123.4731283928995 80.747619117619, 64.04419631898044 79.09607272875448, 0.5699283359572291 78.39833926875144 M-1.5983539875596762 81.24230078421533 C-1.746369298199308 57.86816477756203, -0.3021762330328347 36.75431891678275, -0.039029186591506004 0.022134041413664818 M0.4963115928694606 78.84453367907554 C-0.08226851967328741 54.429787287757314, -0.3665632143353815 27.70827534010364, -0.45773826260119677 0.5163259776309133" stroke="#000000" stroke-width="1" fill="none"></path></g><g transform="translate(318.2238311767578 234.79750061035156) rotate(0 33.5 12.5)"><text x="0" y="18" font-family="Virgil, Segoe UI Emoji" font-size="20px" fill="#000000" text-anchor="start" style="white-space: pre;" direction="ltr">base64</text></g><g transform="translate(510.78321838378906 209.3129119873047) rotate(0 91.00054931640625 39.693817138671875)"><path d="M1.2390290852636099 1.1729747597128153 C48.90427270341468 -1.7742587276064716, 96.02646174087727 1.4314451865590252, 180.08190784417096 -1.2585585173219442 M-0.8137874035164714 -0.3317551435902715 C55.556274242202704 0.9219199890131007, 111.25659425736768 -0.9217037385469427, 182.27911886293444 0.3145282147452235 M182.96000394783917 -0.6815383490175009 C183.5225381181149 29.82945188451533, 183.0971295759587 55.44541686475226, 182.84863427840176 78.78078251518309 M181.4470311077312 0.6064967988058925 C182.500698795068 19.38962841534629, 181.37718661640855 36.824969313808076, 182.75529706198725 79.30000897031277 M182.85809329710904 79.37707453407347 C121.32513700620981 81.07837085183714, 62.7177540643096 79.14631460364912, 0.3226876016706228 79.84085451997817 M181.95359718520197 78.44525666814297 C115.20269564589496 77.0792679710284, 47.247933823690005 77.84837808441074, -0.46122321765869856 79.68169467430562 M-0.13561155833303928 81.28210198320448 C-0.13120385588948746 52.63365426799344, 0.3127761822765587 23.498506494799003, -0.7599092368036509 -1.5787697490304708 M-0.8743809191510081 80.14628593903035 C1.6627281586003193 59.01828704182264, 0.5650624612641224 38.935014516380065, 0.6657213540747762 -0.9645174564793706" stroke="#000000" stroke-width="1" fill="none"></path></g><g transform="translate(586.2837677001953 234.79750061035156) rotate(0 15.5 12.5)"><text x="0" y="18" font-family="Virgil, Segoe UI Emoji" font-size="20px" fill="#000000" text-anchor="start" style="white-space: pre;" direction="ltr">csv</text></g><g transform="translate(762.1698455810547 209.3129119873047) rotate(0 91.00054931640625 39.693817138671875)"><path d="M-0.3050724919885397 1.845739221200347 C54.28777236766195 -1.2377102278145808, 109.7756920716728 1.232854435595606, 183.1840065661818 0.14885166846215725 M0.731177288107574 0.6588742407038808 C66.21075342722186 -0.16879132932354524, 131.8083286431794 0.31677776032756255, 181.33039300423118 0.36860274989157915 M182.41504895128313 1.7958228942006826 C179.72816349350313 30.03566264875861, 183.06963439070086 60.52993317419056, 182.47870724834505 78.03311464749277 M181.13641493301841 0.8531272383406758 C181.64619447050958 23.63570136958053, 182.50261632858187 47.723814631984936, 182.69826473575088 80.29258921463042 M182.9819511715323 78.12053081952035 C143.7979022238701 77.94361344426999, 105.37428456588071 78.26061746925244, 1.178843492642045 79.34186760149896 M181.92641343455765 80.25842931587249 C138.49734826255224 81.66261649143435, 94.31903363223381 80.3222254217837, -0.3972777249291539 78.39457422215492 M1.7487225476652384 79.97373262606561 C0.24754147927932368 57.33096445324283, 2.0255930344360316 29.856567480981568, -0.44428343139588833 1.9944830890744925 M0.98468719702214 79.22332173306495 C1.2211596657214085 56.341301245482356, 1.2341996420798222 33.19554498672056, -0.2941555203869939 0.8188753994181752" stroke="#000000" stroke-width="1" fill="none"></path></g><g transform="translate(834.1703948974609 234.79750061035156) rotate(0 19 12.5)"><text x="0" y="18" font-family="Virgil, Segoe UI Emoji" font-size="20px" fill="#000000" text-anchor="start" style="white-space: pre;" direction="ltr">json</text></g><g transform="translate(1012.8931274414062 209.3129119873047) rotate(0 91.00054931640625 39.693817138671875)"><path d="M1.394332205876708 1.80990987457335 C50.705076595646894 -0.5074358056315815, 103.2062869125411 0.5684196283093059, 180.73399517498913 -0.3510125931352377 M0.5894217463210225 -0.022883337922394276 C56.46590222820428 -0.6029989322811287, 115.08224801312709 -0.6098783513694923, 182.87189367134127 0.14730482082813978 M181.20654318295422 -1.9861201103776693 C181.69561360945937 26.441836275297213, 183.216764973309 58.1299187748637, 182.5871969815344 78.9410254303366 M181.77895691711458 0.9972415445372462 C182.37619542410422 29.793034530428834, 182.72584494283248 62.46521892714806, 181.83678608853373 79.85680939536542 M181.41278759203854 81.0253850761801 C135.42100804302459 76.93429248747296, 90.06488485082215 78.42243658718533, -0.8345741275697947 77.65992235578597 M182.608709868975 79.38961507659405 C112.29354697786209 79.65266691340543, 43.633349487444974 79.90341879619695, 0.32180961687117815 79.45965026598424 M-0.28631200827658176 78.82068275846541 C0.11610668741910735 53.62108698042891, 1.4292540534660128 26.488380011596526, -1.9007639531046152 0.22321968711912632 M0.08237322885543108 79.6257643578574 C0.7852140343859247 59.58115672929745, 0.12323444849992315 39.16873885140888, 0.8846119614318013 -0.8960097255185246" stroke="#000000" stroke-width="1" fill="none"></path></g><g transform="translate(1089.3936767578125 234.79750061035156) rotate(0 14.5 12.5)"><text x="0" y="18" font-family="Virgil, Segoe UI Emoji" font-size="20px" fill="#000000" text-anchor="start" style="white-space: pre;" direction="ltr">xml</text></g><g><g transform="translate(400.53887939453125 207.08773803710938) rotate(0 62.61815186025575 -57.287136528827205)"><path d="M0.5574672069400548 0.6995462033897637 C21.548708514434598 -18.356217737061264, 104.85548691532266 -96.31570050797107, 125.8453049592674 -115.27381926104417 M-0.6090012387558819 0.021204014830291218 C20.21519986731311 -18.8521229384591, 103.69389568167429 -95.21613994794579, 124.78952100496741 -114.36107727568587" stroke="#000000" stroke-width="1" fill="none"></path></g><g transform="translate(400.53887939453125 207.08773803710938) rotate(0 62.61815186025575 -57.287136528827205)"><path d="M112.03345666573318 -88.1290826854857 C113.15050859190647 -94.85465139572126, 120.91635334967437 -101.56340202101143, 124.10292703095826 -112.93879667166611 M110.63677606386068 -87.29841567311458 C113.21954654542989 -94.94945259500491, 116.77592310814633 -100.82886071176156, 125.35464944779875 -115.04601336419573" stroke="#000000" stroke-width="1" fill="none"></path></g><g transform="translate(400.53887939453125 207.08773803710938) rotate(0 62.61815186025575 -57.287136528827205)"><path d="M98.20912821597176 -103.29509552007596 C103.23710344832654 -105.66417382096422, 115.03257534096275 -107.9522122888345, 124.10292703095826 -112.93879667166611 M96.81244761409926 -102.46442850770484 C102.9057579699368 -106.29364075302185, 109.85395884251163 -108.45203983827828, 125.35464944779875 -115.04601336419573" stroke="#000000" stroke-width="1" fill="none"></path></g></g><g><g transform="translate(803.0621337890625 209.39517211914062) rotate(0 -70.33789102273067 -57.93257078002193)"><path d="M-0.417461672052741 -0.8923716578632592 C-23.76609642766416 -20.568308702483773, -117.84990822337566 -97.958095196262, -141.04401302598416 -117.11867083646356 M1.5642322207801045 1.2535292764194312 C-21.900431893337515 -18.355572221111505, -118.67460302459075 -96.06084464950487, -142.24001426624133 -115.91453929049894" stroke="#000000" stroke-width="1" fill="none"></path></g><g transform="translate(803.0621337890625 209.39517211914062) rotate(0 -70.33789102273067 -57.93257078002193)"><path d="M-115.4225419458989 -106.75983693007255 C-121.31639081348227 -106.61543576955202, -125.45708293300112 -110.79696891450565, -141.40898432025685 -117.26801667353138 M-113.06159112481959 -105.30275261051828 C-120.20995462645 -108.58906557434119, -125.1464262693228 -110.42259325254726, -142.2814685041271 -114.9520562746562" stroke="#000000" stroke-width="1" fill="none"></path></g><g transform="translate(803.0621337890625 209.39517211914062) rotate(0 -70.33789102273067 -57.93257078002193)"><path d="M-128.43510417472024 -90.89184314929196 C-131.58163222025993 -94.20344015961649, -132.85110735536742 -101.88624019196297, -141.40898432025685 -117.26801667353138 M-126.07415335364092 -89.43475882973769 C-130.5215474186583 -96.23228790213636, -132.6647140594089 -101.47207375010743, -142.2814685041271 -114.9520562746562" stroke="#000000" stroke-width="1" fill="none"></path></g></g><g><g transform="translate(1107.8009271435812 210.7685030672701) rotate(0 -206.17805179392917 -78.45602552425112)"><path d="M-0.8831695351749658 -0.27663243077695365 C-69.65613330628103 -26.259949567106894, -343.7430744049761 -130.79021297736728, -412.4069511857257 -156.63541861772555 M0.8540277295187115 -1.467468402273953 C-68.07301085948325 -27.216320191075432, -344.11304508280637 -129.34480252275878, -413.21013131737715 -155.30355356540548" stroke="#000000" stroke-width="1" fill="none"></path></g><g transform="translate(1107.8009271435812 210.7685030672701) rotate(0 -206.17805179392917 -78.45602552425112)"><path d="M-383.67202453842486 -154.6192767224636 C-393.43897792200175 -155.67749368609833, -400.86986805645734 -154.0170663945303, -411.4650520626456 -154.5828484194355 M-382.8476985382485 -155.5789222089004 C-393.6462100670212 -154.38192211263794, -405.31495847376567 -156.06588960739228, -414.03113091271376 -155.7750200591983" stroke="#000000" stroke-width="1" fill="none"></path></g><g transform="translate(1107.8009271435812 210.7685030672701) rotate(0 -206.17805179392917 -78.45602552425112)"><path d="M-390.83472803562864 -135.3886844019711 C-398.1972189018698 -142.53328216034384, -403.3415165564079 -147.01195134283236, -411.4650520626456 -154.5828484194355 M-390.0104020354523 -136.34832988840787 C-398.1202536711451 -142.0658406664427, -407.22543428260053 -150.63253437992074, -414.03113091271376 -155.7750200591983" stroke="#000000" stroke-width="1" fill="none"></path></g></g><g><g transform="translate(261.416748046875 247.26791381835938) rotate(0 -34.916105110514906 1.2451403634333928)"><path d="M-0.8341664817184209 1.1497609701007605 C-12.631903384750089 1.6892305976400772, -58.443357366944355 2.184119574849804, -69.87161070369184 2.064817306026816 M0.9287573860399427 0.7077815340645612 C-11.09726531661426 1.0234175821828346, -58.9620020371365 0.30724472946797793, -70.76096760706976 0.41773435043171037" stroke="#000000" stroke-width="1" fill="none"></path></g><g transform="translate(261.416748046875 247.26791381835938) rotate(0 -34.916105110514906 1.2451403634333928)"><path d="M-40.61314939865662 -9.54383868934192 C-51.740706324753944 -5.1422314488301435, -65.08049824685074 -3.529752127397912, -69.78988158741966 -0.2890111195109786 M-41.578436881953905 -8.935944932751136 C-52.873163533644174 -6.140972241545567, -60.61627451500489 -3.00867545620215, -70.97566557621583 0.7320657003484665" stroke="#000000" stroke-width="1" fill="none"></path></g><g transform="translate(261.416748046875 247.26791381835938) rotate(0 -34.916105110514906 1.2451403634333928)"><path d="M-40.695142042988415 10.977206108428854 C-51.59142824727049 7.658663901098351, -64.90037173027235 1.5504238120578933, -69.78988158741966 -0.2890111195109786 M-41.660429526285704 11.585099865019638 C-52.82635370502126 7.517113112366518, -60.54204052301433 3.7857151163639395, -70.97566557621583 0.7320657003484665" stroke="#000000" stroke-width="1" fill="none"></path></g></g><g><g transform="translate(849.220458984375 291.1281433105469) rotate(0 -241.65960055308415 38.97677609031098)"><path d="M-0.24581542275846002 -0.15627197362482548 C-39.01575488112867 12.9876674618572, -153.0506819671641 79.06075264674922, -233.7029129650444 79.23747088573873 C-314.35514396292467 79.41418912472824, -442.53775158586603 13.98081768018504, -484.1592014100403 0.9040374603122474 M1.825992750953883 -1.2839187051169576 C-37.025069726277145 11.450777299869806, -153.5964243870663 77.21840154595051, -234.75828882174565 77.28949205802753 C-315.920153256425 77.36058257010455, -443.7677382397341 12.235048812696089, -485.1451938571222 -0.8573756326548756" stroke="#000000" stroke-width="1" fill="none"></path></g><g transform="translate(849.220458984375 291.1281433105469) rotate(0 -241.65960055308415 38.97677609031098)"><path d="M-455.41868028984186 -0.3139018945632055 C-460.8957848478555 -0.9193858292880672, -465.8943715333854 0.10782166074744948, -483.5125115392543 -1.649209832455963 M-454.5962871472236 -0.5745145695520117 C-465.6906891011128 -1.1606185863284169, -477.536445812777 -0.8515033528701754, -485.1344003025256 -1.8417017000354827" stroke="#000000" stroke-width="1" fill="none"></path></g><g transform="translate(849.220458984375 291.1281433105469) rotate(0 -241.65960055308415 38.97677609031098)"><path d="M-463.0026539313822 18.75448414595582 C-466.9485980538261 14.16538063419592, -470.3566208352044 11.19343306647236, -483.5125115392543 -1.649209832455963 M-462.180260788764 18.493871470967015 C-470.4814431005127 10.874737803909637, -479.5319968675083 4.155873863153477, -485.1344003025256 -1.8417017000354827" stroke="#000000" stroke-width="1" fill="none"></path></g></g></svg>