<svg version="1.1" xmlns="http://www.w3.org/2000/svg" viewBox="0 0 648.7124328613281 251.0994623388437" width="1297.4248657226562" height="502.1989246776874">
  <!-- svg-source:excalidraw -->
  
  <defs>
    <style>
      @font-face {
        font-family: "Virgil";
        src: url("https://excalidraw.com/Virgil.woff2");
      }
      @font-face {
        font-family: "Cascadia";
        src: url("https://excalidraw.com/Cascadia.woff2");
      }
    </style>
  </defs>
  <rect x="0" y="0" width="648.7124328613281" height="251.0994623388437" fill="#ffffff"></rect><g transform="translate(10 84.01275723314853) rotate(0 110.87936401367188 43.93699645996094)"><path d="M0.3963711138181081 0.4024924625284832 C48.16339912194263 1.9744550580929499, 97.53082815038002 1.921687782059671, 223.03744266230865 0.909103399439651 M0.42846472051753365 0.10342694000265881 C68.46485546893108 -1.7237147506382424, 136.0263985461208 -2.271374284034198, 221.70812567451105 -0.06404418089594109 M221.67556259967387 1.5216409470885992 C221.37574785547662 32.19776915029617, 223.69940077858377 65.64140490660432, 219.89328650571406 89.14630233310163 M221.41410433780402 0.669882227666676 C222.2303222890793 24.213905352632295, 222.2946697052418 49.142256366086684, 222.66393979918212 87.35143132973462 M222.6940929681403 87.75133127475672 C168.45473458743237 87.42082412414732, 112.34165679258432 88.17765324434842, -0.09925657425907848 88.50384804402636 M222.00711201857408 87.64327701388771 C138.722684191211 89.78666305365275, 55.73807713643889 88.99770543636156, 0.0445676996041459 88.57210572283041 M0.33139787055552006 88.78060250543058 C-0.7706528879424909 57.49256585379497, -1.0744757033607342 30.97679749744745, 0.5065383110195398 -0.8891887757927179 M0.8321078373119235 88.55140780378133 C0.1662391419114997 52.919500409209164, -0.21577689102268915 17.611923344532016, 0.479181076399982 0.549738903529942" stroke="#000000" stroke-width="1" fill="none"></path></g><g transform="translate(104.37936401367188 115.44975369310947) rotate(0 16.5 12.5)"><text x="16.5" y="18" font-family="Virgil, Segoe UI Emoji" font-size="20px" fill="#000000" text-anchor="middle" style="white-space: pre;" direction="ltr">foo</text></g><g transform="translate(416.9537048339844 82.54264920092197) rotate(0 110.87936401367188 43.93699645996094)"><path d="M-1.3217547194452142 1.308356165923451 C73.58147696796387 -0.7151019579538074, 143.41385099488036 -1.7865404663892623, 220.22451354961322 -0.41244920751366876 M0.3645148824335252 0.06801007809104571 C77.98345846950531 -1.0192672801000546, 154.8900881294614 -1.1988639085350647, 221.19116807128339 0.08519438419080165 M220.01727460883558 -1.697964807972312 C223.98640500917782 22.495338629013293, 223.72905247822155 40.57253221797644, 220.04630344174802 87.42682162858546 M221.90125002432615 -0.32068366277962923 C221.92282561643094 19.64325559858891, 221.3133880017516 39.66743179080462, 222.5156556861475 87.52901103626937 M223.07036899464364 88.95002855405401 C170.45024375883713 89.80636378371267, 115.28026762130723 88.22871213145211, -1.032530934328704 89.35097191219559 M220.89574544258076 87.40865276713389 C137.34269519801265 87.8739621816033, 50.849375092953764 88.91800859223656, -0.4993312087302013 87.25225987737079 M-1.808766731992364 88.89507291652262 C0.9095374053184045 55.94220070171856, -0.9006982738312231 27.628223521704548, 1.034268906340003 1.19437793828547 M0.09515925217419863 87.30625462066382 C1.3362284703095852 53.173938041045844, -0.3230920331636966 19.766348138368784, 0.667338122613728 -0.9214833127334714" stroke="#000000" stroke-width="1" fill="none"></path></g><g transform="translate(511.83306884765625 113.97964566088291) rotate(0 16 12.5)"><text x="16" y="18" font-family="Virgil, Segoe UI Emoji" font-size="20px" fill="#000000" text-anchor="middle" style="white-space: pre;" direction="ltr">bar</text></g><g><g transform="translate(529.4400024414062 79.38247769213291) rotate(0 -194.7422438414954 -34.36699209063784)"><path d="M-0.7905233267694711 0.6484935108572245 C-10.137049214417734 -5.172138028964399, -40.446817760045334 -25.19762180012961, -56.63192002810538 -34.22872989736497 C-72.81702229616542 -43.25983799460033, -83.53728494681417 -47.913204532489175, -97.90113693512976 -53.53815507255494 C-112.26498892344534 -59.16310561262071, -127.75013410684964 -65.50413173201184, -142.81503195799888 -67.97843313775957 C-157.8799298091481 -70.45273454350729, -177.62545109627146 -68.57219172877569, -188.2905240420252 -68.38396350704133 C-198.95559698777893 -68.19573528530697, -189.53370710648596 -69.58952197395264, -206.80546963252127 -66.84906380735337 C-224.07723215855657 -64.1086056407541, -265.81735208866496 -59.40198631845415, -291.9210991982371 -51.94121450744569 C-318.0248463078092 -44.48044269643724, -347.00150200960536 -30.363245854402585, -363.42795228995385 -22.08443294130266 C-379.85440257030234 -13.805620028202734, -386.08426681396867 -5.376653446381291, -390.47980088032784 -2.268337028846145 M0.995313197337091 -0.05665134128183125 C-8.440719091134767 -6.2907570367679, -40.87300728602956 -27.302230584782862, -57.45907763246447 -36.03344991501421 C-74.04514797889938 -44.76466924524556, -84.40792894367128 -47.199576821886, -98.52110888127237 -52.44396732266992 C-112.63428881887346 -57.68835782345384, -127.45691558086624 -64.87266398763906, -142.138157258071 -67.49979291971773 C-156.81939893527579 -70.12692185179641, -176.0859624775623 -68.12707801954201, -186.60855894450097 -68.206740915142 C-197.13115541143964 -68.286403810742, -187.84984868649394 -70.9897305386886, -205.27373605970294 -67.97777029331773 C-222.69762343291194 -64.96581004794686, -264.64498045766106 -57.70098612841218, -291.151883183755 -50.13497944291681 C-317.6587859098489 -42.568972757421434, -347.99132849418874 -30.35748317575703, -364.3151524162665 -22.581730180345474 C-380.6389763383443 -14.80597718493392, -384.9340059145664 -6.522778402728338, -389.09482671622186 -3.4804614704474806" stroke="#000000" stroke-width="1" fill="none"></path></g></g><g><g transform="translate(137.41314697265625 81.13281338549228) rotate(0 0.8116364065464836 -14.646703311717133)"><path d="M0.33955903686583033 -1.1457314494997262 C0.5670219286034504 -6.017045621449749, 2.148054423307379 -25.327738722537955, 2.5645840112119913 -30.160562217608096 M-0.9413111981190742 0.8671555941738189 C-0.9770975731251141 -3.779513560986768, 1.0889341461223863 -23.982638719336443, 1.6150691769085825 -28.991128877457232" stroke="#000000" stroke-width="1" fill="none"></path></g></g><g><g transform="translate(140.29095458984375 80.25460903978916) rotate(0 16.606021326407813 -4.694510652981705)"><path d="M-1.1874679449945689 -1.0651728328317402 C4.468469953164458 -2.50961418710649, 28.40836571417749 -7.092227881774306, 34.39951059781015 -8.560273438319564 M0.38997265454381713 0.9900074845924975 C5.903490791283549 -0.8187373405322431, 28.10030949946493 -8.723768271766604, 33.78861298318952 -10.379028790555894" stroke="#000000" stroke-width="1" fill="none"></path></g></g><g><g transform="translate(125.05084228515625 176.62756436205478) rotate(0 188.5010803833958 31.790453830379647)"><path d="M-1.0477822836488484 0.10138598643243313 C-1.1118089294681945 0.548032299305002, -0.7011071181545654 1.1235227461904291, 0.6769989315420388 2.676624416932464 C2.0551049812386433 4.229726087674499, 2.040499709422389 5.811445045098662, 7.220854014530778 9.419996010884642 C12.401208319639167 13.028546976670622, 18.77347858188053 17.24743316533665, 31.759124762192368 24.327930211648344 C44.7447709425042 31.40842725796004, 73.66001008190214 46.659277430797616, 85.13473109640181 51.902978288754824 C96.60945211090147 57.14667914671203, 93.84215963917474 53.792221168304486, 100.60745084919036 55.79013535939157 C107.37274205920598 57.788049550478654, 112.00817595161499 62.832189670826, 125.7264783564955 63.89046343527734 C139.44478076137602 64.94873719972868, 151.82187127508223 64.71096394422153, 182.9172652784735 62.13977794609964 C214.01265928186479 59.568591947977744, 286.8540199422588 51.73814278406402, 312.2988423768431 48.46334744654596 C337.7436648114274 45.1885521090279, 324.66593990561864 50.54334451717635, 335.5861998859793 42.4910059209913 C346.5064598663399 34.43866732480625, 370.7269854132086 6.878825409834583, 377.8204022590071 0.149315869435668 M0.6029932880960405 -0.8909903160296381 C0.32335217739765837 -0.3401781791013976, -1.0260962561207512 1.652843980435282, -0.05949721509590744 3.6111300566233693 C0.9071018259289364 5.569416132811456, 1.0857979427340139 7.202465230468659, 6.402587534245104 10.858726141098886 C11.719377125756193 14.514987051729113, 18.42884657706444 18.605928688092778, 31.841240333970635 25.548695520404728 C45.25363409087683 32.491462352716674, 75.1973890430294 47.139110004349305, 86.87695007568226 52.515327134970576 C98.55651110833512 57.89154426559185, 95.38031755254293 56.03285736445959, 101.91860652988777 57.80599830413237 C108.4568955072326 59.57913924380516, 112.79800055449829 62.53559545104081, 126.10668393975124 63.1541727730073 C139.41536732500418 63.772750094973794, 151.0122880244814 64.1678741908508, 181.77070684140548 61.517462235931305 C212.52912565832958 58.86705028101181, 284.86853498365105 50.39370583161091, 310.6571968412958 47.25170104349032 C336.4458586989405 44.109696255369734, 325.2698080417079 50.42214168354248, 336.5026779872738 42.66543350720778 C347.73554793283967 34.90872533087308, 371.3350030726753 7.439265527569999, 378.05441651469096 0.7114519854821264" stroke="#000000" stroke-width="1" fill="none"></path></g></g><g><g transform="translate(504.89862060546875 177.60302822924228) rotate(0 -0.6801145093980949 12.695242887362838)"><path d="M0.6672648970037698 -0.8561567310243845 C0.406758835290869 3.677797448262573, -1.1040594593932231 21.85613124333322, -1.3201277311891317 26.24664250575006 M-0.44155976140871656 1.308757039848715 C-0.8412284046846132 5.625736591760068, -1.9691875962850949 21.075835335794835, -2.0274939158000054 24.753545154277234" stroke="#000000" stroke-width="1" fill="none"></path></g></g><g><g transform="translate(503.39410400390625 177.72229092455478) rotate(0 -17.861840972537152 1.7190421518124595)"><path d="M0.07136481441557407 0.8509566541761158 C-5.736421876773238 1.117604060595234, -29.32977470718324 1.735198465610544, -35.12454450689256 1.940214478597045 M-1.350307387355715 0.2521049522794785 C-7.245548534039408 0.6447311653134726, -30.193251066450028 2.6978602984982234, -35.79504675948992 3.1859793513454497" stroke="#000000" stroke-width="1" fill="none"></path></g></g></svg>