<svg version="1.1" xmlns="http://www.w3.org/2000/svg" viewBox="0 0 938.6703796386719 532.8246917724609" width="1877.3407592773438" height="1065.6493835449219">
  <!-- svg-source:excalidraw -->
  
  <defs>
    <style class="style-fonts">
      
    </style>
    
  </defs>
  <g stroke-linecap="round"><g transform="translate(66.47048950195312 423.34010314941406) rotate(0 399.5576477050781 -156.8719940185547)"><path d="M0.35 -0.58 C22.63 -4.51, 95.15 -11.17, 132.62 -23.18 C170.08 -35.2, 190.71 -40.99, 225.13 -72.68 C259.56 -104.37, 303.47 -183.26, 339.14 -213.32 C374.82 -243.38, 415.72 -256.15, 439.17 -253.05 C462.62 -249.94, 459.67 -204.52, 479.83 -194.69 C499.99 -184.85, 533.55 -177.46, 560.13 -194.06 C586.71 -210.67, 599.55 -274.54, 639.31 -294.32 C679.08 -314.1, 771.94 -309.65, 798.72 -312.73" stroke="#1e1e1e" stroke-width="2.5" fill="none" stroke-dasharray="8 10"></path></g></g><mask></mask><g transform="translate(70.24661254882812 392.414013671875) rotate(0 22.84765625 9.199999999999989)"><text x="0" y="13.5203125" font-family="Helvetica, Segoe UI Emoji" font-size="16px" fill="#1e1e1e" text-anchor="start" style="white-space: pre;" direction="ltr" dominant-baseline="alphabetic">basics</text></g><g transform="translate(85.58578491210938 369.5961151123047) rotate(0 32.01953125 9.199999999999989)"><text x="0" y="13.5203125" font-family="Helvetica, Segoe UI Emoji" font-size="16px" fill="#1e1e1e" text-anchor="start" style="white-space: pre;" direction="ltr" dominant-baseline="alphabetic">functions</text></g><g transform="translate(269.9027404785156 242.3275115966797) rotate(0 20.00390625 9.200000000000003)"><text x="0" y="13.5203125" font-family="Helvetica, Segoe UI Emoji" font-size="16px" fill="#1e1e1e" text-anchor="start" style="white-space: pre;" direction="ltr" dominant-baseline="alphabetic">slices</text></g><g transform="translate(365.5857849121094 168.5961151123047) rotate(0 30.91015625 9.200000000000003)"><text x="0" y="13.5203125" font-family="Helvetica, Segoe UI Emoji" font-size="16px" fill="#1e1e1e" text-anchor="start" style="white-space: pre;" direction="ltr" dominant-baseline="alphabetic">methods</text></g><g transform="translate(410.5857849121094 144.5961151123047) rotate(0 34.91015625 9.200000000000003)"><text x="0" y="13.5203125" font-family="Helvetica, Segoe UI Emoji" font-size="16px" fill="#1e1e1e" text-anchor="start" style="white-space: pre;" direction="ltr" dominant-baseline="alphabetic">interfaces</text></g><g transform="translate(565.5857849121094 163.5961151123047) rotate(0 37.359375 9.200000000000003)"><text x="0" y="13.5203125" font-family="Helvetica, Segoe UI Emoji" font-size="16px" fill="#1e1e1e" text-anchor="start" style="white-space: pre;" direction="ltr" dominant-baseline="alphabetic">goroutines</text></g><g transform="translate(585.5857849121094 135.5961151123047) rotate(0 32.0234375 9.200000000000003)"><text x="0" y="13.5203125" font-family="Helvetica, Segoe UI Emoji" font-size="16px" fill="#1e1e1e" text-anchor="start" style="white-space: pre;" direction="ltr" dominant-baseline="alphabetic">channels</text></g><g transform="translate(709.5857849121094 95.59611511230469) rotate(0 20.96875 9.200000000000003)"><text x="0" y="13.5203125" font-family="Helvetica, Segoe UI Emoji" font-size="16px" fill="#1e1e1e" text-anchor="start" style="white-space: pre;" direction="ltr" dominant-baseline="alphabetic">select</text></g><g stroke-linecap="round"><g transform="translate(46.660552978515625 432.9075469970703) rotate(0 -1.3100811246675335 -194.38498687744143)"><path d="M0.24 0.98 C-0.46 -63.68, -2.72 -322.94, -3.28 -387.78 M-1.09 0.45 C-1.48 -64.54, -0.41 -324.3, -0.92 -389.39" stroke="#1e1e1e" stroke-width="1" fill="none"></path></g><g transform="translate(46.660552978515625 432.9075469970703) rotate(0 -1.3100811246675335 -194.38498687744143)"><path d="M7.66 -365.91 C6.03 -375.85, 2.81 -384.46, -0.92 -389.39 M7.66 -365.91 C4.92 -374.3, 2.58 -382.22, -0.92 -389.39" stroke="#1e1e1e" stroke-width="1" fill="none"></path></g><g transform="translate(46.660552978515625 432.9075469970703) rotate(0 -1.3100811246675335 -194.38498687744143)"><path d="M-9.44 -365.89 C-4.63 -375.87, -1.4 -384.49, -0.92 -389.39 M-9.44 -365.89 C-6.1 -374.33, -2.35 -382.25, -0.92 -389.39" stroke="#1e1e1e" stroke-width="1" fill="none"></path></g></g><mask></mask><g stroke-linecap="round"><g transform="translate(46.926361083984375 434.1482391357422) rotate(0 409.3297119140625 -2.27606201171875)"><path d="M0.91 -1.18 C137.41 -1.73, 682.91 -3.4, 819.06 -3.91 M-0.08 0.82 C136.3 -0.03, 681.59 -5.1, 818.32 -5.7" stroke="#1e1e1e" stroke-width="1" fill="none"></path></g><g transform="translate(46.926361083984375 434.1482391357422) rotate(0 409.3297119140625 -2.27606201171875)"><path d="M794.89 3.02 C800.07 0.86, 810.2 -3.85, 818.32 -5.7 M794.89 3.02 C801.75 1.2, 809.11 -1.67, 818.32 -5.7" stroke="#1e1e1e" stroke-width="1" fill="none"></path></g><g transform="translate(46.926361083984375 434.1482391357422) rotate(0 409.3297119140625 -2.27606201171875)"><path d="M794.77 -14.08 C799.9 -11.06, 810.07 -10.58, 818.32 -5.7 M794.77 -14.08 C801.73 -10.36, 809.13 -7.69, 818.32 -5.7" stroke="#1e1e1e" stroke-width="1" fill="none"></path></g></g><mask></mask><g transform="translate(10 10) rotate(0 36.123046875 11.5)"><text x="0" y="16.900390625" font-family="Helvetica, Segoe UI Emoji" font-size="20px" fill="#1e1e1e" text-anchor="start" style="white-space: pre;" direction="ltr" dominant-baseline="alphabetic">difficulty</text></g><g transform="translate(890.8871765136719 416.3210906982422) rotate(0 18.8916015625 11.5)"><text x="0" y="16.900390625" font-family="Helvetica, Segoe UI Emoji" font-size="20px" fill="#1e1e1e" text-anchor="start" style="white-space: pre;" direction="ltr" dominant-baseline="alphabetic">time</text></g><g transform="translate(104.87680053710938 453.82469177246094) rotate(0 60.0390625 23)"><text x="60.0390625" y="16.900390625" font-family="Helvetica, Segoe UI Emoji" font-size="20px" fill="#1e1e1e" text-anchor="middle" style="white-space: pre;" direction="ltr" dominant-baseline="alphabetic">day 1:</text><text x="60.0390625" y="39.900390625" font-family="Helvetica, Segoe UI Emoji" font-size="20px" fill="#1e1e1e" text-anchor="middle" style="white-space: pre;" direction="ltr" dominant-baseline="alphabetic">fundamentals</text></g><g transform="translate(335.9258728027344 453.82469177246094) rotate(0 85.6103515625 34.5)"><text x="85.6103515625" y="16.900390625" font-family="Helvetica, Segoe UI Emoji" font-size="20px" fill="#1e1e1e" text-anchor="middle" style="white-space: pre;" direction="ltr" dominant-baseline="alphabetic">day 2:</text><text x="85.6103515625" y="39.900390625" font-family="Helvetica, Segoe UI Emoji" font-size="20px" fill="#1e1e1e" text-anchor="middle" style="white-space: pre;" direction="ltr" dominant-baseline="alphabetic">data structures</text><text x="85.6103515625" y="62.900390625" font-family="Helvetica, Segoe UI Emoji" font-size="20px" fill="#1e1e1e" text-anchor="middle" style="white-space: pre;" direction="ltr" dominant-baseline="alphabetic">&amp; object orientation</text></g><g transform="translate(608.0468444824219 453.82469177246094) rotate(0 117.8125 23)"><text x="117.8125" y="16.900390625" font-family="Helvetica, Segoe UI Emoji" font-size="20px" fill="#1e1e1e" text-anchor="middle" style="white-space: pre;" direction="ltr" dominant-baseline="alphabetic">day 3:</text><text x="117.8125" y="39.900390625" font-family="Helvetica, Segoe UI Emoji" font-size="20px" fill="#1e1e1e" text-anchor="middle" style="white-space: pre;" direction="ltr" dominant-baseline="alphabetic">concurrency &amp; Web server</text></g><g stroke-linecap="round"><g transform="translate(265.5857849121094 427.5961151123047) rotate(0 0 -10)"><path d="M-0.39 -0.27 C-0.43 -3.67, -0.1 -17.19, 0.05 -20.42 M0.41 0.77 C0.28 -2.56, -0.35 -16.39, -0.36 -19.93" stroke="#1e1e1e" stroke-width="2" fill="none"></path></g></g><mask></mask><g transform="translate(186.58578491210938 292.8961151123047) rotate(0 23.5703125 9.199999999999989)"><text x="0" y="13.5203125" font-family="Helvetica, Segoe UI Emoji" font-size="16px" fill="#1e1e1e" text-anchor="start" style="white-space: pre;" direction="ltr" dominant-baseline="alphabetic">testing</text></g><g transform="translate(207.58578491210938 266.5961151123047) rotate(0 42.2265625 9.199999999999989)"><text x="0" y="13.5203125" font-family="Helvetica, Segoe UI Emoji" font-size="16px" fill="#1e1e1e" text-anchor="start" style="white-space: pre;" direction="ltr" dominant-baseline="alphabetic">HTTP client</text></g><g transform="translate(145.58578491210938 321.5961151123047) rotate(0 34.41796875 9.199999999999989)"><text x="0" y="13.5203125" font-family="Helvetica, Segoe UI Emoji" font-size="16px" fill="#1e1e1e" text-anchor="start" style="white-space: pre;" direction="ltr" dominant-baseline="alphabetic">packages</text></g><g transform="translate(305.5857849121094 222.5961151123047) rotate(0 19.7890625 9.200000000000003)"><text x="0" y="13.5203125" font-family="Helvetica, Segoe UI Emoji" font-size="16px" fill="#1e1e1e" text-anchor="start" style="white-space: pre;" direction="ltr" dominant-baseline="alphabetic">maps</text></g><g transform="translate(330.5857849121094 198.5961151123047) rotate(0 23.55859375 9.200000000000003)"><text x="0" y="13.5203125" font-family="Helvetica, Segoe UI Emoji" font-size="16px" fill="#1e1e1e" text-anchor="start" style="white-space: pre;" direction="ltr" dominant-baseline="alphabetic">structs</text></g><g transform="translate(465.5857849121094 129.5961151123047) rotate(0 29.7890625 9.200000000000003)"><text x="0" y="13.5203125" font-family="Helvetica, Segoe UI Emoji" font-size="16px" fill="#1e1e1e" text-anchor="start" style="white-space: pre;" direction="ltr" dominant-baseline="alphabetic">mocking</text></g><g stroke-linecap="round"><g transform="translate(566.9794373401205 433.0121460259892) rotate(0 0 -10)"><path d="M0.48 -0.53 C0.54 -3.9, 0.09 -17.21, 0.09 -20.48 M0.07 0.38 C0.08 -2.9, -0.35 -16.69, -0.3 -20.02" stroke="#1e1e1e" stroke-width="2" fill="none"></path></g></g><mask></mask><g transform="translate(538.5857849121094 189.5961151123047) rotate(0 43.7109375 9.200000000000003)"><text x="0" y="13.5203125" font-family="Helvetica, Segoe UI Emoji" font-size="16px" fill="#1e1e1e" text-anchor="start" style="white-space: pre;" direction="ltr" dominant-baseline="alphabetic">concurrency</text></g><g transform="translate(808.5857849121094 48.59611511230469) rotate(0 30.4609375 9.2)"><text x="0" y="13.5203125" font-family="Helvetica, Segoe UI Emoji" font-size="16px" fill="#1e1e1e" text-anchor="start" style="white-space: pre;" direction="ltr" dominant-baseline="alphabetic">mutexes</text></g><g transform="translate(605.5857849121094 109.59611511230469) rotate(0 45.87109375 9.200000000000003)"><text x="0" y="13.5203125" font-family="Helvetica, Segoe UI Emoji" font-size="16px" fill="#1e1e1e" text-anchor="start" style="white-space: pre;" direction="ltr" dominant-baseline="alphabetic">HTTP server</text></g><g transform="translate(745.5857849121094 69.59611511230469) rotate(0 29.79296875 9.200000000000003)"><text x="0" y="13.5203125" font-family="Helvetica, Segoe UI Emoji" font-size="16px" fill="#1e1e1e" text-anchor="start" style="white-space: pre;" direction="ltr" dominant-baseline="alphabetic">contexts</text></g><g stroke-linecap="round"><g stroke-opacity="0.2" fill-opacity="0.2" transform="translate(265.5857849121094 409.5961151123047) rotate(0 0 -180)"><path d="M0.39 -0.55 C0.38 -60.79, 0.52 -300.75, 0.63 -360.69" stroke="#1e1e1e" stroke-width="2.5" fill="none" stroke-dasharray="1.5 8"></path></g></g><mask></mask><g stroke-linecap="round"><g stroke-opacity="0.2" fill-opacity="0.2" transform="translate(566.4366856388747 409.82509680464864) rotate(0 0 -180)"><path d="M-0.45 0.16 C-0.78 -60.04, -0.73 -300.15, -0.85 -360.23" stroke="#1e1e1e" stroke-width="2.5" fill="none" stroke-dasharray="1.5 8"></path></g></g><mask></mask><g transform="translate(105.58578491210938 346.5961151123047) rotate(0 49.36328125 9.199999999999989)"><text x="0" y="13.5203125" font-family="Helvetica, Segoe UI Emoji" font-size="16px" fill="#1e1e1e" text-anchor="start" style="white-space: pre;" direction="ltr" dominant-baseline="alphabetic">error handling</text></g></svg>