<svg version="1.1" xmlns="http://www.w3.org/2000/svg" viewBox="0 0 898.6703796386719 406.82469177246094" width="1797.3407592773438" height="813.6493835449219">
  <!-- svg-source:excalidraw -->
  
  <defs>
    <style class="style-fonts">
      @font-face {
        font-family: "Virgil";
        src: url("https://excalidraw.com/Virgil.woff2");
      }
      @font-face {
        font-family: "Cascadia";
        src: url("https://excalidraw.com/Cascadia.woff2");
      }
      @font-face {
        font-family: "Assistant";
        src: url("https://excalidraw.com/Assistant-Regular.woff2");
      }
    </style>
    
  </defs>
  <rect x="0" y="0" width="898.6703796386719" height="406.82469177246094" fill="#ffffff"></rect><g stroke-linecap="round"><g transform="translate(66.47048950195312 343.34010314941406) rotate(0 375.5062561035156 -111.85612487792969)"><path d="M0.35 -0.58 C22.63 -4.51, 95.15 -11.17, 132.62 -23.18 C170.08 -35.2, 190.8 -47.79, 225.13 -72.68 C259.47 -97.58, 303.63 -154.49, 338.6 -172.54 C373.58 -190.6, 403.64 -185.92, 434.99 -181.02 C466.34 -176.11, 473.85 -135.94, 526.69 -143.11 C579.53 -150.28, 714.6 -210.5, 752.02 -224.03" stroke="#1e1e1e" stroke-width="2.5" fill="none" stroke-dasharray="8 10"></path></g></g><mask></mask><g transform="translate(70.24661254882812 290.114013671875) rotate(0 60.0390625 11.5)"><text x="0" y="0" font-family="Helvetica, Segoe UI Emoji" font-size="20px" fill="#1e1e1e" text-anchor="start" style="white-space: pre;" direction="ltr" dominant-baseline="text-before-edge">fundamentals</text></g><g transform="translate(186.51718139648438 247.18849182128906) rotate(0 40.0244140625 11.5)"><text x="0" y="0" font-family="Helvetica, Segoe UI Emoji" font-size="20px" fill="#1e1e1e" text-anchor="start" style="white-space: pre;" direction="ltr" dominant-baseline="text-before-edge">functions</text></g><g transform="translate(269.9027404785156 202.0275115966797) rotate(0 25.0048828125 11.5)"><text x="0" y="0" font-family="Helvetica, Segoe UI Emoji" font-size="20px" fill="#1e1e1e" text-anchor="start" style="white-space: pre;" direction="ltr" dominant-baseline="text-before-edge">slices</text></g><g transform="translate(301.2707214355469 153.45233154296875) rotate(0 38.3544921875 11.5)"><text x="0" y="0" font-family="Helvetica, Segoe UI Emoji" font-size="20px" fill="#1e1e1e" text-anchor="start" style="white-space: pre;" direction="ltr" dominant-baseline="text-before-edge">methods</text></g><g transform="translate(403.3517150878906 122.88410949707031) rotate(0 43.3544921875 11.5)"><text x="0" y="0" font-family="Helvetica, Segoe UI Emoji" font-size="20px" fill="#1e1e1e" text-anchor="start" style="white-space: pre;" direction="ltr" dominant-baseline="text-before-edge">interfaces</text></g><g transform="translate(539.0977478027344 153.48031616210938) rotate(0 46.69921875 11.5)"><text x="0" y="0" font-family="Helvetica, Segoe UI Emoji" font-size="20px" fill="#1e1e1e" text-anchor="start" style="white-space: pre;" direction="ltr" dominant-baseline="text-before-edge">goroutines</text></g><g transform="translate(646.4126892089844 122.85578918457031) rotate(0 40.029296875 11.5)"><text x="0" y="0" font-family="Helvetica, Segoe UI Emoji" font-size="20px" fill="#1e1e1e" text-anchor="start" style="white-space: pre;" direction="ltr" dominant-baseline="text-before-edge">channels</text></g><g transform="translate(747.3935241699219 90.93167114257812) rotate(0 26.123046875 11.5)"><text x="0" y="0" font-family="Helvetica, Segoe UI Emoji" font-size="20px" fill="#1e1e1e" text-anchor="start" style="white-space: pre;" direction="ltr" dominant-baseline="text-before-edge">select</text></g><g stroke-linecap="round"><g transform="translate(46.660552978515625 352.9075469970703) rotate(0 -1.292205810546875 -154.3849868774414)"><path d="M0.24 0.98 C-0.45 -50.34, -2.69 -256.27, -3.25 -307.78 M-1.09 0.45 C-1.47 -51.21, -0.38 -257.63, -0.88 -309.39" stroke="#1e1e1e" stroke-width="1" fill="none"></path></g><g transform="translate(46.660552978515625 352.9075469970703) rotate(0 -1.292205810546875 -154.3849868774414)"><path d="M7.7 -285.91 C6.07 -295.85, 2.84 -304.46, -0.88 -309.39 M7.7 -285.91 C4.96 -294.3, 2.62 -302.22, -0.88 -309.39" stroke="#1e1e1e" stroke-width="1" fill="none"></path></g><g transform="translate(46.660552978515625 352.9075469970703) rotate(0 -1.292205810546875 -154.3849868774414)"><path d="M-9.4 -285.89 C-4.59 -295.87, -1.37 -304.48, -0.88 -309.39 M-9.4 -285.89 C-6.06 -294.33, -2.32 -302.25, -0.88 -309.39" stroke="#1e1e1e" stroke-width="1" fill="none"></path></g></g><mask></mask><g stroke-linecap="round"><g transform="translate(46.926361083984375 354.1482391357422) rotate(0 390.2379150390625 -5.9405517578125)"><path d="M0.91 -1.18 C131.05 -2.95, 651.09 -9.51, 780.87 -11.24 M-0.08 0.82 C129.94 -1.25, 649.78 -11.21, 780.14 -13.03" stroke="#1e1e1e" stroke-width="1" fill="none"></path></g><g transform="translate(46.926361083984375 354.1482391357422) rotate(0 390.2379150390625 -5.9405517578125)"><path d="M756.79 -4.08 C761.95 -6.31, 772.05 -11.09, 780.14 -13.03 M756.79 -4.08 C763.62 -5.97, 770.95 -8.92, 780.14 -13.03" stroke="#1e1e1e" stroke-width="1" fill="none"></path></g><g transform="translate(46.926361083984375 354.1482391357422) rotate(0 390.2379150390625 -5.9405517578125)"><path d="M756.5 -21.18 C761.66 -18.23, 771.85 -17.82, 780.14 -13.03 M756.5 -21.18 C763.49 -17.53, 770.91 -14.94, 780.14 -13.03" stroke="#1e1e1e" stroke-width="1" fill="none"></path></g></g><mask></mask><g stroke-linecap="round"><g transform="translate(291.9194030761719 344.0105743408203) rotate(0 0.28662109375 7.5406646728515625)"><path d="M0.44 -0.53 C0.54 1.83, 0.81 12.13, 0.87 14.67 M0 0.39 C0.03 3.04, 0.49 12.71, 0.59 15.16" stroke="#1e1e1e" stroke-width="1" fill="none"></path></g></g><mask></mask><g stroke-linecap="round"><g transform="translate(544.5148175568016 336.7481048571807) rotate(0 0.28662109375 8.574478149414062)"><path d="M-0.03 0.05 C0.13 2.87, 0.75 14.24, 0.86 17.14 M-0.71 -0.4 C-0.59 2.49, 0.4 15.01, 0.57 17.84" stroke="#1e1e1e" stroke-width="1" fill="none"></path></g></g><mask></mask><g transform="translate(10 10) rotate(0 36.123046875 11.5)"><text x="0" y="0" font-family="Helvetica, Segoe UI Emoji" font-size="20px" fill="#1e1e1e" text-anchor="start" style="white-space: pre;" direction="ltr" dominant-baseline="text-before-edge">difficulty</text></g><g transform="translate(850.8871765136719 328.3210906982422) rotate(0 18.8916015625 11.5)"><text x="0" y="0" font-family="Helvetica, Segoe UI Emoji" font-size="20px" fill="#1e1e1e" text-anchor="start" style="white-space: pre;" direction="ltr" dominant-baseline="text-before-edge">time</text></g><g transform="translate(144.87680053710938 373.82469177246094) rotate(0 24.462890625 11.5)"><text x="0" y="0" font-family="Helvetica, Segoe UI Emoji" font-size="20px" fill="#1e1e1e" text-anchor="start" style="white-space: pre;" direction="ltr" dominant-baseline="text-before-edge">day 1</text></g><g transform="translate(407.0049743652344 373.82469177246094) rotate(0 24.462890625 11.5)"><text x="0" y="0" font-family="Helvetica, Segoe UI Emoji" font-size="20px" fill="#1e1e1e" text-anchor="start" style="white-space: pre;" direction="ltr" dominant-baseline="text-before-edge">day 2</text></g><g transform="translate(678.7792663574219 373.82469177246094) rotate(0 24.462890625 11.5)"><text x="0" y="0" font-family="Helvetica, Segoe UI Emoji" font-size="20px" fill="#1e1e1e" text-anchor="start" style="white-space: pre;" direction="ltr" dominant-baseline="text-before-edge">day 3</text></g></svg>