<svg version="1.1" xmlns="http://www.w3.org/2000/svg" viewBox="0 0 547.9706088156622 407.78149414062506" width="1095.9412176313244" height="815.5629882812501">
  <!-- svg-source:excalidraw -->
  
  <defs>
    <style class="style-fonts">
      @font-face {
        font-family: "Virgil";
        src: url("https://excalidraw.com/Virgil.woff2");
      }
      @font-face {
        font-family: "Cascadia";
        src: url("https://excalidraw.com/Cascadia.woff2");
      }
      @font-face {
        font-family: "Assistant";
        src: url("https://excalidraw.com/Assistant-Regular.woff2");
      }
    </style>
    
  </defs>
  <rect x="0" y="0" width="547.9706088156622" height="407.78149414062506" fill="#ffffff"></rect><g transform="translate(91.01177978515625 18.959426879882812) rotate(0 36.4609375 27.599999999999994)"><text x="72.921875" y="0" font-family="Helvetica, Segoe UI Emoji" font-size="16px" fill="#1e1e1e" text-anchor="end" style="white-space: pre;" direction="ltr" dominant-baseline="text-before-edge">type of</text><text x="72.921875" y="18.4" font-family="Helvetica, Segoe UI Emoji" font-size="16px" fill="#1e1e1e" text-anchor="end" style="white-space: pre;" direction="ltr" dominant-baseline="text-before-edge">receiver</text><text x="72.921875" y="36.8" font-family="Helvetica, Segoe UI Emoji" font-size="16px" fill="#1e1e1e" text-anchor="end" style="white-space: pre;" direction="ltr" dominant-baseline="text-before-edge">parameter</text></g><g transform="translate(31.76556396484375 91.98440551757812) rotate(0 33.796875 27.599999999999998)"><text x="0" y="0" font-family="Helvetica, Segoe UI Emoji" font-size="16px" fill="#1e1e1e" text-anchor="start" style="white-space: pre;" direction="ltr" dominant-baseline="text-before-edge">type of</text><text x="0" y="18.4" font-family="Helvetica, Segoe UI Emoji" font-size="16px" fill="#1e1e1e" text-anchor="start" style="white-space: pre;" direction="ltr" dominant-baseline="text-before-edge">receiver</text><text x="0" y="36.8" font-family="Helvetica, Segoe UI Emoji" font-size="16px" fill="#1e1e1e" text-anchor="start" style="white-space: pre;" direction="ltr" dominant-baseline="text-before-edge">argument</text></g><g stroke-linecap="round"><g transform="translate(173.94976806640625 15.9849853515625) rotate(0 0.03399658203125 190.68301391601562)"><path d="M0 0 C0.21 145.68, 1.42 291.96, 0.07 381.37 M0 0 C1.09 94.9, 1.12 189.24, 0.07 381.37" stroke="#1e1e1e" stroke-width="1" fill="none"></path></g></g><mask></mask><g stroke-linecap="round"><g transform="translate(355.79958697590996 10) rotate(0 1.534637451171875 193.67550659179688)"><path d="M0 0 C1.53 121.65, 2.18 241.48, 3.07 387.35 M0 0 C0.05 106.39, 1.31 213.63, 3.07 387.35" stroke="#1e1e1e" stroke-width="1" fill="none"></path></g></g><mask></mask><g stroke-linecap="round"><g transform="translate(536.1541401985662 16.34869384765625) rotate(0 -0.05462646484375 190.50115966796875)"><path d="M0 0 C3.11 112.2, 1.64 224.29, -0.11 381 M0 0 C1.23 139.34, 1.28 278.63, -0.11 381" stroke="#1e1e1e" stroke-width="1" fill="none"></path></g></g><mask></mask><g stroke-linecap="round"><g transform="translate(536.9132690429688 150.32086181640625) rotate(0 -261.70068359375 2.0652313232421875)"><path d="M0 0 C-173.66 3.03, -346.81 4.24, -523.4 4.13 M0 0 C-114.15 1.19, -228.58 1.74, -523.4 4.13" stroke="#1e1e1e" stroke-width="1" fill="none"></path></g></g><mask></mask><g stroke-linecap="round"><g transform="translate(533.4013671875 266.9526878548979) rotate(0 -261.70068359375 2.065231323242184)"><path d="M0 0 C-208.29 2.47, -416.8 4.1, -523.4 4.13 M0 0 C-145.67 1.49, -291.03 2.42, -523.4 4.13" stroke="#1e1e1e" stroke-width="1" fill="none"></path></g></g><mask></mask><g stroke-linecap="round"><g transform="translate(173.783203125 155.627197265625) rotate(0 -77.94573974609375 -65.98387145996094)"><path d="M0 0 C-34.3 -28.17, -66.33 -55.05, -155.89 -131.97 M0 0 C-30.99 -25.82, -61.62 -53.65, -155.89 -131.97" stroke="#1e1e1e" stroke-width="1" fill="none"></path></g></g><mask></mask><g transform="translate(244.89141845703125 64.02931213378906) rotate(0 10.9951171875 20.700000000000003)"><text x="21.990234375" y="0" font-family="Helvetica, Segoe UI Emoji" font-size="36px" fill="#1e1e1e" text-anchor="end" style="white-space: pre;" direction="ltr" dominant-baseline="text-before-edge">T</text></g><g transform="translate(419.0828857421875 64.02931213378906) rotate(0 18 20.700000000000003)"><text x="36" y="0" font-family="Helvetica, Segoe UI Emoji" font-size="36px" fill="#1e1e1e" text-anchor="end" style="white-space: pre;" direction="ltr" dominant-baseline="text-before-edge">*T</text></g><g transform="translate(380.9351806640625 183.35635375976562) rotate(0 64.47265625 27.599999999999998)"><text x="64.47265625" y="0" font-family="Helvetica, Segoe UI Emoji" font-size="16px" fill="#1e1e1e" text-anchor="middle" style="white-space: pre;" direction="ltr" dominant-baseline="text-before-edge">only ✅ if the</text><text x="64.47265625" y="18.4" font-family="Helvetica, Segoe UI Emoji" font-size="16px" fill="#1e1e1e" text-anchor="middle" style="white-space: pre;" direction="ltr" dominant-baseline="text-before-edge">receiver argument</text><text x="64.47265625" y="36.8" font-family="Helvetica, Segoe UI Emoji" font-size="16px" fill="#1e1e1e" text-anchor="middle" style="white-space: pre;" direction="ltr" dominant-baseline="text-before-edge">is addressable</text></g><g transform="translate(78.72393798828125 194.52720336914064) rotate(0 10.9951171875 20.7)"><text x="21.990234375" y="0" font-family="Helvetica, Segoe UI Emoji" font-size="36px" fill="#1e1e1e" text-anchor="end" style="white-space: pre;" direction="ltr" dominant-baseline="text-before-edge">T</text></g><g transform="translate(64.71417236328125 315.57239990234376) rotate(0 18 20.699999999999996)"><text x="36" y="0" font-family="Helvetica, Segoe UI Emoji" font-size="36px" fill="#1e1e1e" text-anchor="end" style="white-space: pre;" direction="ltr" dominant-baseline="text-before-edge">*T</text></g><g transform="translate(241.05078125 310.98804931640626) rotate(0 23.0009765625 20.700000000000003)"><text x="23.0009765625" y="0" font-family="Helvetica, Segoe UI Emoji" font-size="36px" fill="#1e1e1e" text-anchor="middle" style="white-space: pre;" direction="ltr" dominant-baseline="text-before-edge">✅ </text></g><g transform="translate(241.05078125 190.23716430664058) rotate(0 23.0009765625 20.7)"><text x="23.0009765625" y="0" font-family="Helvetica, Segoe UI Emoji" font-size="36px" fill="#1e1e1e" text-anchor="middle" style="white-space: pre;" direction="ltr" dominant-baseline="text-before-edge">✅ </text></g><g transform="translate(428.4681396484375 310.98804931640626) rotate(0 23.0009765625 20.700000000000003)"><text x="23.0009765625" y="0" font-family="Helvetica, Segoe UI Emoji" font-size="36px" fill="#1e1e1e" text-anchor="middle" style="white-space: pre;" direction="ltr" dominant-baseline="text-before-edge">✅ </text></g><g transform="translate(284.71142578125 306.0213623046875) rotate(0 16.9892578125 20.700000000000003)"><text x="16.9892578125" y="0" font-family="Helvetica, Segoe UI Emoji" font-size="36px" fill="#1e1e1e" text-anchor="middle" style="white-space: pre;" direction="ltr" dominant-baseline="text-before-edge">(!)</text></g><g stroke-linecap="round" transform="translate(183.9278564453125 276.0982360839844) rotate(0 172.43475341796875 60.84162902832033)"><path d="M30.42 0 C112.39 1.41, 191.45 2.5, 314.45 0 M314.45 0 C334.84 0.49, 345.09 8.21, 344.87 30.42 M344.87 30.42 C343.6 49.51, 343.55 69.63, 344.87 91.26 M344.87 91.26 C346.34 111.01, 333.01 120.48, 314.45 121.68 M314.45 121.68 C209.98 121.41, 106.78 121.73, 30.42 121.68 M30.42 121.68 C8.88 123.54, 0.75 112.04, 0 91.26 M0 91.26 C-0.67 71.74, -0.69 49.15, 0 30.42 M0 30.42 C-0.8 10.08, 10.1 0.19, 30.42 0" stroke="#9c36b5" stroke-width="1.5" fill="none" stroke-dasharray="8 9"></path></g><g stroke-linecap="round" transform="translate(180.933349609375 160.57107543945312) rotate(0 84.77694702148438 51.479034423828125)"><path d="M25.74 0 C67.45 -1.33, 113.66 -1.9, 143.81 0 M143.81 0 C160 0.4, 167.92 8.6, 169.55 25.74 M169.55 25.74 C170.06 44.18, 169.29 63.69, 169.55 77.22 M169.55 77.22 C168.47 93.99, 160.03 101.27, 143.81 102.96 M143.81 102.96 C99.9 101.4, 58.58 102.36, 25.74 102.96 M25.74 102.96 C8.28 104.1, 0.96 93.84, 0 77.22 M0 77.22 C-1.32 64.97, 1.03 57.64, 0 25.74 M0 25.74 C1.05 10.02, 7.67 0.94, 25.74 0" stroke="#e8590c" stroke-width="1.5" fill="none" stroke-dasharray="8 9"></path></g></svg>