<svg version="1.1" xmlns="http://www.w3.org/2000/svg" viewBox="0 0 650.6491088867188 367.60223388671875" width="1301.2982177734375" height="735.2044677734375">
  <!-- svg-source:excalidraw -->
  
  <defs>
    <style class="style-fonts">
      @font-face {
        font-family: "Virgil";
        src: url("https://excalidraw.com/Virgil.woff2");
      }
      @font-face {
        font-family: "Cascadia";
        src: url("https://excalidraw.com/Cascadia.woff2");
      }
      @font-face {
        font-family: "Assistant";
        src: url("https://excalidraw.com/Assistant-Regular.woff2");
      }
    </style>
    
  </defs>
  <rect x="0" y="0" width="650.6491088867188" height="367.60223388671875" fill="#ffffff"></rect><g stroke-linecap="round" transform="translate(61.9681396484375 114.43304443359375) rotate(0 118.98822021484375 100.21759033203125)"><path d="M32 0 C70.14 -0.69, 111.63 1.52, 205.98 0 M32 0 C83.37 -1.14, 136.58 -1.4, 205.98 0 M205.98 0 C228.06 1.3, 237.39 9.08, 237.98 32 M205.98 0 C225.53 0.65, 237.1 9.42, 237.98 32 M237.98 32 C237 82.76, 237.49 134.93, 237.98 168.44 M237.98 32 C239.4 71.93, 239.11 109.42, 237.98 168.44 M237.98 168.44 C239.68 190.26, 227.63 199.27, 205.98 200.44 M237.98 168.44 C238.13 189.76, 228.58 202.14, 205.98 200.44 M205.98 200.44 C167.22 201.11, 126.1 200.87, 32 200.44 M205.98 200.44 C138.28 200.93, 72.71 200.9, 32 200.44 M32 200.44 C12.4 199.57, 1.37 189.53, 0 168.44 M32 200.44 C12.25 199.21, 0.79 187.63, 0 168.44 M0 168.44 C-0.13 135.77, 0.11 102.15, 0 32 M0 168.44 C1.23 125.98, -0.09 83.34, 0 32 M0 32 C0.34 10.85, 11.34 -1.04, 32 0 M0 32 C-1.1 10.49, 12.66 2.2, 32 0" stroke="#2f9e44" stroke-width="2" fill="none"></path></g><g stroke-linecap="round" transform="translate(76.990478515625 171.89842224121094) rotate(0 39.97819519042969 48.499427795410156)"><path d="M0 0 C16.37 0.54, 31.35 -1.09, 79.96 0 M0 0 C23.71 -1.06, 47.13 -0.59, 79.96 0 M79.96 0 C82.11 25.07, 79.03 51.29, 79.96 97 M79.96 0 C80.21 36.48, 80.57 72.74, 79.96 97 M79.96 97 C55.87 97.15, 27.24 97.52, 0 97 M79.96 97 C50.55 95.59, 22.1 96.31, 0 97 M0 97 C0.29 70.39, -1.91 40.93, 0 0 M0 97 C1.43 69.82, 1.57 41.81, 0 0" stroke="#2f9e44" stroke-width="1" fill="none"></path></g><g transform="translate(94.72648620605469 211.1978500366211) rotate(0 22.2421875 9.199999999999989)"><text x="22.2421875" y="0" font-family="Helvetica, Segoe UI Emoji" font-size="16px" fill="#2f9e44" text-anchor="middle" style="white-space: pre;" direction="ltr" dominant-baseline="text-before-edge">foo.go</text></g><g transform="translate(126.46905517578125 130.805712890625) rotate(0 54.4873046875 11.5)"><text x="54.4873046875" y="0" font-family="Helvetica, Segoe UI Emoji" font-size="20px" fill="#2f9e44" text-anchor="middle" style="white-space: pre;" direction="ltr" dominant-baseline="text-before-edge">package foo</text></g><g stroke-linecap="round" transform="translate(173.08143615722656 172.87825775146484) rotate(0 55.47923278808594 48.499427795410156)"><path d="M0 0 C26.71 -0.26, 50.03 2.47, 110.96 0 M0 0 C32.67 0.09, 65.23 -0.25, 110.96 0 M110.96 0 C112.92 24.9, 113.62 50.94, 110.96 97 M110.96 0 C111.33 37.91, 110.51 77.7, 110.96 97 M110.96 97 C76 97.53, 37.78 96.33, 0 97 M110.96 97 C77.04 97.25, 44.14 98.38, 0 97 M0 97 C0.57 66.92, -1.4 35.42, 0 0 M0 97 C0.1 69.32, -0.21 40.53, 0 0" stroke="#2f9e44" stroke-width="1" fill="none"></path></g><g transform="translate(188.9747314453125 212.17768554687495) rotate(0 39.5859375 9.199999999999989)"><text x="39.5859375" y="0" font-family="Helvetica, Segoe UI Emoji" font-size="16px" fill="#2f9e44" text-anchor="middle" style="white-space: pre;" direction="ltr" dominant-baseline="text-before-edge">foo_test.go</text></g><g stroke-linecap="round" transform="translate(348.6300048828125 114.43304443359375) rotate(0 118.98822021484375 100.21759033203125)"><path d="M32 0 C67.33 0, 105.54 -0.94, 205.98 0 M32 0 C79.59 -2.27, 126.66 -0.91, 205.98 0 M205.98 0 C225.65 0.24, 236.56 11.58, 237.98 32 M205.98 0 C229.26 1.56, 237.34 11.82, 237.98 32 M237.98 32 C238.78 82.84, 237.47 134.07, 237.98 168.44 M237.98 32 C237.4 80.63, 236.64 126.83, 237.98 168.44 M237.98 168.44 C236.34 188.82, 225.87 201.33, 205.98 200.44 M237.98 168.44 C236.38 188.44, 225.43 198.49, 205.98 200.44 M205.98 200.44 C149.22 198.77, 94.6 200.52, 32 200.44 M205.98 200.44 C160.84 200.01, 115.36 199.03, 32 200.44 M32 200.44 C11.01 201.15, 0.95 190.89, 0 168.44 M32 200.44 C10.19 202.12, 2.09 191.47, 0 168.44 M0 168.44 C0.39 120.99, 1.17 77.41, 0 32 M0 168.44 C-0.7 123.55, -0.85 80.31, 0 32 M0 32 C-0.65 8.99, 10.06 1.69, 32 0 M0 32 C-1.48 11.17, 8.62 1.16, 32 0" stroke="#f08c00" stroke-width="2" fill="none"></path></g><g stroke-linecap="round" transform="translate(363.65234375 171.89842224121094) rotate(0 39.97819519042969 48.499427795410156)"><path d="M0 0 C23.34 -0.98, 46.74 1.23, 79.96 0 M0 0 C30.48 1.18, 59.72 0.84, 79.96 0 M79.96 0 C81.75 21.66, 81.4 45.79, 79.96 97 M79.96 0 C80.94 27.46, 81.44 55.73, 79.96 97 M79.96 97 C60.06 95.12, 35.32 95.27, 0 97 M79.96 97 C59.06 96.78, 38.73 96.51, 0 97 M0 97 C-0.81 64.35, -0.37 35.4, 0 0 M0 97 C-0.04 72.44, 0.06 46.05, 0 0" stroke="#f08c00" stroke-width="1" fill="none"></path></g><g transform="translate(381.3844451904297 211.1978500366211) rotate(0 22.24609375 9.199999999999989)"><text x="22.24609375" y="0" font-family="Helvetica, Segoe UI Emoji" font-size="16px" fill="#f08c00" text-anchor="middle" style="white-space: pre;" direction="ltr" dominant-baseline="text-before-edge">bar.go</text></g><g transform="translate(412.57916259765625 130.80571289062505) rotate(0 55.0390625 11.5)"><text x="55.0390625" y="0" font-family="Helvetica, Segoe UI Emoji" font-size="20px" fill="#f08c00" text-anchor="middle" style="white-space: pre;" direction="ltr" dominant-baseline="text-before-edge">package bar</text></g><g stroke-linecap="round" transform="translate(459.74330139160156 172.87825775146484) rotate(0 55.47923278808594 48.499427795410156)"><path d="M0 0 C38.17 0, 80.85 -2.06, 110.96 0 M0 0 C35.45 0.17, 68.92 0, 110.96 0 M110.96 0 C111.82 36.32, 110.51 73.02, 110.96 97 M110.96 0 C110.51 34.78, 109.75 67.14, 110.96 97 M110.96 97 C87.62 94.82, 61.34 94.57, 0 97 M110.96 97 C87.23 95.15, 62.21 95.37, 0 97 M0 97 C-1.11 69.73, 2.09 41.78, 0 0 M0 97 C0.31 69.57, -0.37 41.76, 0 0" stroke="#f08c00" stroke-width="1" fill="none"></path></g><g transform="translate(475.1951904296875 212.177685546875) rotate(0 40.02734375 9.199999999999989)"><text x="40.02734375" y="0" font-family="Helvetica, Segoe UI Emoji" font-size="16px" fill="#f08c00" text-anchor="middle" style="white-space: pre;" direction="ltr" dominant-baseline="text-before-edge">bar_test.go</text></g><g stroke-linecap="round" transform="translate(10 10) rotate(0 315.3245544433594 173.80111694335938)"><path d="M32 0 C181.32 1.51, 330.48 1.65, 598.65 0 M32 0 C159.92 0.8, 287.84 0.89, 598.65 0 M598.65 0 C618.35 -1.13, 632.32 10.97, 630.65 32 M598.65 0 C617.8 1.63, 631.49 11.46, 630.65 32 M630.65 32 C628.95 101.95, 628.32 169.87, 630.65 315.6 M630.65 32 C631.06 131.89, 630.92 231.98, 630.65 315.6 M630.65 315.6 C631.2 338.63, 620.96 349.26, 598.65 347.6 M630.65 315.6 C632.85 338.68, 621.16 347.72, 598.65 347.6 M598.65 347.6 C390.68 346.55, 182.12 346.07, 32 347.6 M598.65 347.6 C402.53 346.51, 207.26 346.22, 32 347.6 M32 347.6 C12.27 345.93, -1.59 335.62, 0 315.6 M32 347.6 C10.05 346.57, -0.69 337.39, 0 315.6 M0 315.6 C1.03 240.27, 1.56 163.39, 0 32 M0 315.6 C1.14 237.64, 0.47 160.63, 0 32 M0 32 C-0.88 9.3, 10.82 -1.92, 32 0 M0 32 C1.94 10.18, 10.29 -0.55, 32 0" stroke="#9c36b5" stroke-width="4" fill="none"></path></g><g transform="translate(27.270843505859375 40.9504455566406) rotate(0 298.0537109375 16.099999999999994)"><text x="298.0537109375" y="0" font-family="Helvetica, Segoe UI Emoji" font-size="28px" fill="#9c36b5" text-anchor="middle" style="white-space: pre;" direction="ltr" dominant-baseline="text-before-edge">module github.com/jub0bs/namecheck (v1.12.3)</text></g></svg>