<svg version="1.1" xmlns="http://www.w3.org/2000/svg" viewBox="0 0 1210.675496419271 659.9437408447266" width="2421.350992838542" height="1319.8874816894531">
  <!-- svg-source:excalidraw -->
  
  <defs>
    <style>
      @font-face {
        font-family: "Virgil";
        src: url("https://excalidraw.com/Virgil.woff2");
      }
      @font-face {
        font-family: "Cascadia";
        src: url("https://excalidraw.com/Cascadia.woff2");
      }
    </style>
  </defs>
  <g transform="translate(160.33944702148438 10) rotate(0 43.749481201171875 32.8275146484375)"><path d="M1.3523998204618692 1.6917335148900747 C26.827167341892693 0.631520492319234, 51.37834515690262 0.3722477381268817, 89.20484977401793 0.8893180843442678 M-0.3605741383507848 0.7257676692679524 C26.976303824809587 0.730195756377023, 55.325376421453846 0.4320171729934629, 86.55565913300961 -0.1921140281483531 M86.25652509368956 -1.6913260463625193 C85.19969320689201 20.823660127415522, 87.56979912911414 46.94787443534884, 87.29085409082472 64.05872396193445 M87.26960189919919 0.5391527088358998 C86.42826255335822 22.087817550336673, 87.82845710887923 45.02194706011137, 87.50476198177785 65.60652816016227 M85.70506297983229 64.33600524626672 C55.625149723031804 65.1972796643066, 19.389346955122917 66.82631638887402, 1.6498476807028055 65.45242450200021 M88.45113425236195 65.94240152556449 C60.714361698398065 65.11857075043548, 33.827613367761806 66.05650476165641, 0.40021015983074903 66.19965448696166 M0.9241487327963114 67.23851010762155 C-0.2728319388491559 49.71463201369622, -2.205281100855534 31.374078733613665, -1.3905937727540731 -1.352004611864686 M0.8341388879343867 66.37328877765685 C-1.4582136085811386 41.47859861543877, -1.0992158761802444 16.413770094150863, -0.9273383738473058 0.44935601670295" stroke="#000000" stroke-width="1" fill="none"></path></g><g transform="translate(10 146.54116821289062) rotate(0 43.749481201171875 32.8275146484375)"><path d="M-1.2337128762155771 -0.5542478021234274 C35.37203042990998 0.5467681520091066, 66.42507560065955 -0.615932322253131, 86.27407143078744 1.28791200555861 M0.7235507937148213 0.5203634081408381 C30.21356045990795 1.139504442312156, 59.60407996039063 0.9210924304503549, 86.6338455947116 -0.053421211428940296 M89.20975420437753 1.6310759726911783 C88.7234106662051 16.568054006115176, 85.26192653200786 30.398947215930775, 86.42375150881708 64.14998787082732 M87.26832583267242 0.9421453950926661 C88.09435374484502 14.600260589404229, 88.02003780947172 26.90381016329343, 87.41363364178687 64.75042845588177 M88.93903938494623 67.61105650104582 C60.52640889995298 64.87391907091983, 36.19377070927126 66.97311663742907, -0.2160066608339548 66.79750418104231 M87.73719316441566 65.29214526992291 C58.70197001897033 66.87923685148597, 30.8886068054708 66.13427645400405, -0.5494476882740855 65.26566861849278 M1.498515224084258 64.48341106809676 C0.4481558047487465 51.64402621898446, -1.8521917022512229 37.31781924157626, 1.8248286601155996 -1.695747559890151 M0.4619704158976674 65.42897509317845 C0.10521665212898601 44.96188173824919, 0.9440762996414219 21.989771102741315, 0.12610184866935015 -0.9376628817990422" stroke="#000000" stroke-width="1" fill="none"></path></g><g transform="translate(160.27536010742188 146.54116821289062) rotate(0 43.749481201171875 32.8275146484375)"><path d="M1.9043437000364065 0.5747444573789835 C26.01915391531431 -0.3454754788853569, 51.834012577247485 1.5303925435565071, 88.29938272200525 1.0892503801733255 M0.4620743663981557 0.7917404053732753 C22.873156124685362 0.11801581066676758, 44.678979894996495 -0.5087337942736468, 86.80366551596671 -0.676002305932343 M89.16724017821252 1.4365189615637064 C86.26736647343219 24.380246371677984, 86.98536193823398 46.98369706365261, 85.64428565464914 66.5537413302809 M87.79932892043144 0.9921946106478572 C87.57358847767111 25.058634758127326, 87.26220913439985 49.837312263700056, 87.51176681835204 65.73699443321675 M86.88813493214548 64.40221535600722 C57.950496903827 67.35716467649499, 25.349504001851308 67.65325593502084, 0.40513364039361477 65.86098473705351 M86.72409739810973 66.14640991669148 C53.35490349510166 65.08392976090265, 19.79359857677376 64.94814886018587, -0.8293061880394816 66.21602644305676 M0.8164786454290152 65.89572280086577 C-1.9757941662662803 46.825614781293936, 1.3329033554202736 25.968086488894954, 0.569536542519927 0.09844397939741611 M0.13753336388617754 66.52803744655102 C0.6730861994981047 45.4606023538399, -0.17720496323115864 25.3944060840658, 0.07503267843276262 -0.09757937211543322" stroke="#000000" stroke-width="1" fill="none"></path></g><g transform="translate(304.48779296875 146.54116821289062) rotate(0 43.749481201171875 32.8275146484375)"><path d="M-0.5102978590875864 -0.587956016883254 C22.59999236916785 1.0364642872228145, 48.45018700110981 0.8378026618375299, 86.70406374894083 1.4471015874296427 M0.10110777337104082 0.5733283935114741 C29.937697741518047 -0.7461858510506664, 60.910332211923354 -1.3687669455540692, 88.1916527422145 0.855395901016891 M85.70575604401529 0.13587712682783604 C86.97140564006702 23.54588440163823, 86.19193978589908 51.000563688777724, 89.22752693854272 65.19375615753233 M87.72501298505813 -0.31232179421931505 C87.61083936723534 24.977566299741763, 87.70897254380051 51.84629941781173, 88.03805875498801 66.37506778817624 M88.91722277365625 66.50141292251647 C52.475749481021445 66.2494045814967, 18.289683521760665 65.3128851375079, 1.6750528570264578 66.13149082101882 M86.93286156374961 65.40144951920956 C63.87502357643572 65.6956215622784, 40.520673939036385 66.64597938684238, -0.10675666015595198 66.40428690891713 M-1.4838688615709543 65.82121240533888 C1.5567990131860256 48.108904404681766, 0.30150689559035304 34.05271861166625, -0.010670507326722145 0.9239408317953348 M0.9763930113986135 65.12208251934499 C0.03580427831690258 46.50501716265133, -0.015264891919684942 29.1327514199103, -0.2538713840767741 -0.6255807699635625" stroke="#000000" stroke-width="1" fill="none"></path></g><g transform="translate(159.60638427734375 290.1582794189453) rotate(0 43.749481201171875 32.8275146484375)"><path d="M-0.7537049297243357 1.9093372765928507 C35.60234156555736 -1.0899087062070718, 69.06663963249433 0.9090672263910421, 89.16751817427576 -1.1443330701440573 M0.18225773889571428 -0.2366857649758458 C35.49640254280546 0.2910955547604698, 69.04806279623914 -0.16918066150806965, 87.44386231619865 0.2637416897341609 M87.31613734923303 -1.1481387075036764 C85.95873276159823 14.4664051100797, 86.23819062874377 25.801219084523428, 87.4150700327009 64.08645426668227 M88.34992611128837 0.8691944656893611 C88.62520052933363 18.12531395146291, 87.6097501411405 34.76652235782972, 87.98140087444335 65.44251601677388 M86.61155602894723 65.66197907365859 C62.72168299883167 66.50247783366471, 37.20165822005888 66.94120825234681, 0.15864506922662258 67.61116593517363 M86.89319434482604 66.62512485962361 C57.79367347059835 64.45887716606154, 29.032315018550833 64.44855402901663, -0.39839893858879805 66.53986467700452 M-1.305498206987977 63.95107978023589 C0.48020516466087204 45.97184078270841, 0.393333838691176 29.640728387353782, 1.1983531471341848 1.7047653142362833 M0.30696600396186113 65.21100653987378 C1.206140186438172 50.4869043693652, 0.6615436037870336 34.74939258429363, -0.8072009412571788 -0.3966354252770543" stroke="#000000" stroke-width="1" fill="none"></path></g><g transform="translate(90.8094482421875 452.44239807128906) rotate(0 43.749481201171875 32.8275146484375)"><path d="M-0.5033021625131369 1.101313328370452 C24.447942525367566 0.9599548689003877, 44.76020444042112 1.1897701731797152, 87.76918219961226 -0.2201660517603159 M0.19477404933422804 -0.06186458747833967 C27.578922858086045 -0.8788493123760345, 55.952591739774874 -1.748644068550122, 87.90002881269902 -0.12330574076622725 M88.34125852026045 -1.5240920428186655 C85.67505810015103 19.0124472085103, 85.55348196976087 37.507396722900786, 88.2306194845587 67.47404489479959 M88.17737947683781 -0.12939709704369307 C87.94236088733095 25.76595198529574, 87.8571190033378 50.33848326520597, 87.46306617837399 64.90840205270797 M88.99970203079283 63.8576341625303 C67.0711005738429 65.5829724670573, 44.72043528937832 66.0959947110339, -1.9471243675798178 64.01468185149133 M87.02045376878232 65.56477865297347 C66.06084955996255 64.80418148203101, 46.48523563892355 65.09121465249267, 0.26300673466175795 65.25311815459281 M-0.7178520020097494 66.22104028426111 C2.475736391969151 51.44249980628736, 2.264129591412968 33.559747521062626, -1.914989298209548 1.55158612690866 M0.3477457044646144 65.68792950827628 C0.4176278225614055 43.13593336822926, -0.10511215408311048 22.242625773409287, -0.3646087469533086 -0.02882418315857649" stroke="#000000" stroke-width="1" fill="none"></path></g><g transform="translate(227.2406005859375 452.44239807128906) rotate(0 43.749481201171875 32.8275146484375)"><path d="M1.4956737700849771 1.6685557719320059 C32.19136468087525 1.416552208649902, 66.94161529930713 -0.701984919321747, 87.86347788013518 -0.4733715299516916 M-0.2655021669343114 -0.05510008614510298 C34.750922672746604 -0.870763970181153, 69.37542837638016 -0.06917486862818978, 87.40754987578839 -0.5740693537518382 M86.05196350254118 -0.08389236964285374 C86.20689225364335 13.090620246803178, 88.50712436605103 29.370820958341984, 89.20088982023299 67.39341822825372 M87.37169100623578 0.4824384720996022 C87.73186405125671 25.285350506777082, 87.90848110738807 50.28116129175974, 87.05525921564549 65.65850418526679 M89.43843244947493 65.81367436610162 C65.51242931038252 65.5403455636673, 37.66649857424421 63.22833080508042, -1.2115361150354147 67.59522042237222 M87.01013063173741 65.2566303582862 C66.65859782432206 65.46469515177259, 44.3115692207031 65.17414977761754, -0.6527491034939885 64.80305453855544 M1.9163721147924662 66.85338244400918 C1.9404182853501357 42.541753636904446, -1.6793363270956956 23.52709710457998, 0.6139320079237223 -0.8880455140024424 M0.12610455136746168 64.84782835561782 C-0.6249479694219212 42.17835006588759, -0.5929212910981755 18.65007374911879, 0.6278547523543239 -0.8232491044327617" stroke="#000000" stroke-width="1" fill="none"></path></g><g transform="translate(91.741455078125 584.2887115478516) rotate(0 43.749481201171875 32.8275146484375)"><path d="M-1.1443330701440573 1.8983710762113333 C31.33809719358595 -0.9501505455327771, 62.500270270426306 -1.2033560237241527, 89.3818401042372 0.3895480986684561 M0.2637416897341609 -0.9248948423191905 C26.109446409678025 -0.07509373710646461, 51.32534747209015 -0.5258573500920756, 86.59718744736165 0.4211480589583516 M85.93038737215102 -0.6852824334055185 C87.75560570876328 16.51230900086741, 88.72587604443757 31.124975737264368, 89.27106898464262 67.01186344586313 M87.28644912224263 -0.2285437611863017 C87.37950610597277 18.100324525162048, 86.97169914324427 37.69737842704995, 87.23529996257275 66.40539911109954 M89.45509904064238 66.32669661007822 C67.16565977816992 64.08408824622921, 49.515069774120306 67.6646268171101, -1.03418112359941 64.69801202975214 M88.38379778247327 65.54366352874786 C62.30196418605509 64.90452321710566, 35.926203396948914 64.4544596010683, 0.32644115667790174 65.29610329587013 M1.7047653142362833 64.38151279650629 C-2.5440866349116162 45.65203323676175, -0.015165328778346088 21.65781940882875, 1.154993588104844 0.6954914089292288 M-0.3966354252770543 65.66641574818641 C-0.4474027270983083 45.71368989031146, 0.5450607722093241 25.006749745632305, 0.942479926161468 0.44851574022322893" stroke="#000000" stroke-width="1" fill="none"></path></g><g><g transform="translate(207.40072419065632 76.15955429468306) rotate(0 0.05629981712610288 34.80240788790397)"><path d="M0.7712667558342219 1.0175708737224338 C0.8088699443582072 12.59938643770292, 0.16400711757112263 57.77908388907088, -0.11153552215196227 69.09862413872031 M-0.2829569266922771 0.5061916370876132 C-0.30705501745086156 11.74555495213717, -0.43061633688416334 55.51031387794761, -0.6586671215819568 67.14918805344028" stroke="#000000" stroke-width="1" fill="none"></path></g></g><g><g transform="translate(248.37376555725928 73.14274341724808) rotate(0 48.09858294557779 35.99410005034878)"><path d="M-1.0537330660969018 0.851166436448693 C15.040229657478635 12.791164433459445, 81.15553967300805 59.98239718278251, 97.25089895725253 71.73577523045245 M0.5939183448627592 0.2524248702451586 C16.562053759545094 11.822395283418402, 81.22289688259366 57.7922610896205, 96.8567567464337 69.87711679484697" stroke="#000000" stroke-width="1" fill="none"></path></g></g><g><g transform="translate(162.59369840286672 73.2138401634619) rotate(0 -50.217384449355336 36.480068778507416)"><path d="M0.30259122513234615 -0.018971636518835933 C-16.240329680275178 11.976871982390676, -83.39361436134206 60.69550638434786, -100.32488479983064 72.67103864766655 M-0.9976871110126376 -1.0745356910303236 C-17.51597367065028 11.035812585862969, -83.90043522039431 61.76581907362986, -100.73736012384299 74.03467324804512" stroke="#000000" stroke-width="1" fill="none"></path></g></g><g><g transform="translate(203.02749633789062 215.9780731201172) rotate(0 0.15557067745601216 38.29770779700948)"><path d="M0.6621301498264074 0.884462270513177 C0.800028438741458 13.326504616681484, 0.8231176876748236 62.88259239019825, 0.5775126349150697 75.23482875186949 M-0.44939025085419426 0.30320101719349646 C-0.4233012597392077 12.818629256468265, -0.5492874485900372 63.72425974911078, -0.22444635939155444 76.29221457682549" stroke="#000000" stroke-width="1" fill="none"></path></g></g><g><g transform="translate(222.245168587938 356.09289779054006) rotate(0 23.650454499386285 47.13903159807438)"><path d="M-0.32767687104642385 1.1097577180713414 C7.459930361248554 16.523224207762002, 39.712364211864774 77.0566528186357, 47.62858586981893 92.01706030258906 M1.7011540423147382 0.6467765747196972 C9.349278308544307 16.31798812115875, 39.75795918310061 78.46150934394136, 47.265815142598 93.631286621429" stroke="#000000" stroke-width="1" fill="none"></path></g></g><g><g transform="translate(181.2025385438278 358.38666033484037) rotate(0 -21.981802845112952 47.25857585407789)"><path d="M-0.6859959159046412 -0.9088566329330205 C-7.938372366006168 15.14711601672073, -37.06192398903267 79.46510290640096, -44.47555036284025 95.42600834108889 M1.1547174989059568 1.2283896894380453 C-6.120688446673247 16.9775861361747, -37.260605804038505 77.62521075955283, -45.11832318913187 93.41891041826457" stroke="#000000" stroke-width="1" fill="none"></path></g></g><g><g transform="translate(134.45651245117188 517.6450347900391) rotate(0 1.1376676100492205 34.29299527777363)"><path d="M-0.7908276591449976 0.3580654118210078 C-0.5737328199483538 11.858404198226836, 0.1986411805264235 57.58520481704428, 0.6820739866420127 69.08554474785929 M0.9948490904644132 -0.4995541923120619 C1.6635716836340642 10.664096625124422, 2.9376801923848275 56.06734623404844, 3.066162879243443 67.4204795115069" stroke="#000000" stroke-width="1" fill="none"></path></g></g><g transform="translate(855.5995076497397 10) rotate(0 43.749481201171875 32.8275146484375)"><path d="M0.38424175418913364 -0.26628353632986546 C31.484751629912516 -0.09687979869740782, 68.07249943593375 -1.682822245882924, 86.02892612852156 -0.12097367085516453 M-0.58420489449054 -0.15446195285767317 C28.31644933682885 0.560657170715138, 56.64156016452275 -0.7304213073827777, 87.79255484323949 0.0007144780829548836 M88.0118300858885 0.6359523888677359 C85.44965462171876 21.183663960823495, 86.10880206310594 45.79403384271578, 87.45429926551878 65.72075161896646 M86.9821674702689 -0.20816618483513594 C87.35306524973531 22.021878740200535, 87.91267886500974 42.410184964369506, 87.65945191960782 66.64451715070754 M87.21038132347167 67.55777106247842 C64.27531325178371 66.43786716600673, 43.935027055706115 66.23327618976847, 1.5678838435560465 64.97604159079492 M88.41914053540677 65.57369038183242 C58.38161181977037 65.99986034475626, 29.092697415352234 65.35950627766908, 0.675727772526443 65.71033692080528 M-1.4521724041551352 63.840908324345946 C-1.7792921304107199 48.784968748869844, -0.2692573904395591 29.588440413017764, -0.7734475787729025 0.9119250532239676 M-0.8409431697800756 66.48728084284812 C-0.8782109718048764 47.015379048812264, -1.3320231835568141 28.878557401565963, 0.36051692347973585 0.5124132903292775" stroke="#000000" stroke-width="1" fill="none"></path></g><g transform="translate(604.8299763997397 150.85116577148438) rotate(0 43.749481201171875 32.8275146484375)"><path d="M-1.7725821789354086 -0.31435939110815525 C25.632724614833553 -1.7838041726252214, 46.679749319369115 -0.004476005186714316, 87.97889655269682 -1.098628306761384 M-0.03292639274150133 0.6100959749892354 C26.686885468826148 -0.5458298970518188, 53.781745967783934 0.1358670841398163, 87.98753394465894 -0.1630809037014842 M85.55672543682158 -1.7205627206712961 C86.38423459215151 19.167993487531227, 87.62266097946154 38.430548337701524, 87.98117207922041 66.39834181033075 M87.10905422549695 0.7423954280093312 C87.32936597671288 20.98667863155531, 87.32015005554932 43.260408436968966, 87.0671547530219 65.86798888165504 M86.74672984518111 66.6372624989599 C64.62212485132952 67.26511117377116, 40.55537546355703 65.80848124184443, 0.5844398085027933 65.14902553521097 M87.18819438200444 66.57191949803382 C66.17676535189283 65.86039472425507, 47.116495799015105 65.6391662141137, -0.24568526167422533 66.18176302034408 M-1.4334649499505758 66.86843023262918 C0.5532818987151791 46.29806490970802, -0.29673547007830847 27.652357408442136, -0.4657558258622885 1.5005298014730215 M-0.38562433142215014 65.18292721826583 C-0.28731505868491014 45.274067368111375, 0.9126384079689137 26.288269842480844, 0.7019374845549464 -0.7756830481812358" stroke="#000000" stroke-width="1" fill="none"></path></g><g transform="translate(731.5857442220054 150.85116577148438) rotate(0 43.749481201171875 32.8275146484375)"><path d="M1.5578318182379007 -1.9003018382936716 C23.61467579019644 0.01655693186181617, 50.64935827839033 -0.9610977040444033, 87.61196672357619 -1.16840978898108 M-0.057191294617950916 -0.6809825031086802 C25.19175510103025 -0.5331131696910888, 50.28489686258421 -0.6969085514755279, 87.42065982799977 0.2564338417723775 M86.21587287820876 -0.014419520273804665 C86.81671114115463 21.849904747280405, 87.34358395485626 44.31167736383364, 87.9372994247824 64.62143943272531 M87.66866784077138 -0.14878166001290083 C87.40345759186813 19.31928094649809, 86.81116042528221 36.87254577011113, 87.27107931952924 65.51073875743896 M88.8778602425009 66.43267152272165 C54.492761014701514 65.40576352089272, 18.93523174844998 65.57874746530877, -1.3075792845338583 67.49538556300104 M86.70586253982037 65.93156543094665 C62.636708521082866 66.512606333188, 36.17731383309488 66.9840324327268, -0.03643442410975695 64.92894309479743 M0.07656979002058506 65.75536338053644 C-0.3028766623476599 52.825753841009984, 0.004815090562954094 39.673158080170055, 0.0740469042211771 -1.681886339560151 M-0.839436543174088 65.21365374047309 C0.6136986912508269 41.00678383481829, 0.9551192523260374 14.558028743921795, -0.9964187564328313 -0.12979176919907331" stroke="#000000" stroke-width="1" fill="none"></path></g><g transform="translate(858.341512044271 150.85116577148438) rotate(0 43.749481201171875 32.8275146484375)"><path d="M-1.4700362738221884 -0.12097367085516453 C25.354316843886394 -0.26725611125157056, 49.86176970829908 -0.3370375934712666, 87.1900384966284 -0.06585278548300266 M0.2935924408957362 0.0007144780829548836 C32.076536740758755 0.43277172066011926, 63.09762782254315 0.852286466133981, 87.81693859677762 -0.971118482761085 M87.45429926551878 0.06572232209146023 C87.55996567773244 14.791641510879003, 87.51609302329442 27.06306813069682, 87.08263003267348 64.8752129431814 M87.65945191960782 0.9894878538325429 C87.17857490833994 24.78366773142441, 87.38249947484728 48.9971257538527, 88.45033328514546 65.27891301829368 M89.0668462458998 64.97604159079492 C57.536494189165396 65.48923997462012, 25.097567074447603 67.83560000241019, -0.16267783008515835 65.03349325619638 M88.1746901748702 65.71033692080528 C52.980894296139084 66.42372926832432, 18.917762289173112 65.17090934277768, -0.9070604862645268 64.93829682189971 M-0.7734475787729025 66.56695435009897 C-0.4908917848975739 43.47575660999571, 0.048910945185891674 16.613537980610225, 1.6645030919462442 -0.7712486628443003 M0.36051692347973585 66.16744258720428 C1.2530697929045687 48.28242503985132, -0.44528644808320905 32.331395109991035, 0.8215089915320277 -0.9394697574898601" stroke="#000000" stroke-width="1" fill="none"></path></g><g transform="translate(985.0972798665366 150.85116577148438) rotate(0 43.749481201171875 32.8275146484375)"><path d="M0.4799341503530741 -1.098628306761384 C18.04897108683743 -1.1154844355919322, 35.56300962549464 -0.01292743209385494, 88.71915435232222 -0.11438258923590183 M0.48857154231518507 -0.1630809037014842 C20.212859902743112 0.25580868086319986, 40.90030114860805 -0.9717436436702627, 86.6386810420081 -0.6415447620674968 M87.98117207922041 0.7433125134557486 C87.92263762699872 18.615583223611637, 87.0679682348898 38.51852982182905, 88.98375325836241 65.99444017373025 M87.0671547530219 0.2129595847800374 C87.37644875910738 18.57539182492799, 88.5557027247236 37.063248450146745, 87.9900790033862 66.34447821695358 M88.08340221084654 65.14902553521097 C56.53955000301522 67.19833196417126, 28.03261834266926 64.7364396573666, 1.8337804023176432 64.06882957182825 M87.25327714066952 66.18176302034408 C58.793176777728405 64.97733669186582, 29.253199515068047 64.9866904189681, 0.60670046787709 65.69331419188529 M-0.4657558258622885 67.15555909834802 C0.32795052144083686 43.94726230813901, 1.918406709165904 24.83201933567902, -0.9442041572183371 -1.678873086348176 M0.7019374845549464 64.87934624869376 C-1.2331162481636442 48.7265812472626, 0.5848114998012147 31.118246978558496, 0.8553362069651484 -0.06595358531922102" stroke="#000000" stroke-width="1" fill="none"></path></g><g transform="translate(1111.8530476888022 150.85116577148438) rotate(0 43.749481201171875 32.8275146484375)"><path d="M0.11300432123243809 -1.16840978898108 C25.411511281096306 0.4147913990543219, 52.661062323601776 0.3662615953014227, 86.13699739612639 0.5871848817914724 M-0.07830257434397936 0.2564338417723775 C26.573916524228775 -0.8284243841459209, 51.651599299254165 -0.49885066345233264, 87.49175264220685 -0.02233156841248274 M87.9372994247824 -1.0335898641496897 C87.24092748498634 19.13244248448757, 89.14205071067528 40.1639285532176, 87.20139908231795 65.97600833140314 M87.27107931952924 -0.1442905394360423 C88.16682984647706 25.816877913708936, 87.7065755647178 53.07543730465909, 87.88778351526707 66.43897121865302 M86.19138311780989 67.49538556300104 C64.05713183985318 64.81211923560996, 42.774437339850586 63.84745555124182, 0.5530722681432962 67.00648484192789 M87.462527978234 64.92894309479743 C59.85827722469229 65.39918336455838, 34.63841348744696 66.15420073454396, 0.05016704183071852 65.26830550748855 M0.0740469042211771 63.97314295731485 C1.8173991539071381 42.1936485406695, -0.7913080952574433 18.59589202380443, -0.8827511128038168 0.7210338469594717 M-0.9964187564328313 65.52523752767593 C0.36065173040173015 41.654799791454955, 0.3944789458348509 19.46755621569541, 0.3544830558821559 -0.7484095124527812" stroke="#000000" stroke-width="1" fill="none"></path></g><g transform="translate(723.779988606771 292.3929748535157) rotate(0 43.749481201171875 32.82751464843747)"><path d="M-0.30892390571534634 -0.06585278548300266 C22.66343882530835 0.3967906317470278, 41.5245287444424 1.098358102774402, 87.50039135850966 0.9771430846303701 M0.31797619443386793 -0.971118482761085 C23.962466374215836 -0.865921712866795, 49.638285708966066 -0.24670851921178094, 87.53182356338948 0.24110483843833208 M87.08263003267348 -0.7798163536936045 C89.12764840861298 22.4760299083013, 87.34529423256852 44.59421709742023, 89.47793811000884 64.79141399823129 M88.45033328514546 -0.37611627858132124 C87.84046229860171 21.784144486919445, 87.73816681048258 42.97333305545976, 87.15946854930371 65.9472492011264 M87.33628457225859 65.03349325619638 C65.29679428982256 64.87397589051164, 39.98013764080937 67.81163116061128, 0.11061524786055088 65.16365877352655 M86.59190191607922 64.93829682189971 C57.247108722930975 65.05799629892084, 25.83202114959473 64.6329876145241, 0.4559625266119838 65.42215138394386 M1.6645030919462442 64.8837806340307 C-0.9685119155482584 39.35378101763706, -0.9070588711337382 17.131312758054946, 1.024826580658555 1.4038749691098928 M0.8215089915320277 64.71555953938514 C1.5095352334206815 50.98531624783611, 1.008682082337689 35.69910085698288, -0.47557560820132494 -0.5101834861561656" stroke="#000000" stroke-width="1" fill="none"></path></g><g transform="translate(1113.1765340169272 295.37655639648443) rotate(0 43.749481201171875 32.82751464843747)"><path d="M1.2201919499784708 -0.11438258923590183 C19.77599150465647 0.6159951337968067, 42.27734197791357 1.0059533366357045, 87.17280059494078 -0.15660514868795872 M-0.8602813603356481 -0.6415447620674968 C28.486248468559207 0.8273870277008502, 57.01977761843795 1.090823434551665, 87.87061865907162 0.21916851121932268 M88.98375325836241 0.3394108768552542 C87.06472751267825 16.62446918300559, 89.34126654036913 31.7433649983112, 87.92488157190382 65.19926313124597 M87.9900790033862 0.6894489200785756 C88.51240634709248 19.533110751446998, 87.78409138112912 37.790557563589346, 87.24596052151173 65.00123965460807 M89.3327428046614 64.06882957182825 C53.75088276294993 66.73456604865268, 19.007273835130064 64.89173998025134, 1.053467446938157 65.58216044865549 M88.10566287022084 65.69331419188529 C67.6526196531159 64.64117202868454, 48.161905346838616 64.79501790513984, 0.7502649007365108 65.69205274898559 M-0.9442041572183371 63.976156210526824 C-1.4291661091361654 52.20076919966375, 0.47841158432620656 38.70831637764345, -1.5513660963624716 -1.9928375128656626 M0.8553362069651484 65.58907571155578 C-0.1848789131846592 46.062259236285556, -1.0149375772681402 27.456124714445508, 0.9329397557303309 -0.06505114119499922" stroke="#000000" stroke-width="1" fill="none"></path></g><g><g transform="translate(896.1735127766929 75.92446899414062) rotate(0 1.6627647184208172 37.04892418455336)"><path d="M0.9094095434993503 -0.2919257428497076 C1.1080154981464145 12.267178123568495, 1.066758820042014 61.77033773797254, 1.2883189525455236 74.35056091286242 M-0.072289175502956 -1.4907907031849028 C0.469426562078297 11.310645179462929, 3.157503059394658 62.56551552942644, 3.397818612344563 75.58863907229156" stroke="#000000" stroke-width="1" fill="none"></path></g></g><g><g transform="translate(941.8945210774741 76.19052124023438) rotate(0 48.71771036004645 37.47384549194945)"><path d="M-0.8670048985630274 0.006541464105248362 C15.069188031181692 12.636265549436212, 79.74786085747182 63.4955129120499, 96.13488882444798 75.98331919647754 M0.8786788003519179 -1.0356282125785947 C17.130812666900454 11.20905632983893, 82.3091736261919 61.264171799533074, 98.30242561865597 74.09191241037101" stroke="#000000" stroke-width="1" fill="none"></path></g></g><g><g transform="translate(943.9665425618491 42.1673583984375) rotate(0 110.48890592133625 54.478094423357405)"><path d="M0.45702330730855456 0.172067091241479 C37.352959482495976 18.620634763812024, 184.62388287844755 91.4177015437434, 221.73999002836644 109.73939047791063 M-0.7621781856939196 -0.7832016311958432 C35.89577818044772 17.382003591967123, 183.23617745964475 89.68943051389108, 220.50348925638943 107.85062637578696" stroke="#000000" stroke-width="1" fill="none"></path></g></g><g><g transform="translate(857.0461324055991 72.67208862304688) rotate(0 -41.70504694687202 39.83449709611014)"><path d="M-0.4751521613448858 0.7300197210162878 C-14.594888169194261 13.918408009037375, -69.98400531870624 65.30537665747107, -83.71882807277143 78.24143836162985 M1.4762542246095838 0.0676761292107404 C-12.925546116797875 13.50861923502758, -70.73513518310463 66.35569228278473, -84.88634811835364 79.60131806300953" stroke="#000000" stroke-width="1" fill="none"></path></g></g><g><g transform="translate(855.6799214680991 33.61578369140625) rotate(0 -101.6295000894554 58.15931666483172)"><path d="M-0.9135380174964667 0.20635742805898194 C-34.98581830126543 19.747208611791333, -169.59568651380638 97.52843703093627, -203.6853606726974 117.04954219721257 M0.807715793978423 -0.7309088675491513 C-33.393615508147825 18.438235192069165, -169.5024537053394 95.69933454152817, -204.06671597288923 115.02784663932398" stroke="#000000" stroke-width="1" fill="none"></path></g></g><g><g transform="translate(776.3463643391929 219.35763549804688) rotate(0 0.29418694978573967 37.46708820473401)"><path d="M0.9283530201762915 -0.27136307023465633 C0.8820159918318192 12.184898338094355, 0.683194260423382 62.424928018823266, 0.48561707399785514 74.76751869656145 M-0.04340037357062099 -1.4594326274469496 C-0.2941689130788048 11.213353397361935, -0.13216403416047484 63.704690161459155, -0.3399791206046938 76.39360903691501" stroke="#000000" stroke-width="1" fill="none"></path></g></g><g><g transform="translate(1161.2313130696616 217.2738647460938) rotate(0 -0.8941665176023434 39.67850550492295)"><path d="M0.04771219231188306 -0.8847649130970239 C-0.13132163149615117 12.427018277471266, -0.5128847903261582 65.80574730696777, -0.6322617080062628 79.21604619883001 M-1.386377636063844 1.2651295621879401 C-1.804725616046538 14.75328004575645, -1.7822687235164145 67.02390828010316, -1.8360452275164425 80.2417759229429" stroke="#000000" stroke-width="1" fill="none"></path></g></g></svg>