<svg version="1.1" xmlns="http://www.w3.org/2000/svg" viewBox="0 0 965.8083190917969 614.137870788574" width="1931.6166381835938" height="1228.275741577148">
  <!-- svg-source:excalidraw -->
  
  <defs>
    <style>
      @font-face {
        font-family: "Virgil";
        src: url("https://excalidraw.com/Virgil.woff2");
      }
      @font-face {
        font-family: "Cascadia";
        src: url("https://excalidraw.com/Cascadia.woff2");
      }
    </style>
  </defs>
  <rect x="0" y="0" width="965.8083190917969" height="614.137870788574" fill="#ffffff"></rect><g stroke-linecap="round" transform="translate(81.61981201171875 10) rotate(0 100.15206909179688 94.87806701660156)"><path d="M101.54 1.56 C132.1 28.41, 159.12 53.73, 199.86 94.24 M100.1 0.41 C121.37 19.78, 140.59 38.32, 200 94.38 M201.66 95.43 C167.79 128.83, 131.15 161.37, 99.48 189.88 M200.47 95.39 C171.64 125.35, 140.39 154.69, 100.54 190.66 M102.66 188.17 C70.32 159.87, 37.24 130.29, 0.84 94.36 M100.57 189.08 C68.89 156.88, 35.25 126.5, 0.36 95.05 M0.02 96.92 C33.49 63.94, 68.94 31.36, 99.87 -0.37 M0.48 95.84 C36.23 60.92, 73.15 25.61, 101.64 0.63" stroke="#000000" stroke-width="1" fill="none"></path></g><g stroke-linecap="round" transform="translate(374.4891052246094 11.971054077148438) rotate(0 100.15206909179688 94.87806701660156)"><path d="M102.72 -1.35 C137.64 35.45, 175.47 71.37, 201.6 94.09 M100.06 -0.58 C132.87 30.78, 164.88 61.09, 200.23 95.03 M201.77 93.18 C178.34 114.67, 160.33 133.81, 100.65 191.19 M200.68 94.69 C177.11 115.78, 155.03 136.52, 100.17 189.74 M102.88 189.14 C66.75 159.58, 34.2 125.16, 1.64 94.91 M100.74 189.52 C71.99 161.78, 42.04 134.36, -0.03 95.42 M-0.08 93.51 C40.14 58.16, 76.86 24.27, 101.39 0.56 M0.51 95.97 C22.81 74.25, 46.93 52.2, 100.75 0.1" stroke="#000000" stroke-width="1" fill="none"></path></g><g transform="translate(147.0711669921875 67.9454345703125) rotate(0 34 37.5)"><text x="34" y="18" font-family="Virgil, Segoe UI Emoji" font-size="20px" fill="#000000" text-anchor="middle" style="white-space: pre;" direction="ltr">Is the</text><text x="34" y="43" font-family="Virgil, Segoe UI Emoji" font-size="20px" fill="#000000" text-anchor="middle" style="white-space: pre;" direction="ltr">channel</text><text x="34" y="68" font-family="Virgil, Segoe UI Emoji" font-size="20px" fill="#000000" text-anchor="middle" style="white-space: pre;" direction="ltr">nil?</text></g><g transform="translate(442.9483642578125 66.40237426757812) rotate(0 34 37.5)"><text x="34" y="18" font-family="Virgil, Segoe UI Emoji" font-size="20px" fill="#000000" text-anchor="middle" style="white-space: pre;" direction="ltr">Is the</text><text x="34" y="43" font-family="Virgil, Segoe UI Emoji" font-size="20px" fill="#000000" text-anchor="middle" style="white-space: pre;" direction="ltr">channel</text><text x="34" y="68" font-family="Virgil, Segoe UI Emoji" font-size="20px" fill="#000000" text-anchor="middle" style="white-space: pre;" direction="ltr">empty?</text></g><g stroke-linecap="round" transform="translate(10 97.57708740234375) rotate(0 11.31219482421875 9.465011596679688)"><path d="M13.38 -0.05 C15.59 0.39, 18.15 1.97, 19.77 3.6 C21.39 5.22, 23.2 7.56, 23.11 9.72 C23.02 11.88, 20.87 14.95, 19.24 16.57 C17.6 18.19, 15.49 19.19, 13.29 19.42 C11.09 19.65, 8.04 19.03, 6.05 17.94 C4.05 16.86, 2.12 14.91, 1.32 12.91 C0.52 10.92, 0.44 8.03, 1.26 5.98 C2.08 3.94, 3.94 1.45, 6.25 0.63 C8.56 -0.2, 13.33 0.95, 15.11 1.04 C16.89 1.14, 16.94 1.01, 16.92 1.18 M15.28 0.07 C17.32 0.85, 20.08 4.04, 21.06 5.87 C22.04 7.7, 21.56 8.9, 21.14 11.02 C20.71 13.15, 20.51 17.07, 18.53 18.62 C16.55 20.17, 11.94 20.61, 9.26 20.31 C6.58 20.01, 3.87 18.42, 2.45 16.81 C1.04 15.2, 0.85 12.79, 0.76 10.66 C0.68 8.54, 0.87 6.01, 1.97 4.04 C3.07 2.06, 4.97 -0.46, 7.37 -1.2 C9.76 -1.93, 14.83 -0.75, 16.35 -0.4 C17.86 -0.04, 16.67 0.71, 16.45 0.95" stroke="#000000" stroke-width="1" fill="none"></path></g><g stroke-linecap="round"><g transform="translate(38.91217041015625 107.42623901367188) rotate(0 23.451742122001008 -1.5988378740847224)"><path d="M-1.19 -0.26 C6.61 -0.83, 38.08 -2.57, 45.89 -2.94 M0.38 -1.44 C8.63 -1.84, 40.17 -0.86, 48.1 -1.38" stroke="#000000" stroke-width="1" fill="none"></path></g><g transform="translate(38.91217041015625 107.42623901367188) rotate(0 23.451742122001008 -1.5988378740847224)"><path d="M25.69 5.29 C31.11 3.29, 36.81 4.39, 48.3 -0.34 M26.62 6.05 C29.87 6.16, 35.28 2.77, 48.98 -0.81" stroke="#000000" stroke-width="1" fill="none"></path></g><g transform="translate(38.91217041015625 107.42623901367188) rotate(0 23.451742122001008 -1.5988378740847224)"><path d="M25.51 -10.77 C31.03 -9.15, 36.78 -4.44, 48.3 -0.34 M26.44 -10 C29.87 -6.48, 35.32 -6.46, 48.98 -0.81" stroke="#000000" stroke-width="1" fill="none"></path></g></g><g stroke-linecap="round"><g transform="translate(282.0575071210974 106.09061017977069) rotate(0 48.4919478549063 -1.364354223990773)"><path d="M1.18 -0.42 C16.73 -0.61, 78.65 -2.23, 94.5 -2.3 M0.34 -1.69 C16.15 -1.66, 80.73 -1.06, 96.64 -1.27" stroke="#000000" stroke-width="1" fill="none"></path></g><g transform="translate(282.0575071210974 106.09061017977069) rotate(0 48.4919478549063 -1.364354223990773)"><path d="M67.75 7.2 C78.18 5.78, 91.77 -0.02, 97.88 0.54 M69.12 10 C77.55 5.22, 84.52 2.79, 97.35 -1.48" stroke="#000000" stroke-width="1" fill="none"></path></g><g transform="translate(282.0575071210974 106.09061017977069) rotate(0 48.4919478549063 -1.364354223990773)"><path d="M67.74 -13.32 C77.97 -6.58, 91.57 -4.21, 97.88 0.54 M69.11 -10.52 C77.44 -9.12, 84.41 -5.38, 97.35 -1.48" stroke="#000000" stroke-width="1" fill="none"></path></g></g><g transform="translate(78.02117919921875 265.0216979980469) rotate(0 112 37.5)"><text x="112" y="18" font-family="Virgil, Segoe UI Emoji" font-size="20px" fill="#000000" text-anchor="middle" style="white-space: pre;" direction="ltr">The receive blocks for</text><text x="112" y="43" font-family="Virgil, Segoe UI Emoji" font-size="20px" fill="#000000" text-anchor="middle" style="white-space: pre;" direction="ltr">at least as long as</text><text x="112" y="68" font-family="Virgil, Segoe UI Emoji" font-size="20px" fill="#000000" text-anchor="middle" style="white-space: pre;" direction="ltr">the channel remains nil.</text></g><g stroke-linecap="round" transform="translate(69.727294921875 258.1529235839845) rotate(0 118.65078735351562 43.29489135742182)"><path d="M-1.05 -1.48 C66.18 1.34, 135.95 2.88, 238.18 -1.4 M-0.79 0.8 C91.47 -1.12, 184.69 -0.89, 238.06 0.22 M237.09 1.16 C239.25 26.2, 238.98 53.53, 236.35 85.6 M236.67 0.85 C237.65 22.68, 237.41 44.22, 238.27 86.31 M237.6 86.5 C175.16 84.68, 110.75 85.45, 1.12 85.21 M236.71 86.36 C177.4 85.73, 118.38 85.41, 0.63 86.25 M-1.52 86.89 C0.91 68.75, -2.53 50.04, -1.01 1.13 M-0.1 86.88 C0.09 66.13, -0.16 45.98, 0.02 0.49" stroke="#000000" stroke-width="1" fill="none"></path></g><g transform="translate(311.36956787109375 66.22621154785156) rotate(0 10 12.5)"><text x="10" y="18" font-family="Virgil, Segoe UI Emoji" font-size="20px" fill="#000000" text-anchor="middle" style="white-space: pre;" direction="ltr">no</text></g><g transform="translate(131.4818115234375 203.7236328125) rotate(0 15.5 12.5)"><text x="15.5" y="18" font-family="Virgil, Segoe UI Emoji" font-size="20px" fill="#000000" text-anchor="middle" style="white-space: pre;" direction="ltr">yes</text></g><g stroke-linecap="round" transform="translate(660.1880493164062 49.38673400878906) rotate(0 138.3883056640625 49.9456787109375)"><path d="M1.03 0.91 C97.58 -0.93, 192.32 -0.88, 277.65 1.2 M0.45 -0.09 C101.27 0.17, 202.58 1.13, 276.89 0.01 M276.16 0 C276.67 19.22, 277.16 41.78, 278.65 101.78 M277.57 -0.15 C277.6 27.94, 277.87 54.86, 276.97 100.25 M277.65 99.1 C171.04 99.3, 62.4 96.95, -0.11 101.12 M277.45 100.12 C195.23 100.13, 112.82 99.64, 0.22 100.64 M0.46 100.35 C-2.64 70.3, -2.49 42.79, 0.52 0.55 M-0.12 99.93 C-0.71 80.77, -0.09 60.39, 0.09 -0.95" stroke="#000000" stroke-width="1" fill="none"></path></g><g transform="translate(671.5823364257812 61.31910705566406) rotate(0 127.5 37.5)"><text x="127.5" y="18" font-family="Virgil, Segoe UI Emoji" font-size="20px" fill="#000000" text-anchor="middle" style="white-space: pre;" direction="ltr">The receive proceeds by</text><text x="127.5" y="43" font-family="Virgil, Segoe UI Emoji" font-size="20px" fill="#000000" text-anchor="middle" style="white-space: pre;" direction="ltr">removing the next element</text><text x="127.5" y="68" font-family="Virgil, Segoe UI Emoji" font-size="20px" fill="#000000" text-anchor="middle" style="white-space: pre;" direction="ltr">from the channel.</text></g><g transform="translate(593.8003234863281 66.22621154785156) rotate(0 10 12.5)"><text x="10" y="18" font-family="Virgil, Segoe UI Emoji" font-size="20px" fill="#000000" text-anchor="middle" style="white-space: pre;" direction="ltr">no</text></g><g stroke-linecap="round"><g transform="translate(475.59131456654154 203.2771389723123) rotate(0 1.2340854736801816 31.37506320346708)"><path d="M0.91 -0.79 C0.48 22.18, -0.12 46.78, 2.1 62.48 M0.37 -0.62 C1.25 21.99, 1.8 43.65, 0.86 63.54" stroke="#000000" stroke-width="1" fill="none"></path></g><g transform="translate(475.59131456654154 203.2771389723123) rotate(0 1.2340854736801816 31.37506320346708)"><path d="M-7.75 34.3 C-5.18 43.87, -2.67 55.12, 1.61 62.52 M-8.3 34.47 C-4.67 45.24, -1.36 55, 0.36 63.59" stroke="#000000" stroke-width="1" fill="none"></path></g><g transform="translate(475.59131456654154 203.2771389723123) rotate(0 1.2340854736801816 31.37506320346708)"><path d="M12.76 34.84 C7.52 44.34, 2.22 55.39, 1.61 62.52 M12.22 35.01 C8.88 45.48, 5.23 55.06, 0.36 63.59" stroke="#000000" stroke-width="1" fill="none"></path></g></g><g stroke-linecap="round" transform="translate(375.84429931640625 260.88038635253906) rotate(0 100.15206909179688 94.87806701660156)"><path d="M101.98 -0.15 C133.29 31.43, 168.14 65.83, 200.14 93.27 M100.29 -0.89 C134.69 32.25, 169.7 64.11, 199.76 95.57 M201.27 96.62 C177.4 118.47, 153.01 139.37, 100.26 189.26 M199.95 94.31 C177 116.55, 154.09 138.11, 101.94 190.28 M100.01 188.82 C72.91 166.38, 47.65 142.94, -1.92 96.94 M101.5 190.33 C62.59 152.54, 22.18 115.52, 0.66 94.77 M-1.42 96.83 C41 58.84, 77.47 23.78, 102.31 1.65 M-0.89 95.85 C25.22 69.46, 52.48 44.81, 101.23 0.4" stroke="#000000" stroke-width="1" fill="none"></path></g><g transform="translate(418.9714660644531 299.48980712890625) rotate(0 55 50)"><text x="55" y="18" font-family="Virgil, Segoe UI Emoji" font-size="20px" fill="#000000" text-anchor="middle" style="white-space: pre;" direction="ltr">Has</text><text x="55" y="43" font-family="Virgil, Segoe UI Emoji" font-size="20px" fill="#000000" text-anchor="middle" style="white-space: pre;" direction="ltr">the channel</text><text x="55" y="68" font-family="Virgil, Segoe UI Emoji" font-size="20px" fill="#000000" text-anchor="middle" style="white-space: pre;" direction="ltr">been closed</text><text x="55" y="93" font-family="Virgil, Segoe UI Emoji" font-size="20px" fill="#000000" text-anchor="middle" style="white-space: pre;" direction="ltr">yet?</text></g><g transform="translate(430.35313415527344 458.31317138671875) rotate(0 10 12.5)"><text x="10" y="18" font-family="Virgil, Segoe UI Emoji" font-size="20px" fill="#000000" text-anchor="middle" style="white-space: pre;" direction="ltr">no</text></g><g stroke-linecap="round" transform="translate(663.1077575683594 305.7825012207031) rotate(0 146.35028076171875 49.9456787109375)"><path d="M1.18 -0.95 C66.19 -0.88, 132.7 0.08, 293.58 0.15 M-0.5 0.68 C92.19 -2.13, 184.52 -1.32, 292.19 0.38 M294.35 -1.25 C291.98 19.75, 292.76 40.51, 292.16 98.75 M292.8 -0.88 C293.97 31.44, 293.1 65.27, 292.44 99.74 M292.98 98.52 C219.67 97.23, 149.27 97.48, 1.01 101.06 M292.49 99.72 C232.21 100.6, 170.8 101.5, 0.36 99.33 M0.28 98.91 C0.46 64.76, -0.56 28.78, -1.96 0.76 M-0.83 98.98 C-0.07 76.46, 1.17 53.86, -0.46 -0.14" stroke="#000000" stroke-width="1" fill="none"></path></g><g transform="translate(677.6476745605469 314.49090576171875) rotate(0 132.5 37.5)"><text x="132.5" y="18" font-family="Virgil, Segoe UI Emoji" font-size="20px" fill="#000000" text-anchor="middle" style="white-space: pre;" direction="ltr">The receive proceeds by</text><text x="132.5" y="43" font-family="Virgil, Segoe UI Emoji" font-size="20px" fill="#000000" text-anchor="middle" style="white-space: pre;" direction="ltr">yielding the zero value of</text><text x="132.5" y="68" font-family="Virgil, Segoe UI Emoji" font-size="20px" fill="#000000" text-anchor="middle" style="white-space: pre;" direction="ltr">the channel's element type.</text></g><g stroke-linecap="round"><g transform="translate(573.7699034628924 105.87980826371347) rotate(0 41.92115250009573 -0.6688778397859494)"><path d="M1.12 -1.14 C14.74 -1.66, 67.96 -1.99, 81.45 -2.21 M0.25 0.87 C14.25 0.45, 70.13 -0.5, 83.59 -0.9" stroke="#000000" stroke-width="1" fill="none"></path></g><g transform="translate(573.7699034628924 105.87980826371347) rotate(0 41.92115250009573 -0.6688778397859494)"><path d="M53.74 8.17 C62.58 5.89, 69.89 2.19, 82.84 -2.31 M54.77 10.85 C63.36 6.19, 72.12 2.91, 82.6 -0.26" stroke="#000000" stroke-width="1" fill="none"></path></g><g transform="translate(573.7699034628924 105.87980826371347) rotate(0 41.92115250009573 -0.6688778397859494)"><path d="M53.28 -12.34 C62.4 -8.95, 69.84 -6.97, 82.84 -2.31 M54.3 -9.66 C63.09 -8.52, 71.98 -6, 82.6 -0.26" stroke="#000000" stroke-width="1" fill="none"></path></g></g><g stroke-linecap="round"><g transform="translate(575.7303508594632 359.8374285623431) rotate(0 43.463899698108435 -0.5413579503074288)"><path d="M-1.05 -1.39 C26.04 0.9, 47.97 0.04, 87.9 0.22 M0.2 0.31 C32.67 -0.3, 63.22 0.42, 87.98 -1.31" stroke="#000000" stroke-width="1" fill="none"></path></g><g transform="translate(575.7303508594632 359.8374285623431) rotate(0 43.463899698108435 -0.5413579503074288)"><path d="M59.19 8.73 C69.44 7.53, 74.5 3.67, 87.88 -0.35 M60.45 10.43 C71.05 5.97, 79.78 2.82, 87.95 -1.88" stroke="#000000" stroke-width="1" fill="none"></path></g><g transform="translate(575.7303508594632 359.8374285623431) rotate(0 43.463899698108435 -0.5413579503074288)"><path d="M58.33 -11.77 C68.78 -7.22, 74.08 -5.34, 87.88 -0.35 M59.59 -10.07 C70.58 -7.11, 79.62 -2.84, 87.95 -1.88" stroke="#000000" stroke-width="1" fill="none"></path></g></g><g transform="translate(593.8003234863281 320.7880859375) rotate(0 15.5 12.5)"><text x="15.5" y="18" font-family="Virgil, Segoe UI Emoji" font-size="20px" fill="#000000" text-anchor="middle" style="white-space: pre;" direction="ltr">yes</text></g><g stroke-linecap="round"><g transform="translate(181.8943328857422 201.38469696044922) rotate(0 -1.0485041007529503 29.7445609439211)"><path d="M0.01 0.2 C0.02 10.42, -0.93 50.55, -0.83 60.22 M-1.44 -0.73 C-1.55 9.25, -2.34 48.66, -2.05 58.63" stroke="#000000" stroke-width="1" fill="none"></path></g><g transform="translate(181.8943328857422 201.38469696044922) rotate(0 -1.0485041007529503 29.7445609439211)"><path d="M-11.87 29.96 C-8.49 38.62, -9.47 42.66, -0.46 60.07 M-12.01 30.59 C-8.56 39.94, -5.38 49.18, -2.31 58.21" stroke="#000000" stroke-width="1" fill="none"></path></g><g transform="translate(181.8943328857422 201.38469696044922) rotate(0 -1.0485041007529503 29.7445609439211)"><path d="M8.38 29.93 C7.21 38.59, 1.68 42.64, -0.46 60.07 M8.24 30.56 C4.87 39.88, 1.22 49.12, -2.31 58.21" stroke="#000000" stroke-width="1" fill="none"></path></g></g><g transform="translate(430.35313415527344 208.0730209350586) rotate(0 15.5 12.5)"><text x="15.5" y="18" font-family="Virgil, Segoe UI Emoji" font-size="20px" fill="#000000" text-anchor="middle" style="white-space: pre;" direction="ltr">yes</text></g><g transform="translate(224.1316680908203 517.8181686401366) rotate(0 254 37.5)"><text x="0" y="18" font-family="Virgil, Segoe UI Emoji" font-size="20px" fill="#000000" text-anchor="start" style="white-space: pre;" direction="ltr">The receive blocks until</text><text x="0" y="43" font-family="Virgil, Segoe UI Emoji" font-size="20px" fill="#000000" text-anchor="start" style="white-space: pre;" direction="ltr">- either a corresponding send occurs on the channel</text><text x="0" y="68" font-family="Virgil, Segoe UI Emoji" font-size="20px" fill="#000000" text-anchor="start" style="white-space: pre;" direction="ltr">- or the channel gets closed.</text></g><g stroke-linecap="round" transform="translate(213.53431701660156 508.47570037841786) rotate(0 264.7208251953125 47.83108520507807)"><path d="M0.65 -0.19 C193.17 1.91, 384.49 2.16, 529.38 0.44 M0.23 -0.25 C203.99 -1.83, 408.82 -1.24, 529.19 0.12 M528.12 0.93 C530.46 23.09, 531.91 49.99, 527.47 93.86 M529.19 -0.35 C530.41 24.39, 529.27 48.72, 528.47 95.47 M529.61 95.63 C385.68 94.24, 242.69 93.69, 0.33 95.14 M529.17 95.67 C365.98 97.41, 202.54 97.24, 0.01 95.84 M-0.05 95 C-0.41 77.96, 0.38 57.76, -1.53 0.49 M-0.61 95.75 C0.36 73.33, 1.24 51.17, 0.39 0.27" stroke="#000000" stroke-width="1" fill="none"></path></g><g stroke-linecap="round"><g transform="translate(476.78173407681174 448.97557075954387) rotate(0 -0.18296846516312826 31.316563287010467)"><path d="M-1.98 -0.8 C0.04 12.94, 1.38 24.85, -0.35 63.02 M-0.84 -0.29 C-0.04 23.37, 0.26 47.27, 1.62 63.43" stroke="#000000" stroke-width="1" fill="none"></path></g><g transform="translate(476.78173407681174 448.97557075954387) rotate(0 -0.18296846516312826 31.316563287010467)"><path d="M-12.28 35.1 C-7.82 41.35, -4.26 45.74, -0.08 62.95 M-11.14 35.6 C-6.17 45.76, -1.93 56.25, 1.89 63.36" stroke="#000000" stroke-width="1" fill="none"></path></g><g transform="translate(476.78173407681174 448.97557075954387) rotate(0 -0.18296846516312826 31.316563287010467)"><path d="M8.2 33.88 C8.38 40.33, 7.65 44.98, -0.08 62.95 M9.34 34.38 C6.66 45.18, 3.27 56.12, 1.89 63.36" stroke="#000000" stroke-width="1" fill="none"></path></g></g></svg>