<svg version="1.1" xmlns="http://www.w3.org/2000/svg" viewBox="0 0 858.3340454101562 262.1581115722656" width="1716.6680908203125" height="524.3162231445312">
  <!-- svg-source:excalidraw -->
  
  <defs>
    <style class="style-fonts">
      @font-face {
        font-family: "Virgil";
        src: url("https://excalidraw.com/Virgil.woff2");
      }
      @font-face {
        font-family: "Cascadia";
        src: url("https://excalidraw.com/Cascadia.woff2");
      }
      @font-face {
        font-family: "Assistant";
        src: url("https://excalidraw.com/Assistant-Regular.woff2");
      }
    </style>
    
  </defs>
  <rect x="0" y="0" width="858.3340454101562" height="262.1581115722656" fill="#ffffff"></rect><g stroke-linecap="round" transform="translate(10 46.00811767578125) rotate(0 46.79443359375 103.07499694824219)"><path d="M0 0 C19.92 -0.8, 38.4 -1.02, 93.59 0 M0 0 C21.74 0.44, 44.67 -0.23, 93.59 0 M93.59 0 C90.5 60.67, 91.27 125.11, 93.59 206.15 M93.59 0 C96.04 73.85, 94.95 145.71, 93.59 206.15 M93.59 206.15 C60.88 206.63, 32.04 206.61, 0 206.15 M93.59 206.15 C67.3 204.96, 42.98 205.87, 0 206.15 M0 206.15 C0.86 155.15, -0.21 103.21, 0 0 M0 206.15 C1.22 135.21, 1.45 63.03, 0 0" stroke="#1e1e1e" stroke-width="2" fill="none"></path></g><g stroke-linecap="round"><g transform="translate(12.1390380859375 109.07351684570312) rotate(0 43.70458984375 -0.5029144287109375)"><path d="M0 0 C17.97 -1.19, 34.77 -1.52, 87.41 -1.01 M0 0 C19.81 -0.25, 37.98 -0.24, 87.41 -1.01" stroke="#1e1e1e" stroke-width="2" fill="none"></path></g></g><mask></mask><g transform="translate(23.4989013671875 155.01100463867186) rotate(0 33.35546875 27.599999999999994)"><text x="33.35546875" y="0" font-family="Helvetica, Segoe UI Emoji" font-size="16px" fill="#1e1e1e" text-anchor="middle" style="white-space: pre;" direction="ltr" dominant-baseline="text-before-edge">some</text><text x="33.35546875" y="18.4" font-family="Helvetica, Segoe UI Emoji" font-size="16px" fill="#1e1e1e" text-anchor="middle" style="white-space: pre;" direction="ltr" dominant-baseline="text-before-edge">metadata</text><text x="33.35546875" y="36.8" font-family="Helvetica, Segoe UI Emoji" font-size="16px" fill="#1e1e1e" text-anchor="middle" style="white-space: pre;" direction="ltr" dominant-baseline="text-before-edge">...</text></g><g stroke-linecap="round" transform="translate(367.45428466796875 95.435302734375) rotate(0 240.43988037109375 78.36140441894531)"><path d="M0 0 C190.69 -0.03, 380.26 -0.01, 480.88 0 M0 0 C173.89 0.28, 347.27 0.35, 480.88 0 M480.88 0 C481.44 56.85, 479.62 113.18, 480.88 156.72 M480.88 0 C480.51 39.06, 479.84 79.28, 480.88 156.72 M480.88 156.72 C305.43 158.67, 130.16 158.94, 0 156.72 M480.88 156.72 C310.99 157.92, 141.79 157.92, 0 156.72 M0 156.72 C-1.07 113.35, 0.68 71.7, 0 0 M0 156.72 C2.05 116.25, 2.37 76.94, 0 0" stroke="#1e1e1e" stroke-width="2" fill="none"></path></g><g transform="translate(596.2252197265625 157.6967071533203) rotate(0 11.6689453125 16.099999999999994)"><text x="11.6689453125" y="0" font-family="Helvetica, Segoe UI Emoji" font-size="28px" fill="#1e1e1e" text-anchor="middle" style="white-space: pre;" direction="ltr" dominant-baseline="text-before-edge">...</text></g><g transform="translate(368.01544189453125 60.522430419921875) rotate(0 90.60546875 11.5)"><text x="0" y="0" font-family="Helvetica, Segoe UI Emoji" font-size="20px" fill="#1e1e1e" text-anchor="start" style="white-space: pre;" direction="ltr" dominant-baseline="text-before-edge">actual data structure</text></g><g transform="translate(10.0245361328125 10) rotate(0 91.162109375 11.5)"><text x="0" y="0" font-family="Helvetica, Segoe UI Emoji" font-size="20px" fill="#1e1e1e" text-anchor="start" style="white-space: pre;" direction="ltr" dominant-baseline="text-before-edge">reference-type value</text></g><g stroke-linecap="round"><g transform="translate(90.730712890625 75.73150634765625) rotate(0 137.50698852539068 15.147861742703839)"><path d="M-0.72 0.55 C18.93 0.52, 86.86 -4.5, 118.28 -0.22 C149.7 4.05, 161.64 21, 187.81 26.2 C213.98 31.39, 260.93 29.94, 275.32 30.94" stroke="#868e96" stroke-width="2.5" fill="none" stroke-dasharray="8 10"></path></g><g transform="translate(90.730712890625 75.73150634765625) rotate(0 137.50698852539068 15.147861742703839)"><path d="M251.63 38.93 C260.47 36.57, 268.61 33.56, 275.32 30.94" stroke="#868e96" stroke-width="2.5" fill="none"></path></g><g transform="translate(90.730712890625 75.73150634765625) rotate(0 137.50698852539068 15.147861742703839)"><path d="M252.04 21.83 C260.73 25.19, 268.74 27.88, 275.32 30.94" stroke="#868e96" stroke-width="2.5" fill="none"></path></g></g><mask></mask><g transform="translate(33.02392578125 64.83025512695309) rotate(0 24.4609375 9.199999999999989)"><text x="24.4609375" y="0" font-family="Helvetica, Segoe UI Emoji" font-size="16px" fill="#1e1e1e" text-anchor="middle" style="white-space: pre;" direction="ltr" dominant-baseline="text-before-edge">pointer</text></g></svg>