<svg version="1.1" xmlns="http://www.w3.org/2000/svg" viewBox="0 0 1083.1512145996094 377.8653106689453" width="2166.3024291992188" height="755.7306213378906">
  <!-- svg-source:excalidraw -->
  
  <defs>
    <style>
      @font-face {
        font-family: "Virgil";
        src: url("https://excalidraw.com/Virgil.woff2");
      }
      @font-face {
        font-family: "Cascadia";
        src: url("https://excalidraw.com/Cascadia.woff2");
      }
    </style>
  </defs>
  <g stroke-linecap="round" transform="translate(81.61981201171875 10.431411743164062) rotate(0 100.15206909179688 94.87806701660156)"><path d="M101.54 1.56 C132.1 28.41, 159.12 53.73, 199.86 94.24 M100.1 0.41 C121.37 19.78, 140.59 38.32, 200 94.38 M201.66 95.43 C167.79 128.83, 131.15 161.37, 99.48 189.88 M200.47 95.39 C171.64 125.35, 140.39 154.69, 100.54 190.66 M102.66 188.17 C70.32 159.87, 37.24 130.29, 0.84 94.36 M100.57 189.08 C68.89 156.88, 35.25 126.5, 0.36 95.05 M0.02 96.92 C33.49 63.94, 68.94 31.36, 99.87 -0.37 M0.48 95.84 C36.23 60.92, 73.15 25.61, 101.64 0.63" stroke="#000000" stroke-width="1" fill="none"></path></g><g stroke-linecap="round" transform="translate(374.4891052246094 12.4024658203125) rotate(0 100.15206909179688 94.87806701660156)"><path d="M102.72 -1.35 C137.64 35.45, 175.47 71.37, 201.6 94.09 M100.06 -0.58 C132.87 30.78, 164.88 61.09, 200.23 95.03 M201.77 93.18 C178.34 114.67, 160.33 133.81, 100.65 191.19 M200.68 94.69 C177.11 115.78, 155.03 136.52, 100.17 189.74 M102.88 189.14 C66.75 159.58, 34.2 125.16, 1.64 94.91 M100.74 189.52 C71.99 161.78, 42.04 134.36, -0.03 95.42 M-0.08 93.51 C40.14 58.16, 76.86 24.27, 101.39 0.56 M0.51 95.97 C22.81 74.25, 46.93 52.2, 100.75 0.1" stroke="#000000" stroke-width="1" fill="none"></path></g><g transform="translate(147.0711669921875 68.37684631347656) rotate(0 34 37.5)"><text x="34" y="18" font-family="Virgil, Segoe UI Emoji" font-size="20px" fill="#000000" text-anchor="middle" style="white-space: pre;" direction="ltr">Is the</text><text x="34" y="43" font-family="Virgil, Segoe UI Emoji" font-size="20px" fill="#000000" text-anchor="middle" style="white-space: pre;" direction="ltr">channel</text><text x="34" y="68" font-family="Virgil, Segoe UI Emoji" font-size="20px" fill="#000000" text-anchor="middle" style="white-space: pre;" direction="ltr">nil?</text></g><g transform="translate(418.8431396484375 50.83259582519531) rotate(0 55 50)"><text x="55" y="18" font-family="Virgil, Segoe UI Emoji" font-size="20px" fill="#000000" text-anchor="middle" style="white-space: pre;" direction="ltr">Has</text><text x="55" y="43" font-family="Virgil, Segoe UI Emoji" font-size="20px" fill="#000000" text-anchor="middle" style="white-space: pre;" direction="ltr">the channel</text><text x="55" y="68" font-family="Virgil, Segoe UI Emoji" font-size="20px" fill="#000000" text-anchor="middle" style="white-space: pre;" direction="ltr">been closed</text><text x="55" y="93" font-family="Virgil, Segoe UI Emoji" font-size="20px" fill="#000000" text-anchor="middle" style="white-space: pre;" direction="ltr">yet?</text></g><g stroke-linecap="round" transform="translate(10 98.00849914550781) rotate(0 11.31219482421875 9.465011596679688)"><path d="M13.38 -0.05 C15.59 0.39, 18.15 1.97, 19.77 3.6 C21.39 5.22, 23.2 7.56, 23.11 9.72 C23.02 11.88, 20.87 14.95, 19.24 16.57 C17.6 18.19, 15.49 19.19, 13.29 19.42 C11.09 19.65, 8.04 19.03, 6.05 17.94 C4.05 16.86, 2.12 14.91, 1.32 12.91 C0.52 10.92, 0.44 8.03, 1.26 5.98 C2.08 3.94, 3.94 1.45, 6.25 0.63 C8.56 -0.2, 13.33 0.95, 15.11 1.04 C16.89 1.14, 16.94 1.01, 16.92 1.18 M15.28 0.07 C17.32 0.85, 20.08 4.04, 21.06 5.87 C22.04 7.7, 21.56 8.9, 21.14 11.02 C20.71 13.15, 20.51 17.07, 18.53 18.62 C16.55 20.17, 11.94 20.61, 9.26 20.31 C6.58 20.01, 3.87 18.42, 2.45 16.81 C1.04 15.2, 0.85 12.79, 0.76 10.66 C0.68 8.54, 0.87 6.01, 1.97 4.04 C3.07 2.06, 4.97 -0.46, 7.37 -1.2 C9.76 -1.93, 14.83 -0.75, 16.35 -0.4 C17.86 -0.04, 16.67 0.71, 16.45 0.95" stroke="#000000" stroke-width="1" fill="none"></path></g><g stroke-linecap="round"><g transform="translate(34.451904296875 107.94261169433594) rotate(0 23.451742122001008 -1.5988378740847224)"><path d="M-1.19 -0.26 C6.61 -0.83, 38.08 -2.57, 45.89 -2.94 M0.38 -1.44 C8.63 -1.84, 40.17 -0.86, 48.1 -1.38" stroke="#000000" stroke-width="1" fill="none"></path></g><g transform="translate(34.451904296875 107.94261169433594) rotate(0 23.451742122001008 -1.5988378740847224)"><path d="M25.69 5.29 C31.11 3.29, 36.81 4.39, 48.3 -0.34 M26.62 6.05 C29.87 6.16, 35.28 2.77, 48.98 -0.81" stroke="#000000" stroke-width="1" fill="none"></path></g><g transform="translate(34.451904296875 107.94261169433594) rotate(0 23.451742122001008 -1.5988378740847224)"><path d="M25.51 -10.77 C31.03 -9.15, 36.78 -4.44, 48.3 -0.34 M26.44 -10 C29.87 -6.48, 35.32 -6.46, 48.98 -0.81" stroke="#000000" stroke-width="1" fill="none"></path></g></g><g stroke-linecap="round"><g transform="translate(282.0575071210974 106.52202192293475) rotate(0 48.4919478549063 -1.364354223990773)"><path d="M1.18 -0.42 C16.73 -0.61, 78.65 -2.23, 94.5 -2.3 M0.34 -1.69 C16.15 -1.66, 80.73 -1.06, 96.64 -1.27" stroke="#000000" stroke-width="1" fill="none"></path></g><g transform="translate(282.0575071210974 106.52202192293475) rotate(0 48.4919478549063 -1.364354223990773)"><path d="M67.75 7.2 C78.18 5.78, 91.77 -0.02, 97.88 0.54 M69.12 10 C77.55 5.22, 84.52 2.79, 97.35 -1.48" stroke="#000000" stroke-width="1" fill="none"></path></g><g transform="translate(282.0575071210974 106.52202192293475) rotate(0 48.4919478549063 -1.364354223990773)"><path d="M67.74 -13.32 C77.97 -6.58, 91.57 -4.21, 97.88 0.54 M69.11 -10.52 C77.44 -9.12, 84.41 -5.38, 97.35 -1.48" stroke="#000000" stroke-width="1" fill="none"></path></g></g><g transform="translate(76.13409423828125 281.08290100097656) rotate(0 111.5 37.5)"><text x="111.5" y="18" font-family="Virgil, Segoe UI Emoji" font-size="20px" fill="#000000" text-anchor="middle" style="white-space: pre;" direction="ltr">The send blocks for</text><text x="111.5" y="43" font-family="Virgil, Segoe UI Emoji" font-size="20px" fill="#000000" text-anchor="middle" style="white-space: pre;" direction="ltr">at least as long as</text><text x="111.5" y="68" font-family="Virgil, Segoe UI Emoji" font-size="20px" fill="#000000" text-anchor="middle" style="white-space: pre;" direction="ltr">the channel remains nil.</text></g><g stroke-linecap="round" transform="translate(69.28683471679688 270.6599884033204) rotate(0 118.91349792480469 48.60266113281244)"><path d="M-1.05 -1.48 C66.33 1.35, 136.25 2.88, 238.7 -1.4 M-0.79 0.8 C91.67 -1.12, 185.1 -0.89, 238.59 0.22 M237.62 1.16 C239.78 29.38, 239.52 59.89, 236.87 96.21 M237.2 0.85 C238.21 25.45, 237.96 49.75, 238.79 96.92 M238.13 97.12 C175.54 95.29, 111 96.06, 1.12 95.82 M237.23 96.97 C177.8 96.34, 118.64 96.03, 0.63 96.86 M-1.52 97.51 C0.83 77.06, -2.62 56.05, -1.01 1.13 M-0.1 97.5 C0.02 74.25, -0.24 51.6, 0.02 0.49" stroke="#000000" stroke-width="1" fill="none"></path></g><g transform="translate(311.36956787109375 68.65278625488281) rotate(0 10 12.5)"><text x="10" y="18" font-family="Virgil, Segoe UI Emoji" font-size="20px" fill="#000000" text-anchor="middle" style="white-space: pre;" direction="ltr">no</text></g><g transform="translate(138.8829345703125 208.26380920410156) rotate(0 15.5 12.5)"><text x="15.5" y="18" font-family="Virgil, Segoe UI Emoji" font-size="20px" fill="#000000" text-anchor="middle" style="white-space: pre;" direction="ltr">yes</text></g><g transform="translate(883.2164916992188 68.65278625488281) rotate(0 10 12.5)"><text x="10" y="18" font-family="Virgil, Segoe UI Emoji" font-size="20px" fill="#000000" text-anchor="middle" style="white-space: pre;" direction="ltr">no</text></g><g transform="translate(600.7687377929688 68.65278625488281) rotate(0 10 12.5)"><text x="10" y="18" font-family="Virgil, Segoe UI Emoji" font-size="20px" fill="#000000" text-anchor="middle" style="white-space: pre;" direction="ltr">no</text></g><g stroke-linecap="round" transform="translate(944.7746276855469 55.56843566894531) rotate(0 64.18829345703125 49.9456787109375)"><path d="M1.59 -1.27 C28.84 -1.57, 58.12 -0.28, 129.55 0.2 M-0.67 0.91 C40.44 -1.73, 81.06 -0.64, 127.69 0.5 M130.02 -1.25 C127.66 19.75, 128.44 40.51, 127.83 98.75 M128.47 -0.88 C129.64 31.44, 128.77 65.27, 128.12 99.74 M128.75 98.05 C95.38 97.27, 65.91 97.61, 1.35 101.45 M128.1 99.66 C102.25 99.77, 74.88 100.98, 0.48 99.13 M0.28 98.91 C0.46 64.76, -0.56 28.78, -1.96 0.76 M-0.83 98.98 C-0.07 76.46, 1.17 53.86, -0.46 -0.14" stroke="#000000" stroke-width="1" fill="none"></path></g><g transform="translate(960.8746032714844 63.94956970214844) rotate(0 47 37.5)"><text x="47" y="18" font-family="Virgil, Segoe UI Emoji" font-size="20px" fill="#000000" text-anchor="middle" style="white-space: pre;" direction="ltr">The send</text><text x="47" y="43" font-family="Virgil, Segoe UI Emoji" font-size="20px" fill="#000000" text-anchor="middle" style="white-space: pre;" direction="ltr">proceeds</text><text x="47" y="68" font-family="Virgil, Segoe UI Emoji" font-size="20px" fill="#000000" text-anchor="middle" style="white-space: pre;" direction="ltr">normally.</text></g><g stroke-linecap="round"><g transform="translate(573.7699034628924 106.31122000687753) rotate(0 44.68731486371934 -0.6984074861680654)"><path d="M1.12 -1.14 C15.66 -1.67, 72.58 -2.04, 86.99 -2.27 M0.25 0.87 C15.17 0.44, 74.74 -0.55, 89.13 -0.96" stroke="#000000" stroke-width="1" fill="none"></path></g><g transform="translate(573.7699034628924 106.31122000687753) rotate(0 44.68731486371934 -0.6984074861680654)"><path d="M59.26 8.09 C68.1 5.82, 75.42 2.12, 88.37 -2.37 M60.29 10.77 C68.89 6.12, 77.64 2.84, 88.13 -0.32" stroke="#000000" stroke-width="1" fill="none"></path></g><g transform="translate(573.7699034628924 106.31122000687753) rotate(0 44.68731486371934 -0.6984074861680654)"><path d="M58.82 -12.42 C67.93 -9.02, 75.37 -7.03, 88.37 -2.37 M59.84 -9.74 C68.63 -8.59, 77.51 -6.07, 88.13 -0.32" stroke="#000000" stroke-width="1" fill="none"></path></g></g><g stroke-linecap="round" transform="translate(662.7600708007812 10) rotate(0 100.15206909179688 94.87806701660156)"><path d="M101.25 -1.34 C139.79 37.07, 178.78 74.69, 202.24 94.99 M100.55 0.33 C136.25 34.46, 172.92 69.32, 199.98 94.29 M200.42 95.79 C178.98 116.01, 155.12 138.77, 100.14 190.08 M199.81 95.74 C159.94 131.65, 120.42 168.18, 101.58 189.64 M99.16 188.92 C67.1 154.63, 27.86 124.07, -0.78 93.83 M100.51 190.14 C67.57 156.31, 33.47 124.23, 0.18 94.13 M-1.16 95.23 C26.21 70.44, 48.88 48.3, 102.68 -1.14 M-0.07 94.21 C40.15 58.92, 78.93 20.27, 101.51 -0.15" stroke="#000000" stroke-width="1" fill="none"></path></g><g transform="translate(731.2193298339844 64.43132019042969) rotate(0 34 37.5)"><text x="34" y="18" font-family="Virgil, Segoe UI Emoji" font-size="20px" fill="#000000" text-anchor="middle" style="white-space: pre;" direction="ltr">Is the</text><text x="34" y="43" font-family="Virgil, Segoe UI Emoji" font-size="20px" fill="#000000" text-anchor="middle" style="white-space: pre;" direction="ltr">channel</text><text x="34" y="68" font-family="Virgil, Segoe UI Emoji" font-size="20px" fill="#000000" text-anchor="middle" style="white-space: pre;" direction="ltr">full?</text></g><g stroke-linecap="round"><g transform="translate(863.7165126026662 105.63759440774288) rotate(0 40.09369335560791 -1.9106921447622085)"><path d="M-0.33 -1.5 C16.53 0.45, 34.6 -1.63, 80.91 -4.27 M-0.72 0.44 C20.06 -0.77, 39.01 -1.75, 80.62 -2.13" stroke="#000000" stroke-width="1" fill="none"></path></g><g transform="translate(863.7165126026662 105.63759440774288) rotate(0 40.09369335560791 -1.9106921447622085)"><path d="M52.26 7.07 C58.3 7.83, 65.6 4.11, 80.29 -3.84 M51.87 9.01 C59.77 5.79, 65.84 2.84, 80.01 -1.71" stroke="#000000" stroke-width="1" fill="none"></path></g><g transform="translate(863.7165126026662 105.63759440774288) rotate(0 40.09369335560791 -1.9106921447622085)"><path d="M51.95 -13.45 C58.18 -8.54, 65.55 -8.11, 80.29 -3.84 M51.56 -11.51 C59.57 -9.77, 65.72 -7.75, 80.01 -1.71" stroke="#000000" stroke-width="1" fill="none"></path></g></g><g transform="translate(717.6698913574219 208.26380920410156) rotate(0 15.5 12.5)"><text x="15.5" y="18" font-family="Virgil, Segoe UI Emoji" font-size="20px" fill="#000000" text-anchor="middle" style="white-space: pre;" direction="ltr">yes</text></g><g stroke-linecap="round"><g transform="translate(474.6731481291465 205.0675759272351) rotate(0 -0.08369612765932288 31.560754606385643)"><path d="M-0.08 0.82 C-2.03 18.79, 1.13 40.93, 0.44 63.01 M0.03 0.11 C0.11 19.4, 0.18 39.46, -0.59 60.99" stroke="#000000" stroke-width="1" fill="none"></path></g><g transform="translate(474.6731481291465 205.0675759272351) rotate(0 -0.08369612765932288 31.560754606385643)"><path d="M-10.21 33.36 C-9.01 40.78, -2.66 52.3, 0.36 62.17 M-10.09 32.65 C-7.11 41.31, -3.84 50.74, -0.68 60.15" stroke="#000000" stroke-width="1" fill="none"></path></g><g transform="translate(474.6731481291465 205.0675759272351) rotate(0 -0.08369612765932288 31.560754606385643)"><path d="M10.31 33.89 C4.98 41.01, 4.8 52.37, 0.36 62.17 M10.42 33.18 C6.86 41.65, 3.59 50.91, -0.68 60.15" stroke="#000000" stroke-width="1" fill="none"></path></g></g><g transform="translate(430.8277893066406 208.26380920410156) rotate(0 15.5 12.5)"><text x="15.5" y="18" font-family="Virgil, Segoe UI Emoji" font-size="20px" fill="#000000" text-anchor="middle" style="white-space: pre;" direction="ltr">yes</text></g><g stroke-linecap="round" transform="translate(420.9523620605469 270.6599884033204) rotate(0 52.40350341796875 28.686660766601562)"><path d="M-0.57 -1.38 C24.24 0.72, 45.07 -0.46, 104.75 0.14 M-0.87 0.67 C32.78 -0.53, 66.7 -1.03, 105.2 -0.76 M105.37 -0.31 C104.19 11.75, 104.45 22.58, 103.05 58.97 M104.61 -0.35 C103.42 13.85, 104.5 26.71, 104.42 57.96 M105.45 56.04 C69.88 56.95, 31.08 59.34, 1.12 56.65 M104.16 58.1 C67.87 57.02, 29.44 56.13, -0.36 56.41 M1.02 59.28 C-0.62 44.28, 1.26 29.47, -0.92 0.3 M0.68 57.8 C-0.6 43.62, -0.1 30.41, 0.94 -0.94" stroke="#000000" stroke-width="1" fill="none"></path></g><g transform="translate(447.2189636230469 283.57530212402355) rotate(0 26 12.5)"><text x="26" y="18" font-family="Virgil, Segoe UI Emoji" font-size="20px" fill="#000000" text-anchor="middle" style="white-space: pre;" direction="ltr">panic!</text></g><g stroke-linecap="round"><g transform="translate(763.9533131041371 200.3915232025514) rotate(0 0.6414477294439394 34.07132494704598)"><path d="M0.57 -0.01 C0.95 24.77, 1.61 53.79, 0.77 66.85 M0.08 -0.02 C1.43 23.1, 0.33 47.12, 1.2 68.17" stroke="#000000" stroke-width="1" fill="none"></path></g><g transform="translate(763.9533131041371 200.3915232025514) rotate(0 0.6414477294439394 34.07132494704598)"><path d="M-9.02 40.16 C-5.38 49.33, -1.06 62.7, 0.42 67.41 M-9.51 40.15 C-4.87 49.29, -2.7 59.28, 0.85 68.72" stroke="#000000" stroke-width="1" fill="none"></path></g><g transform="translate(763.9533131041371 200.3915232025514) rotate(0 0.6414477294439394 34.07132494704598)"><path d="M11.5 39.77 C7.04 49.01, 3.25 62.52, 0.42 67.41 M11.01 39.76 C8.38 48.94, 3.29 59.07, 0.85 68.72" stroke="#000000" stroke-width="1" fill="none"></path></g></g><g transform="translate(651.2383270263672 281.08290100097656) rotate(0 113 37.5)"><text x="113" y="18" font-family="Virgil, Segoe UI Emoji" font-size="20px" fill="#000000" text-anchor="middle" style="white-space: pre;" direction="ltr">The send blocks until</text><text x="113" y="43" font-family="Virgil, Segoe UI Emoji" font-size="20px" fill="#000000" text-anchor="middle" style="white-space: pre;" direction="ltr">a corresponding receive</text><text x="113" y="68" font-family="Virgil, Segoe UI Emoji" font-size="20px" fill="#000000" text-anchor="middle" style="white-space: pre;" direction="ltr">occurs on the channel.</text></g><g stroke-linecap="round" transform="translate(645.8910675048828 270.6599884033204) rotate(0 123.23863220214844 48.60266113281244)"><path d="M-0.65 -0.91 C84.5 3.2, 167.4 0.36, 245.31 1.49 M0.05 0 C62.93 -1.09, 126.46 -0.45, 247.08 0.19 M246.81 -1.21 C247.05 36.67, 247.04 77.95, 245.48 96.28 M246.85 0.62 C246.57 35.78, 245.06 72.87, 245.54 96.34 M245.6 95.57 C172.52 95.8, 97.66 96.47, -0.1 95.68 M245.93 97.54 C160.35 96.91, 72.17 97.69, 0.23 96.52 M0.55 97.23 C0.59 71.87, 2.29 49.06, 1.6 0.38 M-0.23 97.28 C-0.52 61.26, -1.34 25.64, 0.76 0.61" stroke="#000000" stroke-width="1" fill="none"></path></g><g stroke-linecap="round"><g transform="translate(183.83178522722528 204.67426349886046) rotate(0 -0.618660750798881 30.400537159179265)"><path d="M-1.94 -1.88 C-0.7 25.94, -0.37 49.34, 0.28 61.8 M0.7 -0.86 C0.22 18.19, -0.04 38.38, -0.33 62.68" stroke="#000000" stroke-width="1" fill="none"></path></g><g transform="translate(183.83178522722528 204.67426349886046) rotate(0 -0.618660750798881 30.400537159179265)"><path d="M-12.18 32.48 C-7.1 47.13, -2.69 57.41, 0.45 62.66 M-9.54 33.5 C-6.56 42.34, -3.67 52.39, -0.16 63.54" stroke="#000000" stroke-width="1" fill="none"></path></g><g transform="translate(183.83178522722528 204.67426349886046) rotate(0 -0.618660750798881 30.400537159179265)"><path d="M8.34 32.74 C5.39 47.41, 1.76 57.59, 0.45 62.66 M10.98 33.76 C7.75 42.67, 4.43 52.64, -0.16 63.54" stroke="#000000" stroke-width="1" fill="none"></path></g></g></svg>