<svg version="1.1" xmlns="http://www.w3.org/2000/svg" viewBox="0 0 740.1850007643458 211.74395340485137" width="1480.3700015286915" height="423.48790680970274">
  <!-- svg-source:excalidraw -->
  
  <defs>
    <style class="style-fonts">
      @font-face {
        font-family: "Virgil";
        src: url("https://excalidraw.com/Virgil.woff2");
      }
      @font-face {
        font-family: "Cascadia";
        src: url("https://excalidraw.com/Cascadia.woff2");
      }
      @font-face {
        font-family: "Assistant";
        src: url("https://excalidraw.com/Assistant-Regular.woff2");
      }
    </style>
    
  </defs>
  <rect x="0" y="0" width="740.1850007643458" height="211.74395340485137" fill="#ffffff"></rect><g stroke-linecap="round" transform="translate(398.441409455752 63.00981491608184) rotate(0 165.87179565429688 43.36437988281251)"><path d="M0 0 C67.64 1, 136.37 1.4, 331.74 0 M331.74 0 C333.42 20.89, 334.45 44.69, 331.74 86.73 M331.74 86.73 C255.45 85.75, 182.18 84.58, 0 86.73 M0 86.73 C-0.51 58.22, 0.64 28.45, 0 0" stroke="#1864ab" stroke-width="2.5" fill="none" stroke-dasharray="8 10"></path></g><g transform="translate(413.34976516864265 34.66527145905059) rotate(0 35.5712890625 11.5)"><text x="0" y="0" font-family="Helvetica, Segoe UI Emoji" font-size="20px" fill="#000000" text-anchor="start" style="white-space: pre;" direction="ltr" dominant-baseline="text-before-edge">[3]string</text></g><g stroke-linecap="round" transform="translate(411.3197969069239 70.51900070709746) rotate(0 152.62008666992188 33.96922302246094)"><path d="M0 0 C103.61 -1.05, 206.2 -3.18, 305.24 0 M0 0 C64.47 -1.68, 129.08 -1.89, 305.24 0 M305.24 0 C306.6 15.27, 304.39 28.57, 305.24 67.94 M305.24 0 C304.95 26.66, 304.79 51.66, 305.24 67.94 M305.24 67.94 C199.41 70.25, 96.41 71.2, 0 67.94 M305.24 67.94 C193.24 67.71, 80.98 68.01, 0 67.94 M0 67.94 C2.05 52.51, -0.62 38.05, 0 0 M0 67.94 C-1.25 41.23, -0.18 14.57, 0 0" stroke="#000000" stroke-width="1" fill="none"></path></g><g stroke-linecap="round"><g transform="translate(508.45669876239265 71.29256027740996) rotate(0 -0.64581298828125 33.376251220703125)"><path d="M-0.07 0.26 C-0.13 11.5, -0.51 55.97, -0.59 67.08 M-1.57 -0.65 C-1.7 10.24, -1.27 53.64, -1.17 65.14" stroke="#000000" stroke-width="1" fill="none"></path></g></g><mask></mask><g stroke-linecap="round"><g transform="translate(620.2753633131739 71.11708420319121) rotate(0 -0.64581298828125 33.376251220703125)"><path d="M0.47 -0.61 C0.37 10.59, -1.29 55.15, -1.53 66.38 M-0.74 1.68 C-0.95 13.13, -2.46 56.65, -2.6 67.72" stroke="#000000" stroke-width="1" fill="none"></path></g></g><mask></mask><g transform="translate(436.55179153583015 95.15357750458281) rotate(0 21.0009765625 11.5)"><text x="0" y="0" font-family="Helvetica, Segoe UI Emoji" font-size="20px" fill="#000000" text-anchor="start" style="white-space: pre;" direction="ltr" dominant-baseline="text-before-edge">"foo"</text></g><g transform="translate(542.1500581373926 94.77204674286406) rotate(0 21.552734375 11.5)"><text x="0" y="0" font-family="Helvetica, Segoe UI Emoji" font-size="20px" fill="#000000" text-anchor="start" style="white-space: pre;" direction="ltr" dominant-baseline="text-before-edge">"bar"</text></g><g transform="translate(645.3354219069239 95.15357750458281) rotate(0 23.22265625 11.5)"><text x="0" y="0" font-family="Helvetica, Segoe UI Emoji" font-size="20px" fill="#000000" text-anchor="start" style="white-space: pre;" direction="ltr" dominant-baseline="text-before-edge">"baz"</text></g><g stroke-linecap="round" transform="translate(59.705902099609375 62.94402664703887) rotate(0 63.96907043457031 69.39996337890625)"><path d="M0 0 C51.78 0.9, 101.72 0.91, 127.94 0 M0 0 C50.28 0.35, 101.78 -0.52, 127.94 0 M127.94 0 C127.94 36.03, 125.6 70.79, 127.94 138.8 M127.94 0 C126.83 42.16, 128.08 82.65, 127.94 138.8 M127.94 138.8 C93.72 137.91, 62.12 140.55, 0 138.8 M127.94 138.8 C99.55 138.52, 70.34 137.85, 0 138.8 M0 138.8 C-0.03 100.16, 1.23 58.97, 0 0 M0 138.8 C0.29 85.92, -0.56 33.98, 0 0" stroke="#1864ab" stroke-width="1" fill="none"></path></g><g stroke-linecap="round"><g transform="translate(62.7540283203125 115.14944046539824) rotate(0 63.536376953125 0.3572540283203125)"><path d="M0.66 1.07 C21.92 1.2, 106.59 1.89, 127.74 1.87 M-0.45 0.59 C20.69 0.93, 105.89 0.06, 127.14 0.35" stroke="#1864ab" stroke-width="1" fill="none"></path></g></g><mask></mask><g stroke-linecap="round"><g transform="translate(56.16583251953125 159.21738785309356) rotate(0 63.536376953125 0.3572540283203125)"><path d="M0.67 1.15 C21.82 1.12, 106.57 0.88, 127.57 0.92 M-0.44 0.71 C20.54 0.81, 105.87 -0.88, 126.88 -1.1" stroke="#1864ab" stroke-width="1" fill="none"></path></g></g><mask></mask><g transform="translate(61.06280517578125 27.02906387848418) rotate(0 30.009765625 11.5)"><text x="0" y="0" font-family="Helvetica, Segoe UI Emoji" font-size="20px" fill="#1864ab" text-anchor="start" style="white-space: pre;" direction="ltr" dominant-baseline="text-before-edge">[]string</text></g><g transform="translate(16 127.63045853180449) rotate(0 13.3447265625 11.5)"><text x="0" y="0" font-family="Helvetica, Segoe UI Emoji" font-size="20px" fill="#1864ab" text-anchor="start" style="white-space: pre;" direction="ltr" dominant-baseline="text-before-edge">len</text></g><g transform="translate(10 173.2005268911795) rotate(0 16.123046875 11.5)"><text x="0" y="0" font-family="Helvetica, Segoe UI Emoji" font-size="20px" fill="#1864ab" text-anchor="start" style="white-space: pre;" direction="ltr" dominant-baseline="text-before-edge">cap</text></g><g transform="translate(19 77.44204300446074) rotate(0 11.669921875 11.5)"><text x="0" y="0" font-family="Helvetica, Segoe UI Emoji" font-size="20px" fill="#1864ab" text-anchor="start" style="white-space: pre;" direction="ltr" dominant-baseline="text-before-edge">ptr</text></g><g transform="translate(111.36065673828125 125.30410355133574) rotate(0 5.5615234375 11.5)"><text x="0" y="0" font-family="Helvetica, Segoe UI Emoji" font-size="20px" fill="#1864ab" text-anchor="start" style="white-space: pre;" direction="ltr" dominant-baseline="text-before-edge">3</text></g><g transform="translate(109.53012084960938 169.11480301422637) rotate(0 5.5615234375 11.5)"><text x="0" y="0" font-family="Helvetica, Segoe UI Emoji" font-size="20px" fill="#1864ab" text-anchor="start" style="white-space: pre;" direction="ltr" dominant-baseline="text-before-edge">3</text></g><g stroke-linecap="round" transform="translate(244.27102981708015 73.62085312408965) rotate(0 40.96307373046875 33.96922302246094)"><path d="M0 0 C28.2 -1.03, 58.92 -0.95, 81.93 0 M0 0 C24.36 0, 50.91 -0.18, 81.93 0 M81.93 0 C80.2 14.75, 80.51 29.84, 81.93 67.94 M81.93 0 C81.63 19.96, 80.9 39.11, 81.93 67.94 M81.93 67.94 C65.44 69.31, 48.8 69.73, 0 67.94 M81.93 67.94 C54.48 67.13, 27.25 68.02, 0 67.94 M0 67.94 C-0.1 44.38, 0.91 20.89, 0 0 M0 67.94 C-0.17 44.03, 0.25 18.91, 0 0" stroke="#000000" stroke-width="1" fill="none"></path></g><g transform="translate(264.2331269850489 96.09007614655059) rotate(0 21.0009765625 11.5)"><text x="21.0009765625" y="0" font-family="Helvetica, Segoe UI Emoji" font-size="20px" fill="#1e1e1e" text-anchor="middle" style="white-space: pre;" direction="ltr" dominant-baseline="text-before-edge">"foo"</text></g><g transform="translate(243.08154617450202 34.66527145905059) rotate(0 35.5712890625 11.5)"><text x="0" y="0" font-family="Helvetica, Segoe UI Emoji" font-size="20px" fill="#000000" text-anchor="start" style="white-space: pre;" direction="ltr" dominant-baseline="text-before-edge">[1]string</text></g><g stroke-linecap="round"><g transform="translate(128.79963823722676 87.55042403082933) rotate(0 132.8914827785315 -38.76676451831125)"><path d="M-0.86 -0.91 C23.58 -13.64, 102 -75.59, 146.58 -77.5 C191.16 -79.42, 246.66 -23.43, 266.59 -12.41 M0.88 1.22 C25.2 -11.19, 101.55 -73.85, 145.77 -75.95 C190 -78.05, 246.12 -22.37, 266.25 -11.39" stroke="#1864ab" stroke-width="1" fill="none"></path></g><g transform="translate(128.79963823722676 87.55042403082933) rotate(0 132.8914827785315 -38.76676451831125)"><path d="M237.4 -19.59 C244.24 -16.53, 254.26 -13.23, 266.25 -11.39 M237.4 -19.59 C244.81 -17.42, 251.72 -15.49, 266.25 -11.39" stroke="#1864ab" stroke-width="1" fill="none"></path></g><g transform="translate(128.79963823722676 87.55042403082933) rotate(0 132.8914827785315 -38.76676451831125)"><path d="M249.42 -36.22 C252.58 -28.38, 259.08 -20.21, 266.25 -11.39 M249.42 -36.22 C253.83 -29.8, 257.7 -23.65, 266.25 -11.39" stroke="#1864ab" stroke-width="1" fill="none"></path></g></g><mask></mask><g stroke-linecap="round"><g transform="translate(297.0805085768458 124.20811813873809) rotate(0 73.75240931909582 16.910341084542722)"><path d="M0 0 C10.18 6.11, 36.49 37.11, 61.08 36.64 C85.66 36.17, 133.1 3.76, 147.5 -2.82" stroke="#868e96" stroke-width="1.5" fill="none" stroke-dasharray="1.5 7"></path></g><g transform="translate(297.0805085768458 124.20811813873809) rotate(0 73.75240931909582 16.910341084542722)"><path d="M127.86 19.85 C132 15.07, 136.15 10.29, 147.5 -2.82" stroke="#868e96" stroke-width="1.5" fill="none" stroke-dasharray="1.5 5"></path></g><g transform="translate(297.0805085768458 124.20811813873809) rotate(0 73.75240931909582 16.910341084542722)"><path d="M117.88 1.92 C124.13 0.92, 130.38 -0.08, 147.5 -2.82" stroke="#868e96" stroke-width="1.5" fill="none" stroke-dasharray="1.5 5"></path></g></g><mask></mask><g transform="translate(332.554446565127 173.70849655670685) rotate(0 22.2265625 9.199999999999996)"><text x="0" y="0" font-family="Helvetica, Segoe UI Emoji" font-size="16px" fill="#868e96" text-anchor="start" style="white-space: pre;" direction="ltr" dominant-baseline="text-before-edge">(copy)</text></g></svg>