<svg version="1.1" xmlns="http://www.w3.org/2000/svg" viewBox="0 0 740.1850007643458 194.7148895263672" width="1480.3700015286915" height="389.4297790527344">
  <!-- svg-source:excalidraw -->
  
  <defs>
    <style class="style-fonts">
      @font-face {
        font-family: "Virgil";
        src: url("https://excalidraw.com/Virgil.woff2");
      }
      @font-face {
        font-family: "Cascadia";
        src: url("https://excalidraw.com/Cascadia.woff2");
      }
      @font-face {
        font-family: "Assistant";
        src: url("https://excalidraw.com/Assistant-Regular.woff2");
      }
    </style>
    
  </defs>
  <rect x="0" y="0" width="740.1850007643458" height="194.7148895263672" fill="#ffffff"></rect><g stroke-linecap="round" transform="translate(398.441409455752 45.980751037597656) rotate(0 165.87179565429688 43.36437988281251)"><path d="M0 0 C67.64 1, 136.37 1.4, 331.74 0 M331.74 0 C333.42 20.89, 334.45 44.69, 331.74 86.73 M331.74 86.73 C255.45 85.75, 182.18 84.58, 0 86.73 M0 86.73 C-0.51 58.22, 0.64 28.45, 0 0" stroke="#ffffff" stroke-width="2.5" fill="none" stroke-dasharray="8 10"></path></g><g stroke-linecap="round" transform="translate(411.3197969069239 53.48993682861328) rotate(0 152.62008666992188 33.96922302246094)"><path d="M0 0 C103.61 -1.05, 206.2 -3.18, 305.24 0 M0 0 C64.47 -1.68, 129.08 -1.89, 305.24 0 M305.24 0 C306.6 15.27, 304.39 28.57, 305.24 67.94 M305.24 0 C304.95 26.66, 304.79 51.66, 305.24 67.94 M305.24 67.94 C199.41 70.25, 96.41 71.2, 0 67.94 M305.24 67.94 C193.24 67.71, 80.98 68.01, 0 67.94 M0 67.94 C2.05 52.51, -0.62 38.05, 0 0 M0 67.94 C-1.25 41.23, -0.18 14.57, 0 0" stroke="#ffffff" stroke-width="1" fill="none"></path></g><g stroke-linecap="round"><g transform="translate(508.45669876239265 54.26349639892578) rotate(0 -0.64581298828125 33.376251220703125)"><path d="M-0.07 0.26 C-0.13 11.5, -0.51 55.97, -0.59 67.08 M-1.57 -0.65 C-1.7 10.24, -1.27 53.64, -1.17 65.14" stroke="#ffffff" stroke-width="1" fill="none"></path></g></g><mask></mask><g stroke-linecap="round"><g transform="translate(620.2753633131739 54.08802032470703) rotate(0 -0.64581298828125 33.376251220703125)"><path d="M0.47 -0.61 C0.37 10.59, -1.29 55.15, -1.53 66.38 M-0.74 1.68 C-0.95 13.13, -2.46 56.65, -2.6 67.72" stroke="#ffffff" stroke-width="1" fill="none"></path></g></g><mask></mask><g transform="translate(436.55179153583015 78.12451362609863) rotate(0 21.0009765625 11.5)"><text x="0" y="0" font-family="Helvetica, Segoe UI Emoji" font-size="20px" fill="#ffffff" text-anchor="start" style="white-space: pre;" direction="ltr" dominant-baseline="text-before-edge">"foo"</text></g><g transform="translate(542.1500581373926 77.74298286437988) rotate(0 21.552734375 11.5)"><text x="0" y="0" font-family="Helvetica, Segoe UI Emoji" font-size="20px" fill="#ffffff" text-anchor="start" style="white-space: pre;" direction="ltr" dominant-baseline="text-before-edge">"bar"</text></g><g transform="translate(645.3354219069239 78.12451362609863) rotate(0 23.22265625 11.5)"><text x="0" y="0" font-family="Helvetica, Segoe UI Emoji" font-size="20px" fill="#ffffff" text-anchor="start" style="white-space: pre;" direction="ltr" dominant-baseline="text-before-edge">"baz"</text></g><g stroke-linecap="round" transform="translate(59.705902099609375 45.91496276855469) rotate(0 63.96907043457031 69.39996337890625)"><path d="M0 0 C51.78 0.9, 101.72 0.91, 127.94 0 M0 0 C50.28 0.35, 101.78 -0.52, 127.94 0 M127.94 0 C127.94 36.03, 125.6 70.79, 127.94 138.8 M127.94 0 C126.83 42.16, 128.08 82.65, 127.94 138.8 M127.94 138.8 C93.72 137.91, 62.12 140.55, 0 138.8 M127.94 138.8 C99.55 138.52, 70.34 137.85, 0 138.8 M0 138.8 C-0.03 100.16, 1.23 58.97, 0 0 M0 138.8 C0.29 85.92, -0.56 33.98, 0 0" stroke="#1864ab" stroke-width="1" fill="none"></path></g><g stroke-linecap="round"><g transform="translate(62.7540283203125 98.12037658691406) rotate(0 63.536376953125 0.3572540283203125)"><path d="M0.66 1.07 C21.92 1.2, 106.59 1.89, 127.74 1.87 M-0.45 0.59 C20.69 0.93, 105.89 0.06, 127.14 0.35" stroke="#1864ab" stroke-width="1" fill="none"></path></g></g><mask></mask><g stroke-linecap="round"><g transform="translate(56.16583251953125 142.18832397460938) rotate(0 63.536376953125 0.3572540283203125)"><path d="M0.67 1.15 C21.82 1.12, 106.57 0.88, 127.57 0.92 M-0.44 0.71 C20.54 0.81, 105.87 -0.88, 126.88 -1.1" stroke="#1864ab" stroke-width="1" fill="none"></path></g></g><mask></mask><g transform="translate(61.06280517578125 10) rotate(0 30.009765625 11.5)"><text x="0" y="0" font-family="Helvetica, Segoe UI Emoji" font-size="20px" fill="#1864ab" text-anchor="start" style="white-space: pre;" direction="ltr" dominant-baseline="text-before-edge">[]string</text></g><g transform="translate(16 110.60139465332031) rotate(0 13.3447265625 11.5)"><text x="0" y="0" font-family="Helvetica, Segoe UI Emoji" font-size="20px" fill="#1864ab" text-anchor="start" style="white-space: pre;" direction="ltr" dominant-baseline="text-before-edge">len</text></g><g transform="translate(10 156.1714630126953) rotate(0 16.123046875 11.5)"><text x="0" y="0" font-family="Helvetica, Segoe UI Emoji" font-size="20px" fill="#1864ab" text-anchor="start" style="white-space: pre;" direction="ltr" dominant-baseline="text-before-edge">cap</text></g><g transform="translate(19 60.41297912597656) rotate(0 11.669921875 11.5)"><text x="0" y="0" font-family="Helvetica, Segoe UI Emoji" font-size="20px" fill="#1864ab" text-anchor="start" style="white-space: pre;" direction="ltr" dominant-baseline="text-before-edge">ptr</text></g><g transform="translate(111.36065673828125 108.27503967285156) rotate(0 5.5615234375 11.5)"><text x="0" y="0" font-family="Helvetica, Segoe UI Emoji" font-size="20px" fill="#1864ab" text-anchor="start" style="white-space: pre;" direction="ltr" dominant-baseline="text-before-edge">1</text></g><g transform="translate(109.53012084960938 152.0857391357422) rotate(0 5.5615234375 11.5)"><text x="0" y="0" font-family="Helvetica, Segoe UI Emoji" font-size="20px" fill="#1864ab" text-anchor="start" style="white-space: pre;" direction="ltr" dominant-baseline="text-before-edge">1</text></g><g stroke-linecap="round" transform="translate(244.27102981708015 56.59178924560547) rotate(0 40.96307373046875 33.96922302246094)"><path d="M0 0 C28.2 -1.03, 58.92 -0.95, 81.93 0 M0 0 C24.36 0, 50.91 -0.18, 81.93 0 M81.93 0 C80.2 14.75, 80.51 29.84, 81.93 67.94 M81.93 0 C81.63 19.96, 80.9 39.11, 81.93 67.94 M81.93 67.94 C65.44 69.31, 48.8 69.73, 0 67.94 M81.93 67.94 C54.48 67.13, 27.25 68.02, 0 67.94 M0 67.94 C-0.1 44.38, 0.91 20.89, 0 0 M0 67.94 C-0.17 44.03, 0.25 18.91, 0 0" stroke="#000000" stroke-width="1" fill="none"></path></g><g transform="translate(264.2331269850489 79.0610122680664) rotate(0 21.0009765625 11.5)"><text x="21.0009765625" y="0" font-family="Helvetica, Segoe UI Emoji" font-size="20px" fill="#1e1e1e" text-anchor="middle" style="white-space: pre;" direction="ltr" dominant-baseline="text-before-edge">"foo"</text></g><g transform="translate(243.08154617450202 17.636207580566406) rotate(0 35.5712890625 11.5)"><text x="0" y="0" font-family="Helvetica, Segoe UI Emoji" font-size="20px" fill="#000000" text-anchor="start" style="white-space: pre;" direction="ltr" dominant-baseline="text-before-edge">[1]string</text></g><g stroke-linecap="round" transform="translate(236.38089309833015 46.21698760986328) rotate(0 48.8203125 43.36437988281251)"><path d="M0 0 C19.73 1.15, 44.83 0.2, 97.64 0 M97.64 0 C97.79 28.72, 98.39 61.62, 97.64 86.73 M97.64 86.73 C75.2 86.64, 55.16 85.57, 0 86.73 M0 86.73 C-0.38 64.2, -1.09 40.26, 0 0" stroke="#1864ab" stroke-width="2.5" fill="none" stroke-dasharray="8 10"></path></g><g stroke-linecap="round"><g transform="translate(137.97613845965827 74.57599639892578) rotate(0 49.335296630859375 1.4799346923828125)"><path d="M1 0.12 C17.26 0.62, 82.51 1.48, 98.75 2.13 M0.06 -0.87 C16.07 -0.16, 81.6 2.71, 97.84 3.23" stroke="#1971c2" stroke-width="1" fill="none"></path></g><g transform="translate(137.97613845965827 74.57599639892578) rotate(0 49.335296630859375 1.4799346923828125)"><path d="M74.03 10.86 C83.79 7.75, 91.71 4.14, 97.84 3.23 M74.03 10.86 C82.86 7.19, 92.23 3.95, 97.84 3.23" stroke="#1971c2" stroke-width="1" fill="none"></path></g><g transform="translate(137.97613845965827 74.57599639892578) rotate(0 49.335296630859375 1.4799346923828125)"><path d="M74.7 -6.22 C84.06 -2.51, 91.72 0.7, 97.84 3.23 M74.7 -6.22 C83.11 -3.23, 92.22 0.19, 97.84 3.23" stroke="#1971c2" stroke-width="1" fill="none"></path></g></g><mask></mask></svg>