<svg version="1.1" xmlns="http://www.w3.org/2000/svg" viewBox="0 0 614.3285522460938 194.7148895263672" width="1228.6571044921875" height="389.4297790527344">
  <!-- svg-source:excalidraw -->
  
  <defs>
    <style>
      @font-face {
        font-family: "Virgil";
        src: url("https://excalidraw.com/Virgil.woff2");
      }
      @font-face {
        font-family: "Cascadia";
        src: url("https://excalidraw.com/Cascadia.woff2");
      }
    </style>
  </defs>
  <g stroke-linecap="round" transform="translate(299.08837890625 85.2116928100586) rotate(0 152.62008666992188 33.96922302246094)"><path d="M1 0.91 C103.59 -3.18, 203.95 -1.25, 306.12 -0.79 M-0.58 0.08 C76.89 2.14, 154.65 1.34, 304.74 0.59 M306.7 0.04 C304.78 16.54, 303.79 33.16, 303.7 68.38 M305.73 -0.12 C306 23.25, 305.81 46.87, 304.52 67.69 M304.67 68.74 C208.5 68.79, 108.85 66.73, 0.23 68.21 M305.74 67.36 C202.21 66.35, 99.33 66.06, 0.31 67.62 M-0.1 67.59 C-0.07 43.1, 0.7 18.87, -0.17 -1.97 M-0.21 67.46 C0.15 46.68, 0.25 25.39, -0.47 0.64" stroke="#000000" stroke-width="1" fill="none"></path></g><g stroke-linecap="round"><g transform="translate(396.22528076171875 85.9852523803711) rotate(0 -0.8311334832811781 33.217316714720795)"><path d="M-0.07 0.26 C-0.13 11.5, -0.51 55.97, -0.59 67.08 M-1.57 -0.65 C-1.7 10.24, -1.27 53.64, -1.17 65.14" stroke="#000000" stroke-width="1" fill="none"></path></g></g><g stroke-linecap="round"><g transform="translate(508.0439453125 85.80977630615234) rotate(0 -1.063780157212193 33.5530397563614)"><path d="M0.47 -0.61 C0.37 10.59, -1.29 55.15, -1.53 66.38 M-0.74 1.68 C-0.95 13.13, -2.46 56.65, -2.6 67.72" stroke="#000000" stroke-width="1" fill="none"></path></g></g><g transform="translate(337.32037353515625 109.84626960754395) rotate(0 7.5 11.5)"><text x="0" y="19" font-family="Helvetica, Segoe UI Emoji" font-size="20px" fill="#000000" text-anchor="start" style="white-space: pre;" direction="ltr">""</text></g><g stroke-linecap="round" transform="translate(282.4759521484375 73.14604949951172) rotate(0 6.33612060546875 47.3192138671875)"><path d="M-0.19 -0.41 C3.23 0.05, 4.68 1.12, 12.27 0.61 M11.21 1.89 C11.96 18.9, 14.92 42.25, 12.24 95.2 M12.65 94.99 C8.13 93.68, 4.22 94.53, -1.06 93.71 M-0.14 95.14 C2.2 70.43, 0.82 48.27, -0.36 -0.99" stroke="#1864ab" stroke-width="2.5" fill="none" stroke-dasharray="8 10"></path></g><g transform="translate(297.36846923828125 41.19635772705078) rotate(0 36 11.5)"><text x="0" y="19" font-family="Helvetica, Segoe UI Emoji" font-size="20px" fill="#000000" text-anchor="start" style="white-space: pre;" direction="ltr">[3]string</text></g><g stroke-linecap="round" transform="translate(59.705902099609375 45.91496276855469) rotate(0 63.96907043457031 69.39996337890625)"><path d="M1.99 0.92 C26.63 -1.9, 54.6 -0.13, 128.87 1.77 M0.87 0.89 C43.44 0.31, 86.02 0.07, 128.5 0.27 M127.55 -0.81 C130.92 52.61, 128.74 104.64, 126.57 140.38 M128.41 0.59 C127.68 33.07, 128.38 65.1, 127.32 139.01 M129.24 139.73 C91.39 139.22, 56.85 140.02, -0.57 140.67 M127.15 139.28 C92.38 138.43, 56.92 139.32, 0.62 138.16 M0.87 137.82 C-2.8 101.79, 0.83 63.34, 0.11 -0.52 M0.73 139.25 C-0.24 85.59, 0.3 31.15, -0.33 0.19" stroke="#1864ab" stroke-width="1" fill="none"></path></g><g stroke-linecap="round"><g transform="translate(62.7540283203125 98.12037658691406) rotate(0 64.2279666329734 -0.03356744182818261)"><path d="M0.82 0.56 C21.88 0.57, 105.33 1.09, 126.33 0.96 M-0.2 -0.19 C21.24 -0.64, 107.64 -1.16, 128.66 -1.03" stroke="#1864ab" stroke-width="1" fill="none"></path></g></g><g stroke-linecap="round"><g transform="translate(56.16583251953119 142.18832397460938) rotate(0 63.47637599183247 0.03134256918914957)"><path d="M0.15 0.03 C21.1 0.35, 104.95 1.02, 126.02 1.13 M-1.23 -1 C20.06 -0.97, 107.04 -1.28, 128.18 -0.78" stroke="#1864ab" stroke-width="1" fill="none"></path></g></g><g transform="translate(61.06280517578125 10) rotate(0 30.5 11.5)"><text x="0" y="19" font-family="Helvetica, Segoe UI Emoji" font-size="20px" fill="#1864ab" text-anchor="start" style="white-space: pre;" direction="ltr">[]string</text></g><g transform="translate(16 110.60139465332031) rotate(0 14 11.5)"><text x="0" y="19" font-family="Helvetica, Segoe UI Emoji" font-size="20px" fill="#1864ab" text-anchor="start" style="white-space: pre;" direction="ltr">len</text></g><g transform="translate(10 156.1714630126953) rotate(0 17 11.5)"><text x="0" y="19" font-family="Helvetica, Segoe UI Emoji" font-size="20px" fill="#1864ab" text-anchor="start" style="white-space: pre;" direction="ltr">cap</text></g><g transform="translate(19 60.41297912597656) rotate(0 12.5 11.5)"><text x="0" y="19" font-family="Helvetica, Segoe UI Emoji" font-size="20px" fill="#1864ab" text-anchor="start" style="white-space: pre;" direction="ltr">ptr</text></g><g transform="translate(111.36065673828125 108.27503967285156) rotate(0 6 11.5)"><text x="0" y="19" font-family="Helvetica, Segoe UI Emoji" font-size="20px" fill="#1864ab" text-anchor="start" style="white-space: pre;" direction="ltr">0</text></g><g transform="translate(109.53012084960938 152.0857391357422) rotate(0 6 11.5)"><text x="0" y="19" font-family="Helvetica, Segoe UI Emoji" font-size="20px" fill="#1864ab" text-anchor="start" style="white-space: pre;" direction="ltr">3</text></g><g stroke-linecap="round"><g transform="translate(146.47232055664062 72.1209831237793) rotate(0 66.92888059352526 9.113687760252503)"><path d="M0.77 -1.02 C23.03 1.86, 112.06 14.89, 134.14 18.1 M-0.28 1.06 C21.84 4, 111.48 16.21, 133.6 19.24" stroke="#1864ab" stroke-width="1" fill="none"></path></g><g transform="translate(146.47232055664062 72.1209831237793) rotate(0 66.92888059352526 9.113687760252503)"><path d="M102.58 26.89 C113.18 23.04, 123.66 19.67, 132.06 17.27 M103.58 25.49 C114.82 23.31, 125.53 22.1, 134.34 19.16" stroke="#1864ab" stroke-width="1" fill="none"></path></g><g transform="translate(146.47232055664062 72.1209831237793) rotate(0 66.92888059352526 9.113687760252503)"><path d="M105.36 6.56 C115.14 9.81, 124.65 13.52, 132.06 17.27 M106.35 5.16 C116.44 10.03, 126.18 15.91, 134.34 19.16" stroke="#1864ab" stroke-width="1" fill="none"></path></g></g><g transform="translate(444.9659423828125 109.84626960754395) rotate(0 7.5 11.5)"><text x="0" y="19" font-family="Helvetica, Segoe UI Emoji" font-size="20px" fill="#000000" text-anchor="start" style="white-space: pre;" direction="ltr">""</text></g><g transform="translate(542.61669921875 109.84626960754395) rotate(0 7.5 11.5)"><text x="0" y="19" font-family="Helvetica, Segoe UI Emoji" font-size="20px" fill="#000000" text-anchor="start" style="white-space: pre;" direction="ltr">""</text></g></svg>