<svg version="1.1" xmlns="http://www.w3.org/2000/svg" viewBox="0 0 614.3285522460938 194.7148895263672" width="1228.6571044921875" height="389.4297790527344">
  <!-- svg-source:excalidraw -->
  
  <defs>
    <style class="style-fonts">
      @font-face {
        font-family: "Virgil";
        src: url("https://excalidraw.com/Virgil.woff2");
      }
      @font-face {
        font-family: "Cascadia";
        src: url("https://excalidraw.com/Cascadia.woff2");
      }
      @font-face {
        font-family: "Assistant";
        src: url("https://excalidraw.com/Assistant-Regular.woff2");
      }
    </style>
    
  </defs>
  <rect x="0" y="0" width="614.3285522460938" height="194.7148895263672" fill="#ffffff"></rect><g stroke-linecap="round" transform="translate(299.08837890625 85.2116928100586) rotate(0 152.62008666992188 33.96922302246094)"><path d="M0 0 C103.61 -1.05, 206.2 -3.18, 305.24 0 M0 0 C64.47 -1.68, 129.08 -1.89, 305.24 0 M305.24 0 C306.6 15.27, 304.39 28.57, 305.24 67.94 M305.24 0 C304.95 26.66, 304.79 51.66, 305.24 67.94 M305.24 67.94 C199.41 70.25, 96.41 71.2, 0 67.94 M305.24 67.94 C193.24 67.71, 80.98 68.01, 0 67.94 M0 67.94 C2.05 52.51, -0.62 38.05, 0 0 M0 67.94 C-1.25 41.23, -0.18 14.57, 0 0" stroke="#000000" stroke-width="1" fill="none"></path></g><g stroke-linecap="round"><g transform="translate(396.22528076171875 85.9852523803711) rotate(0 -0.64581298828125 33.376251220703125)"><path d="M-0.07 0.26 C-0.13 11.5, -0.51 55.97, -0.59 67.08 M-1.57 -0.65 C-1.7 10.24, -1.27 53.64, -1.17 65.14" stroke="#000000" stroke-width="1" fill="none"></path></g></g><mask></mask><g stroke-linecap="round"><g transform="translate(508.0439453125 85.80977630615234) rotate(0 -0.64581298828125 33.376251220703125)"><path d="M0.47 -0.61 C0.37 10.59, -1.29 55.15, -1.53 66.38 M-0.74 1.68 C-0.95 13.13, -2.46 56.65, -2.6 67.72" stroke="#000000" stroke-width="1" fill="none"></path></g></g><mask></mask><g transform="translate(325.759765625 109.1068286895752) rotate(0 21.5 11.5)"><text x="0" y="0" font-family="Helvetica, Segoe UI Emoji" font-size="20px" fill="#000000" text-anchor="start" style="white-space: pre;" direction="ltr" dominant-baseline="text-before-edge">"foo"</text></g><g stroke-linecap="round" transform="translate(389.53271484375 73.14604949951172) rotate(0 61.3978271484375 47.3192138671875)"><path d="M0 0 C24.81 0.14, 51.23 0.73, 122.8 0 M122.8 0 C124.54 22.95, 125.56 48.8, 122.8 94.64 M122.8 94.64 C93.4 94.93, 68.45 93.2, 0 94.64 M0 94.64 C-0.5 63.54, 0.64 31.17, 0 0" stroke="#1864ab" stroke-width="2.5" fill="none" stroke-dasharray="8 10"></path></g><g transform="translate(297.36846923828125 41.19635772705078) rotate(0 36 11.5)"><text x="0" y="0" font-family="Helvetica, Segoe UI Emoji" font-size="20px" fill="#000000" text-anchor="start" style="white-space: pre;" direction="ltr" dominant-baseline="text-before-edge">[3]string</text></g><g stroke-linecap="round" transform="translate(59.705902099609375 45.91496276855469) rotate(0 63.96907043457031 69.39996337890625)"><path d="M0 0 C28.71 0.7, 53.35 -1.9, 127.94 0 M0 0 C46.74 -0.22, 91.54 -0.22, 127.94 0 M127.94 0 C130.78 52.64, 130.3 108.62, 127.94 138.8 M127.94 0 C129.89 45.25, 128.52 91.83, 127.94 138.8 M127.94 138.8 C81.25 141.39, 35.95 139.47, 0 138.8 M127.94 138.8 C87.17 140.32, 47.12 140.03, 0 138.8 M0 138.8 C-1.84 105.52, 1.02 73.52, 0 0 M0 138.8 C0.3 102.69, 0.57 66.93, 0 0" stroke="#1864ab" stroke-width="1" fill="none"></path></g><g stroke-linecap="round"><g transform="translate(62.7540283203125 98.12037658691406) rotate(0 63.536376953125 0.3572540283203125)"><path d="M0.82 0.56 C21.88 0.57, 105.33 1.09, 126.33 0.96 M-0.2 -0.19 C21.24 -0.64, 107.64 -1.16, 128.66 -1.03" stroke="#1864ab" stroke-width="1" fill="none"></path></g></g><mask></mask><g stroke-linecap="round"><g transform="translate(56.16583251953119 142.18832397460938) rotate(0 63.536376953125 0.3572540283203125)"><path d="M0.15 0.03 C21.1 0.35, 104.95 1.02, 126.02 1.13 M-1.23 -1 C20.06 -0.97, 107.04 -1.28, 128.18 -0.78" stroke="#1864ab" stroke-width="1" fill="none"></path></g></g><mask></mask><g transform="translate(61.06280517578125 10) rotate(0 30.5 11.5)"><text x="0" y="0" font-family="Helvetica, Segoe UI Emoji" font-size="20px" fill="#1864ab" text-anchor="start" style="white-space: pre;" direction="ltr" dominant-baseline="text-before-edge">[]string</text></g><g transform="translate(16 110.60139465332031) rotate(0 14 11.5)"><text x="0" y="0" font-family="Helvetica, Segoe UI Emoji" font-size="20px" fill="#1864ab" text-anchor="start" style="white-space: pre;" direction="ltr" dominant-baseline="text-before-edge">len</text></g><g transform="translate(10 156.1714630126953) rotate(0 17 11.5)"><text x="0" y="0" font-family="Helvetica, Segoe UI Emoji" font-size="20px" fill="#1864ab" text-anchor="start" style="white-space: pre;" direction="ltr" dominant-baseline="text-before-edge">cap</text></g><g transform="translate(19 60.41297912597656) rotate(0 12.5 11.5)"><text x="0" y="0" font-family="Helvetica, Segoe UI Emoji" font-size="20px" fill="#1864ab" text-anchor="start" style="white-space: pre;" direction="ltr" dominant-baseline="text-before-edge">ptr</text></g><g transform="translate(111.36065673828125 108.27503967285156) rotate(0 5.5615234375 11.5)"><text x="0" y="0" font-family="Helvetica, Segoe UI Emoji" font-size="20px" fill="#1864ab" text-anchor="start" style="white-space: pre;" direction="ltr" dominant-baseline="text-before-edge">1</text></g><g transform="translate(109.53012084960938 152.0857391357422) rotate(0 5.5615234375 11.5)"><text x="0" y="0" font-family="Helvetica, Segoe UI Emoji" font-size="20px" fill="#1864ab" text-anchor="start" style="white-space: pre;" direction="ltr" dominant-baseline="text-before-edge">2</text></g><g stroke-linecap="round"><g transform="translate(146.47232055664062 72.1209831237793) rotate(0 113.43171848229156 4.338880518246029)"><path d="M0.77 -1.02 C38.62 0.16, 189.97 6.4, 227.64 7.92 M-0.28 1.06 C37.42 2.3, 189.39 7.72, 227.1 9.06" stroke="#1864ab" stroke-width="1" fill="none"></path></g><g transform="translate(146.47232055664062 72.1209831237793) rotate(0 113.43171848229156 4.338880518246029)"><path d="M198.56 18.31 C206.74 16.2, 217.11 11.53, 227.1 9.06 M198.56 18.31 C204.78 16.7, 211.94 13.07, 227.1 9.06" stroke="#1864ab" stroke-width="1" fill="none"></path></g><g transform="translate(146.47232055664062 72.1209831237793) rotate(0 113.43171848229156 4.338880518246029)"><path d="M199.29 -2.2 C207.36 2.84, 217.48 5.31, 227.1 9.06 M199.29 -2.2 C205.19 1.32, 212.17 2.82, 227.1 9.06" stroke="#1864ab" stroke-width="1" fill="none"></path></g></g><mask></mask><g transform="translate(429.28118896484375 109.1068286895752) rotate(0 22 11.5)"><text x="0" y="0" font-family="Helvetica, Segoe UI Emoji" font-size="20px" fill="#000000" text-anchor="start" style="white-space: pre;" direction="ltr" dominant-baseline="text-before-edge">"bar"</text></g><g transform="translate(531.313720703125 109.1068286895752) rotate(0 24 11.5)"><text x="0" y="0" font-family="Helvetica, Segoe UI Emoji" font-size="20px" fill="#000000" text-anchor="start" style="white-space: pre;" direction="ltr" dominant-baseline="text-before-edge">"baz"</text></g></svg>