<svg version="1.1" xmlns="http://www.w3.org/2000/svg" viewBox="0 0 828.9654541015625 233.24934035949408" width="1657.930908203125" height="466.49868071898817">
  <!-- svg-source:excalidraw -->
  
  <defs>
    <style>
      @font-face {
        font-family: "Virgil";
        src: url("https://excalidraw.com/Virgil.woff2");
      }
      @font-face {
        font-family: "Cascadia";
        src: url("https://excalidraw.com/Cascadia.woff2");
      }
    </style>
  </defs>
  <g stroke-linecap="round" transform="translate(513.7252807617188 111.88621932677924) rotate(0 152.62008666992188 33.96922302246094)"><path d="M1 0.91 C103.59 -3.18, 203.95 -1.25, 306.12 -0.79 M-0.58 0.08 C76.89 2.14, 154.65 1.34, 304.74 0.59 M306.7 0.04 C304.78 16.54, 303.79 33.16, 303.7 68.38 M305.73 -0.12 C306 23.25, 305.81 46.87, 304.52 67.69 M304.67 68.74 C208.5 68.79, 108.85 66.73, 0.23 68.21 M305.74 67.36 C202.21 66.35, 99.33 66.06, 0.31 67.62 M-0.1 67.59 C-0.07 43.1, 0.7 18.87, -0.17 -1.97 M-0.21 67.46 C0.15 46.68, 0.25 25.39, -0.47 0.64" stroke="#000000" stroke-width="1" fill="none"></path></g><g stroke-linecap="round"><g transform="translate(610.8621826171875 112.65977889709174) rotate(0 -0.8311334832811781 33.217316714720795)"><path d="M-0.07 0.26 C-0.13 11.5, -0.51 55.97, -0.59 67.08 M-1.57 -0.65 C-1.7 10.24, -1.27 53.64, -1.17 65.14" stroke="#000000" stroke-width="1" fill="none"></path></g></g><g stroke-linecap="round"><g transform="translate(722.6808471679688 112.48430282287299) rotate(0 -1.063780157212193 33.5530397563614)"><path d="M0.47 -0.61 C0.37 10.59, -1.29 55.15, -1.53 66.38 M-0.74 1.68 C-0.95 13.13, -2.46 56.65, -2.6 67.72" stroke="#000000" stroke-width="1" fill="none"></path></g></g><g transform="translate(536.957275390625 135.00307113341987) rotate(0 21.5 11.5)"><text x="0" y="19" font-family="Helvetica, Segoe UI Emoji" font-size="20px" fill="#000000" text-anchor="start" style="white-space: pre;" direction="ltr">"foo"</text></g><g transform="translate(639.418212890625 135.00307113341987) rotate(0 22 11.5)"><text x="0" y="19" font-family="Helvetica, Segoe UI Emoji" font-size="20px" fill="#000000" text-anchor="start" style="white-space: pre;" direction="ltr">"bar"</text></g><g transform="translate(747.1275024414062 135.00307113341987) rotate(0 24 11.5)"><text x="0" y="19" font-family="Helvetica, Segoe UI Emoji" font-size="20px" fill="#000000" text-anchor="start" style="white-space: pre;" direction="ltr">"baz"</text></g><g stroke-linecap="round" transform="translate(506.75897216796875 99.82057601623237) rotate(0 110.26513671875 47.3192138671875)"><path d="M-0.26 -0.56 C45.97 1.17, 89.51 2.64, 219.98 0.84 M219.07 1.89 C219.82 18.9, 222.78 42.25, 220.1 95.2 M220.49 95.12 C155.14 92.82, 90.62 93.98, -1.45 93.37 M-0.14 95.14 C2.2 70.43, 0.82 48.27, -0.36 -0.99" stroke="#d9480f" stroke-width="2.5" fill="none" stroke-dasharray="8 10"></path></g><g transform="translate(512.00537109375 67.87088424377143) rotate(0 36 11.5)"><text x="0" y="19" font-family="Helvetica, Segoe UI Emoji" font-size="20px" fill="#000000" text-anchor="start" style="white-space: pre;" direction="ltr">[3]string</text></g><g stroke-linecap="round" transform="translate(601.5401611328125 93.67984420470893) rotate(0 66.042724609375 54.861305236816406)"><path d="M1.36 1.04 C31.16 0.75, 65.03 -0.16, 131.38 -0.26 M132.28 0.27 C134.52 38.79, 133.34 82.12, 130.79 109.46 M130.96 110.65 C100.64 110.43, 68.02 111.44, -1.5 110.9 M0.6 109.4 C-2.86 87.58, -0.24 64.75, 0.99 -1.8" stroke="#087f5b" stroke-width="2.5" fill="none" stroke-dasharray="8 10"></path></g><g stroke-linecap="round"><g transform="translate(354.491995260492 110.43168096616861) rotate(0 123.70253534517246 52.38194324948765)"><path d="M1 0.12 C13.05 1.26, 54.92 -11.65, 73.02 6.31 C91.12 24.27, 80.56 100.37, 109.61 107.88 C138.66 115.39, 224.41 60.88, 247.33 51.37 M0.07 -0.86 C12.41 -0.02, 57.03 -13.72, 75.16 4.62 C93.28 22.95, 80.14 101.14, 108.82 109.13 C137.5 117.12, 223.89 62.25, 247.23 52.56" stroke="#087f5b" stroke-width="1" fill="none"></path></g><g transform="translate(354.491995260492 110.43168096616861) rotate(0 123.70253534517246 52.38194324948765)"><path d="M227.11 72.8 C235.68 66.43, 241.43 57.43, 247.48 51.07 M226.09 75.46 C231.5 68.21, 237.1 63.26, 246.71 52.33" stroke="#087f5b" stroke-width="1" fill="none"></path></g><g transform="translate(354.491995260492 110.43168096616861) rotate(0 123.70253534517246 52.38194324948765)"><path d="M217.68 54.58 C229.57 54.69, 238.72 52.26, 247.48 51.07 M216.65 57.24 C224.63 54.85, 232.74 54.74, 246.71 52.33" stroke="#087f5b" stroke-width="1" fill="none"></path></g></g><g stroke-linecap="round" transform="translate(285.0809020996094 84.44941360168158) rotate(0 63.96907043457031 69.39996337890625)"><path d="M-0.7 1.89 C28.38 2.05, 62.33 -0.91, 127.26 0.23 M0.21 0.13 C27.94 0.95, 55.91 1.26, 128.76 -0.42 M126.61 1.03 C129.62 31.28, 127.45 65.94, 127.04 139.37 M128.48 -0.74 C125.9 34.21, 127.27 68.8, 127.89 138.67 M127.8 140.15 C80.51 139.69, 36.12 141.71, 0.09 137.98 M128.66 139.69 C87.09 138.73, 46.62 139.72, -0.58 138.78 M-0.26 137.98 C-0.23 101.86, -1.82 62.87, 0.56 -1.43 M0.31 138.14 C1.14 104.08, 1.03 68.23, 0.57 0.87" stroke="#087f5b" stroke-width="1" fill="none"></path></g><g stroke-linecap="round"><g transform="translate(288.1290283203125 136.65482742004096) rotate(0 63.80334455291742 0.49124190511591337)"><path d="M-0.42 1.13 C20.39 1.52, 104.5 1.58, 125.92 1.31 M1.56 0.68 C22.63 0.8, 106.97 -0.42, 128.03 -0.49" stroke="#087f5b" stroke-width="1" fill="none"></path></g></g><g stroke-linecap="round"><g transform="translate(281.54083251953125 180.72277480773627) rotate(0 63.971381255891174 0.29537239409984295)"><path d="M1.13 -1.15 C22.58 -0.79, 106.88 1.5, 127.67 1.74 M0.27 0.86 C21.69 0.94, 105.72 0.07, 127.04 0.16" stroke="#087f5b" stroke-width="1" fill="none"></path></g></g><g transform="translate(286.43780517578125 48.5344508331269) rotate(0 30.5 11.5)"><text x="0" y="19" font-family="Helvetica, Segoe UI Emoji" font-size="20px" fill="#087f5b" text-anchor="start" style="white-space: pre;" direction="ltr">[]string</text></g><g transform="translate(241.375 149.1358454864472) rotate(0 14 11.5)"><text x="0" y="19" font-family="Helvetica, Segoe UI Emoji" font-size="20px" fill="#087f5b" text-anchor="start" style="white-space: pre;" direction="ltr">len</text></g><g transform="translate(235.375 194.7059138458222) rotate(0 17 11.5)"><text x="0" y="19" font-family="Helvetica, Segoe UI Emoji" font-size="20px" fill="#087f5b" text-anchor="start" style="white-space: pre;" direction="ltr">cap</text></g><g transform="translate(244.375 98.94742995910346) rotate(0 12.5 11.5)"><text x="0" y="19" font-family="Helvetica, Segoe UI Emoji" font-size="20px" fill="#087f5b" text-anchor="start" style="white-space: pre;" direction="ltr">ptr</text></g><g transform="translate(339.92816162109375 150.37035018615424) rotate(0 6 11.5)"><text x="0" y="19" font-family="Helvetica, Segoe UI Emoji" font-size="20px" fill="#087f5b" text-anchor="start" style="white-space: pre;" direction="ltr">1</text></g><g transform="translate(339.9940185546875 191.429127041623) rotate(0 6 11.5)"><text x="0" y="19" font-family="Helvetica, Segoe UI Emoji" font-size="20px" fill="#087f5b" text-anchor="start" style="white-space: pre;" direction="ltr">2</text></g><g stroke-linecap="round" transform="translate(59.705902099609375 84.44941360168158) rotate(0 63.96907043457031 69.39996337890625)"><path d="M1.99 0.92 C26.63 -1.9, 54.6 -0.13, 128.87 1.77 M0.87 0.89 C43.44 0.31, 86.02 0.07, 128.5 0.27 M127.55 -0.81 C130.92 52.61, 128.74 104.64, 126.57 140.38 M128.41 0.59 C127.68 33.07, 128.38 65.1, 127.32 139.01 M129.24 139.73 C91.39 139.22, 56.85 140.02, -0.57 140.67 M127.15 139.28 C92.38 138.43, 56.92 139.32, 0.62 138.16 M0.87 137.82 C-2.8 101.79, 0.83 63.34, 0.11 -0.52 M0.73 139.25 C-0.24 85.59, 0.3 31.15, -0.33 0.19" stroke="#d9480f" stroke-width="1" fill="none"></path></g><g stroke-linecap="round"><g transform="translate(62.7540283203125 136.65482742004096) rotate(0 64.2279666329734 -0.03356744182818261)"><path d="M0.82 0.56 C21.88 0.57, 105.33 1.09, 126.33 0.96 M-0.2 -0.19 C21.24 -0.64, 107.64 -1.16, 128.66 -1.03" stroke="#d9480f" stroke-width="1" fill="none"></path></g></g><g stroke-linecap="round"><g transform="translate(56.16583251953119 180.72277480773627) rotate(0 63.47637599183247 0.03134256918914957)"><path d="M0.15 0.03 C21.1 0.35, 104.95 1.02, 126.02 1.13 M-1.23 -1 C20.06 -0.97, 107.04 -1.28, 128.18 -0.78" stroke="#d9480f" stroke-width="1" fill="none"></path></g></g><g transform="translate(61.06280517578125 48.5344508331269) rotate(0 30.5 11.5)"><text x="0" y="19" font-family="Helvetica, Segoe UI Emoji" font-size="20px" fill="#d9480f" text-anchor="start" style="white-space: pre;" direction="ltr">[]string</text></g><g transform="translate(16 149.1358454864472) rotate(0 14 11.5)"><text x="0" y="19" font-family="Helvetica, Segoe UI Emoji" font-size="20px" fill="#d9480f" text-anchor="start" style="white-space: pre;" direction="ltr">len</text></g><g transform="translate(10 194.7059138458222) rotate(0 17 11.5)"><text x="0" y="19" font-family="Helvetica, Segoe UI Emoji" font-size="20px" fill="#d9480f" text-anchor="start" style="white-space: pre;" direction="ltr">cap</text></g><g transform="translate(19 98.94742995910346) rotate(0 12.5 11.5)"><text x="0" y="19" font-family="Helvetica, Segoe UI Emoji" font-size="20px" fill="#d9480f" text-anchor="start" style="white-space: pre;" direction="ltr">ptr</text></g><g transform="translate(111.36065673828125 146.80949050597846) rotate(0 6 11.5)"><text x="0" y="19" font-family="Helvetica, Segoe UI Emoji" font-size="20px" fill="#d9480f" text-anchor="start" style="white-space: pre;" direction="ltr">2</text></g><g transform="translate(109.53012084960938 190.62018996886908) rotate(0 6 11.5)"><text x="0" y="19" font-family="Helvetica, Segoe UI Emoji" font-size="20px" fill="#c92a2a" text-anchor="start" style="white-space: pre;" direction="ltr">3</text></g><g stroke-linecap="round"><g transform="translate(123.19345092773438 109.92475158385932) rotate(0 191.10745759882033 -34.66384014897048)"><path d="M1.09 -0.14 C34.49 -16.99, 138.03 -105.05, 201.11 -99.92 C264.19 -94.8, 349.86 9, 379.58 30.6 M0.2 -1.26 C33.45 -17.39, 136.95 -103.3, 200.59 -98.31 C264.22 -93.32, 352.26 7.21, 382.02 28.7" stroke="#c92a2a" stroke-width="1" fill="none"></path></g><g transform="translate(123.19345092773438 109.92475158385932) rotate(0 191.10745759882033 -34.66384014897048)"><path d="M353.92 18.92 C364.49 19.88, 375.64 23.58, 381.83 27.49 M354.71 18.51 C360.64 19.62, 366.09 22.57, 381.75 27.98" stroke="#c92a2a" stroke-width="1" fill="none"></path></g><g transform="translate(123.19345092773438 109.92475158385932) rotate(0 191.10745759882033 -34.66384014897048)"><path d="M367.59 3.62 C373.42 10.17, 379.68 19.36, 381.83 27.49 M368.38 3.2 C371.67 7.26, 374.38 13.26, 381.75 27.98" stroke="#c92a2a" stroke-width="1" fill="none"></path></g></g></svg>